<svg width="1012" height="1306" viewBox="0 0 1012 1306" fill="none" xmlns="http://www.w3.org/2000/svg">
<g opacity="0.75">
<path fill-rule="evenodd" clip-rule="evenodd" d="M291.22 713.972C295.146 725.249 310.39 734.432 321.542 735.94C344.053 738.985 346.909 736.419 366.007 735.444C370.966 735.191 372.806 734.132 378.412 728.424C393.195 713.373 380.358 713.99 369.659 711.601C363.638 710.257 348.234 715.254 338.34 715.254C327.634 715.254 311.693 712.907 301.824 709.063C296.581 707.021 290.426 711.692 291.22 713.972Z" fill="white"/>
<path d="M612.912 330.735C617.737 327.91 622.106 325.353 626.342 322.872C629.401 328.855 631.899 333.736 634.623 339.061C638.985 332.343 640.809 332.256 646.608 337.664C649.378 340.244 656.01 337.975 657.881 333.623C658.886 331.287 659.424 328.751 660.651 324.757C662.629 327.665 663.958 329.615 665.474 331.84C668.45 325.137 662.723 316.873 654.514 315.531C648.619 314.564 642.54 314.777 636.589 314.061C634.405 313.8 630.633 312.507 630.557 311.465C630.243 307.272 633.624 307.162 637.06 306.59C649.07 304.581 657.155 312.191 666.07 317.778C668.433 319.26 670.304 321.514 672.62 323.09C674.632 324.456 677.726 326.833 678.98 326.174C681.561 324.823 683.228 321.734 684.771 319.94C681.195 317.112 678.884 315.035 676.328 313.327C673.096 311.164 669.746 309.151 666.304 307.347C660.957 304.546 655.565 301.801 650.038 299.391C647.697 298.37 644.872 297.553 642.421 297.856C635.101 298.766 629.855 296.538 627.327 289.878C633.437 288.076 639.679 286.123 645.997 284.467C647.235 284.143 648.77 285.174 650.182 285.227C654.003 285.364 657.895 285.711 661.623 285.122C662.94 284.916 664.799 282.187 664.711 280.71C664.624 279.213 662.599 276.811 661.138 276.577C646.77 274.275 632.372 272.086 617.914 270.509C614.7 270.157 611.14 272.16 607.865 273.406L606.054 274.093V321.913C607.282 321.547 608.556 321.168 609.823 320.92C610.739 323.827 611.812 327.24 612.912 330.735ZM606.054 503.531C608.038 502.776 610.034 502.049 612.032 501.331C622.662 497.507 622.213 492.247 616.131 484.845C613.384 481.501 610.204 478.523 606.054 477.275V503.531ZM1052.31 1074.82C1051.45 1075.2 1050.6 1075.58 1049.75 1075.96C1048.73 1074.28 1047.72 1072.6 1046.71 1070.92C1048.01 1070.53 1050.25 1069.54 1050.45 1069.85C1051.38 1071.31 1051.74 1073.13 1052.31 1074.82ZM764.436 991.822C771.064 992.488 772.604 994.251 770.868 999.557C768.637 996.873 766.769 994.628 764.436 991.822ZM809.912 187.792C810.702 187.485 811.491 187.176 812.28 186.865C813.859 188.72 815.441 190.574 817.022 192.431C816.775 192.931 816.525 193.432 816.277 193.933C814.77 193.624 812.717 193.806 811.884 192.888C810.742 191.627 810.525 189.531 809.912 187.792ZM1159.37 956.066C1160.27 956.234 1161.17 956.399 1162.07 956.567C1161.48 960.346 1160.89 964.127 1160.3 967.909C1159.46 967.793 1158.62 967.678 1157.79 967.562C1158.31 963.73 1158.84 959.898 1159.37 956.066ZM1062.24 1059.76C1058.52 1059.99 1055.34 1060.19 1052.16 1060.38C1051.97 1060.13 1051.79 1059.87 1051.6 1059.62C1054.56 1057.93 1057.53 1056.24 1060.9 1054.32C1061.47 1056.64 1061.86 1058.22 1062.24 1059.76ZM762.184 1231.82C765.444 1232.68 767.828 1233.32 770.216 1233.96C769.622 1234.99 769.273 1236.47 768.381 1236.95C766.929 1237.74 765.124 1237.88 763.397 1238.32C762.992 1236.14 762.72 1234.7 762.184 1231.82ZM1086.95 1060.6C1089.61 1054.82 1091.3 1054.52 1096.32 1059.02C1093.61 1061.52 1091.33 1064.81 1086.95 1060.6ZM833.08 1259.78C831.264 1261.67 830.211 1262.76 829.156 1263.86C827.79 1262.21 825.922 1260.73 825.251 1258.83C824.869 1257.75 826.444 1255.98 827.138 1254.52C828.868 1256.05 830.598 1257.59 833.08 1259.78ZM689.544 1199.38C689.046 1199.23 688.545 1199.09 688.045 1198.94C689.404 1193.99 690.765 1189.03 692.124 1184.08C694.963 1189.09 693.45 1195.22 689.544 1199.38ZM743.351 991.044C741.805 988.464 740.058 986.901 740.199 985.529C740.606 981.569 741.288 977.369 746.979 975.666C748.886 981.02 746.457 985.071 743.351 991.044ZM740.226 1129.54C742.262 1126.53 743.074 1126.62 749.524 1131.54C753.697 1134.72 753.694 1136.66 749.896 1140.88C746.779 1137.23 743.61 1133.51 740.226 1129.54ZM834.117 1242.13C833.949 1242.1 833.366 1242.12 832.896 1241.9C831.649 1241.32 829.806 1240.9 829.391 1239.92C828.865 1238.67 828.981 1236.41 829.815 1235.55C830.541 1234.8 833.297 1234.76 834.021 1235.51C836.263 1237.82 838.171 1240.52 839.781 1243.32C840.625 1244.79 840.57 1246.77 840.923 1248.53C839.33 1247.92 837.428 1247.66 836.232 1246.6C835.165 1245.66 834.873 1243.84 834.117 1242.13ZM685.533 1201.54C686.71 1201.61 687.888 1201.69 689.065 1201.76C688.59 1208.57 688.154 1215.39 687.541 1222.19C687.497 1222.67 685.987 1223.49 685.379 1223.33C684.551 1223.11 683.272 1222.03 683.327 1221.43C683.935 1214.79 684.763 1208.17 685.533 1201.54ZM890.824 354.516C900.212 349.985 908.402 351.429 912.638 359.654C909.048 358.516 906.721 357.778 904.273 357.002C898.869 360.961 894.757 360.353 890.824 354.516ZM861.601 295.748C869.908 294.302 881.02 300.227 883.759 307.352C873.985 307.335 868.558 300.078 861.601 295.748ZM1125.36 894.306C1120.59 898.399 1104.39 900.6 1099.1 897.954C1102.74 895.937 1105.82 892.991 1109.14 892.683C1114.14 892.221 1119.32 893.599 1125.36 894.306ZM695.265 1180.62C694.534 1180.34 693.805 1180.06 693.073 1179.78C694.316 1173.86 695.403 1167.9 696.93 1162.06C697.258 1160.8 699.221 1159.11 700.352 1159.17C701.513 1159.23 703.584 1161.24 703.521 1162.3C703.089 1169.45 699.552 1175.26 695.265 1180.62ZM754.96 460.282C751.673 455.171 753.973 452.101 757.16 449.51C763.359 444.476 767.443 444.346 772.458 448.805C766.643 452.621 760.891 456.392 754.96 460.282ZM649.494 1269.11C646.022 1270.01 642.342 1271.51 638.581 1271.74C636.199 1271.89 633.701 1270.14 631.256 1269.24C632.35 1267.41 633.404 1265.56 634.559 1263.77C635.054 1263.01 635.692 1261.87 636.383 1261.78C638.455 1261.49 641.164 1260.81 642.569 1261.79C645.249 1263.66 647.2 1266.58 649.494 1269.11ZM987.083 1132.96C991.242 1132.76 995.269 1132.58 1000.47 1132.34C991.999 1141.15 988.387 1142.03 979.949 1136.91C978.398 1135.97 977.573 1132.02 978.09 1129.87C979.004 1126.1 981.966 1128.15 983.891 1129.27C985.173 1130.02 985.963 1131.61 987.083 1132.96ZM784.584 519.797C779.269 527.344 772.387 529.896 766.971 527.266C759.641 523.709 756.258 517.756 758.401 510.323C762.99 517.885 770.021 516.296 776.642 516.724C779.151 516.89 781.558 518.576 784.584 519.797ZM1101.32 938.251C1101.3 937.709 1101.28 937.17 1101.25 936.631C1105.67 935.998 1110.21 934.436 1114.47 935.016C1118.17 935.523 1121.47 938.634 1125.18 934.9C1125.61 934.469 1127.2 935.06 1128.2 935.349C1132.96 936.716 1137.73 938.087 1142.45 939.58C1144.37 940.188 1146.4 940.818 1148.02 941.954C1150.77 943.891 1150.38 947.2 1147.23 948.369C1140.96 950.688 1133.69 952.119 1128.51 948.058C1120.32 941.641 1110.76 940.466 1101.32 938.251ZM750.429 434.391C754.313 433.937 757.637 433.301 760.965 433.274C762.547 433.257 764.137 434.401 765.724 435.017C764.648 436.308 763.752 437.824 762.461 438.844C758.852 441.697 754.545 443.851 751.488 447.174C745.83 453.327 743.816 453.963 736.413 449.518C737.382 447.611 738.35 445.708 739.552 443.342C736.389 442.981 734.037 442.715 730.92 442.36C731.619 440.126 731.624 437.535 732.884 436.558C736.826 433.505 740.989 430.46 745.541 428.528C751.079 426.179 752.069 427.426 750.429 434.391ZM885.102 344.17C888.147 339.05 886.164 336.206 883.24 333.45C878.463 328.952 873.683 324.443 869.218 319.645C867.939 318.27 867.746 315.885 867.053 313.962C869.455 313.593 872.008 312.513 874.228 312.986C880.811 314.394 884.543 319.692 888.763 324.427C893.957 330.256 899.654 335.636 905.002 341.078C898.905 349.655 892.287 343.732 885.102 344.17ZM704.833 1155.7C703.978 1155.56 703.122 1155.42 702.267 1155.28C702.267 1153.24 702.011 1151.17 702.314 1149.18C703.18 1143.49 704.319 1137.84 705.249 1132.16C705.551 1130.32 705.221 1128.33 705.746 1126.58C707.257 1121.56 710.266 1116.66 710.399 1111.66C710.53 1106.68 712.643 1102.33 713.152 1097.49C714.081 1088.67 718.065 1080.19 720.61 1071.52C721.757 1067.61 722.252 1063.5 723.553 1059.66C724.197 1057.77 726.109 1056.34 727.239 1054.56C728.073 1053.26 729.399 1050.71 729.099 1050.47C724.521 1046.8 726.856 1042.4 727.704 1038.33C729.643 1029.03 731.867 1019.79 733.996 1010.53C735.085 1005.8 735.833 1000.93 737.564 996.438C738.119 994.996 741.277 994.37 743.362 993.899C743.684 993.828 745.417 996.768 745.195 998.095C743.83 1006.2 742.251 1014.27 740.443 1022.29C736.35 1040.44 732.122 1058.57 727.855 1076.69C726.758 1081.35 725.149 1085.9 724.059 1090.56C721.438 1101.77 719.009 1113.02 716.431 1124.24C716.189 1125.3 715.352 1126.2 714.92 1127.23C713.083 1131.62 711.108 1135.96 709.531 1140.44C707.768 1145.46 706.385 1150.61 704.833 1155.7ZM606.054 170.456C608.552 172.799 610.733 175.505 612.346 178.863C612.8 179.812 613.746 180.522 614.833 181.762C615.825 180.541 617.397 179.389 617.215 178.706C616.087 174.509 615.173 170.058 613.011 166.385C610.502 162.121 608.682 158.268 611.207 151.533C615.553 156.014 618.912 159.602 622.428 163.029C623.512 164.086 625.028 164.702 626.345 165.519C626.427 163.654 627.209 160.54 626.477 160.13C621.902 157.569 620.42 153.225 619.091 148.788C618.37 146.375 618.263 143.779 617.721 140.244C624.603 144.948 627.803 137.377 633.415 136.335C633.905 139.017 634.342 141.429 634.917 144.582C636.719 143.204 637.74 141.908 639.004 141.597C640.327 141.272 642.391 141.369 643.249 142.194C647.101 145.902 650.536 150.037 654.377 153.759C655.072 154.433 656.949 153.891 658.28 153.91C658.258 152.634 658.621 151.168 658.112 150.128C657.482 148.843 655.65 148.086 655.186 146.796C654.055 143.674 653.414 140.373 652.575 137.144C654.885 136.681 657.284 136.458 659.471 135.66C660.734 135.199 661.562 133.661 662.756 132.858C666.197 130.544 669.54 127.941 673.286 126.272C675.594 125.246 679.44 126.673 681.005 125.251C682.595 123.807 682.232 120.211 682.826 117.002C683.852 117.37 685.318 118.308 686.815 118.355C690.895 118.481 696.025 119.752 698.859 117.818C704.907 113.684 709.936 113.727 715.982 117.098C720.756 119.761 724.678 116.891 725.446 111.514C725.682 109.857 727.979 107.747 729.737 107.238C732.26 106.507 735.148 107.052 737.863 107.052C738.072 105.594 738.053 104.809 738.309 104.13C739.037 102.202 739.467 99.198 740.787 98.7105C742.27 98.1632 744.845 99.5473 746.512 100.711C750.881 103.756 755.354 105.225 760.775 104.135C770.01 102.281 780.136 110.57 780.664 119.78C780.758 121.411 782.147 123.205 783.387 124.492C788.708 130.021 794.718 134.979 799.42 140.973C802.118 144.417 802.652 149.506 804.434 153.739C805.219 155.594 806.688 157.159 807.843 158.857C808.52 158.518 809.196 158.182 809.873 157.844C808.253 153.825 806.519 149.847 805.059 145.77C804.234 143.462 802.751 140.536 803.516 138.703C804.825 135.567 805.062 133.512 803.15 130.47C802.165 128.907 803.571 125.843 803.896 123.455C806.013 124.176 808.396 124.514 810.156 125.746C811.323 126.564 811.279 128.938 812.324 130.134C819.083 137.883 824.288 145.831 823.418 157.11C822.946 163.233 825.677 169.565 826.585 175.859C826.827 177.538 825.672 179.414 825.157 181.202C823.979 179.664 822.731 178.175 821.642 176.58C817.95 171.172 814.313 165.722 810.657 160.29C809.991 160.71 809.323 161.131 808.655 161.552C809.414 163.392 810.17 165.236 811.028 167.321C809.246 167.712 807.648 168.058 805.75 168.473C805.532 173.854 803.428 177.092 797.45 174.704C795.409 179.205 791.764 179.945 788.92 176.665C785.245 172.435 781.558 168.214 777.817 163.918C774.915 166.338 772.307 168.517 770.313 170.182C767.545 168.492 765.251 167.332 763.232 165.807C759.675 163.123 755.444 160.801 752.999 157.285C747.478 149.339 743.808 148.878 738.782 156.71C738.578 157.027 738.353 157.326 738.133 157.632C734.185 163.087 732.755 163.126 728.945 157.841C727.317 160.941 725.916 164.176 724.02 167.084C721.08 171.59 718.852 173.813 718.854 173.813C718.409 171.502 718.689 168.463 717.396 167.461C715.999 166.385 713.13 167.219 709.444 167.219C712.082 170.564 713.694 172.611 714.956 174.214C713.38 176.798 711.92 179.191 710.33 181.798C707.183 179.812 707.579 173.665 704.063 174.394C701.128 179.818 698.303 183.664 696.911 187.974C695.34 192.852 691.907 192.032 688.471 192.257C684.785 192.502 681.509 192.348 679.19 188.646C677.33 185.675 674.805 183.125 672.406 180.184C671.897 184.638 671.352 188.073 671.165 191.531C671.058 193.542 670.786 196.172 671.853 197.512C677.789 204.939 677.869 213.69 678.244 222.616C672.925 224.182 671.754 219.879 669.443 216.053C667.548 217.164 664.827 217.824 663.906 219.486C661.636 223.568 658.233 224.704 655.018 221.488C653.373 219.841 651.997 217.921 649.516 214.947C648.281 220.936 647.353 225.439 646.426 229.942C645.909 230.019 645.392 230.093 644.875 230.17C642.427 226.566 640.174 222.803 637.428 219.444C636.465 218.267 634.287 218.083 632.664 217.447C632.644 219.15 632.007 221.177 632.702 222.506C636.829 230.407 640.895 238.381 645.695 245.872C650.517 253.396 656.151 260.4 661.477 267.599C665.121 272.531 671.49 275.868 670.485 283.535C670.381 284.33 672.045 286.173 672.83 286.142C682.227 285.755 684.339 295.411 690.848 299.118C696.366 302.26 700.888 307.173 705.785 311.382C707.878 313.184 709.967 315.043 711.763 317.131C714.057 319.791 716.062 322.702 718.172 325.522C720.518 328.66 723.041 331.691 725.121 334.998C727.696 339.089 729.437 343.762 732.342 347.572C739.428 356.859 747.111 365.693 754.209 374.971C755.466 376.611 755.708 379.648 755.296 381.826C754.113 388.055 752.943 394.412 750.591 400.241C749.277 403.504 746.066 407.462 742.952 408.298C724.697 413.209 717.598 427.846 713.281 443.469C709.405 457.503 711.191 472.452 712.12 487.007C712.484 492.715 717.358 497.469 722.714 498.486C725.946 499.1 727.536 500.78 725.132 503.933C721.949 508.106 718.654 512.191 715.405 516.312C715.163 516.186 714.921 516.059 714.681 515.93C715.1 514.661 715.518 513.391 715.939 512.12C715.674 511.66 715.41 511.204 715.147 510.744C711.661 512.494 708.178 514.246 704.696 515.995C704.861 516.535 705.029 517.074 705.193 517.61C706.596 517.916 707.994 518.243 709.399 518.518C710.827 518.799 712.264 519.025 713.578 519.252C714.495 526.51 711.243 529.092 704.984 526.802C703.213 526.152 701.095 526.457 699.133 526.325C698.85 526.947 698.567 527.571 698.283 528.196C699.917 529.238 701.554 530.281 703.834 531.736C704.096 533.794 704.509 537.054 704.957 540.586C701.832 541.034 698.982 541.103 696.374 541.939C694.617 542.503 691.736 544.365 691.874 545.271C692.697 550.755 688.625 552.579 685.459 555.245C684.191 556.315 682.763 557.624 682.268 559.11C680.697 563.811 677.192 564.469 673.272 563.487C669.388 562.516 667.05 563.746 664.673 566.769C663.369 568.424 660.458 570.345 658.816 569.938C652.564 568.395 649.881 572.969 645.846 575.857C638.905 580.831 631.582 585.392 624.007 589.329C618.41 592.237 611.377 593.466 606.054 596.365V1278.81C606.676 1278.32 607.24 1277.77 607.548 1277.28C608.995 1274.95 609.685 1272.16 611.187 1268.29C609.98 1267.68 608.145 1266.76 606.307 1265.84C606.626 1265 606.946 1264.15 607.262 1263.3C613.608 1263.79 620.004 1263.98 626.249 1265.05C627.39 1265.25 628.29 1269.02 628.568 1271.23C628.719 1272.43 627.665 1274.47 626.578 1275.04C619.132 1278.96 613.966 1284.71 610.847 1294.39C612.946 1292.94 614.805 1292.26 614.822 1291.54C614.921 1287.26 617.988 1287 620.975 1286.46C621.872 1286.3 622.932 1286.34 623.622 1285.86C630.413 1281.15 637.293 1278.41 644.691 1284.9C645.293 1286.19 646.071 1287.86 646.853 1289.54C648.352 1288.32 649.849 1287.1 651.923 1285.41C652.721 1286.51 654.035 1288.33 656.34 1291.52C651.428 1292.93 647.205 1294.15 641.659 1295.74C646.228 1298.13 650.239 1300.23 655.367 1302.92C654.721 1300.2 654.374 1298.74 654.028 1297.29C654.516 1297.54 655.006 1297.79 655.493 1298.05C657.826 1294.1 660.5 1290.3 662.365 1286.15C663.611 1283.37 661.826 1281.83 658.814 1282.52C657.377 1282.84 656.035 1283.59 654.239 1284.31C653.037 1282.21 651.865 1280.15 650.657 1278.04C652.74 1275.03 654.764 1272.12 657.383 1268.34C659.554 1272.31 661.424 1275.73 663.691 1279.88C669.859 1271.76 674.013 1262.92 675.05 1252.66C675.231 1250.86 675.102 1248.96 675.63 1247.27C677.286 1241.97 679.148 1236.73 681.019 1231.49C681.616 1229.82 682.483 1228.25 683.228 1226.63C683.734 1226.7 684.24 1226.77 684.749 1226.84C684.749 1229.18 684.944 1231.55 684.71 1233.87C684.08 1240.16 682.881 1246.43 682.735 1252.72C682.683 1254.96 685.013 1257.26 686.141 1259.31C685.23 1260.42 683.951 1261.96 682.672 1263.52C683.393 1264.13 684.116 1264.75 684.837 1265.37C686.999 1262.86 689.161 1260.35 692.393 1256.6C693.076 1260.86 693.543 1263.79 693.918 1266.12C701.219 1265.44 708.528 1265.09 715.724 1263.99C720.813 1263.22 725.803 1261.6 730.711 1259.99C731.682 1259.67 731.959 1257.54 732.782 1256.4C733.778 1255.03 734.82 1253.16 736.205 1252.76C737.241 1252.46 739.225 1253.85 740.141 1255C743.439 1259.15 746.342 1259.34 750.201 1255.82C751.428 1254.7 753.472 1254.38 755.202 1253.93C756.726 1253.53 758.335 1253.45 759.95 1253.22C758.123 1249.72 756.729 1247.05 755.334 1244.38C755.73 1243.97 756.123 1243.56 756.519 1243.15C757.532 1244.25 759.196 1245.22 759.455 1246.48C761.254 1255.21 769.171 1254.43 775.069 1256.69C775.682 1256.93 776.829 1255.84 777.699 1255.32C779.489 1254.23 781.261 1253.11 783.239 1251.88C785.374 1256.68 784.026 1262.24 789.45 1264.47C789.891 1264.65 789.509 1266.83 789.509 1268.14C783.112 1267.33 783.247 1267.35 782.744 1273.49C781.878 1284.08 780.827 1294.65 779.853 1305.23C780.791 1305.38 781.729 1305.53 782.667 1305.68C784.257 1298.39 785.847 1291.1 787.811 1282.08C789.665 1282.19 793.159 1282.39 797.2 1282.62C797.461 1280.92 797.731 1279.17 798.072 1276.97C795.073 1276.97 792.545 1276.97 789.12 1276.97C793.238 1273.25 796.911 1269.94 800.614 1266.6C801.233 1272.33 802.484 1279.16 802.575 1286C802.693 1294.8 803.235 1295.37 811.925 1291.13C810.209 1288.18 809.752 1285.39 814.431 1284.71C814.489 1284.19 814.547 1283.67 814.602 1283.15C813.276 1283 811.934 1282.92 810.621 1282.68C808.913 1282.36 807.227 1281.92 804.94 1281.4C807.029 1277.36 807.345 1272.64 813.73 1273.89C813.428 1275.59 813.163 1277.07 812.987 1278.06C815.416 1277.67 819.242 1276.1 820.145 1277.12C821.873 1279.08 821.939 1282.5 822.78 1285.64C826.75 1284.87 827.344 1282.61 827.113 1278.8C826.849 1274.47 827.829 1270.05 828.265 1265.67C829.11 1265.67 829.952 1265.67 830.796 1265.68C831.126 1267.85 831.432 1270.03 831.792 1272.2C832.081 1273.94 832.351 1275.7 832.893 1277.36C832.948 1277.53 835.371 1277.47 835.748 1276.89C836.906 1275.12 838.006 1273.11 838.328 1271.07C838.521 1269.86 837.401 1268.26 836.535 1267.09C832.678 1261.85 833.649 1256.09 839.668 1255.03C844.867 1254.11 846.895 1251.19 848.892 1247.36C849.329 1246.52 849.739 1245.67 850.804 1243.53C853.145 1248.98 854.685 1252.56 856.966 1257.87C857.989 1250.55 860.245 1246.96 864.91 1248.82C868.214 1246.45 870.621 1244.73 873.011 1243.02C873.166 1241.64 873.391 1239.63 873.616 1237.61C874.7 1238.03 876.445 1238.18 876.744 1238.92C877.57 1240.95 877.793 1243.23 878.252 1245.41C878.761 1245.45 879.27 1245.48 879.779 1245.52C880.217 1244.3 881.157 1243.01 881.006 1241.86C880.359 1236.93 879.476 1232.03 878.488 1227.16C878.219 1225.83 877.336 1224.6 876.56 1223.45C876.464 1223.3 875.314 1223.86 874.651 1224.09C875.305 1225.45 875.969 1226.81 876.615 1228.17C876.758 1228.47 876.857 1228.8 877.036 1229.27C876.002 1230.52 874.792 1231.72 873.881 1233.12C871.639 1236.56 869.977 1236.55 866.385 1233.97C863.128 1231.63 858.234 1231.58 852.79 1230.2C853.147 1234.45 853.62 1236.98 853.464 1239.46C853.379 1240.83 852.231 1242.14 851.563 1243.47C850.636 1242.47 849.164 1241.6 848.889 1240.44C848.201 1237.54 847.824 1234.51 847.775 1231.52C847.747 1229.82 848.611 1228.11 849.074 1226.4C850.52 1227.24 851.967 1228.08 853.541 1228.99C859.403 1221.75 865.433 1214.3 871.248 1207.12C873.105 1208.47 876.511 1209.76 877.713 1212.15C878.934 1214.58 877.982 1218.11 877.982 1221.29C880.7 1220.5 884.475 1221.71 887.677 1218.3C888.703 1217.21 893.035 1219.23 896.818 1220.04C896.818 1209.35 896.818 1198.81 896.818 1188.27C897.425 1188.23 898.031 1188.19 898.636 1188.15C899.42 1189.75 900.207 1191.35 900.529 1192.01C907.634 1189.7 914.47 1187.64 921.146 1185.15C922.426 1184.67 923.276 1182.6 923.977 1181.1C925.215 1178.46 925.898 1175.51 927.394 1173.04C928.057 1171.95 930.136 1171.71 931.834 1171.7C928.755 1176.62 928.755 1176.62 931.556 1179.58C935.063 1178.03 938.257 1176.62 941.451 1175.2C941.654 1175.59 941.86 1175.98 942.067 1176.37C943.244 1174.49 944.424 1172.61 945.407 1171.03C947.44 1172.1 949.269 1173.06 951.098 1174.03C951.192 1171.91 951.25 1169.8 951.39 1167.69C951.502 1165.99 951.579 1164.26 951.921 1162.6C952.325 1160.62 952.993 1158.71 953.701 1156.24C959.012 1156.96 960.586 1153.43 960.492 1148.23C960.451 1145.96 959.755 1142.3 963.573 1143.23C966.685 1144 969.351 1146.57 972.214 1148.34C970.154 1151.57 973.323 1156.34 968.99 1159C968.296 1159.43 968.28 1160.96 967.964 1161.95C973.678 1165.27 981.028 1159.31 986.442 1165.98C984.299 1167.55 982.425 1168.92 980.142 1170.6C981.415 1171.67 982.45 1172.53 983.792 1173.66C983.055 1174.27 982.428 1175.16 982.027 1175.06C980.937 1174.81 979.287 1174.36 979.033 1173.6C978.062 1170.67 977.457 1167.08 973.394 1168.42C971.337 1169.09 968.806 1171.59 968.487 1173.59C967.895 1177.27 970.329 1179.69 974.28 1180.42C975.523 1180.65 976.585 1181.86 977.727 1182.62C980.469 1181.59 983.369 1180.49 986.174 1179.43C987.831 1182.21 989.192 1184.49 989.715 1185.37C993.971 1186.14 996.837 1186.54 999.64 1187.21C1001.68 1187.7 1003.63 1188.56 1005.62 1189.25C1005.62 1187.22 1005.62 1185.2 1005.62 1182.19C1009.08 1179.99 1009.96 1176.43 1005.94 1172.19C1005.47 1171.7 1005.02 1170.64 1005.24 1170.15C1007.04 1166.17 1009 1162.26 1011.5 1157.11C1012.45 1159.59 1012.87 1160.66 1013.28 1161.73C1024.73 1159.4 1034.14 1153.36 1034.54 1147.22C1028.13 1150.91 1022.14 1154.37 1015.15 1158.4C1014.37 1155.22 1013.71 1152.58 1013.08 1150.02C1016.71 1149.75 1019.44 1149.54 1022.17 1149.33C1021.81 1146.73 1021.46 1144.13 1021.29 1142.87C1023.09 1139.56 1024.07 1136.58 1026.03 1134.56C1027.44 1133.1 1030.13 1132.5 1032.31 1132.31C1033.68 1132.2 1035.18 1133.57 1036.62 1134.27C1036.96 1133.9 1037.29 1133.52 1037.64 1133.15C1035.46 1130.47 1033.29 1127.8 1030.1 1123.88C1029.03 1126.22 1028.32 1127.78 1027.06 1130.53C1024.97 1127.45 1023.15 1125.9 1023.14 1124.34C1023.13 1123.32 1025.66 1122.1 1027.21 1121.27C1030.95 1119.27 1037.08 1119.43 1035.12 1112.33C1033.01 1112.53 1031.08 1112.72 1029.11 1112.91C1029.06 1112.02 1028.91 1111.4 1029.04 1111.34C1034.18 1108.77 1039.54 1106.59 1044.43 1103.63C1049.37 1100.66 1053.88 1096.98 1058.47 1093.46C1059.19 1092.9 1059.88 1091.15 1059.54 1090.55C1056.75 1085.63 1060.71 1083.66 1063.58 1081.71C1066.5 1079.72 1069.1 1077.53 1067.3 1074.14C1066.45 1072.54 1063.13 1072.26 1060.92 1071.39C1060.26 1071.12 1059.59 1070.9 1058.78 1070.61C1062.04 1065.33 1065.16 1060.27 1068.28 1055.22C1068.65 1055.21 1069.02 1055.2 1069.38 1055.19C1069.38 1058.25 1068.98 1061.38 1069.52 1064.34C1069.91 1066.47 1071.11 1069.31 1072.78 1070.11C1074.6 1070.98 1077.37 1069.86 1081.23 1069.44C1079.11 1067.42 1077.95 1066.83 1077.73 1065.98C1077.4 1064.75 1077.75 1063.34 1077.81 1062C1079.45 1062.28 1081.52 1062.04 1082.65 1062.95C1084.69 1064.59 1086.17 1066.92 1087.1 1068.04C1094.34 1064.94 1100.47 1062.31 1106.86 1059.57C1106.54 1058.44 1106.15 1057.1 1105.79 1055.85C1108.91 1053.9 1111.81 1052.08 1113.51 1051.02C1113.04 1047.54 1112.38 1045.4 1112.58 1043.35C1112.79 1041.22 1113.85 1039.17 1114.17 1038.18C1111.28 1036.45 1109.14 1035.17 1107 1033.89C1107.11 1033.22 1107.22 1032.55 1107.33 1031.89C1111.63 1030.28 1115.93 1028.67 1120.23 1027.07C1120.69 1027.71 1121.14 1028.36 1121.6 1029C1119.78 1031.27 1117.95 1033.54 1116.13 1035.82C1121.45 1041.02 1121.85 1040.96 1125.23 1034.54C1125.48 1034.06 1125.74 1033.31 1126.12 1033.23C1135.2 1031.15 1133.88 1022.28 1137.17 1016.44C1138.23 1014.55 1139.37 1012.71 1140.48 1010.85C1141.24 1011.08 1142.01 1011.32 1142.77 1011.55C1142.59 1015.32 1142.3 1019.09 1142.28 1022.86C1142.27 1024.3 1142.89 1025.74 1143.22 1027.18C1144.31 1026.38 1145.81 1025.79 1146.4 1024.71C1148.03 1021.76 1150.08 1018.69 1150.41 1015.5C1150.71 1012.59 1149.79 1008.78 1147.94 1006.62C1145.57 1003.85 1144.78 1001.52 1146.52 998.622C1148.78 994.867 1151.4 991.332 1154.93 988.361C1154.37 991.619 1153.8 994.879 1153.23 998.138C1153.71 998.356 1154.19 998.573 1154.67 998.788C1156.56 995.709 1158.53 992.672 1160.33 989.542C1163.88 983.366 1167.21 977.273 1166.94 969.608C1166.74 963.893 1167.78 958.074 1168.76 952.385C1170.1 944.605 1167.16 940.793 1159.38 938.884C1150.87 936.791 1142.67 933.451 1134.21 931.104C1123.98 928.272 1113.63 925.888 1103.31 923.358C1101.49 922.912 1099.61 922.759 1097.77 922.382C1088.22 920.428 1086.23 916.217 1090.94 907.607C1091.58 906.443 1092.94 905.131 1094.14 904.922C1100.02 903.893 1105.96 903.194 1111.88 902.424C1120.59 901.288 1129.77 901.486 1137.86 898.6C1142.93 896.79 1146.45 890.447 1150.4 885.905C1150.84 885.404 1149.86 883.119 1149 882.125C1132.77 863.289 1117.19 843.816 1099.87 826.029C1090.62 816.517 1080.79 806.393 1066.84 802.867C1065.47 802.517 1064.22 801.511 1063 800.688C1053.88 794.57 1045.13 787.827 1035.62 782.409C1018.18 772.466 1000.33 763.248 982.598 753.821C967.194 745.629 951.659 737.681 936.326 729.362C932.42 727.242 928.725 724.469 925.493 721.407C912.55 709.157 899.508 696.985 887.132 684.176C877.946 674.669 869.502 664.409 861.142 654.151C851.123 641.857 842.248 628.567 831.61 616.865C815.551 599.199 799.043 581.824 781.473 565.691C770.101 555.245 756.605 547.073 743.808 538.25C740.625 536.055 739.717 534.044 741.376 530.88C743.216 527.373 745.312 523.995 748.215 518.975C753.835 530.052 761.95 534.05 772.043 533.337C775.236 533.111 778.428 531.001 781.347 529.288C784.361 527.516 787.404 525.516 789.772 522.991C792.603 519.974 794.732 516.292 797.023 513.091C802.374 513.091 808.426 513.415 814.418 512.939C816.984 512.736 819.96 511.416 821.785 509.619C824.42 507.028 826.617 506.508 830.199 507.487C837.462 509.476 844.598 509.837 849.86 502.579C850.735 501.374 853.494 500.302 854.712 500.8C859.155 502.626 861.304 499.972 863.736 497.249C867.237 493.326 870.885 489.532 874.412 485.626C876.604 483.197 877.966 480.749 874.698 477.951C871.383 475.115 869.476 478.053 867.501 479.668C862.795 483.519 858.605 488.06 853.664 491.562C847.445 495.969 840.708 499.757 831.792 493.166C850.534 486.363 865.818 475.822 875.344 457.91C876.392 463.591 873.575 469.825 881.377 473.94C882.271 470.031 883.069 466.637 883.825 463.234C884.348 460.874 884.486 458.367 885.377 456.161C886.788 452.673 886.744 449.971 885.035 446.211C883.781 443.449 885.471 438.693 887.082 435.436C889.481 430.581 891.564 425.946 890.298 420.427C885.451 423.128 880.601 425.827 875.831 428.485C874.07 421.56 872.066 413.66 870.06 405.762C870.58 405.603 871.102 405.446 871.622 405.286C872.552 406.142 873.485 406.995 874.844 408.243C875.696 403.402 876.428 399.254 877.44 393.501C879.394 395.963 881.173 397.292 880.959 398.079C879.044 405.138 884.466 408.925 887.473 413.833C888.716 415.861 889.321 418.279 890.219 420.518C895.549 414.766 897.423 408.152 895.995 400.334C894.922 394.472 894.485 388.481 894.067 382.525C893.97 381.147 895.109 379.681 896.262 376.798C903.519 391.394 906.872 405.138 906.058 419.83C905.838 423.8 906.512 426.308 909.648 425.035C911.893 420.809 912.888 417.316 915.133 415.074C918.787 411.426 919.513 408.026 919.276 402.717C918.993 396.33 920.431 388.791 923.867 383.551C929.881 374.394 927.908 364.908 925.215 356.81C921.936 346.945 914.8 338.338 909.12 329.32C908.088 327.683 905.874 326.839 904.476 325.37C902.828 323.637 901.478 321.618 900.749 318.928C908.603 323.72 917.568 326.231 923.394 334.132C931.435 345.034 935.567 357.674 940.843 369.833C941.503 371.354 942.463 372.746 943.283 374.199L943.247 374.24C945.747 366.372 945.717 358.818 940.755 351.746C939.597 350.098 938.574 348.235 937.993 346.321C933.281 330.735 925.688 317.029 912.069 307.495C906.826 303.825 901.291 300.34 895.423 297.886C892.609 296.709 888.708 298.134 886.199 298.315C887.968 290.296 889.816 282.44 891.316 274.52C891.509 273.502 889.902 272.146 888.279 269.632C887.489 272.889 887.217 274.812 886.529 276.575C885.99 277.958 885.003 280.115 884.097 280.176C882.821 280.261 881.058 279.001 880.199 277.813C879.278 276.534 879.226 274.649 878.676 273.07C875.84 264.922 874.395 256.056 864.927 251.894C863.09 251.085 862.767 246.827 861.543 243.633C867.188 242.967 865.999 239.581 865.705 236.082C865.207 230.17 861.147 224.742 863.518 218.35C863.882 217.373 861.779 215.334 860.608 213.967C858.344 211.329 854.886 209.392 855.898 205.011C856 204.573 855.645 203.88 855.288 203.517C848.743 196.804 845.973 188.178 842.999 179.631C842.331 177.705 841.297 175.909 840.428 174.044C844.551 168.792 843.86 165.288 837.952 161.37C837.049 160.771 835.704 160.232 835.437 159.387C833.129 152.1 830.629 144.838 828.976 137.394C827.49 130.703 829.129 129.598 836.268 131.188C837.775 138.712 842.012 142.477 849.794 142.318C850.033 144.915 850.691 147.616 850.448 150.232C849.665 158.644 849.535 158.63 857.065 162.416C854.605 164.847 852.281 167.494 855.972 170.627C856.402 170.993 856.591 172.165 856.35 172.729C853.381 179.598 858.957 184.005 861.034 189.416C861.923 191.73 862.649 194.103 863.468 196.511C861.163 197.168 859.741 197.572 858.319 197.98C858.319 198.34 858.322 198.697 858.324 199.058C859.42 199.244 860.674 199.157 861.57 199.682C862.973 200.504 864.714 201.5 865.276 202.854C866.599 206.039 867.278 209.489 868.277 212.815C868.756 214.402 869.824 215.946 869.842 217.519C869.925 223.928 874.689 224.9 880.997 227.018C879.295 220.408 878.172 214.873 876.431 209.538C871.851 195.495 866.896 181.571 862.319 167.527C860.787 162.829 859.978 157.896 858.748 153.095C858.426 151.847 858.104 150.142 857.2 149.575C850.751 145.542 851.392 137.997 848.356 132.305C846.889 129.559 846.011 126.355 844.063 124.036C834.815 113.027 825.584 101.976 815.776 91.4734C806.087 81.0992 795.73 71.348 785.622 61.3701C784.568 60.3307 783.28 59.4581 781.974 58.7429C771.861 53.1948 761.724 47.6872 751.576 42.1992C741.318 36.6564 731.424 30.189 720.67 25.8621C705.804 19.8787 691.937 11.3512 675.759 8.49545C663.872 6.39416 652.09 4.52339 639.953 5.02392C634.375 5.25248 628.719 4.60053 623.159 3.87917C620.744 3.56576 618.544 1.84399 616.131 1.18345C614.329 0.691519 612.167 0.324997 610.467 0.861451C608.977 1.33223 607.515 1.87683 606.054 2.3432V170.456Z" fill="#BAA989"/>
<path d="M61.1397 938.251C51.702 940.466 42.1483 941.641 33.9551 948.059C28.7757 952.119 21.4988 950.688 15.2357 948.369C12.0853 947.2 11.6917 943.891 14.4467 941.954C16.0615 940.818 18.0905 940.188 20.0118 939.58C24.7365 938.087 29.5002 936.717 34.2639 935.349C35.2652 935.06 36.8552 934.469 37.2838 934.9C40.9888 938.634 44.295 935.523 47.9966 935.017C52.2488 934.436 56.7932 935.998 61.2107 936.631C61.1873 937.17 61.1631 937.709 61.1397 938.251Z" fill="#FEFEFE"/>
<path d="M37.103 894.306C43.1471 893.599 48.3209 892.221 53.3247 892.683C56.6435 892.991 59.7205 895.937 63.3597 897.954C58.0759 900.6 41.8729 898.399 37.103 894.306Z" fill="#FEFEFE"/>
<path d="M3.096 956.066C3.6232 959.898 4.1504 963.73 4.67671 967.562C3.83831 967.678 2.99925 967.793 2.15952 967.909C1.57083 964.127 0.981266 960.346 0.392578 956.567C1.29401 956.399 2.19391 956.234 3.096 956.066Z" fill="#FEFEFE"/>
<path d="M769.187 954.952C768.673 952.228 768.073 949.517 767.773 946.768C767.742 946.482 769.498 946.004 770.422 945.613C770.981 948.573 771.539 951.535 772.094 954.495C771.127 954.649 770.155 954.8 769.187 954.952Z" fill="#FEFEFE"/>
<path d="M773.418 915.785C773.841 913.18 774.266 910.572 774.692 907.967C775.523 908.099 776.356 908.231 777.187 908.363C776.758 910.946 776.326 913.527 775.894 916.109C775.069 916.002 774.244 915.895 773.418 915.785Z" fill="#FEFEFE"/>
</g>
</svg>
