<svg width="879" height="1399" viewBox="0 0 879 1399" fill="none" xmlns="http://www.w3.org/2000/svg">
<g opacity="0.4">
<path fill-rule="evenodd" clip-rule="evenodd" d="M318.673 767.883C321.408 775.741 332.025 782.14 339.792 783.191C355.47 785.313 357.459 783.525 370.761 782.845C374.214 782.669 375.496 781.931 379.401 777.953C389.697 767.465 380.756 767.895 373.304 766.231C369.111 765.294 358.382 768.776 351.492 768.776C344.035 768.776 332.932 767.141 326.059 764.462C322.408 763.039 318.12 766.294 318.673 767.883Z" fill="white"/>
<path d="M472.768 859.967C460.577 865.684 447.417 870.02 433.851 875.558C437.105 847.438 440.146 821.203 443.182 794.967C441.057 794.715 438.932 794.458 436.809 794.202C434.551 810.958 432.292 827.719 429.523 848.256C427.956 839.466 427.048 834.382 426.438 830.975C421.895 835.419 417.205 840.006 412.515 844.589C410.888 842.772 409.26 840.956 407.633 839.139C407.411 870.455 377.226 859.397 362.583 872.932C365.401 876.674 367.929 880.032 373.945 888.018C356.342 884.936 343.587 883.556 331.299 880.368C307.103 874.089 297.441 877.503 281.608 896.325C273.461 906.015 261.535 912.574 253.605 922.395C239.011 940.475 226.37 960.119 212.323 978.662C208.74 983.392 203.262 986.973 198.091 990.165C184.834 998.336 167.646 1003.24 158.921 1014.7C151.538 1024.39 153.813 1041.45 151.791 1055.4C127.053 1071.66 99.9722 1089.47 72.4654 1107.56C75.3059 1113.52 77.5579 1118.26 80.365 1124.16C68.9022 1132.61 57.8493 1140.76 46.8008 1148.91C47.2001 1150.09 47.5993 1151.26 47.9988 1152.44C61.8952 1152.44 75.7949 1152.44 92.7729 1152.44C90.6182 1157.79 87.45 1165.65 83.6987 1174.96C84.8926 1176.89 87.5109 1181.11 90.6748 1186.21C96.2913 1181.3 102.07 1176.24 110.632 1168.75C107.585 1177.16 105.845 1181.96 104.105 1186.77C105.064 1187.5 106.025 1188.23 106.99 1188.97C113.736 1181.5 120.483 1174.04 127.233 1166.58C128.416 1167.32 129.599 1168.06 130.782 1168.81C122.916 1180.77 115.047 1192.73 107.182 1204.69C108.274 1206.07 109.362 1207.45 110.456 1208.82C118.068 1203.83 125.677 1198.84 135.367 1192.5C134.387 1198.73 133.656 1203.37 132.699 1209.45C135.273 1207.48 137.118 1206.71 137.932 1205.34C168.425 1153.66 197.62 1101.16 229.756 1050.52C245.419 1025.85 267 1005 285.104 981.797C307.431 953.188 328.933 923.932 351.309 894.264C356.902 908.782 362.711 923.868 367.183 935.47C357.008 938.138 344.313 939.073 334.667 944.982C329.667 948.047 331.227 960.48 327.792 967.717C318.125 988.073 307.281 1007.87 297.147 1028.01C291.659 1038.91 286.671 1050.07 281.118 1061.84C308.821 1051.74 318.529 1026.65 332.135 1005.05C335.65 999.474 338.546 990.056 343.025 989.2C355.415 986.829 368.772 986.302 381.226 988.303C395.838 990.651 409.897 996.433 426.291 1001.35C406.009 1029.53 384.251 1059.77 362.489 1090C364.146 1091.45 365.808 1092.9 367.465 1094.34C395.554 1046.19 431.746 1006.16 472.768 970.787V900.94C459.802 902.384 446.835 903.83 433.87 905.277C433.825 903.501 433.779 901.73 433.73 899.955C446.743 898.115 459.756 896.271 472.768 894.431V859.967ZM472.768 1014.81C470.575 1018.18 468.386 1021.54 466.202 1024.91C464.198 1028.01 465.076 1032.86 464.141 1036.79C463.086 1041.22 462.63 1048.38 459.957 1049.44C431.715 1060.7 427.459 1088.7 416.196 1111.44C405.723 1132.58 397.194 1154.68 390.478 1178.19C401.557 1160.09 412.636 1142 423.737 1123.86C428.257 1128.83 427.756 1128.66 417.902 1157.47C413.98 1168.93 412.843 1181.35 409.558 1197.72C422.705 1179.68 439.347 1175.16 455.221 1168.19C464.804 1163.98 472.534 1151.71 461.094 1138.59C465.806 1142.89 469.659 1146.45 472.768 1149.57V1014.81ZM472.768 101.375C459.459 94.3681 446.245 87.2089 431.711 83.5486C422.908 81.3287 412.417 84.5743 402.939 86.4845C369.903 93.1405 338.467 103.785 315.556 127.364C313.04 133.623 310.633 139.933 307.962 146.128C306.745 148.959 304.425 151.402 303.604 154.303C290.401 200.839 253.405 237.195 250.81 289.387C249.585 314.039 244.99 334.766 265.636 352.977C268.898 355.853 268.737 364.672 267.509 370.152C264.958 381.53 260.633 392.513 261.192 405.313C265.739 393.889 270.405 382.511 274.801 371.026C280.124 357.131 282.878 341.504 291.143 329.714C297.719 320.334 310.905 315.596 320.638 309.14C321.436 309.435 318.585 308.379 314.739 306.951C334.519 290.608 357.412 294.325 379.704 294.271C386.007 294.256 392.433 292.263 398.581 290.439C408.714 287.427 419.333 279.686 428.581 281.174C443.675 283.603 458.316 285.442 472.768 285.403V199.38C471.917 199.919 471.067 200.477 470.217 201.054C463.165 205.845 452.377 206.443 443.25 206.556C429.124 206.734 414.944 205.166 400.837 203.79C387.89 202.527 374.867 201.205 362.211 198.408C359.133 197.729 354.688 188.387 355.385 187.716C364.588 178.851 373.526 166.289 384.662 163.643C401.632 159.61 420.267 162.588 438.195 162.588C438.225 165.212 438.254 167.838 438.281 170.465C423.179 172.119 408.074 173.774 392.968 175.428C393.152 177.599 393.333 179.77 393.518 181.945H472.768V160.329C459.862 156.574 447.6 153.005 435.339 149.438C434.985 150.712 434.63 151.982 434.273 153.255C441.434 156.414 448.591 159.577 455.753 162.735C455.541 163.202 455.331 163.67 455.119 164.137C434.16 160.971 413.196 157.801 391.838 154.575C387.784 150.976 382.612 146.392 374.63 139.314C390.557 139.314 403.323 139.314 416.451 139.314C404.423 133.088 393.751 127.563 383.076 122.038C383.709 120.284 384.342 118.529 384.974 116.773C411.49 124.8 438.085 132.584 464.386 141.256C466.843 142.07 467.445 148.518 469.973 155.147C469.095 155.147 470.744 155.242 472.768 155.177V101.375ZM472.768 444.744C458.626 437.748 444.201 444.587 430.201 444.321C408.605 443.911 399.523 458.669 405.474 479.712C406.137 482.053 405.651 486.334 404.085 487.446C382.417 502.845 390.775 525.459 389.217 546.102C378.442 543.302 367.213 540.381 356.217 537.524C361.72 544.512 370.663 551.021 369.827 555.826C368.136 565.554 361.25 574.423 356.296 583.524C353.294 589.042 347.734 594.097 347.086 599.787C345.338 615.168 345.025 630.783 345.222 646.293C345.444 664.304 339.608 676.01 319.496 676.045C314.769 676.052 310.049 676.719 305.325 677.081C304.364 678.679 303.404 680.278 302.443 681.875C311.808 686.884 321.173 691.893 330.229 696.74C329.005 703.969 327.513 712.77 326.022 721.574C327.336 722.554 328.646 723.529 329.962 724.51C335.834 706.92 345.892 700.886 363.419 705.94C374.393 709.109 400.999 690.935 403.456 679.064C405.776 667.847 409.517 654.441 396.177 644.781C390.233 668.247 388.527 669.14 359.062 664.783C359.653 643.725 372.879 637.104 391.966 636.896C389.894 631.401 387.382 627.116 386.722 622.559C384.485 607.081 389.951 602.509 404.924 606.945C412.621 609.225 420.735 615.086 427.674 613.834C439.657 611.679 451.507 606.346 462.171 600.191C466.119 597.912 469.307 594.32 472.768 590.09V573.115C461.716 583.008 452.708 594.102 441.087 600.289C433.991 604.069 422.459 601.555 413.785 598.965C411.433 598.264 412.372 586.985 411.546 580.591C410.676 573.861 409.505 567.167 408.25 559.049C418.628 559.049 428.863 559.049 440.002 559.049C436.345 551.416 433.343 545.156 430.344 538.896C440.839 546.396 445.935 563.416 462.94 549.332C465.351 553.915 467.49 557.982 471.08 564.804L472.768 549.074V522.234L437.418 515.362C441.792 512.898 446.44 510.275 451.088 507.655C449.865 505.827 448.644 503.999 447.419 502.171C432.246 511.13 417.073 520.093 399.624 530.393C407 518.483 411.29 507.523 419.02 500.2C426.698 492.933 437.894 484.902 447.45 485.015C455.9 485.117 464.335 486.042 472.768 487.293V444.744ZM472.768 503.271L472.068 502.884C471.212 504.346 470.353 505.808 469.499 507.267L472.768 509.197V503.271ZM308.196 864.459C298.481 827.79 289.5 793.896 280.523 760.005C277.774 760.025 275.024 760.044 272.274 760.062C269.931 768.489 267.591 776.917 265.248 785.345C263.941 785.227 262.638 785.114 261.335 785.002C262.743 774.844 264.156 764.683 265.342 756.154C245.728 767.307 245.804 780.091 267.113 798.966C270.947 802.358 274.681 807.11 275.973 811.908C281.443 832.2 290.781 849.786 308.196 864.459ZM331.622 485.158C312.444 462.16 294.326 448.038 266.642 456.601C261.971 458.044 256.611 458.783 251.842 458.055C243.381 456.762 234.189 452.183 232.687 466.2C231.281 479.29 233.04 493.073 246.497 497.445C254.611 500.079 267.166 497.573 274.354 492.549C286.042 484.382 295.931 484.589 308.516 488.595C314.426 490.476 322.115 486.775 331.622 485.158ZM265.15 587.918C279.525 603.285 281.3 602.81 318.682 573.812C319.049 581.7 319.327 587.764 319.602 593.825C331.886 563.613 347.915 534.061 339.662 503.859C324.198 504.734 311.827 506.739 299.689 505.782C285.006 504.625 272.157 501.752 262.781 518.848C258.633 526.413 245.562 528.656 237.579 534.686C231.76 539.088 227.639 545.74 222.76 551.386C229.24 555.068 235.64 558.901 242.247 562.343C244.217 563.368 246.76 563.3 249.656 563.85C250.161 556.991 250.614 550.869 251.394 540.241C267.949 557.401 285.01 563.288 304.647 549.72C306.117 550.753 307.586 551.789 309.054 552.822C306.983 561.366 306.41 570.679 302.527 578.301C294.322 594.398 280.256 593.609 265.15 587.918ZM375.967 768.995C375.96 770.344 375.949 771.697 375.941 773.05C358.105 773.05 340.268 773.05 322.432 773.05C322.442 771.697 322.454 770.344 322.465 768.995C340.298 768.995 358.13 768.995 375.967 768.995ZM447.944 754.785C443.743 748.593 440.71 744.127 437.159 738.885C418.701 754.427 399.639 747.233 379.964 743.709C368.185 741.602 355.442 745.201 343.112 745.736C337.876 745.963 331.472 746.668 327.513 744.146C311.28 733.816 299.792 741.553 290.144 749.471C303.299 764.808 313.974 781.093 328.394 792.736C338.173 800.628 356.367 808.935 365.243 804.883C384.967 795.875 399.326 812.534 418.361 808.173C421.865 788.823 423.608 766.488 447.944 754.785ZM325.392 243.146C338.698 223.973 357.596 220.238 375.018 230.915C359.077 234.847 343.718 238.631 325.392 243.146ZM362.075 253.623C351.64 262.507 342.988 266.302 340.912 272.355C336.015 286.613 337.285 287.047 326.145 282.444C326.145 272.359 326.145 263.735 326.145 253.623C334.305 253.623 345.459 253.623 362.075 253.623Z" fill="#EBEBEB"/>
</g>
</svg>
