<svg width="879" height="1399" viewBox="0 0 879 1399" fill="none" xmlns="http://www.w3.org/2000/svg">
<g opacity="0.75">
<path d="M803.611 1180.72C799.82 1185.77 796.454 1190.26 792.686 1195.28C783.845 1188.16 776.202 1182.01 764.802 1172.84C780.269 1175.98 790.413 1178.04 803.611 1180.72ZM580.162 459.307C580.945 458.308 581.726 457.313 582.528 456.333L582.551 456.355C589.066 451.814 595.58 447.272 604.537 441.031C606.967 448.791 611.055 460.566 614.311 472.566C618.199 486.911 620.576 501.704 625.069 515.838C629.952 531.207 623.893 539.235 610.079 544.319C589.209 552.004 568.497 560.119 548.895 571.867C562.761 569.248 576.624 566.625 592.325 563.655C589.303 584.383 588.085 597.44 570.105 607.623C556.864 615.119 551.695 636.877 543.206 651.795C555.61 652.406 565.809 651.829 575.433 653.906C579.382 654.762 583.816 660.912 584.965 665.431C586.809 672.69 583.685 681.913 586.967 687.962C594.246 701.376 588.968 706.705 578.602 709.023C579.164 714.741 581.692 722.271 579.732 723.719C571.119 730.081 561.209 734.69 549.747 741.059C551.273 742.48 556.928 750.187 559.027 749.321C581.383 740.035 599.887 763.195 622.906 757.635C606.952 770.152 592.468 789.076 574.582 793.188C559.905 796.565 550.079 805.697 532.06 809.161C539.686 815.805 544.231 819.759 550.392 825.126C540.986 827.949 532.388 830.531 519.897 834.281C523.899 826.354 525.907 822.375 528.055 818.124C517.467 818.391 511.092 820.113 506.683 832.189C503.118 841.943 491.272 850.152 481.253 855.711C478.522 857.227 475.732 858.635 472.889 859.967V894.431L478.547 893.63C478.8 895.828 479.049 898.026 479.301 900.227L472.889 900.94V970.787C492.819 953.608 513.888 937.53 535.723 922.158C531.883 927.193 527.757 932.036 524.245 937.29C507.023 963.061 489.819 988.848 472.889 1014.81V1149.57C486.316 1163.05 485.851 1168.28 480.662 1189.25C485.27 1185.8 488.258 1183.57 493.077 1179.96C496.363 1187.09 499.434 1193.76 502.38 1200.16C508.692 1194.28 516.6 1186.91 523.152 1180.8C529.076 1186.64 533.213 1192.39 538.763 1195.89C558.643 1208.44 582.622 1215.08 594.299 1238.92C596.997 1244.43 605.656 1247.02 613.651 1248.01C610.701 1245.2 607.747 1242.38 604.797 1239.57C605.087 1238.89 605.381 1238.22 605.671 1237.55C626.507 1247.34 647.343 1257.12 665.2 1265.51C684.178 1250.3 703.075 1235.16 722.065 1219.94C735.919 1232.01 746.811 1241.51 757.71 1251.01C742.688 1283.69 740.998 1295 751.125 1315C758.254 1289.25 764.398 1267.09 770.522 1244.93C772.964 1236.09 777.491 1229.77 787.843 1230.4C789.446 1230.5 792.382 1231.1 792.447 1230.86C796.037 1217.55 796.381 1202.25 803.445 1191.25C814.723 1173.7 806.544 1166.18 792.986 1158.68C790.733 1157.44 788.008 1157.05 785.502 1156.27C786.943 1154.39 788.385 1152.52 789.828 1150.65C798.932 1154.35 808.035 1158.05 819.842 1162.85C823.474 1159.64 829.036 1154.71 837.512 1147.21C838.147 1147.4 843.738 1149.08 849.333 1150.75C850.812 1149.74 852.291 1148.74 853.771 1147.73C847.809 1137.62 841.848 1127.51 835.499 1116.74C838.314 1116.95 842.055 1117.23 846.934 1117.6C848.743 1087.54 860.391 1063.65 891.319 1053.81C902.8 1050.15 914.913 1048.22 926.016 1043.71C936.571 1039.43 946.434 1035.15 946.176 1018.66C946.103 1013.98 953.051 987.678 975.09 996.248C976.656 996.855 978.819 996.248 980.614 995.822C981.74 995.555 982.696 994.571 986.975 991.823C979.56 982.016 973.808 970.345 964.613 962.964C929.399 934.708 894.506 905.624 856.682 881.204C830.526 864.315 809.986 844.412 795.163 817.765C792.804 813.525 790.167 808.999 789.493 804.336C782.969 759.245 771.132 716.794 735.75 684.457C733.139 682.067 734.7 673.025 736.696 668.028C747.808 640.21 760.917 613.13 770.924 584.938C783.162 550.47 785.296 514.711 783.575 477.896C782.401 452.802 788.799 427.23 792.881 402.045C797.933 370.875 789.759 342.763 775.075 315.936C762.563 293.077 750.286 270.041 736.524 247.944C731.075 239.196 722.524 231.982 714.293 225.443C689.017 205.369 662.538 186.761 637.795 166.066C611.293 143.902 582.893 127.909 547.467 126.326C540.369 126.007 533.526 120.21 526.412 119.829C506.541 118.769 489.639 110.192 472.889 101.375V155.177C473.255 155.166 473.633 155.149 474.011 155.125C488.175 154.239 506.6 168.777 514.478 143.999C514.776 143.072 520.575 143.039 523.398 143.913C535.402 147.628 547.248 151.85 559.152 155.882C558.982 156.565 558.812 157.244 558.643 157.925C551.484 157.925 544.321 157.925 537.162 157.925C536.978 159.034 536.793 160.142 536.612 161.253C545.075 164.465 553.537 167.679 561.563 170.725C543.647 173.646 525.274 176.642 504.366 180.049C510.545 184.598 513.755 186.961 516.969 189.324C500.338 187.044 486.5 190.759 472.889 199.38V285.403C494.136 285.345 514.977 281.229 536.25 268.96C560.41 255.029 591.081 252.394 617.385 245.109C614.028 254.674 612.08 263.064 608.056 270.309C606.375 273.339 600.414 274.869 596.187 275.416C589.732 276.248 583.09 275.63 577.215 275.63C561.774 300.121 584.45 319.229 587.182 342.944C580.531 342.149 575.415 341.538 565.094 340.306C571.25 380.23 577.155 418.527 583.033 456.804C581.567 457.087 580.079 457.354 578.59 457.618C575.474 462.024 572.238 466.355 569.284 470.866C567.294 473.904 565.561 479.923 563.956 479.84C560.203 479.652 554.578 477.496 553.248 474.544C543.04 451.875 526.408 448.128 503.782 453.706C495.971 455.632 484.523 452.859 477.997 447.917C476.299 446.633 474.596 445.588 472.889 444.744V487.293C485.59 489.176 498.286 491.798 511.02 493.465C520.357 494.686 529.867 494.595 542.35 495.263C543.778 498.101 547.475 505.45 551.201 512.86C566.635 505.413 583.618 501.643 586.247 483.711C587.374 476.041 582.378 467.466 580.162 459.307ZM472.889 590.09C475.384 587.042 478.021 583.662 481.189 580.204C479.994 579.16 475.767 575.47 472.978 573.035L472.889 573.115V590.09ZM472.889 549.074L474.591 533.205C481.385 536.548 486.826 539.224 494.425 542.959C488.303 547.09 483.469 548.706 481.619 552.001C479.188 556.338 479.102 561.988 478.009 567.077C482.409 567.679 487.406 569.926 491.098 568.584C502.889 564.299 516.4 561.016 525.022 552.872C532.354 545.937 537.671 532.436 536.699 522.543C535.918 514.545 524.445 507.594 514.117 496.22C517.64 511.77 519.776 521.201 521.849 530.351C504.859 520.954 488.869 512.108 472.889 503.271V509.198C480.669 513.788 488.451 518.376 496.23 522.968C495.767 524.144 495.303 525.321 494.841 526.5L472.889 522.234V549.074ZM679.356 579.801C688.884 593.888 692.189 607.145 674.6 617.479C676.185 604.92 677.771 592.359 679.356 579.801ZM664.66 656.265C678.421 645.445 688.132 637.809 701.305 627.455C693.524 643.153 688.553 653.186 682.44 665.521C680.059 664.282 673.458 660.844 664.66 656.265ZM740.775 1209.98C735.574 1212.32 728.24 1215.62 720.906 1218.92C719.295 1217.62 717.683 1216.32 716.071 1215.02C720.352 1204.06 724.634 1193.1 730.065 1179.2C734.646 1192.36 737.326 1200.07 740.775 1209.98ZM735.293 550.844C737.548 551.318 739.805 551.794 742.062 552.268C735.098 573.989 742.344 599.237 720.418 622.213C726.024 595.314 730.657 573.077 735.293 550.844ZM583.211 877.846C584.265 889.071 545.293 937.038 527.858 945.163C547.166 921.683 564.981 900.015 583.211 877.846ZM703.394 550.139C700.941 548.906 698.486 547.674 696.033 546.445C701.365 537.532 705.636 527.721 712.265 519.916C723.068 507.191 736.633 512.495 750.198 517.353C723.928 513.221 714.779 533.299 703.394 550.139ZM682.157 745.27C658.295 762.12 633.58 779.575 608.866 797.029C624.503 765.61 645.903 742.951 682.157 745.27ZM472.889 181.945H491.649C491.785 181.27 491.916 180.596 492.048 179.921C487.632 178.38 483.22 176.831 478.819 175.293C480.179 170.91 481.381 167.028 482.584 163.15L472.889 160.329V181.945Z" fill="#BAA989"/>
<path fill-rule="evenodd" clip-rule="evenodd" d="M318.756 767.883C321.491 775.741 332.111 782.14 339.88 783.191C355.562 785.313 357.551 783.525 370.856 782.845C374.311 782.669 375.593 781.931 379.499 777.953C389.797 767.465 380.854 767.895 373.401 766.231C369.206 765.294 358.474 768.776 351.582 768.776C344.123 768.776 333.018 767.141 326.143 764.462C322.491 763.039 318.202 766.294 318.756 767.883Z" fill="white"/>
</g>
</svg>
