<svg width="895" height="1355" viewBox="0 0 895 1355" fill="none" xmlns="http://www.w3.org/2000/svg">
<g opacity="0.75">
<path d="M711.234 1116.43C709.505 1113.93 707.859 1111.54 706.211 1109.16C706.003 1109.27 705.794 1109.38 705.585 1109.49C706.258 1112.84 706.93 1116.2 707.726 1120.17C709.183 1118.62 710.153 1117.58 711.234 1116.43ZM494.629 706.296C493.995 712.127 493.166 716.982 490.17 721.153C489.795 721.676 489.407 722.13 489 722.519V710.584L494.629 706.296ZM489 686.874C489.827 687.435 490.587 688.086 491.262 688.831C490.52 690.409 489.784 692.003 489 693.589V686.874ZM525.018 458.512C529.397 451.977 537.208 447.19 544.91 446.432C541.179 450.308 537.162 453.156 533.82 456.544C536.516 462.263 536.516 462.263 535.532 463.921C532.115 462.163 528.68 460.394 525.018 458.512ZM664.934 1076.51C666.902 1076.42 667.339 1077.24 667.604 1078.47C668.99 1084.84 665.662 1090.17 658.57 1092.09C659.707 1089.26 660.704 1086.72 661.735 1084.2C662.786 1081.63 663.87 1079.07 664.934 1076.51ZM514.925 917.611C515.399 918.581 515.842 919.443 516.244 920.324C516.804 921.557 516.685 922.588 515.597 923.59C512.816 926.149 510.159 928.84 507.367 931.385C506.898 931.813 506.003 931.771 505.305 931.946C505.131 931.732 504.956 931.518 504.782 931.302C505.435 930.06 506.067 928.807 506.739 927.576C508.202 924.904 509.725 922.261 511.145 919.567C511.9 918.138 512.829 917.194 514.925 917.611ZM505.587 991.034C503.876 990.261 502.774 989.795 501.702 989.271C497.555 987.246 497.433 987.007 499.144 982.599C500.104 980.121 501.231 977.71 502.284 975.268C501.23 973.707 500.255 972.266 499.168 970.659C501.868 970.229 503.952 971.357 506.748 974.452C506.236 978.289 503.116 980.876 501.651 984.098C502.563 986.537 505.224 987.64 505.587 991.034ZM501.56 905.011C504.909 902.889 508.259 900.767 512.002 898.395C512.002 903.585 512.002 908.166 512.002 912.662C508.44 914.463 507.513 914.529 505.085 912.06C501.263 908.176 497.659 904.077 493.926 900.032C495.059 899.877 496.559 899.673 498.499 899.41C497.497 897.976 496.64 896.749 495.502 895.12C498.403 893.904 501.135 892.757 503.773 891.651C506.986 894.386 507.189 895.956 504.797 898.752C504.005 899.678 503.034 900.463 502.32 901.439C501.665 902.338 501.246 903.411 500.724 904.406C501.002 904.607 501.282 904.809 501.56 905.011ZM578.247 1044.29C576.056 1041.58 574.079 1039.14 571.889 1036.44C578.234 1030.23 584.457 1024.13 591.181 1017.54C591.181 1020.03 591.181 1021.78 591.181 1023.91C593.003 1024.07 594.634 1024.21 596.602 1024.38C595.099 1026.95 594.172 1029.54 590.819 1030C589.942 1030.12 589.072 1031.21 588.45 1032.04C587.364 1033.5 586.638 1035.24 585.464 1036.6C583.254 1039.17 580.832 1041.56 578.247 1044.29ZM659.233 1052.66C659.233 1050.28 659.233 1048.27 659.233 1046.32C666.555 1045.67 669.738 1040.58 672.558 1035.1C672.883 1034.46 672.933 1033.69 673.114 1032.97C674.445 1027.73 675.412 1026.94 680.892 1026.63C681.702 1026.59 682.516 1026.63 684.022 1026.63C682.818 1028.09 682.015 1029.09 681.184 1030.07C680.323 1031.09 679.435 1032.08 678.487 1033.17C678.98 1033.83 679.394 1034.39 680.031 1035.24C676.711 1039.98 673.318 1044.82 669.737 1049.93C671.218 1050.21 672.269 1050.42 673.702 1050.69C673.276 1053.79 672.892 1056.77 672.446 1059.74C672.139 1061.79 671.817 1063.84 671.369 1065.87C670.955 1067.74 671.09 1069.29 673.396 1070.12C671.156 1072.4 669.04 1074.08 665.782 1074.11C660.811 1074.17 659.746 1075.54 660.287 1080.39C660.337 1080.83 660.362 1081.28 660.412 1081.88C657.4 1079.79 656.861 1078.02 658.758 1075.5C660.211 1073.57 662.086 1071.96 664.139 1069.83C661.886 1068.68 659.701 1067.57 657.095 1066.24C655.262 1070.16 653.53 1073.86 651.755 1077.66C649.919 1077.62 648.934 1077.01 649.123 1075.06C649.253 1073.73 649.196 1072.37 649.293 1071.04C649.533 1067.71 651.127 1065.33 654.167 1063.84C655.676 1063.1 657.229 1062.26 658.427 1061.12C661.027 1058.62 663.555 1056.18 668.14 1057.17C667.056 1054.87 666.294 1053.25 665.465 1051.49C663.337 1051.89 661.389 1052.26 659.233 1052.66ZM596.116 1048.39C597.579 1049.89 598.544 1048.89 599.488 1048.55C602.121 1047.6 604.683 1046.42 607.356 1045.61C608.418 1045.29 610.132 1045.22 610.785 1045.84C611.831 1046.84 612.563 1048.44 612.832 1049.9C613.127 1051.51 611.552 1052.19 610.277 1052.54C601.512 1054.93 596.446 1060.77 594.406 1069.67C590.486 1069.67 586.654 1069.67 582.727 1069.67C583.706 1062.46 584.992 1055.53 590.854 1050.34C589.411 1048.51 588.158 1046.92 586.746 1045.13C589.561 1043.19 592.245 1041.33 595.001 1039.43C594.468 1037.88 593.999 1036.52 593.647 1035.5C595.806 1033.45 597.842 1031.58 599.812 1029.63C602.912 1026.58 604.785 1026.52 608.446 1029.64C608.008 1030.4 607.594 1031.25 607.067 1032.01C603.959 1036.54 600.809 1041.04 597.71 1045.57C597.073 1046.5 596.594 1047.54 596.116 1048.39ZM641.799 1035.17C643.165 1036.42 644.736 1037.73 646.138 1039.19C646.541 1039.61 646.709 1040.56 646.565 1041.16C645.71 1044.71 644.846 1048.27 643.743 1051.75C643.24 1053.34 642.949 1054.71 643.625 1056.32C644.92 1059.42 644.607 1062.56 643.32 1065.59C641.936 1068.84 640.514 1072.09 638.921 1075.24C638.403 1076.27 637.348 1077.06 636.448 1077.85C635.555 1078.64 634.547 1079.3 633.398 1080.15C634.551 1081.64 635.566 1082.94 636.958 1084.73C635.575 1085.15 634.545 1085.54 633.48 1085.76C633.047 1085.85 632.541 1085.54 632.061 1085.47C625.476 1084.43 622.189 1086.19 619.843 1092.49C618.868 1095.1 617.464 1097.17 615.465 1099.07C614.1 1100.38 613.243 1102.23 612.241 1103.89C611.505 1105.11 610.904 1106.42 610.144 1107.87C607.898 1104.61 607.168 1101.53 607.827 1097.89C608.829 1092.38 609.374 1086.78 610.12 1081.22C610.531 1078.15 609.682 1077.33 606.735 1078.02C606.036 1078.18 605.368 1078.47 604.574 1078.75C604.009 1078.22 603.485 1077.74 602.969 1077.25C602.463 1076.78 601.965 1076.29 601.162 1075.52C600.621 1077.39 600.195 1078.87 599.714 1080.53C597.301 1080.53 594.897 1080.53 592.125 1080.53C592.418 1077.36 593.944 1075.03 596.707 1073.74C598.55 1072.87 600.641 1072.5 602.648 1072.03C605.137 1071.45 607.694 1071.12 610.147 1070.42C611.467 1070.04 612.632 1069.12 613.868 1068.45C613.799 1068.16 613.731 1067.88 613.663 1067.6C611.625 1067.78 609.585 1067.96 606.954 1068.2C610.283 1060.5 611.577 1052.32 618.534 1047.05C619.6 1046.25 620.216 1044.72 620.792 1043.42C621.63 1041.53 622.062 1039.45 622.989 1037.61C624.903 1033.82 630.557 1032.81 633.69 1035.71C634.339 1036.32 634.66 1037.71 634.507 1038.63C634.299 1039.91 633.598 1041.14 632.929 1042.29C628.724 1049.51 627.073 1057.14 628.326 1065.51C629.095 1070.64 627.996 1075.25 622.58 1077.74C620.028 1078.91 620.022 1081.63 619.055 1084.09C619.886 1084.21 620.59 1084.54 620.963 1084.32C623.467 1082.83 626.087 1081.43 628.312 1079.58C631.124 1077.24 632.732 1074.21 632.364 1070.25C631.951 1065.81 633.103 1061.52 634.476 1057.33C636.86 1050.04 639.286 1042.77 641.799 1035.17ZM511.703 962.905L509.108 964.7L511.711 962.899L511.736 962.947C511.742 962.937 511.748 962.887 511.75 962.875C511.709 963.788 511.342 964.858 511.692 965.584C512.992 968.275 514.527 970.853 516.181 973.853C517.02 972.155 517.638 970.906 518.463 969.237C519.718 971.314 520.749 973.02 521.983 975.062C519.567 975.243 517.724 975.383 515.57 975.545C517.089 978.696 518.331 981.466 520.412 984.185C521.155 982.026 521.697 980.451 522.331 978.61C524.632 979.281 526.685 979.88 529.064 980.573C527.779 982.302 526.714 983.734 525.537 985.316C526.802 986.879 528.007 988.366 529.401 990.09C530.77 988.643 531.882 987.356 533.111 986.196C534.231 985.14 534.957 983.5 537.321 983.013C534.744 988.003 536.591 991.215 540.298 993.816C540.996 994.306 541.622 994.902 542.327 995.384C544.977 997.192 546.276 997.106 547.594 994.313C549.527 990.217 553.104 989.161 557.179 988.111C557.341 989.401 557.437 990.463 557.613 991.513C557.778 992.494 558.026 993.46 558.262 994.552C560.843 993.631 561.005 991.666 561.509 989.963C563.029 984.824 563.109 984.764 568.112 986.545C569.882 983.599 571.681 980.607 573.389 977.768C575.09 977.951 575.397 978.656 575.042 979.839C574.551 981.471 574.027 983.103 573.676 984.767C572.67 989.543 571.715 994.328 570.795 999.12C570.258 1001.92 568.766 1003.88 565.951 1004.45C564.19 1004.8 563.614 1005.78 563.209 1007.37C562.873 1008.68 563.148 1010.33 561.755 1011.33C559.417 1010.64 560.05 1007.9 558.183 1006.63C557.935 1007.64 557.676 1008.53 557.505 1009.43C556.186 1016.38 554.115 1017.6 547.337 1015.39C547.252 1015.36 547.206 1015.22 546.998 1014.93C547.491 1014.03 548.035 1013.03 548.872 1011.51C547.672 1011.62 546.818 1011.45 546.514 1011.78C544.591 1013.88 543.548 1016.25 544.848 1019.12C545.501 1020.57 545.927 1022.15 546.764 1023.48C547.924 1025.31 547.821 1027.05 547.297 1029.03C545.613 1035.4 543.937 1041.79 542.523 1048.22C541.903 1051.05 540.979 1053.31 538.045 1053.94C536.528 1059.64 537.649 1059.97 529 1059.24C529 1060.94 528.774 1062.66 529.039 1064.31C530.232 1071.72 528.096 1078.29 524.37 1084.57C522.255 1088.13 520.256 1091.79 518.492 1095.54C515.397 1102.12 514.287 1109.11 515.562 1116.27C517.258 1125.78 521.406 1134.33 526.718 1142.33C527.106 1142.91 527.677 1143.37 528.271 1144.01C530.367 1142.55 532.325 1141.18 534.44 1139.7C536.389 1142.41 538.152 1144.89 539.957 1147.34C541.771 1149.81 543.07 1152.67 545.449 1154.94C545.982 1153.41 546.399 1152.21 546.954 1150.62C551.922 1156.01 556.599 1161.09 561.615 1166.54C563.698 1162.86 559.766 1161.43 559.922 1158.45C566.452 1159.74 572.911 1161.01 579.561 1162.32C578.133 1165.7 575.234 1167.66 574.192 1171.05C579.315 1170.49 584.102 1169.97 589.428 1169.39C588.853 1167.22 588.598 1165.28 587.836 1163.56C586.35 1160.22 584.618 1156.98 582.913 1153.74C582.142 1152.27 582.16 1151.23 584.057 1150.66C586.171 1152.01 588.312 1153.38 590.358 1154.68C591.61 1154.1 592.664 1153.61 593.861 1153.05C595.46 1161.1 595.986 1169.05 597.79 1177.02C599.496 1175.41 600.837 1174.18 602.137 1172.91C603.499 1171.58 604.821 1170.21 606.147 1168.87C606.994 1169.42 607.542 1169.71 608.003 1170.09C610.708 1172.37 610.963 1174.09 608.95 1177.05C608.127 1178.26 607.038 1179.3 606.269 1180.53C605.622 1181.58 605.263 1182.8 604.78 1183.94C610.693 1186.43 610.798 1186.41 614.83 1181.77C613.981 1193.16 621.237 1199.59 628.137 1206.54C630.316 1201.44 630.89 1201.15 635.744 1202.27C637.036 1202.57 638.354 1202.76 639.723 1203.01C639.64 1203.38 639.628 1203.76 639.479 1204.07C637.525 1208.12 637.69 1209.33 640.525 1212.6C642.394 1214.75 644.199 1216.96 646.09 1219.21C648.349 1216.47 649.782 1213.32 650.013 1209.64C650.24 1206.03 649.51 1202.59 648.196 1199.26C647.309 1197.01 646.344 1194.79 645.286 1192.24C648.691 1190.35 651.958 1188.54 655.523 1186.56C656.9 1190.85 658.179 1194.84 659.583 1199.22C662.555 1196.76 665.145 1194.62 668.02 1192.23C665.729 1190.31 663.827 1188.72 661.932 1187.12C660.809 1188.31 659.957 1189.2 659.105 1190.1C658.914 1189.98 658.723 1189.87 658.532 1189.75C659.134 1187.85 659.735 1185.94 660.32 1184.09C670.328 1183.43 676.634 1178.15 680.396 1169.45C681.158 1169.51 681.827 1169.4 682.337 1169.63C687.232 1171.86 690.423 1169.39 693.708 1166.06C696.822 1162.9 697.818 1159.58 696.454 1155.43C695.861 1153.63 695.379 1151.79 694.793 1149.79C696.903 1149.47 698.611 1149.22 700.946 1148.87C698.51 1147.44 696.665 1146.36 694.736 1145.22C695.979 1142.08 697.093 1139.24 698.219 1136.41C699.071 1134.26 699.324 1132.37 697.501 1130.35C695.735 1128.39 696.042 1127.19 697.84 1125.24C698.17 1124.88 698.57 1124.58 698.912 1124.23C701.26 1121.84 701.276 1121.39 699.153 1118.75C698.849 1118.37 698.556 1117.98 698.275 1117.62C699.371 1115.03 699.579 1079.8 698.461 1075.96C696.335 1075.96 694.128 1075.96 691.596 1075.96C693.157 1079.42 694.581 1082.58 696.188 1086.16C688.347 1087.35 680.97 1088.48 673.075 1089.68C675.206 1077.31 677.225 1065.58 679.321 1053.41C678.965 1053.09 678.193 1052.41 677.231 1051.56C681.267 1049.06 685.054 1046.72 689.387 1044.03C686.818 1043.11 684.944 1042.43 682.513 1041.56C685.603 1038.7 688.398 1036.12 691.194 1033.54C691.471 1033.63 691.745 1033.73 692.022 1033.83C692.022 1039.71 692.022 1045.59 692.022 1052.26C697.059 1049.29 701.319 1046.73 705.811 1043.9C703.763 1042.58 702.182 1041.66 700.703 1040.59C696.937 1037.88 696.315 1035.73 697.979 1031.46C698.49 1030.14 699.054 1028.85 699.565 1027.62C697.365 1026.05 694.338 1027.14 692.408 1024.64C694.863 1024.28 696.961 1023.97 699.356 1023.62C698.046 1019.9 696.916 1016.69 695.58 1012.91C693.452 1016.38 691.739 1019.17 689.697 1022.5C687.804 1015.46 687.107 1008.94 685.05 1002.28C682.756 1004.89 680.846 1007.06 678.728 1009.47C675.98 1004.94 675.769 1000.37 676.706 995.758C677.725 990.736 679.087 985.787 680.271 980.797C680.885 978.21 680.903 975.6 680.694 972.228C679.583 973.356 679.042 973.958 678.447 974.5C675.864 976.852 674.305 976.752 672.009 974.076C670.749 972.607 669.523 971.11 668.176 969.5C669.608 968.871 671.03 968.246 672.469 967.613C672.397 967.111 672.452 966.696 672.279 966.428C670.085 963.022 670.868 959.858 672.587 956.464C675.119 951.463 677.6 946.386 679.504 941.124C683.66 929.644 687.443 918.031 691.356 906.464C691.527 905.958 691.466 905.376 691.523 904.714C684.231 907.285 680.242 912.007 679.403 919.561C679.061 922.645 678.083 925.108 676.003 927.393C674.725 928.797 673.686 930.625 673.141 932.444C672.203 935.58 671.826 938.879 671.035 942.066C670.485 944.277 669.802 946.494 668.834 948.545C668.453 949.347 667.192 949.991 666.222 950.205C664.076 950.682 658.283 949.32 655.812 947.972C658.049 947.194 660.152 946.462 662.651 945.594C659.755 942.444 657.211 939.68 654.437 936.664C656.556 934.794 658.488 933.089 661.137 930.748C661.137 934.123 661.137 936.535 661.137 938.945C661.388 938.966 661.638 938.986 661.889 939.006C662.384 937.276 663.056 935.577 663.342 933.813C664.393 927.337 667.648 922.197 672.642 918.101C675.853 915.467 676.194 911.729 677.216 907.537C674.111 909.562 671.561 911.224 668.481 913.234C669.092 908.389 669.604 904.34 670.129 900.178C668.51 899.917 667.346 899.729 665.66 899.457C666.723 898.13 667.523 897.101 668.359 896.098C670.392 893.658 672.463 891.249 674.474 888.791C675.52 887.511 676.18 886.09 675.407 884.396C674.251 881.859 675.071 879.633 676.495 877.509C677.448 876.089 678.528 874.744 679.357 873.257C680.231 871.695 680.836 870.002 679.333 867.639C678.154 869.897 676.885 871.605 676.33 873.52C674.549 879.671 671.232 884.832 666.914 889.45C662.887 893.76 659.52 898.541 656.799 903.782C656.383 904.58 655.766 905.273 655.004 906.357C653.022 903.842 656.088 902.338 655.425 900.148C653.263 899.076 650.897 897.904 648.239 896.59C644.807 903.716 641.498 910.59 638.009 917.836C635.709 915.706 633.79 913.933 631.83 912.118C634.266 908.49 636.382 905.203 638.648 902.024C639.752 900.472 639.961 899.095 639.211 897.283C637.389 892.885 635.794 888.393 634.079 883.95C633.789 883.2 633.349 882.508 632.729 881.3C630.757 887.069 628.966 892.314 627.124 897.704C623.828 897.075 620.883 896.514 617.897 895.943C613.34 905.962 608.926 915.668 604.258 925.93C602.373 922.914 600.905 920.563 599.091 917.657C599.806 917.212 600.455 916.861 601.049 916.431C604.112 914.218 606.045 911.163 607.65 907.806C610.128 902.627 612.707 897.498 615.299 892.377C617.06 888.897 619.265 886.042 623.574 885.357C626.227 884.937 627.649 882.914 627.993 880.169C628.335 877.437 628.819 874.723 629.245 871.963C626.401 871.214 624.179 872.192 621.893 873.971C606.636 885.841 592.2 898.613 578.237 911.984C571.159 918.762 565.313 926.265 560.622 934.773C560.182 935.57 559.899 936.457 559.458 937.505C564.921 938.288 568.508 941.155 570.896 945.635C571.529 946.822 572.072 948.064 572.809 949.181C574.527 951.787 576.337 954.331 578.62 957.64C580.693 964.058 577.586 970.065 573.39 975.905C567.89 971.429 563.087 966.636 559.741 960.509C556.871 955.257 553.704 950.162 550.951 944.853C543.676 930.829 534.193 918.493 522.947 907.462C519.324 903.909 516.558 899.795 514.655 895.065C512.133 888.797 508.171 883.371 504.6 877.741C500.493 878.514 502.785 882.42 500.948 884.404C500.622 883.907 500.374 883.533 500.13 883.157C498.005 879.891 496.594 879.543 493.185 881.467C492.44 881.887 491.77 882.474 490.984 882.773C490.379 883.005 489.748 883.17 489 883.352V791.207L491.525 790.65C491.261 793.03 491.041 795.009 490.737 797.729C494.016 795.183 496.491 792.906 498.533 790.158C499.4 788.991 499.678 787.831 498.953 786.432C497.836 784.278 498.334 782.172 499.394 780.122C500.066 778.823 500.742 777.52 501.298 776.167C502.495 773.254 504.831 771.792 507.75 771.409C509.384 771.193 511.209 771.335 512.764 771.862C515.474 772.781 517.745 772.411 519.972 770.704C522.102 769.07 524.314 767.539 526.523 766.009C527.137 765.583 527.867 765.323 528.737 764.889C528.518 771.63 527.216 777.95 527.418 784.771C531.61 783.439 534.634 781.255 537.385 778.657C537.875 778.194 538.22 777.405 538.321 776.722C539.754 767.007 540.638 757.382 532.723 749.492C534.657 745.314 536.539 741.254 538.688 736.614C539.543 738.822 540.136 740.353 540.727 741.877C549.561 738.66 556.638 727.347 555.734 717.8C553.294 719.441 550.949 721.015 548.515 722.652C547.843 720.965 547.357 719.752 546.9 718.605C545.324 718.435 543.982 718.358 542.665 718.134C537.92 717.328 533.498 717.991 529.25 720.412C521.403 724.884 513.458 729.182 505.551 733.551C504.283 734.253 503.009 734.942 501.651 735.683C500.886 734.525 500.252 733.563 499.565 732.521C497.883 733.747 496.419 734.815 495.237 735.677C493.934 733.609 492.723 731.685 491.501 729.749C492.319 729.61 493.155 729.471 494.404 729.26C495.194 722.939 498.064 717.72 501.163 712.567C501.951 711.259 502.408 709.633 502.586 708.103C502.85 705.84 503.372 703.94 505.212 702.323C506.907 700.832 506.925 699.093 505.367 697.488C503.431 695.492 501.249 693.719 499.069 691.984C497.949 691.092 496.601 690.49 494.955 689.523C496.452 688.765 497.497 688.178 498.586 687.693C505.277 684.719 511.99 681.791 518.67 678.795C520.164 678.124 521.985 677.705 522.293 675.528C521.983 675.152 521.743 674.688 521.364 674.425C516.665 671.16 510.452 670.562 506.49 665.985C502.285 664.659 498.134 664.759 493.891 666.039C491.518 666.754 490.109 668.243 489 670.416V591.314C489.165 591.761 489.285 592.25 489.352 592.775C489.472 593.739 489.453 594.72 489.506 595.884C491.699 595.595 492.532 593.884 493.42 592.416C496.309 587.648 497.787 582.358 498.853 576.94C499.706 572.614 499.991 568.26 499.541 563.71C497.656 563.475 495.904 563.258 493.9 563.007C494.149 556.248 493.655 549.855 489.906 543.66C492.755 543.205 494.994 542.844 497.234 542.488C502.365 541.671 503.588 540.36 504.596 535.365C505.12 532.767 505.852 530.158 506.887 527.723C508.908 522.979 509.261 518.207 507.321 513.471C505.937 510.095 504.252 506.804 502.357 503.684C494.543 490.826 493.42 477.335 498.094 463.179C501.188 453.806 499.591 450.29 490.526 446.127C490.205 445.978 489.946 445.697 489.417 445.296C489.417 440.702 489.408 435.95 489.425 431.201C489.428 430.362 489.538 429.524 489.627 428.311C491.331 428.103 492.978 427.885 494.629 427.706C499.2 427.214 499.841 426.46 499.555 421.92C499.509 421.209 499.548 420.492 499.548 420.382C502.62 418.067 505.26 415.995 507.997 414.059C508.853 413.452 509.942 412.954 510.968 412.851C513.998 412.55 516.587 411.271 519.049 409.633C520.98 408.346 522.857 406.977 524.798 405.705C527.409 403.997 530.283 403.28 533.415 402.993C540.22 402.369 547.003 401.48 553.779 400.587C557.416 400.107 560.972 399.498 564.646 400.635C566.991 401.36 568.587 400.696 569.389 398.382C570.351 395.603 572.331 395.523 574.559 395.402C580.774 395.061 586.987 394.705 593.2 394.344C593.8 394.309 594.393 394.189 595.136 394.086C595.514 393.071 595.884 392.081 596.295 390.981C597.127 391.086 597.84 391.16 598.547 391.266C602.88 391.924 606.476 390.484 609.501 387.422C609.845 387.075 610.238 386.757 610.508 386.358C615.154 379.475 621.819 374.992 628.808 370.886C629.433 370.521 630 370.058 630.89 369.43C629.581 367.063 628.302 364.75 626.838 362.106C629.163 360.024 631.488 357.939 634.293 355.424C631.654 354.519 629.435 353.758 626.849 352.873C627.979 351.211 628.984 349.737 630.305 347.796C627.929 347.093 625.795 346.462 623.114 345.669C625.489 342.033 627.709 338.636 630.116 334.951C628.19 334.048 626.369 333.195 624.158 332.158C628.106 329.277 632.474 327.677 636.068 324.949C635.987 324.657 635.906 324.367 635.825 324.076C633.477 324.076 631.13 324.076 627.819 324.076C629.456 321.688 630.569 320.03 631.718 318.395C632.903 316.709 634.124 315.048 635.688 312.878C635.963 314.471 636.141 315.509 636.379 316.892C639.047 313.779 640.151 310.449 640.537 306.54C638.605 307.234 636.808 307.879 634.869 308.574C634.056 306.946 634.796 305.547 635.589 304.502C637.123 302.478 638.922 300.645 640.709 298.829C642.304 297.21 644.027 295.719 645.951 293.932C644.193 292.901 642.889 292.134 640.894 290.963C642.997 290.116 644.491 289.039 646.025 288.979C653.658 288.677 656.415 286.806 658.992 279.632C659.105 279.318 659.122 278.968 659.308 277.955C657.745 279.35 656.589 280.323 655.499 281.366C652.583 284.156 649.302 285.118 645.431 283.577C643.851 282.949 642.225 282.441 639.842 281.607C642.532 280.592 644.534 279.836 647.115 278.862C645.357 277.661 643.952 276.7 642.04 275.393C648.305 271.506 654.536 268.283 660.846 264.499C659.921 259.723 663.852 254.906 660.308 249.866C661.953 249.117 663.446 248.437 665.576 247.467C663.287 246.692 661.564 246.108 659.201 245.31C661.51 243.959 663.322 242.902 665.078 241.875C665.078 239.755 664.988 237.81 665.095 235.875C665.434 229.736 664.965 228.882 659.241 226.178C659.999 224.076 660.768 221.937 661.585 219.67C660.228 218.814 659.013 218.048 657.471 217.076C657.874 215.424 658.248 213.671 658.732 211.949C659.963 207.575 658.844 205.116 654.677 203.225C651.899 201.961 649.114 200.707 646.329 199.459C646.115 199.363 645.864 199.35 645.165 199.199C644.221 200.444 643.156 201.852 641.496 204.042C644.942 203.547 647.581 203.168 650.59 202.736C650.59 210.63 650.59 218.17 650.59 225.64C652.35 226.601 653.821 227.407 656.081 228.642C652.772 229.492 650.182 230.158 647.37 230.879C649.66 236.979 653.761 242.888 647.066 248.678C648.63 249.636 649.951 250.445 651.323 251.284C651.323 253.291 651.323 255.228 651.323 257.784C654.521 255.815 656.345 252.867 659.236 251.165C658.223 260.433 652.064 265.931 644.454 271.443C644.873 268.565 645.179 266.465 645.484 264.366C645.308 264.283 645.133 264.202 644.957 264.12C643.338 266.636 641.704 269.146 640.106 271.677C639.402 272.794 638.684 273.732 636.786 272.578C637.29 269.811 637.655 266.818 638.423 263.933C638.95 261.951 638.516 260.729 636.896 259.572C635.413 258.514 634.061 257.246 632.766 255.956C630.392 253.595 629.556 250.778 630.794 247.572C631.929 244.632 633.186 241.737 634.313 239.006C634.906 238.905 635.155 238.789 635.366 238.837C639.205 239.702 640.054 239.368 641.679 235.86C642.729 233.594 643.625 231.29 646.612 231.321C646.44 229.389 645.634 228.718 643.906 228.929C641.881 229.176 639.826 229.191 637.114 229.345C638.73 226.976 639.996 225.122 641.464 222.969C639.463 222.529 637.749 222.153 636.175 221.806C637.896 216.065 639.575 210.465 641.291 204.739C637.345 204.595 634.434 208.553 630.021 206.596C631.953 202.541 633.706 198.865 635.459 195.187C631.443 196.447 629.053 199.784 625.199 202.039C624.932 199.214 625.037 196.743 625.134 194.018C625.659 193.992 626.099 193.914 626.526 193.957C630.391 194.344 631.445 193.633 632.565 189.845C633.505 186.671 632.002 184.173 628.709 183.868C626.534 183.666 624.286 183.683 622.131 184.005C619.592 184.384 617.303 184.043 614.859 182.699C615.16 181.916 615.473 181.098 615.866 180.079C614.725 179.248 613.534 178.418 612.385 177.53C609.321 175.161 607.044 172.304 608.027 168.161C608.971 164.184 611.038 160.97 615.308 159.775C615.76 159.648 616.183 159.424 616.629 159.241C616.011 157.44 614.844 156.948 613.167 157.261C610.681 157.726 608.178 158.119 605.645 158.55C604.907 156.291 605.936 155.076 607.467 154.086C610.624 152.038 614.169 151.135 617.847 150.82C624.333 150.263 630.467 151.261 636.066 154.931C638.814 156.732 641.873 158.053 644.713 159.728C649.756 162.705 654.767 165.739 659.737 168.835C664.055 171.526 667.055 171.428 671.203 168.11C668.041 164.871 664.721 162.286 659.785 163.04C657.471 163.393 655.433 162.853 654.307 160.564C655.12 157.975 657.639 157.873 659.632 156.861C659.421 153.45 658.689 150.28 657.031 147.399C654.883 143.674 654.077 140.004 656.314 135.955C656.983 134.746 656.863 133.103 657.129 131.663C657.403 130.173 656.913 129.151 655.59 128.3C650.709 125.157 647.72 121.013 649.481 113.922C647.595 115.561 646.457 116.548 645.302 117.552C644.028 114.853 644.028 114.853 645.913 106.694C643.19 104.875 640.155 103.288 636.891 103.281C633.732 103.275 630.569 104.328 627.188 104.956C629.445 102.095 633.928 102.187 635.394 98.8329C635.21 98.5149 635.026 98.197 634.841 97.8789C633.291 97.9816 631.741 98.067 630.192 98.1921C628.613 98.3208 627.032 98.4581 625.458 98.6478C622.054 99.0572 619.139 98.2305 617.086 95.319C615.748 93.4256 613.989 93.3603 611.91 93.6825C604.31 94.8639 596.695 95.9334 589.081 97.0296C588.369 97.1316 587.639 97.1179 586.026 97.2096C589.655 93.5418 593.112 90.7498 596.751 87.1538C592.91 85.9526 589.654 84.6902 586.283 83.9507C582.801 83.1866 581.838 83.9721 580.656 87.3571C578.999 92.1009 576.844 93.0683 572.291 91.0111C569.963 89.9597 567.683 88.7954 565.402 87.6399C565.119 87.496 564.963 87.1005 564.483 86.4785C566.362 86.1467 568.026 85.8534 570.415 85.4313C565.398 82.1811 561.022 79.3476 556.344 76.3173C558.583 74.257 560.606 72.3974 562.63 70.536C562.534 70.3375 562.439 70.1405 562.345 69.9429C561.396 70.2348 560.403 70.4336 559.507 70.8418C557.952 71.5479 556.458 72.3884 554.934 73.1628C552.547 74.3767 550.098 74.8882 547.615 73.5358C545.286 75.0884 544.513 77.4575 543.245 79.5022C542.141 81.2828 542.459 84.1402 539.042 84.999C539.373 82.5111 539.65 80.4314 539.965 78.0719C537.04 78.8282 534.37 79.5831 533.59 82.5602C532.775 85.6685 533.31 88.4652 536.064 90.7777C541.901 95.6772 544.481 102.248 545.171 109.62C541.843 111.911 539.737 111.956 536.828 109.483C534.141 107.201 531.656 104.681 528.795 101.996C530.284 101.814 531.619 101.652 532.959 101.489C531.688 95.784 531.688 95.784 523.737 94.6896C523.824 92.92 525.33 92.0703 526.223 90.866C527.091 89.7001 528.066 88.615 529.313 87.1108C525.911 85.5813 522.77 84.1678 519.417 82.6594C520.115 81.5161 520.715 80.6298 521.218 79.6903C522.77 76.7897 522.548 74.7678 520.242 72.3775C519.147 71.2452 517.819 70.3344 516.584 69.3409C510.108 64.1371 503.62 58.9492 497.161 53.7255C496.523 53.2105 496.054 52.4861 495.157 51.4576C497.799 50.964 499.966 50.713 502.195 51.5294C507.883 53.614 513.8 54.071 519.804 54.5341C523.838 54.846 527.886 56.3447 531.697 57.8869C538.972 60.8318 546.42 62.2455 554.241 61.807C557.1 61.6451 559.705 62.2471 562.281 63.7036C568.89 67.4383 576.088 69.0642 583.68 69.3197C589.402 69.5122 595.101 70.261 600.823 70.5253C604.956 70.7148 609.121 70.7099 613.245 70.4048C615.352 70.2506 617.295 70.3801 619.362 70.7638C624.24 71.6701 628.315 74.0236 632.622 76.3828C639.932 80.3884 646.936 84.6001 653.165 90.1953C655.566 92.3513 658.738 93.6486 661.997 95.6003C661.014 96.8705 660.027 98.1449 658.601 99.9882C659.135 100.39 659.763 100.861 660.548 101.451C662.225 99.6854 663.644 98.1939 665.21 96.5463C667.855 97.1808 670.505 97.8165 673.836 98.6173C667.758 103.086 661.333 105.49 655.465 108.798C656.264 111.456 656.287 111.523 658.485 110.774C662.874 109.278 667.233 107.691 671.615 106.166C672.744 105.772 673.906 105.471 675.496 104.996C675.007 106.27 674.686 107.111 674.299 108.121C674.826 108.121 675.317 108.256 675.688 108.1C677.98 107.136 680.138 106.396 682.646 107.822C685.172 109.257 686.197 111.765 687.631 113.959C687.999 114.525 687.344 115.758 687.124 116.857C688.214 117.547 689.299 118.33 690.467 118.958C695.02 121.403 698.292 124.964 700.454 129.683C701.296 131.518 702.031 133.523 704.722 134.045C705.847 134.261 706.597 136.415 707.554 137.737C705.371 140.305 702.727 139.228 700.357 139.105C698.884 140.628 700.134 141.234 701.095 142.013C704.311 144.621 707.528 147.234 710.669 149.932C711.581 150.716 712.438 151.69 712.982 152.749C714.19 155.105 715.638 157.047 718.237 158.07C718.981 158.362 719.531 159.471 719.91 160.322C725.442 172.738 729.674 185.607 733.056 198.757C733.442 200.264 733.318 201.902 733.419 203.481C733.654 207.155 734.286 210.606 736.268 213.927C737.722 216.364 739.049 219.397 736.676 222.639C738.34 223.718 739.173 225.33 739.571 227.508C742.675 244.464 745.015 261.519 746.766 278.662C751.493 324.934 752.995 371.343 752.3 417.821C751.993 438.35 750.952 458.869 750.145 479.389C750.066 481.411 749.299 483.408 748.838 485.415C748.593 486.477 748.043 487.548 748.107 488.586C748.37 492.878 747.785 496.803 745.981 500.899C743.57 506.371 746.23 513.354 750.812 517.032C753.366 519.083 755.796 521.309 758.116 523.623C761.339 526.839 764.809 529.351 769.922 528.911C770.643 530.242 771.427 531.599 772.131 532.996C789.503 567.457 809.734 600.146 833.041 630.905C843.847 645.168 855.832 658.358 869.726 669.72C877.887 676.393 886.605 682.217 895.952 687.104C925.392 702.495 954.998 717.545 985.402 730.967C986.058 731.256 986.69 731.593 987.41 732.249C982.763 732.313 979.826 735.249 976.761 737.968C958.488 754.176 947.492 774.633 941.701 798.125C938.355 811.697 936.569 825.509 935.885 839.438C934.996 857.506 934.38 875.588 933.751 893.667C933.077 913.034 930.128 932.1 926.081 950.994C915.973 998.185 901.57 1044.03 882.237 1088.27C877.742 1098.56 872.684 1108.62 867.487 1118.58C857.411 1137.88 843.395 1154.12 827.474 1168.79C808.078 1186.67 786.598 1201.75 764.401 1215.87C740.579 1231.02 716.035 1244.94 691.355 1258.62C670.994 1269.9 651.631 1282.62 633.749 1297.55C633.291 1297.94 632.79 1298.27 631.996 1298.85C628.92 1293.93 624.26 1290.48 622.173 1284.85C619.979 1278.94 615.777 1274.24 611.157 1269.94C609.675 1268.56 608.539 1266.8 607.314 1265.17C604.542 1261.46 601.799 1257.74 599.073 1254.01C597.864 1252.35 596.449 1250.78 595.601 1248.95C592.404 1242.05 587.885 1236.25 581.985 1231.47C580.601 1230.34 579.337 1228.93 578.421 1227.4C574.84 1221.44 570.245 1216.48 564.572 1212.46C563.214 1211.49 561.926 1210.27 560.993 1208.9C557 1203.05 552.041 1198.28 546.008 1194.56C544.7 1193.76 543.493 1192.63 542.555 1191.4C538.714 1186.39 534.14 1182.26 528.726 1178.99C527.308 1178.14 526.003 1176.93 524.962 1175.64C521.719 1171.6 517.997 1168.13 513.76 1165.16C512.202 1164.06 510.762 1162.66 509.626 1161.14C506.537 1156.98 503.15 1153.1 498.782 1150.32C495.544 1148.27 493.576 1145.33 491.293 1141.87C493.368 1141.87 495.059 1141.87 497.617 1141.87C494.904 1139.17 492.978 1136.79 490.616 1134.99C490.02 1134.54 489.483 1134.06 489 1133.57V1123.81L490.544 1124.22C491.408 1120.8 490.789 1117.38 489 1114.39V1027.56C490.745 1029.62 492.488 1031.69 494.225 1033.76C495.383 1035.14 496.422 1036.66 497.284 1038.24C498.369 1040.23 499.217 1042.35 500.371 1044.85C502.609 1042.4 504.432 1040.4 506.464 1038.17C504.083 1037.07 502.249 1036.09 500.314 1035.38C498.187 1034.6 497.008 1033.25 496.278 1031.08C494.347 1025.34 492.326 1019.64 489 1014.5V986.249C490.325 987.887 491.849 989.432 493.573 990.519C496.066 992.092 497.431 994.111 498.207 996.793C498.808 998.867 499.533 1000.91 500.165 1002.84C509.274 1002.83 514.236 1007.25 514.03 1015.03C516.065 1015.96 518.174 1016.89 520.268 1017.86C521.412 1018.39 522.396 1019.01 522.31 1020.55C522.198 1022.56 523.411 1023.53 525.25 1023.48C528.108 1023.41 530.028 1025.13 531.993 1026.74C533.391 1027.89 534.062 1029.44 533.681 1031.31C533.545 1031.99 533.463 1032.68 533.336 1033.5C533.829 1033.36 534.092 1033.36 534.231 1033.23C537.328 1030.32 537.561 1025.12 533.698 1022.35C529.845 1019.59 528.856 1016.38 529.137 1012.17C529.148 1012 528.865 1011.81 528.719 1011.63C523.978 1012.16 523.63 1011.91 522.382 1006.84C521.652 1007.38 520.995 1007.87 520.326 1008.34C519.65 1008.82 518.959 1009.28 518.349 1009.7C514.455 1007.54 514.006 1006.18 516.155 1002.68C517.684 1000.19 519.234 997.721 521.975 996.229C522.713 995.829 523.517 994.322 523.286 993.684C523.013 992.927 521.717 992.337 520.757 992.082C519.729 991.808 518.565 992.102 517.477 991.987C514.608 991.688 513.838 990.557 514.543 987.823C514.666 987.353 514.815 986.878 515.029 986.442C515.943 984.582 515.489 983.01 514.36 981.338C511.9 977.694 509.619 973.929 507.255 970.218C506.363 968.819 505.444 967.434 504.548 966.062C502.545 967.104 500.988 968.097 499.298 968.747C496.889 969.674 494.471 968.55 493.815 966.068C492.26 960.186 490.906 954.25 489.457 948.27C491.154 946.937 492.617 945.788 494.303 944.463C494.991 946.062 495.483 947.17 495.947 948.289C497.161 951.223 498.32 954.18 499.601 957.083C499.866 957.681 500.567 958.086 501.065 958.58C501.341 958.47 501.618 958.36 501.894 958.25C501.894 954.432 501.894 950.615 501.894 946.725C504.369 946.459 506.353 946.247 508.232 946.045C509.337 951.328 506.23 955.037 504.443 959.895C506.5 958.282 507.893 957.189 509.522 955.913C509.997 959.69 513.664 958.298 515.359 960.43C515.257 961.682 515.133 963.166 515.025 964.48C513.72 963.866 512.731 963.401 511.73 962.958L511.703 962.905ZM567.771 114.11C570.575 115.926 573.166 117.488 575.605 119.257C576.268 119.739 576.888 120.917 576.761 121.643C576.668 122.182 575.382 122.69 574.551 122.887C573.143 123.221 571.677 123.425 570.23 123.46C567.863 123.517 566.644 122.393 566.282 120.084C566.01 118.35 566.343 116.873 567.771 114.11ZM492.984 115.545C498.151 117.971 502.742 120.125 508.055 122.619C504.546 124.362 501.595 125.826 498.285 127.469C496.423 124.469 494.564 121.663 492.946 118.724C492.551 118.009 492.942 116.861 492.984 115.545ZM546.656 113.179C547.273 111.951 547.777 110.869 548.347 109.824C550.679 105.555 551.328 105.328 555.719 107.632C557.416 108.522 558.976 109.674 560.875 110.883C559.83 113.037 558.899 114.959 557.807 117.211C556.689 116.598 555.759 116.129 554.872 115.593C552.847 114.37 551.01 112.544 548.29 113.985C548.003 114.137 547.311 113.519 546.656 113.179ZM498.855 92.3222C501.001 92.4904 502.667 92.6221 504.92 92.7992C503.599 89.4767 502.432 86.5443 501.242 83.5567C501.951 83.2907 502.44 82.9635 502.58 83.0752C507.58 87.0437 512.547 91.0539 517.571 95.0993C512.491 99.9514 503.855 98.6402 498.855 92.3222ZM622.487 144.945C621.766 146.058 621.216 146.855 620.718 147.685C619.913 149.026 618.774 149.415 617.286 149.055C613.262 148.079 609.136 147.399 605.245 146.044C603.443 145.416 601.732 143.732 600.621 142.092C599.082 139.818 598.145 137.133 597.446 134.093C601.41 136.237 605.255 138.658 609.373 140.451C613.465 142.231 617.831 143.38 622.487 144.945ZM832.612 794.511C835.491 792.6 834.046 790.501 833.857 788.717C830.109 788.881 828.169 785.942 824.953 784.154C824.864 785.373 824.435 786.533 824.809 786.924C827.315 789.545 829.994 792.003 832.612 794.511ZM675.747 131.927C672.098 125.564 669.899 124.513 664.91 127.282C669.508 128.022 669.668 132.034 671.668 135.032C673.207 133.861 674.413 132.941 675.747 131.927ZM508.57 710.412C510.264 713.304 511.704 715.764 513.195 718.308C514.148 717.952 514.861 717.791 515.468 717.442C518.291 715.82 518.534 713.943 516.247 711.667C514.214 709.644 511.806 709.635 508.57 710.412ZM769.84 1052.05C766.367 1054.64 763.292 1056.93 759.759 1059.57C761.954 1060.77 763.612 1061.68 765.623 1062.78C767.473 1059.68 769.232 1056.81 770.868 1053.87C771.012 1053.61 770.339 1052.9 769.84 1052.05ZM607.562 723.37C605.578 718.425 604.015 714.531 602.392 710.486C598.55 714.28 598.426 716.651 601.608 719.982C602.529 720.946 603.372 722.024 604.435 722.799C605.011 723.219 605.973 723.109 607.562 723.37ZM661.915 266.013C661.667 266.059 661.42 266.104 661.173 266.149C660.852 268.269 660.29 270.072 658.155 271.24C656.382 272.21 656.406 273.265 657.66 274.84C658.311 275.658 659.16 276.318 660 277.128C662.705 275.436 665.206 273.87 668.217 271.987C666.551 271.781 665.619 271.666 664.793 271.564C663.769 269.591 662.842 267.801 661.915 266.013ZM564.602 911.46C561.575 911.273 559.386 911.903 557.343 913.026C555.353 914.119 554.421 915.899 554.406 918.166C554.39 920.459 556.339 920.677 558.065 921.661C560.182 918.358 562.255 915.123 564.602 911.46ZM763.314 794.535C761.47 794.115 760.303 794.249 760.059 795.869C759.481 799.685 758.985 803.515 758.396 807.78C759.784 807.167 760.73 806.681 761.722 806.325C763.9 805.545 764.665 804.053 764.299 801.802C763.911 799.422 763.645 797.024 763.314 794.535ZM586.644 443.99C583.682 448.277 581.071 452.102 578.408 455.888C577.337 457.408 577.775 458.275 579.256 458.859C584.625 455.504 588.922 451.757 586.644 443.99ZM613.973 690.498C616.623 689.532 618.818 688.805 620.952 687.932C623.02 687.085 625.374 686.797 627.231 684.999C626.713 684.334 626.284 683.326 625.876 683.335C623.116 683.395 620.37 683.702 618.055 685.519C616.045 684.79 614.048 684.066 611.345 683.085C612.341 685.891 613.087 688.001 613.973 690.498ZM617.367 703.954C613.443 704.692 609.599 704.726 605.962 706.428C606.966 707.217 607.988 707.814 609.054 707.907C612.77 708.23 613.12 708.595 612.692 712.431C612.616 713.122 612.617 713.822 612.583 714.503C616.852 714.975 617.841 714.195 617.726 710.536C617.664 708.479 617.506 706.425 617.367 703.954ZM790.323 851.015C787.915 842.037 782.651 835.692 775.109 831.052C775.019 831.714 775.097 832.312 775.43 832.672C779.253 836.823 782.355 841.395 784.415 846.703C785.331 849.059 787.247 850.61 790.323 851.015ZM819.706 701.354C820.341 702.067 820.943 702.813 821.618 703.485C824.042 705.902 824.346 706.023 827.273 704.356C830.127 702.73 832.916 700.974 835.625 699.119C838.779 696.959 838.788 696.683 837.487 691.88C835.581 693.678 833.833 695.279 832.139 696.935C828.762 700.236 825.116 702.687 819.706 701.354ZM826.087 850.868C826.297 850.737 826.507 850.606 826.718 850.474C825.438 846.069 824.159 841.662 822.796 836.969C819.514 838.548 816.755 839.873 813.502 841.436C818.026 844.828 822.057 847.849 826.087 850.868ZM632.836 732.153C633.045 732.408 633.254 732.662 633.465 732.917C640.404 730.486 647.341 728.056 654.28 725.626C651.607 724.283 648.944 723.554 646.242 723.005C645.631 722.879 644.801 723.232 644.228 723.606C640.651 725.944 637.105 728.329 633.59 730.759C633.202 731.027 633.082 731.679 632.836 732.153ZM647.998 863.454C639.904 860.788 631.353 863.938 628.95 870.413C631.428 869.452 633.742 868.555 636.018 867.671C636.706 869.013 637.229 870.03 637.85 871.24C641.325 868.575 644.569 866.085 647.998 863.454ZM890.993 801.704C890.575 800.762 890.387 800.2 890.092 799.702C888.479 796.974 886.914 794.216 885.178 791.569C884.389 790.364 883.361 789.249 882.237 788.351C880.413 786.894 878.668 787.053 877.018 788.725C876.227 789.525 875.668 790.554 874.805 791.755C878.084 792.707 880.85 793.508 883.824 794.372C883.824 796.815 883.824 799.085 883.824 801.704C886.228 801.704 888.352 801.704 890.993 801.704ZM562.327 634.924C566.383 633.634 570.127 632.444 574.597 631.023C569.308 627.674 564.717 624.769 560.126 621.864C559.912 622.004 559.698 622.145 559.484 622.286C560.405 626.381 561.326 630.475 562.327 634.924ZM738.513 1090.8C739.397 1090.29 740.367 1090.06 740.744 1089.46C742.951 1085.95 745.037 1082.35 747.125 1078.76C747.794 1077.61 747.225 1077 746 1076.62C744.855 1078.08 743.765 1079.47 742.508 1081.06C741.121 1079.02 739.923 1077.26 738.731 1075.5C733.86 1078.89 733.732 1085.44 738.267 1094.33C738.357 1093.03 738.429 1092 738.513 1090.8ZM493.281 626.314C492.622 630.833 492.811 646.555 493.553 649.013C497.245 645.493 500.055 640.415 500.664 636.166C501.375 631.212 498.416 627.266 493.281 626.314ZM510.021 705.391C514.434 704.672 517.673 706.483 520.795 708.823C522.255 709.917 523.752 711.011 525.369 711.836C528.015 713.186 530.675 713.096 533.79 711.184C527.949 706.182 522.437 701.46 516.616 696.475C514.328 699.568 512.175 702.479 510.021 705.391ZM588.3 699.731C589.979 700.105 590.714 700.439 591.425 700.396C594.46 700.215 597.488 699.889 600.521 699.686C601.362 699.629 602.22 699.816 603.253 699.907C602.204 702.791 598.698 702.889 598.082 706.108C600.614 705.991 602.839 705.89 605.113 705.788C606.326 701.301 607.452 697.137 608.628 692.791C605.917 692.092 603.698 691.479 601.452 690.975C600.921 690.855 600.166 690.912 599.751 691.213C596.152 693.825 592.609 696.51 588.3 699.731ZM714.941 1022.57C714.61 1022.53 714.278 1022.49 713.947 1022.46C712.464 1024.05 710.88 1025.55 709.545 1027.26C708.943 1028.03 708.44 1029.24 708.577 1030.15C709.44 1035.89 710.495 1041.6 711.563 1047.75C713.461 1046.54 715.119 1045.73 716.435 1044.54C717.221 1043.83 718.005 1042.46 717.878 1041.51C717.037 1035.17 715.949 1028.88 714.941 1022.57ZM786.252 811.734C789.159 812.675 791.727 813.506 794.737 814.482C793.703 808.071 790.99 803.211 786.755 799.372C783.064 796.028 778.943 793.158 775.006 790.086C773.304 788.758 771.911 789.217 770.465 791.002C771.458 792.286 772.246 793.713 773.405 794.712C775.428 796.457 777.631 798.009 779.845 799.514C784.018 802.351 787.062 805.772 786.252 811.734ZM807.788 841.063C805.629 835.823 803.574 830.837 801.346 825.427C804.949 825.427 807.913 825.427 811.194 825.427C809.472 822.295 807.221 820.489 804.088 819.603C803.683 819.972 803.315 820.275 802.985 820.617C799.266 824.479 797.738 824.563 793.788 821.105C793.237 820.623 792.724 820.095 792.147 819.647C791.053 818.802 790.077 817.688 788.217 817.628C788.491 818.356 788.611 818.802 788.819 819.204C792.122 825.598 795.438 831.984 798.748 838.374C800.637 842.022 802.597 842.677 807.788 841.063ZM710.868 1086.68C712.971 1087.55 714.86 1088.33 717.051 1089.23C717.765 1087.05 718.298 1085.06 719.068 1083.17C719.794 1081.39 719.653 1079.99 718.327 1078.5C717.124 1077.14 716.215 1075.52 715.262 1073.96C714.022 1071.93 713.796 1069.97 715.339 1067.85C717.206 1065.28 717.889 1062.26 717.217 1059.13C716.391 1055.29 714.454 1051.97 711.59 1048.5C711.225 1050.46 710.741 1051.86 710.746 1053.26C710.758 1057.04 711.014 1060.82 711.108 1064.61C711.221 1069.24 711.296 1073.88 711.308 1078.51C711.309 1079.23 710.88 1079.94 710.484 1081.17C709.6 1079.75 709.041 1078.86 708.482 1077.97C708.239 1078.04 707.997 1078.11 707.754 1078.18C707.952 1081.86 708.151 1085.54 708.356 1089.33C706.694 1089.55 705.328 1089.73 703.468 1089.98C705.163 1092.81 706.62 1095.25 708.425 1098.27C710.851 1094.34 709.356 1090.42 710.868 1086.68ZM793.399 977.95C792.651 975.298 793.689 972.855 792.142 970.715C791.348 972.939 790.668 975.175 790.659 977.415C790.636 982.923 790.873 988.42 788.581 993.631C788.295 994.282 788.299 995.065 788.191 995.791C787.272 1002.02 790.807 1006.58 797.091 1007.25C800.517 1007.62 802.825 1004.94 801.942 1001.59C801.599 1000.3 801.242 999 800.828 997.723C798.983 992.037 796.782 986.436 796.381 980.387C796.251 978.432 794.827 978.191 793.399 977.95ZM847.918 807.161C855.142 814.698 861.865 821.712 868.775 828.922C871.063 826.913 873.122 825.107 875.173 823.307C878.348 825.509 881.224 827.502 883.923 829.374C886.002 828.36 886.405 827.175 885.843 825.3C884.934 822.271 883.274 820.321 880.184 819.221C869.993 815.593 859.463 812.77 850.152 806.953C849.684 806.661 848.784 807.063 847.918 807.161ZM846.431 767.782C846.569 767.522 846.706 767.262 846.844 767.003C844.498 765.216 842.154 763.43 839.163 761.153C843.085 760.471 846.129 759.942 849.116 759.423C849.59 761.02 849.921 762.141 850.296 763.401C854.898 763.063 859.263 762.503 863.629 762.483C868.842 762.46 871.223 758.597 874.959 755.51C872.703 754.959 871.176 754.584 869.703 754.224C866.078 759.125 861.856 759.779 852.64 758.458C855.898 757.726 858.332 757.181 861.629 756.441C854.751 752.267 848.559 748.512 842.437 744.797C838.086 747.489 834.68 751.211 829.463 752.035C829.038 750.114 828.653 748.378 828.222 746.433C826.605 746.648 825.142 746.711 823.763 747.082C823.051 747.273 822.241 747.878 821.895 748.522C819.243 753.449 816.696 758.431 813.92 763.769C818.993 765.259 823.732 766.651 828.492 768.05C828.887 767.565 829.125 767.296 829.339 767.009C831.734 763.803 832.737 763.443 836.452 764.57C837.617 764.923 838.741 765.406 839.902 765.775C842.071 766.464 844.254 767.115 846.431 767.782ZM821.707 924.613C825.212 923.23 827.236 920.826 828.332 917.492C829.206 914.831 830.025 912.109 831.291 909.632C832.34 907.578 832.763 905.571 832.719 903.325C832.61 897.671 833.13 897.125 839.083 896.492C835.288 888.807 831.554 881.242 827.705 873.445C827.15 874.082 826.84 874.312 826.701 874.619C825.223 877.891 825.899 881.054 827.209 884.189C828.085 886.287 828.933 888.397 830.045 891.121C825.837 890.713 822.31 890.37 818.713 890.022C820.977 880.936 817.878 873.742 810.348 870.528C809.999 873.26 809.568 875.883 809.34 878.523C808.598 887.066 808.323 895.601 810.481 904.014C812.488 911.839 816.212 918.719 821.707 924.613ZM860.782 868.989C862.029 865.226 864.465 862.55 866.757 859.688C873.903 850.768 872.658 837.529 864.164 829.91C859.64 825.853 854.442 822.977 848.541 821.502C844.571 820.51 840.542 819.904 836.391 820.747C837.602 828.188 840.035 834.848 844.452 840.748C847.007 844.161 849.422 847.688 851.751 851.261C852.732 852.768 853.848 854.481 853.999 856.182C854.464 861.412 857.949 864.911 860.782 868.989ZM715.782 998.783C724.42 993.131 728.017 988.382 730.631 979.345C729.561 978.699 728.449 978.026 726.95 977.121C730.111 975.366 732.907 973.712 735.799 972.242C737.531 971.36 738.632 970.136 739.382 968.336C742.172 961.648 744.175 954.748 744.999 947.554C745.416 943.924 745.694 940.237 744.512 936.544C742.962 940.082 741.41 943.62 739.739 947.428C734.349 936.828 734.735 926.23 738.006 915.552C733.973 914.655 732.064 915.43 730.555 918.653C729.628 920.634 729.103 922.801 728.221 924.806C727.417 926.637 726.592 928.59 723.855 928.964C724.525 922.591 725.173 916.443 725.868 909.824C722.784 911.36 719.661 911.619 718.094 914.834C716.714 917.667 715.14 920.481 713.203 922.95C706.612 931.351 704.222 940.913 704.754 951.386C704.865 953.582 705.087 955.78 705.049 957.973C704.992 961.139 705.301 964.462 704.45 967.43C703.151 971.964 702.403 976.203 703.883 980.893C704.84 983.923 703.185 986.286 700.296 987.729C699.339 988.208 698.333 988.585 697.001 989.158C697.592 989.977 698.008 991.112 698.501 991.146C701.447 991.351 704.412 991.329 707.37 991.311C707.813 991.308 708.246 990.905 708.695 990.718C709.35 990.446 710.015 990.201 710.882 989.868C712.521 992.852 714.086 995.699 715.782 998.783ZM763.94 930.041C763.457 931.721 763.103 932.717 762.887 933.743C758.591 954.174 753.725 974.467 748.491 994.678C746.137 1003.77 743.299 1012.78 742.579 1022.22C742.19 1027.31 740.933 1032.04 738.357 1036.47C737.327 1038.24 736.637 1040.26 736.081 1042.24C734.458 1048.03 735.151 1053.54 738.392 1058.83C740.452 1058.13 742.34 1057.48 744.43 1056.77C744.532 1061.9 741.005 1066.56 744.272 1071.8C745.91 1070.98 747.626 1070.36 749.037 1069.33C750.952 1067.93 750.967 1066.49 749.357 1064.69C748.338 1063.55 747.196 1062.52 745.754 1061.1C748.176 1060.68 750.053 1060.35 751.99 1060.02C751.069 1057.87 749.917 1055.96 749.465 1053.89C749.015 1051.84 750.681 1050.4 753.835 1049.51C753.835 1051.17 753.835 1052.8 753.835 1054.43C754.011 1054.49 754.186 1054.56 754.362 1054.62C756.723 1050.32 759.086 1046.01 761.472 1041.66C759.399 1040.54 756.496 1043.86 755.364 1039.86C757.777 1037.19 760.248 1034.5 762.666 1031.76C765.114 1028.99 767.812 1026.42 770.258 1023.12C766.956 1022.82 764.273 1022.57 761.794 1022.34C763.923 1016.95 766.191 1012.07 767.79 1006.98C770.144 999.474 770.931 991.664 770.845 983.812C770.747 975.017 770.425 966.224 770.217 957.43C770.174 955.65 770.211 953.867 770.211 951.888C773.278 952.364 775.841 952.763 778.758 953.216C777.794 947.506 776.928 942.379 776.029 937.061C773.394 937.285 771.131 937.478 768.935 937.665C767.291 935.156 765.78 932.85 763.94 930.041ZM752.709 851.882C753.264 854.903 753.667 857.015 754.037 859.133C756.019 870.517 757.953 881.922 767.908 889.831C766.272 892.445 766.742 894.999 767.224 897.689C767.644 900.05 767.685 902.575 767.353 904.952C766.75 909.297 765.858 913.613 764.876 917.891C764.186 920.9 765.067 923.368 766.831 926.112C769.234 925.018 771.832 924.344 773.755 922.819C775.739 921.245 777.066 918.842 779.031 916.359C781.029 925.37 782.915 933.877 784.874 942.706C786.485 941.7 787.685 940.95 789.109 940.06C791.968 944.352 794.723 948.489 797.619 952.833C796.706 953.14 796.126 953.272 795.603 953.523C793.546 954.511 793.313 955.192 794.305 957.24C794.516 957.677 794.792 958.085 795.055 958.496C797.161 961.803 798.766 965.116 794.58 968.635C801.259 968.857 805.96 966.389 809.933 961.387C806.609 959.606 803.536 957.961 801.034 956.62C800.805 954.515 801.189 952.549 800.384 951.648C797.65 948.585 797.117 945.226 797.851 941.419C798.21 939.561 797.755 938.048 795.768 937.146C793.862 937.862 791.9 938.597 789.364 939.548C791.183 935.457 792.718 932.14 794.14 928.774C795.709 925.063 796.71 924.691 800.101 926.771C802.331 928.14 804.567 929.502 807.367 931.214C806.854 927.697 806.474 924.942 806.041 922.195C805.591 919.328 805.089 916.471 804.613 913.63C803.225 913.338 802.175 913.116 801.004 912.87C800.136 914.698 799.336 916.385 798.16 918.867C795.463 910.012 793.042 901.96 790.552 893.931C789.468 890.434 788.295 886.965 787.065 883.518C785.804 879.983 783.406 877.525 779.83 876.236C778.503 875.756 777.231 875.12 775.902 874.542C776.348 873.593 776.637 872.979 777.098 871.996C775.131 872.47 773.509 872.86 771.98 873.228C772.78 870.957 774.184 868.983 773.973 867.199C773.285 861.392 772.013 855.654 770.937 849.895C770.886 849.628 770.553 849.414 770.237 849.039C769.117 850.008 768.117 850.882 767.105 851.746C766.121 852.585 765.125 853.412 763.599 854.694C763.977 851.999 764.277 850.089 764.493 848.168C764.569 847.477 764.665 846.64 764.363 846.081C762.22 842.11 756.584 841.822 754 845.526C753.311 846.513 752.78 847.61 752.016 848.934C751.625 848.029 751.272 847.407 751.083 846.738C749.982 842.864 749.082 838.923 747.797 835.11C746.579 831.495 745.917 828.089 748.346 824.696C748.891 823.935 749.105 822.896 749.323 821.95C750.276 817.845 749.067 814.35 746.469 811.23C739.316 814.58 732.352 821.294 730.978 826.038C734.774 825.454 735.409 825.54 739.003 827.254C738.752 829.393 738.542 831.675 738.169 833.934C738.102 834.344 737.349 834.952 736.962 834.917C736.547 834.88 735.961 834.246 735.852 833.778C735.531 832.409 735.412 830.994 735.215 829.599C729.097 830.506 727.665 832.524 728.825 838.063C729.049 839.139 729.367 840.203 729.509 841.288C729.633 842.244 729.915 843.405 729.522 844.154C728.597 845.91 729.564 846.878 730.551 848C733.04 850.833 735.499 853.694 738.215 856.826C735.689 858.118 733.462 859.259 731.106 860.464C731.724 862.488 732.249 864.21 732.747 865.844C734.572 863.758 736.032 861.436 738.085 859.916C740.563 858.08 743.17 859.985 745.766 861.016C747.947 858.146 750.047 855.383 752.709 851.882ZM648.575 509.261C651.418 506.486 654.08 504.451 657.203 502.939C662.914 500.172 665.332 495.46 664.814 489.183C664.754 488.453 664.663 487.723 664.614 486.991C664.499 485.302 664.934 483.794 666.401 482.824C669.462 480.799 669.996 477.857 669.763 474.478C669.604 472.182 669.566 469.837 669.831 467.556C670.676 460.305 668.04 457.547 660.728 458.281C660.243 458.33 659.755 458.399 659.281 458.509C654.883 459.52 650.485 460.531 646.095 461.579C645.46 461.73 644.873 462.08 644.264 462.338C644.264 462.586 644.265 462.835 644.265 463.082C645.371 463.354 646.471 463.645 647.581 463.894C648.786 464.164 650.448 463.769 650.376 466.2C648.748 466.052 647.195 465.888 645.637 465.769C634.593 464.927 625.72 468.606 619.858 478.342C619.139 479.535 618.618 481.022 618.551 482.401C618.395 485.613 616.733 487.606 614.041 488.968C611.571 490.218 608.924 490.422 606.199 490.383C600.336 490.299 594.471 490.305 588.607 490.306C587.673 490.306 586.738 490.476 585.644 490.583C585.531 492.788 585.429 494.786 585.316 496.989C582.617 496.32 580.158 496.787 577.626 495.272C579.274 494.338 580.528 493.629 582.477 492.525C578.417 492.481 575.069 494.599 571.782 492.18C572.665 491.1 573.812 490.277 574.123 489.211C575.446 484.686 578.796 484.195 582.689 484.473C583.657 484.543 584.642 484.436 585.618 484.378C590.472 484.092 595.326 483.794 600.547 483.48C600.547 482.234 600.857 481.073 600.481 480.208C599.722 478.449 595.85 477.014 593.846 477.305C592.18 477.547 590.367 477.989 588.817 477.584C585.369 476.684 582.046 475.309 578.671 474.127C578.671 473.855 578.671 473.581 578.672 473.308C581.548 472.394 584.425 471.483 587.301 470.565C590.782 469.452 594.349 468.547 597.718 467.164C602.009 465.401 604.741 461.978 606.294 457.644C606.544 456.94 606.482 456.126 606.596 455.058C599.363 457.474 592.563 459.838 585.701 462.002C581.87 463.209 577.975 464.29 574.036 465.052C570.068 465.82 566.536 464.541 563.733 461.562C560.587 458.22 558.451 454.225 556.794 450.005C555.631 447.041 556.625 445.412 559.766 444.597C561.21 444.223 562.701 444.033 564.17 443.76C557.96 440.181 552.214 442.042 546.292 445.285C546.292 443.054 546.292 441.397 546.292 439.248C541.281 439.248 536.498 439.248 531.712 439.248C531.619 438.956 531.524 438.664 531.43 438.371C532.558 437.578 533.59 436.549 534.834 436.031C539.677 434.013 544.565 432.09 549.481 430.253C554.583 428.346 559.855 427.854 565.32 428.011C569.668 428.137 574.233 428.048 578.363 426.864C586.556 424.515 594.602 421.57 602.53 418.42C606.671 416.776 610.352 415.617 613.894 419.523C616.15 417.45 618.186 415.579 620.46 413.488C615.806 407.892 611.328 402.506 606.746 396.996C606.074 397.745 605.744 398.09 605.438 398.457C600.743 404.089 597.639 404.788 591.058 401.774C589.736 401.169 588.314 400.786 586.961 400.239C585.473 399.638 584.013 398.967 582.419 398.275C582.353 398.452 582.029 399.002 581.957 399.583C581.413 403.971 578.696 406.148 574.627 407.182C572.389 407.75 570.139 408.456 568.06 409.446C556.712 414.856 545.393 420.332 534.112 425.881C531.097 427.365 528.746 429.688 527.184 432.73C525.676 435.663 524.056 438.542 522.657 441.525C519.358 448.564 517.205 455.909 517.262 463.767C517.287 467.118 518.224 469.976 521.452 471.731C525.409 473.88 528.164 477.278 530.816 480.85C534.161 485.354 537.84 489.606 541.275 494.047C542.446 495.564 543.844 497.223 544.156 498.99C544.431 500.548 543.335 502.351 542.795 504.219C543.869 505.101 545.119 506.13 546.673 507.407C543.47 508.607 540.779 509.616 537.797 510.732C539.428 513.241 540.861 515.444 542.448 517.883C541.723 518.467 541.093 518.869 540.594 519.395C537.807 522.334 537.988 523.826 541.44 526.04C542.854 526.947 544.354 527.72 546.269 528.815C544.825 529.897 543.67 530.76 542.592 531.567C544.16 535.733 545.658 539.457 546.97 543.247C551.043 555.005 557.381 565.276 566.449 573.868C568.65 575.953 570.693 578.314 572.329 580.856C573.821 583.172 575.202 585.814 575.671 588.481C576.429 592.8 577.093 596.914 581.511 599.13C577.758 601.144 580.05 604.211 579.955 606.41C579.693 612.5 585.715 610.923 589.197 612.694C588.937 613.946 588.707 615.063 588.444 616.339C590.623 616.894 592.598 617.609 594.628 617.857C597.011 618.146 598.239 619.418 599.176 621.487C600.88 625.24 602.789 628.901 604.626 632.633C607.059 632.152 609.182 631.733 611.511 631.273C611.597 632.697 611.623 633.906 611.751 635.102C612.107 638.428 613.637 639.95 616.943 640.034C619.012 640.086 621.088 639.782 623.162 639.781C624.668 639.779 626.175 640.008 627.904 640.155C627.393 642.24 626.998 643.847 626.5 645.88C629.723 645.201 631.249 643.265 632.36 640.938C634.195 637.086 634.454 632.959 634.382 628.762C634.344 626.627 633.508 625.367 631.419 624.767C630.143 624.404 628.902 623.8 627.761 623.112C624.306 621.028 623.912 618.383 626.479 614.94C629.897 615.818 631.115 618.865 632.703 621.662C634.136 620.854 635.381 620.15 636.824 619.334C635.196 615.406 633.667 611.715 632.071 607.864C630.134 609.013 628.415 610.034 626.241 611.324C626.392 608.596 626.511 606.465 626.638 604.191C628.503 604.302 629.923 604.386 632.021 604.511C626.126 599.544 621.383 602.432 616.503 605.588C615.786 601.832 615.137 598.422 614.436 594.738C611.194 595.842 608.252 596.844 605.034 597.94C607.972 591.246 606.986 584.726 606.827 578.178C606.656 571.128 602.809 565.869 599.202 560.506C601.795 558.462 602.39 558.326 604.189 559.854C605.55 561.011 606.683 562.437 608.182 564.022C609.513 562.26 610.733 560.646 612.162 558.756C606.937 556.054 601.422 554.632 596 551.71C600.598 549.835 604.529 548.232 609.081 546.376C605.793 544.936 603.061 543.739 600.324 542.541C603.392 536.384 606.515 535.284 612.281 538.085C613.708 538.777 615.079 539.587 616.498 540.296C617.299 540.697 618.146 541.002 618.974 541.349C615.754 538.372 617.108 534.83 617.098 531.292C618.34 530.787 619.533 530.303 620.917 529.741C621.268 530.992 621.522 531.892 621.771 532.78C627.127 531.947 628.289 531.275 628.321 528.79C627.364 529.473 626.525 530.071 625.465 530.827C624.799 529.041 623.892 527.665 623.987 525.786C627.283 526.185 630.267 526.547 633.442 526.933C633.612 525.857 633.748 525.038 633.872 524.218C634.534 519.777 635.262 519.213 639.583 519.833C640.187 519.92 640.773 520.137 641.378 520.192C644.876 520.513 648.378 520.802 652.189 521.129C651.738 518.942 650.729 516.991 651.195 515.499C651.691 513.913 653.584 512.764 655.028 511.254C652.98 510.621 651.043 510.024 648.575 509.261Z" fill="#BAA989"/>
</g>
</svg>
