<svg width="780" height="1394" viewBox="0 0 780 1394" fill="none" xmlns="http://www.w3.org/2000/svg">
<g opacity="0.8">
<path fill-rule="evenodd" clip-rule="evenodd" d="M470.175 601.382C463.605 600.835 461.962 595.36 460.32 590.706C456.214 578.661 445.538 570.996 432.945 571.27C425.828 571.27 415.973 555.94 419.258 549.918C421.722 545.264 425.28 545.811 429.387 548.275C440.063 554.845 450.739 560.867 461.415 567.437C473.46 574.828 484.41 568.806 484.957 554.845C485.231 547.18 486.052 539.515 486.326 531.85C486.326 529.934 486.6 526.649 485.505 525.828C474.555 518.163 477.566 505.57 476.198 495.715C473.186 474.363 473.186 452.737 471.544 431.111C471.27 428.374 469.354 425.91 468.533 423.172C465.795 414.686 469.628 410.58 478.114 410.032C490.98 409.485 503.572 409.211 513.975 399.082C519.176 394.155 527.115 391.691 534.232 389.228C544.361 385.669 547.919 381.289 543.813 371.434C539.981 362.127 533.959 353.64 529.031 344.607C527.936 342.417 527.662 339.953 526.841 337.489C529.852 338.037 533.685 337.489 535.327 339.132C541.897 346.523 552.847 350.629 553.121 362.674C553.121 363.769 554.216 365.412 555.037 365.959C557.775 367.875 561.607 371.16 562.976 370.339C567.356 367.875 570.641 362.948 566.534 358.568C556.406 347.344 545.456 336.394 534.232 326.266C531.768 324.076 526.02 325.718 521.64 325.718C520.545 325.718 519.176 327.361 518.081 327.361C513.701 327.087 509.595 326.539 505.215 326.266C507.405 323.254 509.321 319.696 512.333 317.232C529.853 302.723 541.624 284.93 543.266 261.661C543.54 259.471 543.266 256.46 542.171 254.817C540.255 251.806 537.517 249.342 535.327 246.879C533.137 249.342 530.126 251.259 528.757 253.996C517.807 274.527 501.93 290.678 481.946 302.176C470.175 309.02 457.309 313.947 444.443 318.874C441.979 319.696 437.325 318.053 435.135 316.137C432.398 313.399 430.482 312.578 427.197 314.768C425.554 315.863 423.09 315.042 420.901 315.316C421.448 313.126 421.448 310.936 422.543 309.02C423.638 307.103 426.102 305.735 427.47 303.818C428.839 301.628 429.66 299.165 430.755 296.701C428.018 296.701 425.007 295.606 422.543 296.427C417.068 298.07 411.867 300.807 406.665 302.997C404.749 303.818 403.107 305.187 400.917 305.735C399 306.008 397.084 305.461 395.168 305.187C395.989 303.271 396.263 300.26 397.905 299.438C406.391 295.332 415.151 291.226 423.911 287.941C428.291 286.298 433.219 286.298 437.872 285.477C446.359 283.834 448.275 286.025 445.537 294.511C445.264 295.332 445.264 296.427 444.99 299.164C448.001 297.796 450.739 297.522 452.107 296.153C461.689 287.119 470.996 277.812 480.03 268.231C485.231 262.756 481.946 253.448 473.46 250.711C461.415 247.152 449.096 243.867 436.778 241.951C433.219 241.403 428.839 245.509 424.733 247.426C421.995 248.794 418.436 251.532 417.068 250.711C414.878 249.616 413.509 245.783 413.235 242.772C412.14 230.18 420.079 222.241 428.018 214.576C443.347 199.52 462.51 192.676 482.767 188.296C487.695 187.201 490.158 190.76 489.337 197.056C488.242 205.268 489.063 205.816 497.002 203.352C502.477 201.709 507.678 199.793 513.153 198.151C513.153 197.33 513.153 196.782 513.153 195.961C511.511 195.413 509.869 194.592 507.952 194.045C506.036 193.497 504.12 193.497 501.656 191.033C507.952 189.391 514.522 187.475 520.818 185.832C536.422 181.726 551.205 176.251 558.596 160.1C564.344 147.781 562.154 142.854 550.11 137.105C544.635 134.367 538.886 131.63 538.065 122.87C540.802 123.691 542.718 123.691 543.813 124.513C549.015 127.797 553.942 131.083 559.143 134.367C567.629 139.569 569.82 145.317 567.082 155.172C564.071 166.67 556.68 174.335 546.825 180.357C545.182 181.178 543.266 182 542.171 183.369C540.802 185.285 539.707 187.475 538.612 189.391C541.076 189.665 544.087 191.033 546.277 190.212C556.68 186.927 566.808 181.726 577.485 179.81C605.133 174.608 632.508 174.061 656.872 192.402C662.073 196.234 664.263 200.888 661.799 206.637C659.335 212.112 660.157 215.671 666.179 217.313C663.442 221.419 660.704 225.252 658.24 228.811C658.788 229.358 659.062 229.905 659.609 230.727C668.369 227.989 677.129 225.526 686.163 222.788C688.353 241.677 675.487 250.984 665.084 264.398C670.559 263.85 673.57 263.85 676.855 263.303C686.984 261.934 696.839 261.934 703.135 271.789C705.052 274.8 706.42 280.549 704.778 283.013C698.208 293.689 690.817 303.817 683.425 313.946C681.509 316.684 678.498 318.874 676.582 321.611C675.487 323.254 675.76 325.717 675.487 327.907C677.677 327.907 680.14 328.181 682.057 327.36C684.794 326.265 686.71 323.253 689.448 322.706C693.006 322.158 697.387 322.432 700.398 324.075C701.767 324.896 700.945 329.55 702.04 332.013C705.873 342.142 700.945 349.807 694.923 357.198C694.375 357.746 694.649 358.841 694.375 359.388C693.28 364.042 691.638 368.696 685.889 368.148C679.867 367.327 680.414 362.126 680.414 357.472C680.414 351.176 680.962 344.606 673.297 342.416C670.833 341.595 666.453 342.964 664.81 344.88C660.157 350.355 661.252 368.969 665.905 374.171C667.274 375.539 670.012 376.087 672.202 376.361C685.068 377.182 691.911 384.847 694.649 397.439C697.934 411.674 693.554 420.708 680.962 427.278C675.76 430.015 671.38 435.216 667.274 439.87C666.179 440.965 666.727 443.976 666.727 446.166C666.453 448.63 666.453 451.093 666.179 453.557C663.442 452.736 659.609 452.736 657.967 451.093C654.955 448.082 654.408 441.239 648.385 445.071C643.184 448.356 646.743 453.01 647.838 457.663C648.933 462.043 647.29 467.245 647.29 471.898C647.29 475.183 647.016 479.289 648.385 481.753C652.218 488.323 651.67 491.608 645.1 495.988C639.351 499.821 633.877 504.474 628.402 508.307C627.033 509.402 625.117 511.044 623.748 510.771C616.357 509.128 614.441 514.055 611.977 519.257C608.692 526.1 604.859 532.67 600.479 539.24C598.29 542.799 598.563 544.442 601.848 547.179C613.072 556.487 612.798 567.436 601.027 576.47C595.278 580.85 595.278 585.23 600.479 589.336C608.144 595.632 611.43 602.202 606.776 612.057C605.133 615.342 606.228 620.544 607.323 624.376C610.608 636.969 604.86 646.276 591.993 646.824C584.602 647.097 582.686 648.466 586.792 655.584C590.351 661.88 589.53 668.45 583.233 673.377C575.842 679.399 568.177 684.601 568.999 696.098C569.272 701.026 564.071 703.489 559.691 699.657C552.847 693.635 547.099 686.517 540.529 680.221C538.612 678.305 535.328 676.936 533.138 677.21C527.115 678.031 526.841 675.293 528.21 670.913C530.4 663.248 532.316 655.31 535.328 647.919C536.423 644.907 539.708 641.896 542.445 640.527C551.205 636.147 556.68 623.829 554.49 614.521C552.027 604.667 550.658 594.538 549.015 584.409C547.92 576.744 546.004 568.805 546.825 561.14C547.373 554.297 549.563 546.632 553.395 541.157C556.407 536.777 556.954 534.861 554.764 530.207C552.848 526.1 550.658 520.625 551.753 516.246C553.337 508.324 556.231 500.777 559.043 493.295C560.86 491.299 562.536 489.201 564.434 486.946C566.589 484.385 569.028 481.62 570.613 478.653C572.199 475.685 572.93 472.514 572.524 470.035C572.117 467.555 570.573 465.766 568.865 465.563C567.158 465.359 565.288 466.742 564.15 468.815C563.011 470.888 562.605 473.652 559.109 475.685C556.517 477.192 552.228 478.296 548.411 479.694C541.583 479.777 535.476 478.208 529.032 473.267C523.009 468.613 514.249 464.781 505.215 469.982C504.82 469.304 504.436 468.638 504.059 467.981C504.032 466.704 504.014 465.449 504.032 464.208C504.074 461.139 504.33 458.155 504.5 455.171C504.671 452.188 504.756 449.203 505.31 446.433C505.864 443.662 506.887 441.104 508.592 437.993C510.298 434.881 512.685 431.215 515.583 428.487C515.696 428.381 515.809 428.277 515.923 428.174C521.951 424.461 528.969 422.374 536.684 420.985C532.805 421.496 529.054 421.837 525.473 422.903C522.163 423.888 519 425.492 516.251 427.883C522.205 424.249 529.109 422.198 536.684 420.985C540.563 420.473 544.57 419.791 548.662 419.023C552.754 418.256 556.932 417.404 560.853 415.827C564.775 414.249 568.441 411.948 570.7 410.072C572.959 408.196 573.812 406.747 573.684 404.999C573.556 403.252 572.448 401.205 570.487 400.225C568.526 399.245 565.713 399.33 562.516 399.927C559.319 400.524 555.738 401.632 552.328 402.655C548.918 403.678 545.678 404.616 543.12 405.042C540.563 405.468 538.687 405.383 536.769 405.298C534.851 405.212 532.89 405.127 531.014 405.809C529.139 406.491 527.348 407.941 524.876 409.646C522.404 411.351 519.249 413.312 516.308 415.145C513.367 416.977 510.639 418.683 507.527 420.345C504.415 422.007 500.92 423.627 498.703 425.673C496.487 427.72 495.549 430.192 495.208 433.645C494.867 437.098 495.123 441.531 494.995 448.053C494.867 454.574 494.355 463.185 493.673 471.455C493.411 474.633 493.124 477.761 492.809 480.679C492.658 481.4 492.505 482.123 492.349 482.848C491.06 488.222 489.939 493.596 488.589 498.97C488.258 499.485 487.932 499.924 487.62 500.356C486.512 501.891 485.574 503.34 485.574 505.173C485.574 506.04 485.784 506.994 486.241 507.766C484.959 513.468 485.186 518.716 491.528 523.089C493.718 524.732 494.539 528.017 495.908 530.48C499.467 537.05 501.383 544.442 509.322 548.274C514.249 550.738 513.154 555.118 508.774 558.129C498.646 564.973 487.696 570.995 481.399 582.492C480.578 583.861 479.483 584.956 478.115 586.051C470.996 593.717 470.996 593.717 470.175 601.382ZM544.828 429.85C544.219 431.069 543.771 432.715 544.402 433.976C545.032 435.236 545.763 435.195 547.105 435.622C548.446 436.049 549.361 435.907 550.581 435.338C551.8 434.769 552.044 434.687 552.776 433.63C553.507 432.573 553.934 432.126 553.447 430.886C552.959 429.646 552.349 429.016 550.886 428.427C549.422 427.837 548.203 427.715 546.841 428.264C545.479 428.813 545.438 428.63 544.828 429.85ZM544.24 456.783C544.016 454.913 542.329 452.473 543.111 450.582C543.894 448.692 542.023 447.473 544.767 445.603C547.511 443.732 551.577 445.237 552.918 445.521C554.26 445.806 555.073 446.7 555.52 447.655C555.967 448.611 556.048 449.627 555.865 450.786C555.683 451.944 555.235 453.245 554.483 454.566C553.731 455.887 552.674 457.229 551.739 458.327C550.804 459.424 549.991 460.278 549.239 460.766C548.487 461.253 547.796 461.375 546.79 460.725C545.784 460.075 544.463 458.653 544.24 456.783ZM531.718 453.618C530.478 454.573 528.852 455.021 527.551 454.391C526.25 453.76 525.275 452.053 524.868 450.61C524.462 449.167 524.624 447.988 525.295 447.114C525.966 446.24 527.145 445.671 528.344 445.488C529.543 445.305 530.763 445.508 531.698 445.914C532.633 446.321 533.283 446.931 533.73 447.602C534.177 448.272 534.421 449.004 534.116 450.102C533.812 451.199 532.958 452.663 531.718 453.618ZM683.905 1210.49C682.63 1211.34 681.362 1212.16 680.14 1212.94C679.629 1212.17 678.881 1211.17 678.339 1210.37L678.224 1210.47C678.771 1211.29 679.592 1212.39 680.14 1213.21C681.389 1212.3 682.637 1211.39 683.905 1210.49ZM510.142 868.561C508.801 870.573 507.973 872.586 507.092 874.095C508.056 872.586 508.937 870.627 510.142 868.561ZM505.215 876.226C494.705 882.963 484.196 889.169 473.687 895.628C484.204 889.169 494.975 882.963 505.215 876.226ZM472.492 896.057C471.989 896.052 471.303 895.945 470.302 895.936C471.174 895.947 471.928 896.061 472.492 896.057ZM592.541 597.55C593.349 598.897 594.157 599.979 594.966 601.057C594.158 599.971 593.349 598.628 592.541 597.55ZM661.525 390.597C658.571 391.671 655.617 392.745 652.404 393.819C652.438 393.859 652.468 393.882 652.491 393.882C655.503 393.06 658.514 391.965 661.525 390.597ZM659.941 386.862C660.256 387.396 660.531 387.93 660.763 388.446C660.582 387.907 660.396 387.362 660.156 386.764L659.941 386.862ZM637.367 357.695C641.678 356.626 645.994 355.813 650.575 354.735C650.831 356.016 651.087 357.057 651.343 358.307L651.396 358.294C651.122 356.926 650.849 355.831 650.575 354.462C645.994 355.54 641.678 356.618 637.367 357.695ZM637.752 360.16C637.509 359.246 637.335 358.441 637.161 357.747C637.335 358.615 637.509 359.373 637.752 360.16ZM544.311 326.391C543.004 325.31 541.729 324.182 540.528 322.981C539.217 321.67 539.413 319.356 538.951 317.239L538.886 317.232C539.433 319.148 539.16 321.886 540.528 323.254C541.73 324.355 543.004 325.383 544.311 326.391ZM553.035 329.674C552.49 330.428 551.724 330.961 551.204 331.741C551.752 331.193 552.573 330.372 553.121 329.824L553.035 329.674ZM663.977 401.215C667.071 397.837 669.13 395.353 671.654 393.334C672.739 392.249 675.439 391.164 676.285 391.678C676.201 391.588 676.117 391.501 676.034 391.418C675.486 390.87 672.749 391.965 671.38 393.06C669.109 395.332 667.07 397.835 663.977 401.215ZM483.315 241.404C483.315 241.156 488.033 237.762 489.938 237.737C487.998 237.754 483.066 241.155 483.315 241.404H483.315ZM492.036 253.462C491.219 253.731 490.146 254.005 489.337 254.544C490.146 254.274 491.22 253.74 492.036 253.462ZM631.687 380.468C638.94 376.966 645.279 373.921 651.539 371.125C644.958 373.742 638.885 376.992 631.687 380.468ZM653.715 370.301C654.587 370.377 655.856 371.279 656.324 371.982C656.598 372.529 656.324 373.898 655.776 374.719C653.86 378.278 637.709 382.931 631.687 380.468C637.709 383.205 653.86 378.278 656.05 374.719C656.598 373.898 656.871 372.255 656.598 371.981C655.833 371.217 654.357 370.215 653.715 370.301ZM618.982 309.4C628.111 305.914 636.212 302.941 645.374 299.438C636.212 302.672 628.111 305.906 618.982 309.4ZM642.267 304.971C636.666 311.79 626.529 314.002 618.547 309.567C626.577 314.251 636.607 312.028 642.267 304.971ZM461.962 302.997C466.839 292.026 478.663 283.66 488.347 283.509C478.617 283.655 466.596 292.022 461.962 302.997ZM618.838 231.401C618.65 231.545 618.462 231.685 618.273 231.822C613.072 235.929 610.334 231.822 607.87 227.99C606.112 225.352 606.315 223.656 607.429 222.439C606.084 223.673 605.702 225.422 607.597 228.264C610.06 232.096 612.798 236.202 617.999 232.096C618.279 231.867 618.559 231.635 618.838 231.401ZM612.994 219.642C616.151 218.614 619.513 217.323 624.569 215.397C619.651 217.271 616.135 218.343 612.994 219.642ZM636.614 390.597C640.994 397.167 644.279 401.273 646.469 405.926C646.475 405.946 646.478 405.969 646.479 405.994C646.521 405.847 646.521 405.73 646.469 405.653C644.553 401.546 641.268 397.44 636.614 390.597ZM628.251 403.819C630.627 400.118 632.776 396.631 636.435 390.877C632.705 396.73 630.284 400.233 628.128 403.737L628.251 403.819ZM645.623 334.04C645.306 334.375 644.964 334.615 644.552 334.752C636.34 338.31 627.854 341.595 619.368 344.88C619.33 344.893 619.289 344.902 619.246 344.908C619.4 344.923 619.535 344.916 619.641 344.88C628.127 341.869 636.614 338.31 644.826 334.752C645.101 334.615 645.357 334.375 645.623 334.04ZM642.185 327.379C643.626 327.399 645.392 328.007 647.48 328.458C645.331 327.993 643.54 327.361 642.185 327.379ZM457.035 228.264L457.045 228.257L457.035 228.264H457.035ZM484.533 219.318C486.65 219.32 488.791 219.473 490.97 219.776C488.8 219.466 486.658 219.313 484.533 219.318ZM616.937 493.801C619.654 487.499 618.546 481.72 614.714 475.732C613.388 473.611 614.888 469.178 615.48 466.166L615.261 466.151C614.988 469.436 613.072 473.816 614.44 476.006C618.512 481.754 619.65 487.503 616.937 493.801ZM637.387 469.56C635.305 470.388 633.222 471.626 631.139 471.626C627.009 471.751 624.253 472.506 622.817 474.073C624.316 472.692 626.984 472.017 630.865 471.9C633.055 471.9 635.245 470.531 637.435 469.71C637.418 469.659 637.402 469.609 637.387 469.56ZM624.501 491.108C623.751 493.361 621.193 494.773 615.991 496.396C621.32 494.738 623.873 493.384 624.501 491.108ZM497.785 272.745C498.573 271.067 499.457 269.429 500.561 267.957C499.412 269.361 498.561 271.004 497.785 272.745ZM510.107 231.811C510.124 230.064 511.25 228.122 511.759 226.176C511.244 228.136 510.098 229.882 510.107 231.811ZM511.785 226.073C513.671 227.421 516.353 228.238 517.742 230.091C516.361 228.238 513.941 227.421 511.785 226.073ZM518.958 238.455C516.573 253.174 510.117 265.87 500.835 277.538C510.117 266.135 516.573 253.19 518.958 238.455ZM477.019 201.163C473.515 205.744 471.604 210.324 468.412 212.033C471.604 210.333 473.515 206.013 477.019 201.163ZM432.671 228.811C431.862 229.081 430.789 229.085 429.711 229.346C430.789 229.093 431.862 229.35 432.671 228.811ZM434.173 221.612C434.723 221.014 435.315 220.411 435.944 219.807C435.315 220.411 434.723 221.014 434.173 221.612ZM439.388 216.779C440.132 216.176 440.906 215.575 441.707 214.981C440.906 215.575 440.132 216.176 439.388 216.779ZM443.344 213.8C443.9 213.409 444.467 213.022 445.043 212.639C444.467 213.022 443.9 213.409 443.344 213.8ZM445.914 212.069C446.499 211.69 447.092 211.317 447.693 210.949C447.092 211.317 446.499 211.69 445.914 212.069ZM450.443 209.335C451.373 208.811 452.316 208.303 453.266 207.813C452.316 208.303 451.373 208.811 450.443 209.335ZM638.729 194.396C638.082 194.131 637.31 193.944 636.411 193.842C637.301 193.962 638.074 194.147 638.729 194.396ZM634.388 193.716C632.041 193.706 629.529 194.28 627.011 194.317L627.033 194.319C629.344 194.319 631.851 193.733 634.388 193.716ZM618.406 184.367C618.639 184.383 618.869 184.414 619.094 184.464C629.497 186.654 639.625 189.392 649.754 192.129C655.229 193.498 656.324 197.604 655.776 202.532C655.229 207.185 651.67 206.638 648.111 206.912C644.622 206.912 641.396 208.754 637.917 209.858L637.983 209.923C641.541 208.828 644.827 207.185 648.385 206.911C652.218 206.911 655.503 207.459 656.05 202.531C656.598 197.604 655.503 193.498 650.028 192.129C639.899 189.391 629.77 186.654 619.368 184.464C619.055 184.395 618.734 184.365 618.406 184.367ZM673.921 290.656C672.456 289.194 670.504 287.514 667.821 285.203C667.715 285.115 667.612 285.026 667.51 284.938C667.697 285.117 667.892 285.296 668.095 285.477C670.639 287.657 672.508 289.259 673.921 290.656ZM694.996 273.364C697.569 275.23 698.48 278.635 696.838 283.014C694.063 291.594 690.356 299.476 682.073 304.301C690.357 299.478 694.084 291.615 697.112 283.287C698.612 278.787 697.672 275.187 694.996 273.364ZM592.37 197.323C591.579 197.348 590.789 197.378 590.001 197.413C590.789 197.378 591.579 197.348 592.37 197.323ZM538.894 207.451C548.592 198.292 558.557 189.93 572.962 189.41C558.557 189.922 548.592 198.023 538.894 207.451ZM573.934 189.39C579.861 189.34 585.783 187.733 591.44 186.655C585.518 187.732 579.596 189.338 573.934 189.39ZM591.453 186.652C592.575 186.449 593.638 186.347 594.647 186.338C593.632 186.342 592.57 186.443 591.453 186.652ZM583.639 328.874C580.683 326.163 577.976 322.951 574.473 321.064C572.83 319.969 569.819 320.517 567.355 320.517L567.356 320.517C569.819 320.791 572.557 319.97 574.473 321.065C577.707 323.22 580.675 326.172 583.639 328.874ZM567.356 320.518C567.903 322.434 568.177 324.895 569.544 326.537C568.45 324.895 568.176 322.433 567.356 320.518ZM578.381 337.918C579.931 341.185 579.4 345.488 579.4 349.26C579.67 345.488 579.939 341.185 578.381 337.918ZM575.848 352.817L575.841 352.819C575.02 353.093 573.104 351.45 572.283 350.355L570.747 348.1L572.283 350.356C573.104 351.451 575.02 353.093 575.841 352.819L575.848 352.817ZM566.308 341.568C565.568 340.471 564.83 339.369 564.096 338.264C564.83 339.369 565.568 340.471 566.308 341.568ZM563.218 336.937C562.853 336.384 562.49 335.831 562.129 335.276C562.49 335.831 562.853 336.384 563.218 336.937ZM561.912 334.943L561.266 333.945C561.481 334.278 561.696 334.61 561.912 334.943ZM561.266 333.944C561.051 333.612 560.837 333.279 560.625 332.945C560.837 333.279 561.051 333.612 561.266 333.944ZM559.777 331.612C559.427 331.056 559.079 330.5 558.734 329.944C559.079 330.5 559.427 331.056 559.777 331.612ZM558.734 329.944L558.322 329.276C556.928 326.837 555.312 324.397 555.311 321.746C555.285 324.482 556.916 326.992 558.322 329.277L558.734 329.944ZM555.858 310.661C555.584 308.746 555.584 306.557 556.131 304.914C555.311 306.556 555.584 308.746 555.858 310.661ZM569.204 310.312L570.275 311.075C569.919 310.82 569.561 310.566 569.204 310.312ZM586.244 327.634L586.243 327.635L586.244 327.634L586.244 327.634ZM396.537 278.086C392.704 281.371 388.872 284.93 384.765 287.667C384.218 288.215 380.933 285.751 379.838 284.108C379.291 283.561 381.207 280.55 382.575 279.728C385.313 277.812 388.324 275.896 391.335 274.801C392.704 274.253 394.62 275.349 396.263 275.896C396.263 276.443 396.263 277.265 396.537 278.086ZM463.605 105.898C481.946 91.1158 501.109 93.306 516.165 111.647C507.679 108.362 499.466 103.161 490.706 102.34C481.946 101.518 472.639 104.53 463.605 105.898ZM779.784 765.084C777.594 768.095 776.226 773.297 773.488 774.118C767.739 775.76 753.778 764.81 755.968 762.894C760.622 758.514 766.644 754.682 772.941 753.86C780.606 752.492 777.047 759.883 779.784 765.084ZM678.771 629.852C692.185 630.4 703.135 636.149 713.263 644.635C724.487 654.216 735.711 663.797 747.755 672.284C755.147 677.485 764.18 679.948 772.667 683.507C774.309 684.328 775.951 685.15 777.594 688.161C775.951 688.435 773.761 689.803 772.393 689.256C765.002 686.518 757.063 684.602 751.04 680.222C734.342 667.903 718.738 654.216 702.039 641.897C694.648 636.696 686.436 633.685 678.771 629.852ZM619.915 931.249C618.82 921.394 618.273 911.539 616.357 901.958C613.619 888.545 609.787 875.405 606.502 862.265C606.228 861.444 605.954 860.622 605.407 860.075C602.396 857.064 599.384 853.779 596.373 850.768C594.183 854.326 592.267 858.159 589.803 861.718C588.434 863.634 586.518 864.729 584.876 866.371C584.602 864.181 583.781 862.265 583.781 860.075C583.781 857.885 584.328 855.695 585.15 854.053C586.792 851.041 588.434 845.84 590.625 845.566C594.731 845.019 601.027 845.84 603.217 848.851C607.597 854.053 609.787 861.17 612.798 867.466C622.653 887.45 621.832 909.076 622.927 930.702C621.831 930.702 620.736 930.975 619.915 931.249ZM450.739 108.909C437.052 116.848 426.375 108.909 416.52 101.518C409.403 96.317 402.285 91.937 393.252 93.5795C386.912 94.7953 380.408 95.7916 374.192 97.327V93.1838C382.775 91.1571 391.786 90.0234 400.643 89.1995C404.749 88.6519 409.676 91.3894 413.783 93.5795C425.28 100.697 435.135 111.373 450.739 108.909ZM424.733 85.9146C435.135 74.9646 447.454 71.6797 461.415 73.8696C472.912 75.786 484.41 76.6071 495.907 77.7021C505.215 78.5232 510.69 82.0821 512.059 88.6521C483.041 85.367 454.298 78.2497 424.733 85.9146ZM647.838 1040.2C646.469 1039.11 644.553 1037.74 642.636 1036.37C644.005 1034.45 645.1 1031.44 647.016 1030.62C658.24 1026.24 669.464 1021.04 681.235 1018.85C687.257 1017.75 694.649 1021.86 701.219 1023.78C701.493 1023.78 701.493 1028.43 700.671 1028.98C697.934 1030.62 694.375 1031.99 691.09 1032.54C676.855 1035 662.894 1037.46 647.838 1040.2ZM470.722 179.537C416.52 190.213 391.335 226.621 377.648 276.717C377.648 272.063 377.374 268.778 377.648 265.494C380.933 234.56 400.095 213.755 421.995 194.045C431.85 185.012 443.348 179.81 455.666 175.704C460.594 174.062 465.521 173.514 470.722 179.537ZM726.677 1113.84C723.392 1116.85 722.023 1118.22 720.381 1119.31C717.096 1121.23 716.001 1123.42 718.465 1126.98C721.749 1131.36 719.286 1133.55 714.632 1133C697.112 1131.63 679.592 1130.26 662.072 1128.35C659.061 1128.07 656.323 1124.79 653.586 1123.15C656.597 1121.5 659.609 1118.22 662.894 1118.22C681.782 1118.49 700.671 1118.77 719.012 1113.29C720.655 1112.47 722.571 1113.29 726.677 1113.84ZM679.319 1087.56C671.106 1086.46 660.156 1084.82 649.206 1083.73C647.016 1083.45 644.553 1084.55 642.363 1084.55C640.72 1084.55 639.351 1083.45 637.709 1082.91C638.53 1081.54 639.351 1079.89 640.446 1078.53C640.72 1077.98 641.815 1077.98 642.636 1077.7C657.145 1073.87 671.38 1069.22 686.162 1066.21C697.934 1063.74 707.241 1070.86 716.275 1077.43C720.381 1080.44 717.644 1085.1 711.621 1085.64C701.492 1086.46 691.911 1086.74 679.319 1087.56ZM414.604 407.021C400.189 405.53 387.128 404.716 374.192 403.144V384.963C386.255 386.714 398.124 391.152 410.224 394.429C412.688 394.976 415.425 396.345 417.068 398.261C418.437 399.63 419.532 402.641 418.984 404.557C418.436 405.926 415.425 406.474 414.604 407.021ZM374.192 743.38C382.192 742.242 390.185 740.945 398.179 739.625C403.106 738.804 408.308 740.446 413.235 741.815C414.604 742.089 415.151 745.1 415.973 746.743C414.056 747.29 411.866 748.659 410.498 748.111C403.106 744.827 395.715 745.648 388.324 747.838C383.619 749.164 378.909 750.295 374.192 751.247V743.38ZM658.788 942.747C655.503 946.853 652.218 950.685 649.48 955.065C644.005 963.552 641.541 964.373 634.424 957.255C629.77 952.602 626.485 946.853 622.653 941.652C623.474 941.104 624.295 940.283 625.39 939.735C628.128 943.294 630.865 946.579 633.603 950.138C636.888 954.518 639.899 953.97 644.005 950.412C653.86 941.652 664.263 933.713 674.665 925.5C676.308 924.405 679.319 924.953 681.783 924.679C680.961 927.143 680.961 930.154 679.593 931.523C665.905 943.842 662.073 959.993 662.62 977.513C662.894 986.273 664.81 987.642 672.749 984.083C677.403 981.893 682.33 979.703 687.258 977.787C692.733 975.597 697.934 976.418 699.85 982.167C704.504 994.759 715.18 1001.33 725.035 1008.45C733.247 1014.47 741.46 1019.94 749.125 1026.24C751.862 1028.43 753.231 1031.99 755.421 1035C761.991 1044.31 768.561 1053.89 775.131 1063.2C776.499 1065.39 777.594 1067.85 777.594 1070.86C767.466 1065.93 759.527 1058.82 755.421 1048.69C748.851 1032.81 737.353 1021.86 722.845 1013.37C712.99 1007.62 703.956 1001.05 698.755 990.379C696.017 984.63 690.816 981.893 684.246 984.904C677.129 988.189 670.011 990.926 663.168 994.485C657.145 997.497 656.324 993.938 656.871 989.832C658.514 975.323 660.43 960.814 662.073 946.306C662.073 945.758 661.799 945.211 661.799 944.937C660.43 944.115 659.609 943.568 658.788 942.747ZM777.868 1111.1C770.75 1104.53 765.276 1099.6 759.801 1094.68C759.253 1095.22 758.706 1095.5 758.158 1096.05C761.717 1108.09 776.773 1113.84 776.499 1128.35C769.656 1121.23 763.086 1114.11 756.242 1107C755.421 1107.27 754.873 1107.27 754.052 1107.54C754.052 1110.55 754.052 1113.57 754.052 1116.58C754.052 1122.33 754.326 1128.07 754.052 1133.82C754.052 1135.19 751.315 1136.29 749.672 1137.38C748.577 1135.74 747.208 1134.37 746.934 1132.45C744.471 1122.6 742.828 1112.74 739.817 1102.89C738.174 1097.14 735.711 1092.21 740.912 1087.01C742.281 1085.64 742.828 1082.36 742.007 1080.44C739.269 1073.87 735.984 1067.58 732.426 1061.55C731.604 1060.18 728.319 1059.64 726.129 1059.09C724.213 1058.54 722.297 1058.27 720.381 1058C721.202 1055.81 721.749 1053.89 722.297 1051.7C723.392 1048.14 723.939 1044.86 725.034 1041.3C725.582 1039.11 726.677 1036.92 727.498 1034.73C729.688 1036.37 732.699 1037.46 733.794 1039.38C739.543 1050.88 744.471 1062.65 750.493 1074.15C752.135 1077.16 755.694 1079.35 758.979 1080.99C764.18 1083.45 769.655 1084.82 775.13 1087.01C776.225 1087.56 777.594 1089.2 777.594 1090.57C777.868 1096.59 777.868 1102.62 777.868 1111.1ZM688.079 748.385C703.408 745.648 718.465 742.636 733.795 740.173C746.387 738.256 759.253 736.888 772.119 735.793C774.036 735.519 775.952 738.256 777.868 739.351C775.952 740.72 774.31 742.91 772.119 743.184C749.398 746.742 726.951 750.849 704.23 753.586C691.911 754.955 679.592 753.586 667.274 754.955C654.681 756.324 641.815 758.514 629.496 762.073C622.379 763.989 615.809 768.916 609.786 773.57C597.741 782.604 595.004 801.219 602.395 814.358C604.312 817.917 605.407 825.582 604.585 825.856C598.563 828.046 596.647 822.571 594.457 818.738C582.138 798.481 590.35 781.235 602.943 770.011C618.546 756.324 636.614 748.659 657.419 748.111C667.547 747.837 677.402 747.016 687.531 746.742C687.805 747.016 687.805 747.838 688.079 748.385ZM374.192 418.629C379.004 419.27 384.657 420.114 389.967 421.53C394.62 422.899 399.548 426.184 402.833 430.016C405.297 432.754 405.023 437.955 405.844 442.061C402.286 441.787 398.179 442.335 395.168 440.966C387.503 437.681 385.861 438.502 386.134 446.715C386.134 448.357 386.134 450 385.861 451.368C384.218 459.855 385.039 460.676 393.525 459.854C393.799 459.854 394.073 459.854 394.347 459.854C398.453 460.402 402.559 461.223 406.392 461.771C403.928 465.33 402.012 469.71 399 472.721C394.073 477.374 388.872 479.017 382.302 473.268C380.381 471.522 377.346 471.002 374.192 470.498V418.629ZM469.901 633.685C461.962 630.947 454.298 628.21 446.906 626.294C444.99 625.746 441.705 626.02 440.336 627.389C435.956 631.769 431.577 630.947 426.649 628.757C418.71 625.199 410.498 622.187 402.559 618.629C400.096 617.534 398.727 614.249 396.811 612.059C399.548 610.964 402.286 609.321 405.023 609.048C411.319 608.774 417.615 608.774 423.912 609.321C428.292 609.869 432.672 610.964 436.778 612.606C443.074 614.796 448.823 617.807 455.119 619.997C458.13 621.092 461.415 620.818 464.426 621.366C464.7 620.545 465.248 619.997 465.521 619.176C464.153 617.807 463.331 616.439 461.689 615.344C459.499 613.701 456.761 613.154 455.119 611.237C453.75 609.869 453.75 607.405 452.929 605.489C454.845 605.762 457.035 605.489 458.678 606.31C461.142 607.405 463.058 609.047 465.248 610.69C470.449 614.522 474.555 613.701 479.209 609.595C483.862 605.762 489.338 603.299 494.813 600.835C496.729 600.014 500.561 600.561 501.93 601.93C507.952 607.679 512.059 604.667 516.986 600.561C518.903 598.919 521.366 598.371 523.556 597.55C524.377 600.014 525.746 602.203 525.746 604.667C527.389 624.104 518.628 638.886 504.667 651.478C491.801 663.25 477.566 672.557 460.594 677.211C458.13 678.032 455.393 678.853 452.929 678.579C446.907 678.032 444.443 673.104 447.454 667.903C449.097 664.892 451.834 662.428 453.476 659.417C454.571 657.501 454.571 654.763 454.845 652.3C452.655 652.026 450.465 651.752 448.275 651.752C443.895 651.204 438.694 651.752 435.135 649.836C430.208 647.098 431.577 641.076 437.052 640.254C442.527 639.433 448.549 640.254 454.024 641.349C462.236 642.992 466.616 641.624 469.901 633.685ZM515.617 1381.29C514.248 1380.74 512.606 1380.47 511.785 1379.38C501.382 1364.87 489.885 1350.91 480.851 1335.58C475.102 1325.72 472.365 1314.22 468.806 1303C460.32 1275.35 454.571 1247.15 456.214 1218.14C457.583 1190.76 467.437 1166.95 487.147 1147.51C493.17 1141.76 499.192 1139.85 507.131 1143.68C509.047 1144.77 513.975 1143.4 515.344 1141.49C519.997 1135.19 524.651 1128.62 527.662 1121.5C536.148 1102.62 544.361 1083.45 549.015 1063.2C550.931 1055.26 555.311 1047.59 558.87 1040.2C561.607 1035 571.462 1031.99 578.58 1034.18C577.758 1035.27 576.937 1036.64 576.116 1036.92C569.82 1039.38 570.641 1042.94 573.378 1048.14C579.127 1058.27 576.937 1072.5 567.63 1078.53C568.177 1074.15 568.998 1071.13 568.725 1068.12C568.725 1063.2 569.272 1057.99 567.63 1053.61C565.44 1048.14 560.786 1048.69 558.87 1054.16C555.585 1062.65 552.847 1071.68 549.836 1080.17C543.54 1097.96 537.244 1116.03 530.4 1133.55C524.925 1147.78 518.629 1161.75 512.333 1175.71C510.69 1179.27 508.226 1183.1 504.941 1185.56C498.371 1190.22 495.908 1188.3 493.718 1180.63C492.897 1177.08 490.159 1174.06 488.243 1170.78C485.505 1172.97 482.22 1174.89 480.03 1177.62C464.974 1198.15 465.248 1221.7 467.438 1245.79C469.902 1270.97 475.103 1295.34 484.958 1318.6C491.254 1333.11 499.193 1346.8 506.584 1360.76C509.869 1367.06 513.428 1373.35 516.986 1379.65C516.712 1380.2 516.165 1380.74 515.617 1381.29ZM687.257 1188.57C674.939 1191.31 661.799 1188.57 650.575 1196.79C642.91 1202.81 634.698 1208.56 628.401 1215.95C620.463 1224.98 613.345 1234.84 607.323 1245.24C602.395 1253.45 599.384 1263.03 595.825 1272.07C589.529 1287.67 578.032 1297.25 561.333 1300.26C554.216 1301.63 547.098 1303.82 539.707 1305.46C535.327 1306.56 530.673 1307.11 525.746 1306.56C533.137 1299.71 542.171 1295.06 551.752 1294.24C572.009 1292.32 582.959 1279.18 588.982 1262.21C594.183 1247.7 594.731 1231.82 598.837 1217.04C601.3 1208.56 598.837 1197.61 609.239 1191.31C615.261 1198.43 611.977 1206.64 611.977 1214.03C619.368 1207.73 626.759 1201.44 634.971 1194.32C627.58 1191.86 620.737 1189.67 614.167 1187.2C611.703 1186.38 609.239 1184.74 607.323 1182.82C606.502 1182 607.597 1178.17 608.144 1178.17C610.608 1177.9 613.345 1177.9 615.535 1178.72C627.306 1184.47 639.899 1183.37 651.944 1181.46C657.419 1180.63 662.894 1175.43 667 1170.78C671.106 1166.13 674.665 1164.48 680.687 1165.85C695.196 1169.14 709.704 1167.22 722.844 1160.65C728.593 1157.91 732.699 1152.44 737.627 1148.06C739.543 1146.42 742.007 1145.32 744.197 1143.95C744.197 1146.96 745.292 1150.25 743.923 1152.44C740.364 1159.01 736.805 1165.58 731.878 1170.78C717.917 1186.66 703.134 1201.99 688.9 1217.86C684.246 1223.06 678.771 1224.16 672.475 1223.06C667 1222.24 661.525 1221.7 656.05 1220.33C653.586 1219.51 650.301 1217.32 650.027 1215.13C649.48 1213.21 651.944 1209.65 654.134 1208.56C662.072 1204.18 670.559 1200.62 678.771 1196.51C681.782 1195.14 685.067 1193.5 688.079 1191.86C688.079 1191.04 687.805 1189.94 687.257 1188.57ZM486.326 755.777C480.304 756.324 477.84 753.313 474.829 747.838C471.27 741.815 464.426 737.983 459.773 732.234C455.119 726.212 451.013 719.368 447.454 712.524C446.906 711.429 448.549 708.144 450.191 706.502C455.392 700.753 461.141 695.278 466.89 689.803C468.532 688.435 471.27 687.887 473.46 687.066C473.46 689.256 474.007 691.719 473.46 693.636C470.449 702.122 474.007 707.323 482.767 705.955C487.695 705.133 492.075 701.575 496.455 699.111C503.025 695.552 509.321 691.172 516.438 688.435C519.176 687.34 524.377 688.982 526.02 691.172C527.388 693.088 526.567 698.016 525.198 701.027C522.187 707.597 524.925 722.379 530.673 726.759C531.768 727.58 533.137 728.949 533.958 728.949C547.098 725.664 548.193 737.435 552.026 744.279C556.953 754.134 562.154 764.536 563.523 775.212C565.439 789.721 564.071 804.503 563.797 819.286C563.797 821.75 563.797 824.213 562.976 826.404C561.607 829.962 559.964 835.711 557.501 835.985C553.668 836.532 546.825 834.89 545.456 832.152C540.802 822.571 531.221 820.107 524.103 814.359C521.092 811.895 519.176 807.789 516.986 804.23C515.891 802.314 515.617 799.576 514.522 797.66C506.857 787.531 498.918 777.403 491.253 767.274C488.516 764.263 487.969 760.156 486.326 755.777ZM456.761 881.701C470.996 872.667 485.505 864.181 499.466 854.874C506.857 849.946 516.986 849.398 523.556 854.874C525.198 856.242 525.746 861.17 524.651 863.36C521.913 868.013 520.544 871.572 524.103 876.226C524.924 877.321 525.198 880.058 524.651 881.427C520.818 889.366 526.019 894.019 531.494 895.662C552.299 902.232 566.808 917.288 581.59 931.797C586.518 936.724 591.719 941.104 596.646 945.758C597.741 946.853 598.015 948.769 597.741 951.78C591.445 948.769 585.149 945.21 578.853 942.473C573.104 940.009 566.808 937.545 560.785 935.903C560.238 935.903 557.227 940.283 557.774 942.199C559.417 952.054 566.534 958.624 574.473 963.277C588.434 971.764 603.216 978.881 617.725 986.546C620.736 988.189 624.843 988.189 629.77 989.01C625.937 999.138 613.619 994.485 607.323 1002.7C611.976 1004.61 616.082 1005.71 619.915 1007.62C622.652 1008.99 625.116 1011.46 627.58 1013.37C625.39 1015.84 623.474 1018.85 620.736 1020.22C611.976 1024.6 602.943 1028.43 594.182 1032.26C592.266 1033.08 589.802 1032.81 587.612 1033.08C587.339 1032.26 587.065 1031.71 586.791 1030.89C595.277 1026.24 603.764 1021.59 611.976 1017.21C611.702 1015.84 611.155 1014.74 610.881 1013.37C606.228 1013.37 601.574 1013.37 596.92 1013.37C590.624 1013.65 584.328 1014.47 578.032 1014.19C575.842 1014.19 573.378 1011.46 571.188 1010.09C573.104 1008.72 575.02 1007.35 577.21 1006.53C586.791 1002.97 596.646 999.686 606.228 995.854C611.976 993.664 611.155 990.105 606.775 987.367C601.026 983.809 594.73 980.797 588.434 977.786C574.199 971.216 560.785 963.825 553.12 948.769C552.025 946.852 548.467 944.936 546.003 944.936C538.885 944.389 534.505 940.556 532.863 934.26C527.114 913.455 511.51 903.327 490.158 904.695C484.409 904.969 478.661 904.969 472.638 904.695C463.878 904.422 457.856 899.768 454.023 892.103C451.286 886.628 449.37 880.879 446.632 875.678C445.537 873.488 443.073 871.298 440.883 869.929C434.587 866.371 434.313 865.002 439.788 859.801C446.358 853.505 452.928 847.208 460.046 840.638C451.833 834.342 448.548 842.555 441.978 846.113C441.978 842.555 441.704 840.091 441.978 837.901C443.621 814.358 445.263 790.816 447.179 767C447.453 765.084 448.822 763.168 449.917 761.251C452.107 762.894 455.666 764.263 455.939 765.905C456.213 774.665 455.666 783.699 455.666 792.732C455.666 795.47 456.487 798.481 457.034 801.218C459.498 800.123 461.962 798.755 464.425 797.933C466.342 797.386 469.079 796.565 470.722 797.386C481.945 803.682 493.169 809.978 504.119 816.548C505.761 817.643 507.678 820.381 507.404 822.023C507.13 823.392 504.119 825.034 502.203 825.582C492.074 828.046 488.515 836.805 494.538 844.744C499.465 850.767 494.538 852.957 490.431 855.694C482.493 860.622 474.007 865.276 466.342 870.75C462.509 873.214 459.498 877.046 456.213 880.058C455.666 880.606 456.214 881.153 456.761 881.701ZM379.291 663.523C377.374 672.009 382.028 675.568 387.229 678.853C388.872 679.948 389.967 683.507 389.419 685.697C388.324 690.898 386.408 695.826 384.218 700.479C383.397 702.669 381.207 705.407 379.291 705.681C377.929 705.875 375.739 705.102 374.192 704.049V686.856C374.25 686.653 374.307 686.449 374.363 686.245H374.192V663.645C375.043 664.574 376.662 664.049 379.291 663.523ZM374.192 184.104C374.754 187.387 375.096 189.853 376.007 192.129C377.102 195.414 378.744 198.699 380.113 201.984C383.124 200.341 386.683 198.972 389.146 196.782C394.621 191.581 399.001 184.737 405.024 180.357C410.225 176.525 417.069 174.335 423.639 172.145C425.555 171.324 428.292 172.693 432.672 173.24C429.388 175.43 428.292 176.799 427.197 177.072C406.666 183.369 390.515 194.319 385.04 216.766C384.492 219.229 381.755 221.146 380.934 223.336C379.018 229.358 376.828 235.381 375.733 241.677C375.407 244.063 374.996 246.148 374.192 247.814V184.104ZM608.692 210.196C608.469 210.046 608.24 209.902 608.004 209.762C607.768 209.623 607.525 209.488 607.276 209.359C607.027 209.229 606.772 209.104 606.51 208.984C606.248 208.864 605.98 208.749 605.706 208.639C605.432 208.529 605.152 208.423 604.867 208.323C604.581 208.222 604.289 208.126 603.993 208.035V208.035C603.696 207.943 603.393 207.857 603.085 207.775C602.777 207.693 602.464 207.615 602.146 207.542C601.827 207.469 601.504 207.401 601.175 207.337V207.337C600.847 207.273 600.514 207.213 600.176 207.158V207.158C599.839 207.103 599.496 207.052 599.149 207.005C598.802 206.959 598.451 206.916 598.095 206.878C597.74 206.84 597.379 206.807 597.016 206.777V206.777C596.652 206.747 596.284 206.722 595.912 206.701V206.7C595.541 206.679 595.166 206.662 594.787 206.648C594.408 206.635 594.025 206.626 593.64 206.621V206.62C593.254 206.615 592.865 206.614 592.473 206.616C592.08 206.618 591.685 206.625 591.287 206.635C590.889 206.645 590.488 206.659 590.084 206.677V206.677C589.68 206.695 589.274 206.716 588.865 206.741C588.456 206.766 588.045 206.795 587.632 206.827V206.827C587.218 206.86 586.803 206.895 586.385 206.935C585.967 206.974 585.548 207.017 585.126 207.063C584.705 207.11 584.282 207.16 583.857 207.213C583.432 207.266 583.006 207.323 582.578 207.382C582.151 207.442 581.722 207.506 581.292 207.572V207.572C580.862 207.639 580.431 207.708 579.999 207.781V207.781C579.567 207.854 579.134 207.93 578.7 208.009C578.267 208.088 577.833 208.17 577.398 208.255V208.255C576.964 208.341 576.528 208.429 576.093 208.52C575.658 208.611 575.222 208.705 574.787 208.802V208.802C574.351 208.899 573.916 208.999 573.481 209.101C573.046 209.204 572.61 209.309 572.176 209.417V209.418C571.741 209.526 571.307 209.637 570.874 209.75C570.44 209.864 570.008 209.98 569.576 210.099C569.144 210.218 568.713 210.339 568.283 210.463C567.854 210.587 567.425 210.714 566.998 210.843C566.571 210.972 566.144 211.103 565.72 211.237C565.296 211.371 564.873 211.507 564.452 211.645V211.645C564.031 211.784 563.611 211.925 563.194 212.068C562.777 212.211 562.362 212.356 561.949 212.503C561.536 212.651 561.125 212.8 560.717 212.952C560.308 213.104 559.903 213.258 559.5 213.413C559.096 213.569 558.696 213.727 558.298 213.887C557.901 214.046 557.506 214.208 557.114 214.372C556.723 214.536 556.334 214.701 555.949 214.868V214.869C555.564 215.036 555.183 215.205 554.804 215.376C554.426 215.547 554.052 215.719 553.681 215.894C553.31 216.068 552.943 216.244 552.58 216.421C552.217 216.599 551.858 216.778 551.503 216.959C551.149 217.14 550.798 217.322 550.452 217.506C550.106 217.689 549.765 217.874 549.428 218.061V218.061C549.091 218.247 548.759 218.435 548.431 218.624C548.104 218.814 547.782 219.004 547.465 219.196C547.147 219.388 546.835 219.581 546.528 219.775C546.221 219.969 545.92 220.165 545.624 220.361C545.328 220.558 545.038 220.755 544.753 220.954C544.469 221.153 544.19 221.352 543.918 221.553C543.645 221.754 543.378 221.955 543.118 222.158C542.857 222.36 542.603 222.563 542.355 222.767C542.107 222.972 541.866 223.176 541.632 223.382C541.397 223.588 541.169 223.795 540.948 224.002C540.727 224.209 540.513 224.417 540.306 224.625C540.099 224.834 539.899 225.043 539.707 225.252L540.389 225.188L541.073 225.126L541.761 225.063L542.452 225.002L543.146 224.94L543.843 224.88L544.543 224.82L545.246 224.76L545.951 224.701L546.659 224.641L547.37 224.583L548.083 224.524H548.083L548.798 224.465H548.799L549.517 224.407L550.238 224.348L550.96 224.29L551.686 224.231H551.686L552.413 224.173H552.414L553.143 224.114L553.875 224.054L554.609 223.995H554.609L555.345 223.935L556.083 223.874H556.083L556.823 223.814L557.565 223.752H557.565L558.308 223.69H558.309L559.054 223.627H559.054L559.801 223.564H559.801L560.549 223.5L561.3 223.435L562.051 223.369H562.051L562.804 223.302H562.805L563.559 223.234H563.559L564.315 223.165H564.315L565.072 223.095L565.831 223.024L566.59 222.951L567.351 222.878L568.113 222.802L568.876 222.726L569.639 222.648L570.404 222.569L571.169 222.488L571.936 222.405L572.703 222.321L573.47 222.235L574.239 222.147L575.008 222.057L575.777 221.966L576.547 221.872L577.317 221.777L578.087 221.679L578.858 221.579L579.629 221.477L580.4 221.373L581.172 221.266L581.943 221.158L582.714 221.046L583.486 220.933L584.257 220.816L585.028 220.698L585.799 220.576L586.569 220.452L587.339 220.325C587.45 220.303 587.561 220.281 587.672 220.258C587.783 220.235 587.894 220.211 588.005 220.186C588.115 220.161 588.226 220.136 588.337 220.109C588.447 220.083 588.557 220.056 588.667 220.028V220.028C588.778 219.999 588.888 219.971 588.998 219.941C589.108 219.911 589.218 219.881 589.328 219.85C589.438 219.819 589.547 219.787 589.657 219.754C589.767 219.722 589.876 219.688 589.986 219.654C590.095 219.62 590.205 219.585 590.314 219.549C590.423 219.514 590.533 219.478 590.642 219.441V219.44C590.751 219.403 590.86 219.366 590.969 219.327L591.296 219.21C591.405 219.171 591.514 219.13 591.622 219.089L591.948 218.965V218.964L592.275 218.836L592.6 218.704L592.926 218.568V218.568L593.251 218.429L593.576 218.287V218.287L593.901 218.141L594.227 217.993L594.552 217.841L594.877 217.686L595.202 217.529V217.529L595.527 217.369V217.369L595.853 217.207L596.178 217.042L596.504 216.875V216.875L596.83 216.705V216.705L597.156 216.534L597.483 216.36V216.36L597.81 216.185L598.137 216.007V216.007L598.465 215.828L598.794 215.648L599.122 215.465L599.452 215.282L599.782 215.097L600.113 214.911V214.911L600.444 214.724L600.776 214.536L601.108 214.348L601.442 214.158V214.158L601.776 213.968V213.968L602.111 213.777L602.447 213.586L602.785 213.395V213.395L603.122 213.203L603.462 213.011L603.801 212.82V212.82L604.143 212.628L604.485 212.437L604.828 212.246L605.173 212.055L605.518 211.865L605.865 211.676L606.214 211.487V211.487L606.563 211.299L606.914 211.112L607.267 210.927L607.621 210.742L607.976 210.559L608.333 210.377L608.692 210.196ZM565.713 541.432C565.799 541.354 565.883 541.276 565.967 541.195C566.05 541.114 566.133 541.031 566.215 540.946C566.297 540.861 566.377 540.775 566.457 540.686C566.537 540.598 566.616 540.507 566.694 540.415C566.772 540.323 566.849 540.229 566.925 540.133C567.001 540.037 567.076 539.94 567.15 539.841C567.224 539.741 567.298 539.64 567.37 539.538V539.538C567.442 539.436 567.513 539.331 567.583 539.226C567.654 539.12 567.723 539.012 567.791 538.904C567.859 538.795 567.926 538.684 567.992 538.573V538.572C568.059 538.461 568.124 538.347 568.188 538.233C568.252 538.118 568.315 538.002 568.378 537.884C568.44 537.767 568.501 537.648 568.561 537.527V537.527C568.621 537.407 568.681 537.285 568.739 537.162V537.162C568.797 537.039 568.854 536.915 568.91 536.79V536.79C568.966 536.664 569.021 536.538 569.075 536.41V536.41C569.129 536.282 569.182 536.153 569.234 536.023C569.286 535.893 569.337 535.762 569.386 535.63V535.63C569.436 535.497 569.485 535.364 569.533 535.23V535.23C569.581 535.096 569.627 534.96 569.673 534.824V534.824C569.719 534.687 569.763 534.55 569.807 534.412C569.85 534.274 569.893 534.135 569.934 533.995C569.975 533.855 570.015 533.714 570.055 533.573V533.572C570.094 533.431 570.132 533.289 570.169 533.145C570.206 533.002 570.242 532.858 570.277 532.714C570.312 532.569 570.345 532.424 570.378 532.278V532.278C570.41 532.132 570.442 531.985 570.473 531.838V531.838C570.503 531.691 570.532 531.543 570.561 531.395C570.589 531.246 570.616 531.098 570.642 530.948V530.948C570.668 530.799 570.693 530.649 570.717 530.499V530.498C570.74 530.348 570.763 530.198 570.785 530.047V530.046C570.806 529.895 570.827 529.744 570.846 529.592V529.592C570.865 529.44 570.883 529.288 570.9 529.136V529.135C570.917 528.983 570.933 528.831 570.948 528.678V528.677C570.962 528.524 570.976 528.371 570.988 528.218V528.218C571.001 528.064 571.012 527.911 571.022 527.757V527.757C571.032 527.603 571.041 527.45 571.049 527.296V527.296C571.056 527.142 571.063 526.988 571.068 526.834C571.074 526.68 571.078 526.526 571.081 526.372V526.372C571.084 526.218 571.086 526.064 571.086 525.91C571.087 525.756 571.086 525.603 571.085 525.449V525.449C571.083 525.295 571.08 525.142 571.076 524.989C571.072 524.835 571.067 524.682 571.06 524.529C571.054 524.376 571.046 524.224 571.037 524.072V524.071C571.028 523.919 571.018 523.767 571.007 523.616V523.615C570.995 523.464 570.983 523.312 570.969 523.161V523.161C570.955 523.01 570.94 522.86 570.924 522.71V522.71C570.908 522.559 570.89 522.41 570.871 522.261V522.261C570.853 522.111 570.833 521.963 570.812 521.815V521.815C570.791 521.667 570.768 521.519 570.744 521.372C570.721 521.225 570.696 521.079 570.669 520.933C570.643 520.787 570.616 520.642 570.587 520.498V520.498C570.558 520.354 570.528 520.21 570.497 520.067C570.466 519.924 570.433 519.782 570.4 519.641C570.366 519.5 570.331 519.359 570.295 519.22C570.258 519.08 570.221 518.941 570.182 518.804C570.143 518.666 570.103 518.529 570.061 518.393V518.393C570.02 518.257 569.977 518.122 569.933 517.988C569.889 517.854 569.844 517.722 569.797 517.59V517.589C569.75 517.458 569.702 517.327 569.653 517.197C569.603 517.068 569.553 516.939 569.501 516.812C569.449 516.684 569.396 516.559 569.341 516.434C569.287 516.309 569.231 516.185 569.174 516.063C569.116 515.94 569.058 515.819 568.998 515.699L568.947 516.122L568.895 516.542L568.844 516.959L568.793 517.375L568.741 517.788L568.741 517.788L568.69 518.2L568.639 518.609L568.587 519.017H568.587L568.536 519.423L568.485 519.827V519.827L568.433 520.23L568.433 520.23L568.382 520.631L568.331 521.031L568.28 521.429L568.279 521.429L568.228 521.826L568.228 521.826L568.177 522.222V522.222L568.125 522.617L568.074 523.011L568.074 523.011L568.023 523.404L567.971 523.796L567.92 524.187H567.92L567.869 524.577V524.578L567.817 524.967V524.968L567.766 525.357H567.766L567.715 525.746L567.715 525.746L567.663 526.135L567.612 526.523V526.523L567.561 526.911L567.561 526.911L567.51 527.299L567.458 527.687L567.407 528.075L567.407 528.075L567.356 528.463L567.304 528.851L567.253 529.24L567.202 529.628L567.201 529.629L567.15 530.018L567.099 530.408L567.048 530.798H567.047L566.996 531.189V531.19L566.945 531.581L566.893 531.974L566.842 532.368H566.842L566.791 532.763L566.74 533.159L566.688 533.556L566.688 533.556L566.637 533.954L566.586 534.354L566.534 534.755L566.483 535.157L566.432 535.561L566.38 535.967L566.329 536.375H566.329L566.278 536.784L566.226 537.196L566.175 537.609L566.124 538.024L566.072 538.442L566.021 538.861L565.97 539.284L565.918 539.708L565.867 540.135L565.816 540.565L565.764 540.997L565.713 541.432Z" fill="#BAA989"/>
</g>
</svg>
