<svg width="780" height="1394" viewBox="0 0 780 1394" fill="none" xmlns="http://www.w3.org/2000/svg">
<g opacity="0.8">
<path fill-rule="evenodd" clip-rule="evenodd" d="M223.254 476.28C225.718 473.542 227.908 470.805 230.372 468.341C231.102 469.071 232.049 469.585 232.828 470.268L232.835 470.257C232.014 469.436 230.919 468.888 230.098 468.067C227.908 470.805 225.444 473.542 223.254 476.28ZM217.92 385.553C220.893 383.128 224.131 380.699 227.634 378.004C223.861 380.699 220.885 383.128 217.92 385.553ZM227.658 378.309C228.045 383.707 226.463 385.841 220.965 385.847C226.647 385.863 228.054 383.735 227.658 378.309ZM213.208 371.854L210.936 370.339C213.646 365.731 216.357 361.392 219.332 356.79L219.148 356.652C216.41 361.305 213.673 365.685 210.662 370.339C211.483 370.886 212.304 371.434 213.125 371.981L213.208 371.854ZM287.037 246.605C285.927 246.697 284.848 246.79 283.779 246.893C284.891 246.797 285.981 246.701 287.037 246.605ZM277.336 244.428C277.342 244.085 277.375 243.867 277.456 243.867C280.467 243.046 283.479 242.772 286.49 242.499C286.537 242.687 286.584 242.892 286.63 243.109C286.592 242.806 286.547 242.509 286.49 242.225C283.479 242.772 280.467 243.046 277.456 243.594C277.355 243.594 277.328 243.932 277.336 244.428ZM187.864 304.684C186.94 305.298 185.976 305.846 184.929 306.282C183.287 307.103 180.549 306.282 178.633 305.461C177.951 305.233 177.079 303.305 176.961 302.502C176.817 302.969 177.849 305.473 178.633 305.734C180.549 306.555 183.287 307.377 184.929 306.555C185.931 306.009 186.902 305.372 187.864 304.684ZM191.81 297.667C192.333 298.717 193.011 299.582 193.689 300.26C192.976 299.308 192.469 298.564 191.81 297.667ZM194.795 327.246C194.964 318.842 201.174 314.721 211.209 316.685C201.164 314.501 194.952 318.763 194.795 327.246ZM211.209 316.685C206.008 322.707 201.354 327.908 195.879 334.478C201.354 328.182 206.008 322.981 211.209 316.685ZM255.778 518.19C254.739 518.721 252.586 520.125 250.989 520.109C252.35 520.541 254.682 518.758 255.778 518.19ZM233.828 489.793C235.334 489.896 238.473 491.578 240.5 492.705C242.143 493.8 243.238 495.989 244.88 497.085C253.811 502.79 255.548 504.899 255.795 514.82C255.55 504.899 253.837 502.79 245.154 497.084C243.511 495.989 242.416 493.799 240.774 492.704C238.614 491.504 235.193 489.673 233.828 489.793ZM282.45 279.965C283.899 290.626 288.551 297.586 297.713 301.628C298.808 302.176 299.356 306.008 298.808 308.198C298.646 309.337 297.903 310.379 296.983 311.324C298.027 310.307 298.904 309.174 299.082 307.925C299.63 305.735 299.082 301.902 297.987 301.355C288.825 297.851 283.907 290.635 282.45 279.965ZM248.055 290.984C254.925 303.825 266.866 304.387 277.73 307.103C280.193 307.651 283.479 305.187 286.216 303.818L286.117 303.702C283.458 304.879 280.356 307.352 278.004 306.83C267.054 304.366 255.009 303.545 248.165 290.405C248.128 290.608 248.091 290.8 248.055 290.984ZM272.463 290.678C273.373 289.319 274.258 287.96 275.147 286.601C274.229 287.96 273.329 289.319 272.463 290.678ZM278.507 281.708C279.169 281.154 280.027 280.825 281.435 280.021C279.865 280.916 279.013 281.183 278.551 281.645L278.507 281.708ZM306.747 402.641C309.485 400.451 311.948 397.714 314.96 395.798C315.233 395.524 317.697 398.261 319.066 399.356C316.055 401.546 313.044 404.01 310.032 406.2C308.937 405.105 307.842 403.736 306.747 402.641ZM274.171 182.274C258.567 180.905 250.355 163.386 256.925 146.139C253.64 162.564 261.579 173.788 274.171 182.274ZM199.985 196.783C195.058 190.213 192.868 182.548 193.415 174.609C193.689 172.419 196.974 170.503 198.89 168.587C201.354 171.324 206.281 174.062 206.008 176.525C205.186 183.369 202.175 189.665 199.985 196.783ZM117.04 427.005C125.526 429.743 131.274 442.061 141.951 436.039C150.437 431.111 155.638 423.173 156.733 413.044C158.65 423.173 154.543 431.385 147.7 438.229C142.498 443.43 134.833 443.704 126.621 439.597C117.04 434.67 116.492 433.848 117.04 427.005ZM179.728 246.331C173.979 235.108 173.432 234.56 163.303 243.868C158.376 248.248 155.091 254.27 150.437 259.197C148.521 261.114 145.51 261.935 143.046 263.304C143.32 260.566 142.772 256.46 144.415 255.091C153.448 247.152 162.756 239.761 172.337 232.37C176.991 228.537 180.823 231.549 183.561 235.381C186.024 239.214 184.655 242.499 179.728 246.331ZM374.192 97.327C360.814 100.631 348.776 106.436 342.608 122.323C342.061 123.692 340.418 124.787 337.133 125.608C337.407 123.144 337.133 120.407 337.954 118.217C342.608 105.077 354.106 99.3284 365.877 95.4957C368.588 94.6146 371.367 93.8508 374.192 93.1838V97.327ZM374.192 403.144C372.879 402.985 371.568 402.818 370.257 402.641C360.675 401.273 351.368 398.535 342.061 396.345C340.692 396.071 338.776 394.155 338.776 393.608C339.323 391.691 340.418 388.954 341.787 388.68C351.368 386.764 361.497 383.479 371.078 384.574C372.118 384.682 373.155 384.813 374.192 384.963V403.144ZM269.517 742.637C284.026 744.005 298.535 745.648 313.317 746.743C333.716 748.116 353.974 746.257 374.192 743.38V751.247C346.794 756.775 319.168 756.228 291.143 752.491C281.836 751.396 272.255 751.944 262.947 752.217C254.735 752.765 248.713 756.871 244.88 764.536C243.785 766.453 241.321 767.548 239.405 768.916C239.131 766.179 238.036 763.168 238.857 760.978C243.238 750.028 254.735 743.458 269.517 742.637ZM160.839 1071.68C163.577 1070.04 166.314 1068.67 169.052 1067.03C175.074 1063.2 180.002 1064.84 180.276 1071.68C180.276 1077.7 178.907 1084.27 176.169 1089.75C169.599 1102.89 162.208 1115.76 154.817 1128.62C153.174 1131.36 150.711 1133.82 147.426 1135.74C149.068 1116.85 158.376 1100.7 168.504 1083.45C164.398 1083.73 162.482 1083.45 161.113 1084C156.186 1086.19 152.353 1084.55 149.342 1080.44C146.331 1076.34 144.962 1072.23 148.247 1067.3C153.722 1059.64 158.923 1051.42 164.398 1043.76C175.896 1027.61 179.181 1010.91 175.075 990.653C171.242 971.217 167.41 968.479 144.688 969.027C132.37 969.301 120.325 974.776 108.006 977.787C104.995 978.608 102.257 979.429 98.9724 980.524C98.1513 973.407 102.531 970.943 106.637 969.301C115.397 965.742 124.431 962.457 133.465 959.719C161.113 951.507 181.918 965.742 184.929 994.485C187.941 1020.77 179.728 1043.21 162.482 1062.92C160.839 1064.84 159.744 1067.03 158.376 1068.94C159.471 1070.04 160.018 1070.86 160.839 1071.68ZM367.246 417.698C369.181 417.988 371.561 418.278 374.192 418.629V470.498C372.402 470.212 370.573 469.932 368.888 469.436C364.508 468.067 359.033 467.246 356.296 464.235C351.642 459.307 348.357 453.559 340.418 452.464C338.776 452.19 336.312 446.441 336.312 443.43C336.312 427.279 346.988 417.698 367.246 417.698ZM214.768 813.264C201.08 806.694 189.583 796.839 179.454 785.341C156.733 759.609 154.817 728.949 157.007 696.921C158.649 674.199 159.47 651.752 160.018 629.031C160.566 611.237 158.102 593.17 160.292 575.65C162.482 558.678 168.504 541.979 173.979 525.554C175.896 519.805 182.192 515.426 186.572 511.046C187.666 509.951 190.404 510.772 192.32 510.498C192.047 512.414 192.32 514.604 191.499 515.973C174.801 539.242 169.052 565.521 169.052 593.444C169.052 617.807 169.326 641.897 169.052 666.261C169.052 675.294 168.231 684.328 166.588 693.088C160.018 725.938 166.314 755.503 187.393 781.509C196.427 792.185 205.734 802.588 214.768 813.264ZM169.326 1381.84C173.432 1370.89 176.169 1361.03 180.823 1352.27C191.773 1331.74 203.544 1312.03 214.768 1291.78C216.684 1288.22 217.505 1283.84 218.874 1279.73C214.768 1280.55 210.114 1280.28 206.829 1282.19C195.332 1289.31 184.655 1297.25 173.432 1304.92C171.789 1306.01 170.421 1307.65 168.778 1307.93C166.862 1308.47 164.946 1307.65 163.029 1307.65C163.577 1305.46 163.029 1302.73 164.398 1301.63C169.326 1296.98 174.527 1292.32 180.276 1288.76C191.773 1281.65 203.544 1273.98 215.863 1268.51C225.992 1263.85 232.835 1270.42 229.824 1281.1C227.908 1287.67 224.623 1294.51 220.517 1299.99C205.46 1320.52 194.51 1343.51 184.929 1366.78C184.108 1368.7 184.108 1371.16 183.834 1373.35C186.572 1373.08 189.857 1373.9 191.773 1372.53C200.807 1366.24 210.114 1359.94 218.6 1352.82C227.634 1345.43 235.846 1337.22 244.059 1329.28C248.165 1325.17 252.271 1323.8 256.925 1328.73C259.936 1332.02 262.4 1330.37 264.316 1327.09C274.445 1310.12 276.635 1292.6 270.065 1273.98C269.244 1271.52 269.791 1268.78 269.791 1266.32C272.255 1267.96 275.813 1268.78 276.635 1270.97C284.3 1287.94 287.585 1305.19 277.73 1322.71C273.623 1330.1 269.791 1337.49 265.685 1344.88C262.673 1350.36 258.294 1352 253.64 1346.8C248.439 1340.78 244.332 1341.6 238.584 1346.8C227.634 1356.93 215.589 1366.24 204.365 1376.36C194.51 1384.85 183.013 1381.84 169.326 1381.84ZM374.192 704.049C373.561 703.621 373.038 703.145 372.721 702.669C371.626 700.753 371.9 697.468 372.173 694.731C372.428 692.18 373.397 689.628 374.192 686.856V704.049ZM374.192 686.245C371.511 686.245 368.837 686.25 366.424 686.518C360.675 687.34 360.128 683.234 359.307 679.127C357.938 671.736 355.474 670.367 350.273 675.295C337.954 687.34 317.423 686.245 308.937 666.261C306.2 659.691 302.641 656.954 295.523 657.227C287.858 657.501 275.54 644.361 275.54 636.696C275.266 619.176 262.4 609.595 252.271 598.372C250.628 596.455 246.522 596.182 243.511 595.908C235.846 594.813 230.645 590.98 228.181 583.863C225.991 577.293 229.276 566.343 235.025 563.332C237.763 561.689 241.869 562.784 245.427 562.511C247.891 562.237 250.081 561.142 252.271 560.594C251.45 558.678 250.355 556.762 249.808 554.572C249.26 552.382 248.439 549.918 248.713 547.728C248.986 545.538 250.902 543.622 251.724 541.432C253.64 537.326 256.651 532.946 250.629 529.935C245.428 527.471 240.5 524.186 235.573 531.303C227.36 543.622 218.327 555.119 210.114 567.712C198.343 586.053 201.628 601.93 218.6 616.713C225.992 623.283 233.109 630.4 240.226 637.244C241.869 638.886 242.69 641.076 244.333 643.814C242.143 643.814 240.774 644.361 240.5 644.088C227.908 633.411 214.22 623.83 203.271 611.511C190.404 597.277 190.952 580.852 201.902 564.974C210.936 551.561 220.517 538.694 229.55 525.554C230.919 523.638 230.919 519.532 230.098 517.342C226.813 509.951 222.707 503.107 218.601 495.989C216.958 493.252 215.316 490.514 213.399 488.051C210.115 483.671 206.556 483.397 202.723 487.503C200.807 489.693 198.891 492.157 196.427 493.526C194.237 494.62 190.405 495.715 189.036 494.347C187.393 492.978 186.846 488.598 187.667 486.956C192.047 479.291 197.248 471.9 202.176 464.234C203.271 462.592 205.187 460.949 205.461 459.033C206.008 457.117 206.008 453.832 204.64 452.737C203.545 451.642 199.986 451.368 198.343 452.463C192.868 455.201 187.941 458.759 182.466 461.497C174.527 465.329 166.041 466.972 158.924 460.402C156.734 458.486 154.817 454.653 154.817 451.642C154.817 445.893 170.421 433.027 176.17 433.575C177.539 433.848 179.728 434.943 179.728 435.765C179.728 437.407 178.907 439.323 177.539 440.418C174.527 442.882 170.695 444.251 167.684 446.988C166.041 448.357 164.399 451.916 165.22 453.558C166.041 455.474 169.874 457.664 171.242 457.117C178.907 454.105 186.572 450.547 193.964 446.714C194.785 446.441 194.511 441.787 193.416 440.966C183.561 433.301 186.846 423.72 189.036 414.139C189.857 411.401 189.857 408.39 190.131 405.652C187.12 405.379 184.382 405.379 181.371 405.105C178.36 405.105 175.622 405.105 172.611 404.831C173.159 402.094 173.432 398.809 174.801 396.345C178.36 390.323 177.265 387.311 170.421 385.943C161.113 384.026 154.544 390.323 153.996 402.915C149.069 399.904 144.415 397.44 140.582 394.155C136.476 390.323 140.035 387.859 143.32 386.764C149.89 384.574 156.46 382.931 163.03 381.015C165.494 380.194 168.505 379.646 170.147 378.004C172.337 375.814 175.896 371.434 175.075 370.065C173.432 366.78 169.6 362.674 166.315 362.4C157.007 361.853 154.818 356.104 154.27 348.713C153.722 341.322 154.27 333.657 142.499 331.467C150.164 327.087 154.27 329.277 157.281 333.93C158.924 336.394 159.471 339.679 160.566 342.69C162.482 348.986 166.315 350.081 170.969 345.428C178.633 337.489 181.371 327.908 179.181 317.232C178.633 314.768 175.896 312.578 173.706 311.209C167.957 307.651 164.672 302.997 165.22 296.153C166.589 283.287 163.03 269.326 173.159 258.65C174.801 256.733 176.717 254.817 178.908 253.175C184.109 249.342 190.131 246.605 194.785 242.225C201.355 236.202 208.472 235.655 216.137 237.297C224.624 239.214 228.182 246.879 225.445 255.091C222.707 263.03 220.244 271.242 211.484 273.979C208.199 275.074 203.819 273.432 199.986 272.884C200.534 269.326 200.26 265.493 201.903 262.208C204.093 257.555 207.652 253.448 214.222 253.996C215.59 253.996 218.602 250.711 218.328 249.616C217.78 247.699 215.317 244.688 213.948 244.688C210.389 244.688 206.557 245.509 203.545 247.426C189.858 256.459 178.634 267.409 175.076 284.655C173.707 291.225 176.444 292.868 181.372 291.499C186.299 290.13 190.679 286.572 195.607 284.929C198.344 284.108 201.629 284.655 204.64 284.929C207.925 285.203 211.484 286.846 214.222 286.024C225.993 282.466 232.289 274.253 235.848 262.208C238.585 252.901 243.786 244.141 249.809 236.202C254.189 230.453 252.546 228.263 247.892 225.252C241.322 220.872 234.479 216.766 228.456 211.838C224.898 209.101 222.16 205.542 219.696 201.709C213.126 190.759 215.316 183.916 226.54 177.62C227.635 177.072 228.73 176.251 230.099 175.156C227.909 171.597 225.992 168.312 224.076 165.301C224.624 164.754 224.898 164.206 225.445 163.659C227.088 164.48 229.278 165.301 230.646 166.396C238.585 173.24 246.524 180.357 253.915 187.475C255.557 189.117 256.379 191.855 257.474 194.319C255.01 194.045 252.272 194.592 250.356 193.497C245.702 191.581 241.87 188.022 236.942 186.654C233.384 185.559 229.004 186.654 224.897 186.927C225.171 190.76 224.076 195.687 225.992 198.699C236.669 214.029 252.546 223.062 270.066 227.716C282.932 231.275 296.619 231.549 309.759 232.643C312.77 232.917 316.055 231.001 319.067 229.906C317.972 227.168 317.424 223.61 315.782 221.42C304.011 206.364 314.687 190.76 331.385 185.011C321.804 194.866 314.139 203.626 320.162 215.945C322.078 219.777 325.089 224.157 328.922 225.526C345.894 231.549 351.643 230.18 354.107 220.325C350.274 221.694 346.715 222.789 342.335 224.431C342.883 221.42 343.157 219.504 343.43 217.314C341.24 217.04 338.777 217.314 337.134 216.219C335.492 215.124 333.576 212.66 333.576 211.017C334.123 202.531 349.727 194.319 357.392 197.604C359.582 198.425 364.236 197.056 365.878 195.414C368.889 192.402 370.258 188.023 373.817 182C373.955 182.738 374.078 183.438 374.192 184.104V247.814C372.967 250.351 370.831 251.914 366.699 252.079C364.235 252.079 361.498 253.996 359.034 253.996C352.464 253.722 344.252 255.364 339.324 252.079C326.458 243.593 315.234 247.426 303.463 252.901C302.642 253.174 302.094 253.722 301.547 253.995C292.513 259.197 292.787 258.923 300.178 265.767C304.558 269.873 307.843 275.074 311.675 280.002C312.497 281.097 312.497 283.013 312.223 284.382C310.307 291.499 308.391 298.617 306.474 305.46C302.368 319.148 291.966 325.17 278.004 322.98C273.898 322.433 269.518 321.885 265.412 321.338C260.485 320.79 256.652 322.707 255.557 327.908C264.317 333.383 264.317 333.383 253.915 341.595C260.485 345.701 262.127 350.629 253.641 355.282C259.39 359.662 261.306 364.042 255.01 368.97C253.915 369.791 254.736 373.623 255.831 375.813C259.116 383.478 264.317 390.596 261.032 399.356C259.389 404.009 256.378 408.389 254.188 413.043C251.725 417.97 249.261 422.624 247.618 427.552C247.071 429.468 248.439 433.027 250.082 434.122C261.579 441.239 263.496 452.463 260.211 463.413C257.199 474.363 260.484 483.67 262.674 493.525C264.043 499.274 267.328 504.748 268.971 510.497C269.792 513.509 269.792 517.888 268.149 520.352C263.769 526.374 265.959 528.017 271.982 528.838C278.552 529.659 282.384 534.587 281.563 540.336C279.099 554.57 288.133 563.057 295.25 572.638C297.167 575.102 299.904 577.291 301.273 580.029C304.558 586.325 307.843 589.884 313.318 580.303C315.234 582.766 317.15 584.409 317.698 586.325C319.888 591.8 321.804 597.001 329.469 593.169C330.564 592.621 333.302 593.99 334.396 595.085C341.24 601.655 348.358 608.499 348.084 618.901C348.084 621.639 346.167 624.65 344.525 627.114C340.966 631.768 337.134 636.695 341.514 641.896C345.62 646.824 351.369 650.656 359.034 646.55C361.498 645.181 364.783 645.729 367.794 645.455C367.52 648.466 366.973 651.204 366.699 654.215C366.425 656.679 365.056 660.237 366.425 661.333C368.068 662.975 371.352 663.249 374.09 663.523C374.123 663.566 374.156 663.607 374.192 663.645V686.245Z" fill="#EBEBEB"/>
</g>
</svg>
