<svg width="964" height="1419" viewBox="0 0 964 1419" fill="none" xmlns="http://www.w3.org/2000/svg">
<g opacity="0.7">
<path d="M801.849 314.202C800.948 310.739 800.253 308.071 799.445 304.967C801.723 306.503 803.529 307.721 805.55 309.084C804.477 310.571 803.405 312.051 801.849 314.202ZM961.057 904.837C959.764 907.283 958.471 909.729 957.178 912.175C960.284 910.565 962.008 908.317 961.051 904.838L961.052 904.838L951.274 896.341C952.442 895.737 953.427 895.279 954.358 894.732C957.59 892.835 958.985 890.025 958.229 886.359C957.704 883.813 956.822 881.339 956.025 878.577C958.792 878.513 959.548 881.455 961.991 882.194C961.523 880.345 961.125 878.774 960.62 876.777C962.119 877.005 963.432 877.205 965.048 877.45C968.191 868.609 968.436 859.846 965.212 850.732C963.81 851.219 962.624 851.632 961.063 852.174C961.344 847.266 961.606 842.667 961.886 837.741C964.201 838.573 966.217 839.298 968.452 840.102C968.417 839.432 968.492 838.978 968.36 838.595C966.181 832.289 965.362 825.716 964.368 819.165C964.086 817.308 964.37 814.888 961.708 814.192C960.043 810.519 957.429 807.233 957.214 802.966C957.177 802.241 956.928 801.457 956.56 800.826C953.948 796.344 951.28 791.896 948.467 787.165C946.693 787.298 944.864 787.436 942.552 787.612C943.121 786.522 943.527 785.71 943.966 784.915C945.714 781.754 945.552 780.793 942.811 778.369C941.926 777.586 941.013 776.83 939.769 775.769C941.4 775.279 942.607 774.917 944.183 774.444C941.456 769.575 938.86 764.887 936.177 760.251C935.948 759.856 935.142 759.794 934.605 759.578C934.471 760.149 934.084 760.809 934.249 761.276C934.827 762.919 935.595 764.495 936.426 766.408C934.811 766.493 933.556 766.56 931.882 766.647C933.176 772.948 935.659 778.798 936.513 785.173C934.348 782.349 932.182 779.525 929.87 776.511C930.205 775.804 930.721 774.713 931.354 773.377C929.594 772.608 927.899 771.869 925.894 770.995C925.894 769.453 925.949 767.811 925.878 766.174C925.813 764.671 926.213 763.633 927.418 762.488C928.793 761.18 929.709 759.277 930.495 757.487C931.936 754.208 933.82 751.718 938.107 752.124C938.544 749.951 938.848 747.896 939.378 745.901C940.398 742.073 941.327 738.199 942.695 734.494C944.378 729.93 944.446 729.57 940.484 726.716C943.147 719.24 944.723 711.302 949.686 704.63C951.706 701.916 953.033 698.68 954.614 695.648C956.041 692.908 957.33 690.095 958.782 687.369C959.768 685.521 960.856 683.76 963.018 682.908C963.677 682.649 964.274 681.68 964.485 680.922C966.258 674.54 967.995 668.15 969.578 661.721C969.834 660.677 969.612 659.218 969.038 658.316C965.014 652.004 964.506 645.283 966.456 638.26C967.637 634.009 969.029 629.817 970.259 625.579C970.986 623.077 973.05 622.041 975.22 620.676C976.377 623.521 976.446 626.308 976.201 629.131C975.744 634.374 974.011 639.252 971.87 644.005C971.008 645.916 970.069 647.793 969.199 649.702C967.694 653.007 967.872 653.38 971.639 654.645C971.966 653.89 972.361 653.133 972.629 652.333C975.127 644.906 977.619 637.477 980.081 630.039C982.219 623.581 983.012 616.892 983.119 610.14C983.162 607.487 983.538 605.314 986.482 604.212C986.19 602.605 986.278 600.895 985.558 599.653C984.478 597.788 984.623 595.898 984.389 593.947C984.009 590.79 983.464 587.622 982.609 584.565C981.931 582.141 980.889 579.762 979.643 577.57C977.198 573.269 975.514 568.835 975.487 563.8C975.478 561.956 975.007 560.069 974.476 558.283C973.319 554.389 971.57 553.317 967.593 553.814C966.723 553.923 965.865 554.129 964.187 554.442C965.496 553.245 966.302 552.5 967.115 551.766C967.993 550.974 968.878 550.191 969.942 549.242C968.586 548.276 967.448 547.465 966.028 546.452C967.396 544.196 968.726 542 970.078 539.77C973.028 540.747 974.5 542.734 975.283 545.252C975.936 547.354 976.419 549.514 976.883 551.669C977.634 555.159 979.048 558.173 982.471 559.861C982.576 561.094 982.676 562.272 982.816 563.93C984.109 563.638 985.196 563.395 986.57 563.086C983.264 555.511 980.094 548.246 976.918 540.983C976.52 540.073 976.05 539.192 975.695 538.266C974.512 535.188 972.994 532.42 969.218 531.436C969.711 530.434 970.071 529.702 970.463 528.903C969.938 528.374 969.165 527.914 968.869 527.244C966.553 522.006 964.329 516.727 961.788 510.79C964.074 511.796 965.792 512.555 967.762 513.425C967.942 510.094 967.945 507.149 966.196 504.353C963.819 500.551 963.553 496.228 963.634 491.878C963.689 489.006 963.857 486.133 963.808 483.263C963.742 479.36 962.737 478.019 958.882 476.944C956.931 476.402 956.442 474.881 955.79 473.381C950.95 462.245 946.122 451.103 941.291 439.961C940.693 438.58 940.11 437.193 939.323 435.344C941.301 435.819 942.749 436.167 944.516 436.591C944.397 435.751 944.4 435.133 944.217 434.575C942.173 428.358 939.461 422.553 935.457 417.241C927.658 406.895 924.452 394.748 922.851 382.109C922.333 378.015 921.339 374.167 919.197 370.536C917.821 368.203 916.943 365.486 916.308 362.829C915.415 359.107 913.723 356.308 909.349 355.236C910.761 354.149 911.87 353.295 913.195 352.273C910.556 347.013 908.151 342.224 905.754 337.433C905.312 336.548 904.874 335.659 904.486 334.749C903.316 332.009 902.091 329.288 901.053 326.498C900.53 325.094 900.152 323.566 900.09 322.077C900.017 320.323 899.636 319.196 897.72 318.692C895.846 318.199 895.579 317.492 896.453 315.558C897.396 313.477 896.999 311.677 895.77 309.962C892.296 305.119 888.812 300.284 885.26 295.5C884.652 294.681 883.691 294.123 882.657 293.243C882.825 292.582 883.089 291.545 883.358 290.48C877.901 286 874.725 280.55 875.998 273.056C875.464 272.995 874.934 272.885 874.407 272.885C871.956 272.889 870.476 271.533 869.724 269.377C868.999 267.297 868.367 265.171 867.882 263.023C867.304 260.465 866.164 258.297 864.326 256.421C860.304 252.318 856.239 248.249 852.394 243.984C848.479 239.64 844.663 235.19 841.059 230.587C835.68 223.715 830.533 216.663 825.269 209.701C824.397 208.548 823.6 207.519 823.864 205.836C824.013 204.894 823.352 203.769 822.887 202.808C822.612 202.24 822.045 201.79 821.547 201.358C812.465 193.46 803.518 185.4 794.249 177.727C780.545 166.386 766.589 155.353 752.786 144.131C745.561 138.257 737.505 134.21 728.474 131.811C720.595 129.717 712.891 126.969 705.077 124.619C703.025 124.002 700.852 123.789 698.151 123.281C698.193 123.364 697.915 122.789 697.622 122.223C696.074 119.233 695.077 118.901 691.802 119.864C690.828 120.15 689.653 120.082 688.642 119.856C684.444 118.914 680.213 118.048 676.105 116.789C667.587 114.183 658.791 113.418 650.02 112.403C641.792 111.451 633.564 110.498 625.362 109.355C617.667 108.282 609.989 107.743 602.246 108.743C600.499 108.969 598.717 108.949 596.95 108.976C593.85 109.025 591.201 110.432 588.535 111.748C587.192 112.41 587.871 113.322 588.438 114.317C592.502 113.595 596.496 112.885 601.167 112.055C600.106 114.491 599.264 116.422 598.174 118.926C622.605 116.062 645.546 119.736 667.308 130.919C667.408 129.992 667.466 129.452 667.522 128.913C667.568 128.48 667.611 128.047 667.698 127.203C669.559 127.394 671.36 127.577 673.478 127.793C673.233 128.83 673.019 129.63 672.859 130.441C672.308 133.218 673.159 134.623 675.908 135.337C676.755 135.555 677.656 135.564 678.533 135.667C679.295 135.757 680.056 135.844 681.12 135.968C680.816 136.947 680.552 137.797 680.254 138.753C689.486 145.252 697.73 152.858 704.755 161.912C705.272 161.586 705.631 161.383 705.965 161.146C708.736 159.189 710.269 159.377 712.43 162.035C714.658 164.775 716.877 167.523 719.02 170.331C719.516 170.982 719.972 171.892 719.954 172.672C719.843 177.589 722.162 181.351 725.459 184.658C727.215 186.416 729.079 188.067 731.433 190.27C727.801 190.27 724.875 190.27 721.732 190.27C721.627 192.543 722.612 193.832 724.133 194.92C725.933 194.358 727.275 191.782 729.38 193.054C730.969 194.014 732.068 195.784 733.381 197.19C735.437 196.557 737.581 195.62 739.818 195.263C744.096 194.577 747.771 196.355 751.334 198.548C755.459 201.088 759.609 203.622 763.927 205.808C768.845 208.296 773.076 211.553 776.672 215.681C780.867 220.499 785.862 224.233 791.601 227.037C793.486 227.958 795.242 228.608 797.344 226.914C798.088 228.15 798.804 229.231 799.412 230.369C801.323 233.939 803.836 236.959 807.233 239.212C810.539 241.404 813.023 244.123 814.217 248.108C814.86 250.257 816.471 252.126 817.697 254.09C818.457 255.307 819.294 256.476 820.124 257.648C822.799 261.428 823.43 265.461 821.919 269.893C821.361 271.528 820.742 272.708 818.451 272.34C816.553 269.267 814.54 266.012 812.407 262.558C810.514 264.476 808.825 266.187 806.988 268.049C802.591 265.42 798.196 262.793 793.111 259.751C794.694 265.668 796.072 270.814 797.45 275.96C797.235 276.094 797.019 276.227 796.805 276.36C795.24 274.828 793.675 273.295 792.109 271.762C791.924 271.885 791.74 272.007 791.555 272.13C791.593 272.727 791.465 273.399 791.692 273.911C794.065 279.249 796.436 284.593 798.966 289.858C799.422 290.806 800.606 291.406 801.453 292.165C801.667 292.053 801.881 291.943 802.095 291.831C801.576 287.117 801.057 282.402 800.559 277.875C802.632 276.634 803.324 277.647 803.909 278.997C805.706 283.152 807.53 287.296 809.336 291.446C810.785 294.777 812.223 298.114 813.732 301.6C812.715 302.421 811.792 303.166 810.624 304.109C808.234 301.65 807.016 298.542 804.898 295.469C804.705 296.897 804.58 297.817 804.455 298.744C795.81 297.106 787.898 292.059 782.025 284.223C781.296 287.876 781.254 291.077 781.89 294.296C782.974 299.799 785.931 304.305 789.707 308.281C792.089 310.79 792.721 313.725 792.754 317.095C783.115 312.627 777.347 304.581 772.132 296.096C768.798 296.573 770.292 299.269 769.322 301.298C766.624 297.461 764.08 293.842 761.535 290.225C761.321 290.266 761.107 290.308 760.893 290.349C760.988 291.559 760.933 292.804 761.213 293.969C761.627 295.68 762.207 297.362 762.842 299.005C764.551 303.428 765.162 307.778 761.53 312.568C762.668 313.343 763.779 313.915 764.662 314.732C768.688 318.467 767.781 317.032 766.796 322.041C766.287 324.635 765.637 327.225 765.432 329.847C765.307 331.429 765.672 333.159 766.244 334.662C767.064 336.815 768.485 338.746 769.26 340.912C770.029 343.064 770.317 345.387 770.866 347.862C771.606 347.742 772.327 347.619 773.049 347.507C775.518 347.121 776.214 347.693 776.292 350.264C776.328 351.478 776.173 352.7 776.259 353.907C776.322 354.799 776.632 355.676 776.888 356.812C779.243 354.987 778.568 351.581 781.821 350.369C783.578 358.577 785.293 366.582 786.979 374.459C786.612 374.779 786.463 375.027 786.297 375.038C780.937 375.399 778.785 378.993 777.564 383.594C775.525 391.273 772.18 396.227 765.356 401.574C764.561 400.31 763.786 399.075 762.736 397.404C764.354 397.495 765.508 397.56 767.07 397.65C766.831 395.728 766.597 393.849 766.334 391.721C767.676 392.37 768.738 392.883 770.406 393.691C769.659 387.954 768.977 382.719 768.296 377.483C768.076 377.439 767.857 377.395 767.639 377.349C762.093 388.462 756.549 399.575 750.736 411.224C748.73 408.22 746.994 405.622 745.356 403.167C743.635 403.136 742.84 403.844 742.364 405.144C741.035 408.771 739.558 412.345 738.319 416.003C738.002 416.938 738.106 418.185 738.437 419.143C739.67 422.694 740.083 426.118 738.646 429.79C737.469 432.794 738.045 435.926 739.554 438.765C740.638 440.806 741.911 442.753 743.153 444.707C745.47 448.353 745.066 449.772 741.135 451.581C740.645 451.806 740.174 452.074 739.704 452.339C739.621 452.386 739.589 452.523 739.331 452.969C739.688 453.496 740.068 454.247 740.624 454.825C741.068 455.288 741.732 455.537 742.292 455.891C745.285 457.792 745.4 458.152 744.005 461.739C744.896 461.739 745.698 461.727 746.499 461.742C748.972 461.789 749.618 462.608 749.077 465.082C748.912 465.833 748.646 466.567 748.368 467.285C748.177 467.778 747.889 468.232 747.674 468.645C741.473 468.399 741.473 468.399 740.348 470.15C744.773 472.218 747.144 475.789 747.362 480.953C743.743 480.629 740.551 478.476 736.287 477.765C743.47 483.324 745.373 490.648 745.88 498.605C746.122 502.421 746.504 506.228 746.874 510.645C745.624 509.127 744.736 508.048 743.612 506.683C740.797 508.503 737.976 510.324 734.876 512.325C736.973 514.483 738.925 516.393 740.761 518.411C742.393 520.204 743.96 522.065 745.436 523.989C746.506 525.383 746.814 527.04 746.037 528.686C743.732 533.577 741.401 538.457 738.998 543.301C738.288 544.73 737.23 545.858 735.123 545.013C737.012 540.475 738.861 536.03 740.841 531.273C739.084 530.323 737.509 529.473 735.275 528.264C735.824 529.786 736.161 530.565 736.386 531.376C737.121 534.021 736.405 534.99 733.566 535.225C732.946 535.276 732.317 535.232 731.436 535.232C733.11 536.939 734.539 538.396 736.234 540.125C734.55 541.27 733.168 542.319 731.68 543.188C730.309 543.986 729.714 545.053 729.546 546.628C729.032 551.458 728.373 556.272 727.777 561.094C727.614 562.42 727.671 563.932 725.216 563.326C724.901 559.746 724.576 556.058 724.259 552.441C719.658 551.394 717.039 552.851 716.353 557.083C715.899 559.901 715.719 562.724 712.973 565.336C715.043 565.336 716.328 565.301 717.612 565.341C721.729 565.469 722.906 566.387 723.849 570.309C724.202 571.775 724.385 573.28 724.724 575.212C722.644 574.604 721.01 574.128 719.149 573.584C718.236 576.189 717.794 578.731 717.858 581.345C717.865 581.649 718.624 581.935 719.21 582.356C720.172 580.708 721.029 579.239 722.103 577.396C724.373 581.639 726.439 585.502 728.558 589.463C725.763 592.01 725.65 595.043 726.468 598.366C727.044 600.707 727.349 603.116 727.735 605.502C728.089 607.703 728.299 609.742 731.143 610.517C732.336 610.843 733.341 612.563 734.033 613.861C734.905 615.495 735.369 617.346 736.123 619.419C734.711 619.581 733.37 619.732 731.842 619.906C732.002 621.953 733.238 623.282 734.624 624.518C735.931 625.682 737.381 626.714 738.548 628.004C741.421 631.182 741.667 631.335 745.75 630.496C746.315 632.005 746.852 633.556 747.474 635.073C749.01 638.821 749.933 639.416 753.934 639.381C755.037 639.371 756.138 639.379 757.116 639.379C757.294 639.125 757.363 639.049 757.405 638.96C757.452 638.863 757.53 638.722 757.494 638.653C754.65 633.299 751.794 627.951 748.81 622.359C750.295 621.38 751.719 620.439 753.347 619.365C753.811 621.319 754.188 622.91 754.52 624.305C755.415 624.525 756.423 624.468 756.938 624.946C760.984 628.699 765.047 632.446 768.875 636.417C771.173 638.798 772.798 641.718 773.708 645.166C772.339 646.701 770.959 648.249 769.519 649.864C767.985 649.231 766.593 648.659 764.702 647.881C765.34 651.373 765.903 654.452 766.549 658C768.07 656.841 769.244 655.9 770.467 655.026C773.152 653.105 774.338 653.124 777.008 655.099C777.979 655.819 778.913 656.588 780.162 657.571C781.05 655.635 781.865 653.858 782.68 652.08C782.956 652.156 783.231 652.234 783.508 652.309C783.82 656.512 782.452 660.642 782.48 664.975C783.672 665.636 784.896 666.316 786.881 667.418C782.89 668.128 779.642 668.707 776.308 669.3C778.857 672.876 778.871 672.901 774.903 675.215C773.544 676.007 772.678 676.963 772.908 678.656C773.313 681.63 771.575 683.246 769.08 684.079C764.121 685.735 758.949 686.635 753.761 686.282C745.446 685.717 737.147 678.205 735.231 670.035C734.761 668.027 734.363 666.002 733.924 663.941C727.284 666.633 727.28 666.633 721.938 661.972C721.573 665.778 721.234 669.308 720.883 672.961C719.789 673.016 718.828 673.064 717.716 673.119C717.094 674.639 716.543 676.184 715.842 677.661C714.343 680.825 713.322 681.058 710.593 678.977C710.166 678.652 709.767 678.292 709.197 677.816C707.55 679.711 705.989 681.507 704.436 683.293C701.999 682.548 701.068 680.946 701.143 678.75C701.193 677.212 701.498 675.684 701.643 674.147C701.76 672.89 701.808 671.626 701.887 670.365C701.638 670.264 701.39 670.164 701.141 670.064C699.609 672.14 697.904 674.116 696.635 676.343C696.141 677.205 696.245 678.841 696.748 679.758C698.541 683.032 700.616 686.152 702.604 689.318C702.836 689.686 703.209 689.961 703.49 690.302C705.152 692.312 705.122 692.526 703.03 694.183C702.692 694.45 702.369 694.737 701.917 695.117C702.333 696.848 704.422 698.324 703.171 700.255C702.232 701.7 700.902 702.891 699.606 704.354C700.329 704.354 701.217 704.354 702.105 704.354C703.07 704.354 704.033 704.354 705.168 704.354C705.168 705.728 705.168 707 705.168 708.426C703.198 708.588 701.355 708.804 699.505 708.87C697.443 708.945 696.984 708.297 697.519 706.257C697.628 705.841 697.86 705.458 698.102 704.906C697.727 704.645 697.407 704.401 697.065 704.189C694.371 702.504 693.983 701.423 694.965 698.432C695.568 696.595 696.14 694.747 696.843 692.538C694.017 692.538 691.759 692.538 689.191 692.538C690 696.365 690.771 700.012 691.545 703.656C691.729 704.52 691.824 705.417 692.128 706.237C692.69 707.746 692.308 708.933 691.387 710.209C688.808 713.786 686.356 717.453 683.656 721.369C685.693 722.532 687.557 723.598 689.609 724.77C688.86 718.385 689.37 717.737 696.55 715.677C696.985 717.541 696.329 719.246 695.514 720.743C693.833 723.835 691.918 726.803 690.049 729.791C688.294 732.596 686.416 735.325 684.714 738.159C684.058 739.253 683.738 740.546 683.182 741.957C684.529 742.337 685.561 742.627 686.81 742.978C686.081 744.688 685.411 746.26 684.612 748.135C686.168 748.552 687.512 748.912 689.203 749.366C690.154 745.388 691.077 741.55 691.987 737.71C692.903 733.853 693.806 729.991 694.789 725.818C695.823 726.719 696.618 727.412 697.414 728.107C698.925 727.21 698.331 724.837 700.689 724.182C699.714 732.646 703.381 738.471 710.337 742.515C714.501 737.121 714.032 726.482 709.305 721.7C708.816 725.218 710.008 728.74 708.238 731.857C707.923 732.414 707.473 732.893 706.624 734.023C705.074 727.414 703.665 721.4 702.281 715.493C703.74 714.43 704.375 714.945 704.846 716.041C705.805 718.266 707.55 719.749 709.702 721.141C716.147 718.026 722.864 715.794 730.355 717.333C729.901 720.667 726.506 721.191 724.792 723.63C726.528 723.309 728.266 722.989 730.439 722.587C730.74 724.709 731.036 726.815 731.394 729.345C729.474 728.634 728.004 728.091 726.001 727.349C726.68 729.458 727.2 731.07 727.804 732.94C732.942 731.777 737.849 730.665 743.314 729.427C742.761 731.336 742.185 732.832 741.92 734.382C741.627 736.081 741.376 737.851 741.536 739.55C742.106 745.601 741.785 751.421 738.774 756.933C738.046 758.268 737.987 760.121 738.08 761.708C738.187 763.56 738.711 765.407 739.206 767.213C741.206 774.532 741.536 782.023 741.633 789.545C741.649 790.888 741.622 792.117 740.461 793.16C739.889 793.675 739.563 794.676 739.486 795.491C738.906 801.526 738.417 807.572 737.903 813.573C740.311 814.448 740.222 814.403 741.177 812.55C743.939 807.182 744.378 801.381 744.633 795.507C744.787 792.003 745.201 788.511 745.565 784.223C748.212 787.092 750.327 789.382 752.72 791.974C750.034 793.249 747.695 794.36 744.891 795.693C746.615 796.485 747.983 797.086 749.324 797.738C751.768 798.923 753.257 800.651 753.46 803.583C754.097 812.761 756.526 821.407 761.773 829.1C762.7 830.46 762.377 831.749 762.023 833.413C761.081 832.807 760.379 832.355 759.499 831.788C759.54 832.207 759.49 832.512 759.604 832.725C760.701 834.765 761.932 836.742 762.923 838.832C765.571 844.407 765.946 850.07 763.262 855.777C763.085 856.152 763.004 856.574 762.854 857.052C767.386 855.962 769.001 854.226 769.054 849.872C769.094 846.457 768.703 843.037 768.597 839.617C768.544 837.921 768.703 836.218 768.767 834.518C769.056 834.485 769.345 834.453 769.636 834.421C770.034 835.739 770.513 837.039 770.801 838.378C770.985 839.228 770.897 840.139 770.912 841.022C771.021 847.217 771.122 847.397 776.516 850.562C775.633 852.512 774.739 854.487 773.748 856.676C772.158 856.038 770.706 855.455 768.87 854.717C769.461 857.321 769.967 859.543 770.445 861.645C770.184 861.958 770.079 862.21 769.908 862.27C766.242 863.523 766.23 863.658 767.215 867.486C767.758 869.598 768.021 871.782 768.467 874.253C769.992 873.497 771.339 872.829 772.825 872.093C772.2 869.136 771.611 866.36 770.87 862.866C773.457 864.866 774.662 867.043 774.841 869.486C775.063 872.539 774.828 875.642 774.592 878.707C774.406 881.121 773.899 883.511 773.569 885.915C773.103 889.3 774.309 891.963 777.084 893.955C777.845 894.5 778.53 895.151 779.804 896.217C777.871 896.402 776.587 896.484 775.317 896.661C774.225 896.811 773.137 897.023 772.07 897.294C770.527 897.688 769.855 898.775 770.199 900.289C770.561 901.881 771.132 903.425 771.83 905.704C772.578 903.62 773.074 902.24 773.639 900.667C776.33 901.748 774.403 904.431 775.901 906.02C777.615 904.52 779.324 903.025 781.033 901.529C779.5 907.875 779.172 915.031 770.429 916.049C770.05 918.738 769.688 921.317 769.325 923.894C769.514 924.002 769.703 924.108 769.893 924.215C772.812 921.142 775.73 918.067 778.766 914.87C779.508 915.297 780.135 915.658 780.815 916.05C779.697 919.234 778.6 922.285 777.591 925.365C777.508 925.616 778.024 926.065 778.335 926.531C781.695 923.942 783.651 920.336 787.416 917.709C787.191 921.013 784.982 922.687 784.276 925.317C785.291 926.083 786.405 926.921 787.663 927.869C788.187 927.207 788.63 926.649 788.702 926.558C790.9 926.612 792.8 927.064 794.458 926.619C798.057 925.651 801.185 926.365 804.569 928.493C803.25 929.097 802.139 929.605 800.694 930.267C801.263 931.939 801.91 933.644 802.424 935.385C803.49 939.004 802.69 940.442 798.742 941.907C797.638 940.229 796.501 938.501 795.055 936.302C793.941 939.95 792.439 943.118 792.119 946.401C791.785 949.839 792.587 953.387 792.399 957.182C791.195 955.455 789.99 953.726 788.753 951.951C787.9 953.961 787.777 957.076 788.392 961.066C789.316 961.176 790.288 961.369 791.265 961.389C793.569 961.439 795.874 961.406 798.594 961.406C798.493 959.684 798.565 957.941 798.25 956.272C797.738 953.545 798.658 951.572 800.861 950.045C801.586 949.542 802.168 948.715 802.956 948.452C804.148 948.056 805.648 947.571 806.663 947.987C807.402 948.291 808.03 950.042 807.91 951.054C807.303 956.189 806.899 961.392 804.514 966.149C803.725 967.721 802.999 969.351 802.49 971.029C801.69 973.672 801.907 976.249 803.918 979.028C806.411 973.008 808.775 967.297 811.213 961.407C813.881 962.902 812.686 965.726 814.349 967.69C816.009 964.694 817.57 961.874 819.486 958.416C821.142 962.018 822.63 965.018 823.874 968.116C824.2 968.929 823.865 970.07 823.66 971.023C822.687 975.535 821.652 980.035 820.645 984.516C824.857 985.84 825.608 988.874 825.284 992.532C825.228 993.181 825.363 993.846 825.435 994.87C827.785 993.099 828.197 990.24 830.378 988.221C832.073 993.121 834.223 997.696 832.554 1002.9C832.192 1004.03 832.238 1004.93 832.866 1005.99C840.206 1018.37 843.07 1032.01 843.822 1046.17C844.931 1067.07 841.18 1087.3 834.893 1107.13C832.692 1114.07 830.215 1120.93 827.931 1127.84C827.489 1129.18 827.191 1130.62 827.124 1132.03C826.971 1135.28 826.367 1138.42 824.901 1141.3C817.472 1155.92 812.479 1171.5 806.752 1186.79C795.212 1217.61 783.427 1248.32 769.594 1278.2C765.051 1288.01 759.995 1297.58 755.026 1307.19C753.306 1310.52 751.195 1313.65 749.164 1316.8C740.441 1330.36 727.511 1336.8 711.904 1338.48C709.313 1338.76 706.624 1338.25 703.994 1337.98C702.872 1337.87 702.097 1337.3 701.708 1335.98C701.285 1334.55 700.453 1333.17 699.541 1331.96C696.815 1328.34 693.936 1324.84 691.167 1321.25C687.572 1316.59 684.717 1311.54 682.617 1306C681.578 1303.26 680.017 1300.59 678.18 1298.3C672.21 1290.85 667.263 1282.75 662.614 1274.47C653.103 1257.52 643.774 1240.47 634.225 1223.54C622.556 1202.84 613.418 1181.18 607.831 1158.02C604.147 1142.76 598.048 1128.26 592.553 1113.59C592.439 1113.29 592.234 1113.02 591.865 1112.38C590.809 1112.83 589.686 1113.18 588.684 1113.75C586.959 1114.74 585.294 1115.83 583.632 1116.92C580.673 1118.85 577.497 1119.91 573.917 1119.47C571.494 1119.17 569.32 1119.98 567.28 1121.13C564.297 1122.8 561.305 1124.48 558.456 1126.37C558.319 1126.46 558.184 1126.55 558.049 1126.62V1276.59L558.1 1276.88C558.637 1280.02 559.286 1283.13 559.932 1286.49C561.324 1286.19 562.442 1285.95 563.833 1285.65C564.17 1289.9 564.489 1293.94 564.817 1298.07C563.963 1298.53 563.211 1298.94 562.178 1299.5L558.049 1293.83V1373.02C567.919 1372.82 577.788 1372.53 587.656 1372.13C596.268 1371.78 604.887 1371.6 613.497 1371.21C618.566 1370.98 623.62 1370.43 628.688 1370.14C633.759 1369.84 638.839 1369.53 643.916 1369.51C657.401 1369.49 670.397 1366.57 683.403 1363.4C718.364 1354.9 753.159 1345.8 787.412 1334.76C797.593 1331.47 807.704 1327.93 817.679 1324.07C829.063 1319.66 840.758 1318.37 852.809 1319.26C874.875 1320.89 895.665 1327.47 915.96 1335.8C924.325 1339.23 932.461 1343.22 940.698 1346.96C941.49 1347.32 942.263 1347.73 943.345 1348.26C944.03 1347.21 944.696 1346.24 945.308 1345.23C966.154 1311.05 981.37 1274.48 991.671 1235.84C997.276 1214.82 1001.75 1193.55 1004.82 1172.01C1007.73 1151.62 1009.13 1131.15 1007.58 1110.56C1006.43 1095.1 1003.56 1079.93 1000.06 1064.86C996.653 1050.13 993.074 1035.43 990.192 1020.59C986.029 999.169 984.239 977.501 985.18 955.654C985.237 954.329 985.388 953.011 985.477 951.688C985.602 949.815 986.193 948.018 984.46 946.278C983.623 945.437 983.826 943.562 983.471 941.7C982.699 942.311 982.015 942.727 981.5 943.297C980.909 943.947 980.466 944.733 979.822 945.657C977.603 943.749 975.875 942.263 974.058 940.7C970.853 942.15 967.787 943.538 964.089 945.212C964.983 943.093 965.606 941.614 966.352 939.845C965.426 939.223 964.466 938.542 963.471 937.915C959.732 935.562 955.955 933.269 952.249 930.867C950.462 929.711 949.899 928.471 950.823 927.01C953.554 922.691 952.841 918.132 952.236 913.508C951.965 911.435 951.842 909.322 951.913 907.234C951.963 905.733 952.444 904.247 952.819 902.305C954.759 903.127 956.32 903.899 957.959 904.441C958.93 904.761 960.02 904.717 961.057 904.837ZM589.806 119.574C592.196 119.774 594.365 119.947 596.516 118.912C594.248 116.311 592.962 116.426 589.806 119.574ZM558.049 533.104L558.193 532.995L558.049 532.966V533.104ZM709.144 677.428C712.551 675.198 713.121 673.931 712.431 670.538C711.978 668.31 711.422 666.103 710.839 663.572C709.498 664.454 708.246 665.279 706.792 666.237C707.162 668.074 707.513 669.883 707.893 671.687C708.27 673.49 708.676 675.286 709.144 677.428ZM739.395 638.957C737.273 640.937 735.049 645.788 733.243 651.773C735.866 652.453 738.48 653.13 741.601 653.939C740.859 648.904 740.169 644.219 739.395 638.957ZM558.049 119.829C562.58 120.22 563.514 118.672 564.087 112.853C564.159 112.117 564.231 111.38 564.318 110.487H558.049V119.829ZM764.29 357.616C763.714 358.437 763.38 358.99 762.974 359.483C761.542 361.216 761.427 362.815 762.805 364.784C764.553 367.278 765.935 370.028 767.663 372.995C769.688 371.145 771.567 369.648 773.178 367.907C775.332 365.578 774.624 363.16 771.636 362.107C770.811 361.816 769.944 361.645 769.103 361.392C766.615 360.643 766.14 360.279 764.29 357.616ZM629.574 482.871C627.488 484.408 625.29 486.027 622.659 487.966C624.964 489.47 627 490.819 629.057 492.136C631.092 493.437 633.149 494.703 635.187 495.979C639.058 490.8 636.9 485.677 629.574 482.871ZM578.431 116.802C578.745 118.034 578.931 118.755 579.153 119.625C581.156 119.625 583.081 119.625 585.41 119.625C585.018 116.524 584.653 113.637 584.24 110.374C580.706 109.78 577.282 109.038 573.819 108.663C568.993 108.142 567.319 110.187 568.388 114.945C568.508 115.476 568.686 115.994 568.918 116.802C572.016 116.802 575.156 116.802 578.431 116.802ZM566.657 482.243C567.303 483.006 568.428 483.722 568.498 484.528C568.732 487.212 568.587 489.929 568.587 493.162C567.57 492.478 567.032 492.166 566.549 491.786C561.468 487.788 561.453 486.99 566.657 482.243ZM558.049 511.832C561.41 511.287 564.516 509.996 567.233 507.661C568.594 506.493 569.571 504.75 570.388 503.103C572.207 499.452 573.694 495.634 575.537 491.996C577.559 488.005 580.476 487.078 584.556 488.811C587.196 489.933 589.856 491.009 592.475 492.174C596.041 493.758 599.288 495.81 601.837 498.839C603.914 501.308 606.725 501.534 610.33 501.425C609.024 499.588 607.971 498.127 606.937 496.652C603.047 491.094 598.134 486.893 591.735 484.334C587.857 482.782 584.193 480.678 580.49 478.715C573.063 474.777 565.664 470.785 558.049 466.696V511.832ZM558.049 460.958C558.128 460.848 558.209 460.738 558.291 460.63C558.728 460.056 559.741 459.651 560.501 459.635C563.7 459.567 566.94 459.404 570.098 459.802C572.673 460.128 575.333 460.844 577.647 462.004C587.211 466.801 596.661 471.827 606.15 476.779C610.449 479.024 614.66 481.469 619.436 482.632C620.902 482.99 622.672 483.904 623.562 482.052C624.379 480.346 622.664 479.325 621.659 478.234C621.297 477.841 620.762 477.596 620.287 477.32C613.089 473.139 607.904 466.732 602.165 460.938C602.05 460.821 602.1 460.538 602.046 460.115C604.431 459.277 607.225 460.159 609.544 458.94C609.56 458.688 609.575 458.436 609.589 458.183C606.332 457.589 603.076 456.994 599.692 456.376C600.335 452.709 602.551 450.78 605.64 449.708C608.011 448.883 610.434 448.208 612.946 447.433C612.707 445.827 612.486 444.426 612.292 443.022C612.099 441.619 611.391 440.667 610.165 439.884C606.445 437.509 602.813 434.995 599.123 432.572C598.593 432.224 597.945 431.937 597.323 431.865C586.91 430.65 576.539 428.883 565.998 429.255C563.346 429.348 560.698 429.534 558.049 429.707V460.958ZM558.049 849.056L558.532 849.191L558.049 850.808V896.121C558.184 896.094 558.318 896.067 558.453 896.042C560.274 895.703 560.273 895.698 561.538 893.826C562.692 895.122 563.825 896.392 565.139 897.867C571.515 892.715 577.581 887.811 584.051 882.582C582.557 882.083 581.506 881.732 580.387 881.358C582.234 875.16 585.562 870.826 592.792 870.729C592.412 869.934 592.254 869.551 592.051 869.195C591.836 868.819 591.576 868.469 591.312 868.074C595.472 861.796 599.593 855.576 603.758 849.291C604.577 849.854 605.645 850.588 607.128 851.607C607.26 849.055 607.374 846.842 607.497 844.465C608.328 844.525 608.863 844.519 609.383 844.606C613.34 845.272 613.338 845.277 614.65 841.649C616.253 842.326 617.838 843.04 619.455 843.667C622.398 844.808 625.265 844.412 627.518 842.313C631.054 839.018 634.403 835.536 639.181 833.848C639.091 833.561 639.003 833.272 638.913 832.985C637.355 832.985 635.79 833.07 634.239 832.959C632.874 832.859 630.945 833.192 630.513 831.596C629.97 829.583 632.23 829.668 633.355 829.104C635.886 827.833 638.54 826.808 641.331 825.603C641.588 827.565 641.797 829.166 642.047 831.076C645.523 830.37 648.732 829.719 652.012 829.053C652.11 828.373 652.341 827.813 652.238 827.321C651.517 823.861 653.167 821.947 656.264 820.9C656.669 820.765 657.034 820.512 657.4 820.321C658.06 820.647 658.636 820.965 659.237 821.224C662.581 822.672 665.324 822.034 667.278 818.932C668.495 817.001 669.338 814.79 670.076 812.613C671.136 809.479 671.891 806.243 672.885 803.086C673.661 800.628 673.973 800.398 676.911 798.903C677.85 800.821 678.086 802.767 677.149 805.065C677.838 804.736 678.155 804.644 678.405 804.459C682.335 801.544 682.528 799.477 678.879 796.275C676.813 794.462 674.527 792.871 672.203 791.393C670.751 790.469 670.004 789.47 669.997 787.693C669.989 785.623 669.649 783.554 669.465 781.624C668.166 781.011 667.534 781.291 667.308 782.439C666.906 784.497 666.536 786.563 666.062 788.604C665.811 789.694 665.371 790.741 664.58 791.777C662.744 787.678 662.02 783.449 661.149 779.141C662.681 778.86 663.893 778.64 665.106 778.418C665.125 778.141 665.145 777.863 665.165 777.586C660.89 775.913 656.186 775.682 651.543 774.185C652.595 772.433 653.543 770.851 654.661 768.985C653.067 767.534 651.469 766.075 650.127 764.854C650.451 763.347 650.941 762.071 650.953 760.791C650.984 757.812 650.818 754.827 650.659 751.849C650.58 750.385 650.506 750.389 648.478 749.635C647.526 756.546 646.585 763.368 645.55 770.88C643.912 768.633 642.65 766.902 641.253 764.988C640.042 765.884 639.032 766.731 637.927 767.427C635.788 768.775 633.604 770.05 631.423 771.329C630.663 771.775 629.848 772.124 629.074 772.55C625.206 774.676 623.259 777.883 623.718 782.348C624.077 785.835 623.219 789.1 622.243 792.711C618.802 791.702 615.578 790.757 612.107 789.74C613.345 786.054 614.487 782.65 615.829 778.657C613.08 779.619 610.859 780.395 609.042 781.03C607.805 786.498 606.71 791.555 605.512 796.586C604.069 802.641 603.739 808.605 606.385 814.841C604.463 814.029 602.543 813.216 600.684 812.431C599.721 805.602 598.796 799.046 597.875 792.49C597.383 788.994 597.292 788.886 593.923 788.527C590.323 788.145 587.792 786.167 586.041 783.141C584.899 781.164 583.932 779.088 582.871 777.028C581.517 778.151 581.52 778.149 582.777 782.19C583.324 783.948 583.858 785.711 584.458 787.668C582.22 787.766 580.841 785.573 578.162 786.214C579.523 788.363 580.66 790.16 581.975 792.238C579.993 794.706 577.959 797.238 575.691 800.063C573.65 795.603 571.827 791.622 570.004 787.642C569.801 787.653 569.598 787.664 569.397 787.674C568.38 791.059 567.364 794.442 566.4 797.654C568.168 799.115 570.656 797.511 571.82 800.071C568.253 803.216 564.645 806.318 560.471 809.74C560.303 806.296 562.037 804.093 562.381 801.555C560.664 801.825 559.209 802.387 558.049 803.167V814.267L562.896 810.779C563.912 813.631 561.305 814.773 561.006 817.437C562.259 818.566 563.924 819.998 565.513 821.51C568.974 824.802 571.238 828.691 571.981 833.521C572.31 835.655 573.395 837.671 574.359 840.363C573.208 841.102 571.743 842.04 570.383 842.913C572.033 845.883 574.675 845.103 576.62 846.679C574.302 848.381 572.074 850.019 569.864 851.642C568.039 849.817 562.429 839.486 559.738 833.178C560.505 832.143 561.403 831.39 561.684 830.452C562.375 828.159 562.782 825.779 563.283 823.519C562.022 822.472 561.309 823.133 560.637 823.948L558.049 827.091V849.056ZM580.226 842.707C584.612 845.384 585.426 847.45 584.107 851.448C583.697 852.693 583.303 853.943 582.868 855.177C582.767 855.463 582.525 855.701 582.365 855.936C581.467 855.936 580.638 855.936 579.589 855.936C579.8 851.567 580.001 847.375 580.226 842.707ZM636.609 798.618C637.443 799.247 637.946 799.628 638.662 800.168C635.604 805.241 632.626 810.182 629.555 815.279C627.996 814.118 626.808 813.234 625.534 812.284C629.331 807.6 632.865 803.239 636.609 798.618ZM558.13 865.772C558.54 861.451 558.716 857.366 559.393 853.367C559.748 851.266 560.885 849.265 561.853 847.311C562.443 846.123 563.487 845.904 564.757 847.132C563.472 853.52 562.418 860.094 560.68 866.59C559.692 866.272 559.064 866.072 558.13 865.772ZM575.992 867.553C575.739 867.63 575.486 867.706 575.233 867.783C573.196 865.525 571.158 863.267 569.007 860.883C570.982 858.063 573.132 855.026 575.246 851.964C576.141 850.667 577.136 850.227 578.596 851.396C577.73 856.772 576.861 862.162 575.992 867.553ZM657.331 819.791C653.606 818.082 653.41 817.361 655.702 814.509C656.184 813.91 656.755 813.351 657.089 812.676C657.389 812.073 657.418 811.336 657.572 810.628C655.065 810.351 653.28 813.085 650.946 811.969C650.833 811.677 650.721 811.384 650.608 811.091C654.229 808.758 657.85 806.425 661.975 803.767C662.382 806.464 662.781 808.577 662.999 810.707C663.249 813.139 662.204 815.094 660.05 816.141C658.43 816.926 657.553 818.06 657.331 819.791ZM621.6 798.518C620.482 801.611 618.587 804.145 618.62 807.5C620.588 806.631 622.335 805.859 624.794 804.772C622.859 810.181 621.178 814.881 619.531 819.486C617.859 819.903 616.868 819.654 616.982 817.887C617.06 816.68 617.184 815.476 617.299 814.272C617.481 812.36 617.675 810.45 617.854 808.615C616.728 808.414 616.031 808.29 614.791 808.068C615.865 805.801 616.78 803.87 617.748 801.826C616.517 800.638 615.192 799.359 613.891 798.104C614.185 797.007 614.532 796.169 615.699 796.527C617.668 797.13 619.603 797.839 621.6 798.518ZM593.567 835.397C593.925 835.282 594.213 835.108 594.499 835.111C597.559 835.137 597.546 835.142 598.094 832.25C598.305 831.136 598.595 830.038 598.848 828.931C599.103 828.911 599.358 828.89 599.613 828.869C601.692 832.34 603.799 835.797 605.818 839.303C606.099 839.79 606.144 840.584 605.969 841.131C605.202 843.515 604.314 845.86 603.389 848.447C601.207 847.638 599.289 846.928 597.244 846.171C593.869 850.535 590.59 854.777 587.177 859.19C586.29 858.517 585.643 858.025 585.004 857.541C586.815 854.951 589.024 852.74 590.04 850.073C591.045 847.432 590.846 844.334 591.175 841.449C592.774 841.279 594.151 841.133 595.727 840.965C594.947 838.955 594.274 837.221 593.567 835.397ZM631.169 793.187C630.132 796.417 629.248 799.166 628.243 802.297C625.833 799.652 625.163 797.139 626.083 794.267C626.653 792.485 627.544 790.784 627.919 788.97C628.3 787.127 629.003 785.743 630.982 785.172C630.323 781.348 629.694 777.698 629.027 773.826C630.156 773.521 631.052 773.276 632.008 773.018C632.936 774.39 633.651 775.638 634.557 776.728C635.313 777.638 636.179 778.848 637.192 779.083C640.41 779.824 641.082 781.918 640.893 784.743C640.834 785.621 640.918 786.509 640.854 787.388C640.502 792.324 637.816 795.027 632.655 795.617C632.278 794.999 631.885 794.358 631.169 793.187ZM558.049 1114.24C560.982 1113.7 563.879 1113.04 566.714 1112.08C569.641 1111.09 571.346 1108.77 572.096 1105.81C573.634 1099.73 573.272 1093.7 571.023 1087.91C569.793 1084.74 568.308 1081.55 566.303 1078.84C563.623 1075.21 560.898 1071.6 558.049 1068.09V1114.24ZM733.15 710.936C731.963 711.933 731.432 712.445 730.833 712.863C730.111 713.367 729.367 713.865 728.573 714.236C725.071 715.871 722.909 714.649 721.976 710.256C725.505 710.471 728.941 710.681 733.15 710.936ZM784.846 390.589C780.87 386.157 781.506 380.889 787.102 376.59C786.334 381.355 785.628 385.737 784.846 390.589ZM966.646 658.018C965.051 660.192 963.768 661.98 962.443 663.739C961.161 665.44 959.835 667.108 958.389 668.968C955.962 663.888 959.107 659.787 966.646 658.018ZM749.635 489.967C755.475 488.578 759.738 490.912 756.938 499.032C754.474 495.974 752.172 493.116 749.635 489.967ZM945.662 471.953C941.148 472.207 939.345 470.737 939.569 467.093C939.707 464.866 940.319 462.67 940.717 460.46C940.964 460.433 941.21 460.407 941.457 460.379C942.821 464.134 944.186 467.891 945.662 471.953ZM783.508 391.8C783.773 391.883 784.038 391.966 784.302 392.049C784.037 396.089 783.77 400.127 783.462 404.787C781.337 403.091 779.748 401.823 778.019 400.443C779.92 397.449 781.713 394.625 783.508 391.8ZM932.961 894.529C934.398 890.676 935.781 887.028 937.114 883.363C937.705 881.739 938.665 881.837 939.859 882.508C939.574 891.306 938.262 892.844 932.961 894.529ZM734.067 178.562C732.328 179.172 731.257 179.876 730.22 179.832C728.753 179.77 723.524 175.671 722.556 174.266C727.656 171.545 726.72 171.177 731.047 175.352C731.897 176.171 732.67 177.07 734.067 178.562ZM968.865 531.119C968.495 533.304 968.134 535.424 967.758 537.641C965.465 538.059 963.463 538.424 960.884 538.893C962.449 535.251 963.764 532.187 965.185 528.879C966.643 529.767 967.651 530.38 968.865 531.119ZM821.915 252.51C822.878 250.924 824.165 250.665 825.333 251.635C826.558 252.656 827.774 253.896 828.459 255.303C829.161 256.739 829.146 258.509 829.57 260.102C830.033 261.84 829.263 262.542 827.471 262.796C826.048 260.22 824.609 257.628 823.19 255.028C822.724 254.176 822.311 253.296 821.915 252.51ZM770.521 320.457C770.521 317.361 770.521 314.752 770.521 311.779C774.469 313.014 778.169 314.171 781.869 315.328C781.884 315.524 781.9 315.718 781.915 315.913C778.267 317.367 774.62 318.822 770.521 320.457ZM781.985 334.009C782.375 337.898 782.756 341.703 783.152 345.666C782.081 345.787 781.249 345.881 780.159 346.004C779.817 344.007 779.421 342.19 779.208 340.351C778.448 333.749 778.719 333.393 784.214 330.035C785.337 331.404 786.479 332.796 787.739 334.331C785.523 335.948 784.158 333.675 781.985 334.009ZM754.255 459.199C757.338 459.85 758.499 461.443 758.419 464.17C758.316 467.667 758.394 471.171 758.394 474.775C756.883 475.573 755.473 476.316 753.455 477.381C753.737 470.979 753.989 465.231 754.255 459.199ZM940.818 903.186C942.212 900.937 943.502 898.855 945.099 896.279C945.53 903.275 943.027 907.606 937.903 909.558C932.38 905.897 932.07 905.942 927.037 911.085C926.553 907.595 927.259 905.28 929.445 904.301C933.649 902.418 936.853 904.192 939.777 907.36C939.41 905.598 939.041 903.834 938.603 901.729C939.44 902.28 939.953 902.617 940.818 903.186ZM948.775 798.822C949.845 803.624 951.012 808.401 951.927 813.224C952.257 814.968 951.979 816.829 951.979 818.636C951.762 818.707 951.544 818.779 951.326 818.85C948.643 814.987 945.96 811.125 943.055 806.942C944.538 806.942 945.469 806.942 946.738 806.942C946.304 805.695 945.956 804.689 945.605 803.684C944.425 800.295 945.009 799.424 948.775 798.822ZM950.736 517.689C950.193 511.715 949.715 506.458 949.237 501.2C949.067 499.336 948.877 497.473 948.726 495.607C948.597 494.054 949.361 493.682 950.949 494.186C951.023 495.119 951.191 496.09 951.16 497.054C951.059 500.234 951.644 502.989 953.988 505.518C956.508 508.232 956.016 513.676 953.436 516.508C952.936 517.058 951.961 517.175 950.736 517.689ZM908.847 798.873C908.999 797.6 909.121 796.527 909.259 795.456C909.876 790.666 910.677 785.933 909.661 781.038C908.849 777.126 912.296 773.906 916.609 774.101C916.609 784.602 916.609 795.103 916.609 805.782C915.577 805.721 914.867 805.68 914.133 805.637C913.815 803.608 913.529 801.776 913.238 799.916C911.836 799.583 910.559 799.28 908.847 798.873ZM950.928 838.92C951.199 838.986 951.47 839.051 951.74 839.117C951.952 841.834 952.122 844.554 952.386 847.265C952.652 849.998 952.366 852.803 953.177 855.911C954.582 854.416 955.657 853.273 956.613 852.255C961.273 857.505 961.216 863.339 959.743 869.282C961.237 869.908 962.398 870.392 963.396 870.811C961.609 877.266 955.809 877.429 951.12 879.218C950.5 879.452 949.633 879.041 948.06 878.806C952.307 875.352 955.856 872.465 959.651 869.378C957.131 867.798 954.947 866.43 952.765 865.062C953.916 863 957.091 863.353 957.373 860.376C955.039 860.376 952.901 860.376 950.696 860.376C950.435 863.432 949.233 866.003 947.017 868.007C944.107 870.641 941.112 873.179 938.006 875.888C937.075 873.554 936.18 871.308 935.051 868.48C933.765 872.316 932.2 875.284 931.432 878.911C933.884 878.157 935.851 877.553 937.825 876.947C938.055 877.455 938.371 877.947 938.294 878.019C936.325 879.853 934.316 881.645 932.39 883.374C930.426 882.064 930.419 882.049 928.664 882.862C925.695 884.238 922.772 885.746 919.09 885.961C918.713 884.118 918.174 882.426 918.053 880.704C917.74 876.302 917.657 871.884 917.391 867.477C917.304 866.039 916.933 864.619 916.693 863.191C916.413 863.178 916.131 863.166 915.85 863.154C915.522 864.604 915.164 866.048 914.87 867.506C914.327 870.209 914.013 872.976 913.227 875.603C912.781 877.094 911.871 878.738 910.667 879.642C908.664 881.143 906.191 881.886 903.682 881.986C901.503 879.099 901.368 878.839 900.833 876.571C905.771 876.776 906.643 875.898 907.093 869.996C904.414 870.671 901.814 871.329 899.15 872.001C899.443 867.329 901.409 860.681 903.209 858.926C904.167 860.982 905.06 862.899 906.05 865.025C907.564 864.627 908.998 864.249 910.757 863.786C910.103 862.902 909.763 862.183 909.205 861.736C907.325 860.234 907.34 858.531 908.197 856.465C909.017 854.483 909.542 852.378 910.365 849.802C907.335 850.388 904.887 850.961 902.405 851.289C901.416 851.42 900.148 851.317 899.373 850.786C897.954 849.816 896.808 848.449 895.253 846.965C897.991 845.428 900.416 844.066 903.247 842.476C902.19 842.138 901.677 841.96 901.156 841.808C897.209 840.646 895.911 839.145 895.474 835.101C895.283 833.345 895.021 831.572 895.109 829.824C895.189 828.245 895.705 826.688 896.082 824.864C901.499 826.117 906.49 827.27 911.696 828.474C911.3 829.594 911.018 830.39 910.656 831.41C907.952 830.409 905.418 829.471 902.638 828.443C901.757 831.151 900.976 833.549 900.015 836.506C901.97 835.42 903.284 834.692 904.952 833.767C907.109 838.917 909.175 843.851 911.229 848.756C914.244 848.306 915.16 846.33 915.396 843.642C916.023 836.497 916.418 829.31 917.532 822.238C918.749 814.519 920.665 806.911 922.29 799.257C922.541 798.071 923.225 797.561 924.837 798.244C925.432 802.92 926.052 807.803 926.661 812.605C922.627 815.291 922.178 816.596 923.752 821.238C924.424 823.222 925.245 825.154 926.003 827.108C927.464 830.875 926.324 834.172 924.365 837.309C922.787 837.309 921.407 837.309 919.229 837.309C925.812 843.333 930.766 849.66 931.586 858.331C931.325 858.491 931.013 858.846 930.78 858.8C928.666 858.391 926.566 857.912 924.346 857.429C924.346 862.714 924.346 867.945 924.346 873.465C926.711 873.217 928.833 872.994 931.013 872.765C930.806 868.856 930.62 865.363 930.425 861.697C932.795 861.098 934.97 860.549 937.231 859.977C937.772 861.728 938.15 863.105 938.623 864.449C939.053 865.677 938.871 867.24 940.675 868.302C940.675 866.363 940.675 864.801 940.675 863.113C943.89 862.109 946.897 861.172 950 860.202C947.542 856.825 947.545 856.844 944.583 859.039C942.69 860.442 940.698 859.967 938.759 859.404C938.368 857.983 939.254 857.745 940.084 857.384C943.441 855.927 945.483 853.281 946.664 849.908C947.358 847.932 947.922 845.907 948.672 843.954C949.331 842.24 950.17 840.595 950.928 838.92Z" fill="#BAA989"/>
</g>
</svg>
