<svg width="378" height="80" viewBox="0 0 378 80" fill="none" xmlns="http://www.w3.org/2000/svg">
<path d="M0 40.0055C0 62.0592 17.8602 80 39.804 80C61.7478 80 79.608 62.0592 79.608 40.0055C79.608 17.9518 61.7662 0 39.804 0C17.8418 0 0 17.9408 0 40.0055ZM1.37471 40.0055C1.37471 18.7 18.6194 1.37467 39.804 1.37467C60.9886 1.37467 78.2443 18.6963 78.2443 40.0055C78.2443 61.3148 61.0144 78.618 39.804 78.618C18.5936 78.618 1.37471 61.2964 1.37471 40.0055ZM12.4019 29.034C22.5814 22.3301 33.8334 18.4272 52.9098 21.7441C53.9639 21.136 54.5388 20.5574 54.8116 19.3007C50.0462 17.5796 44.8864 16.9715 38.2045 17.0894C32.2007 17.2589 21.3983 19.4997 15.6268 22.9272L17.3848 20.7159C21.4204 18.3425 31.9353 15.1877 39.8114 15.0219C45.3729 14.9187 48.2623 15.232 54.8632 17.0194C54.2882 15.8769 52.9098 15.313 50.9196 14.4101C44.5215 11.5244 32.5729 11.259 22.7878 15.5894C24.0682 14.71 25.4164 13.9336 26.8198 13.2676C30.0446 11.7934 35.326 10.3487 41.9306 10.463C47.2046 10.5477 53.4664 12.3978 57.3067 16.2197C57.8557 16.8607 58.2548 17.6161 58.475 18.4309C61.5156 19.9714 63.2662 21.4198 64.2687 23.1336C64.6991 24.037 64.8357 25.0526 64.6594 26.0377C65.6458 26.5876 66.496 27.3521 67.1471 28.2747C67.6008 28.9364 67.8982 29.6926 68.0169 30.486C68.1496 31.4479 68.2528 32.5204 67.2577 33.7808C68.3007 34.2857 69.1005 35.7304 69.2405 36.3606C69.7196 38.664 68.2528 40.9011 66.2921 42.6259C64.0807 44.5976 59.1311 46.9342 55.1175 47.9624C47.1419 49.982 40.1025 50.8334 34.4968 51.869C38.2526 52.8421 42.1197 53.3192 45.9994 53.2879C57.8927 53.2879 68.4113 47.6344 68.4113 47.6344C68.4113 47.6344 68.1717 48.3715 67.9395 49.0275C60.3915 53.6122 48.3508 55.5544 43.2463 55.3186C38.5342 55.1405 33.8651 54.3526 29.3554 52.9746C28.0341 53.3083 26.7423 53.7496 25.493 54.294C32.0275 57.2829 36.9587 57.9537 42.5497 58.348C48.2402 58.7718 57.6605 57.3898 65.636 54.493C65.2675 54.8616 65.0869 55.4439 64.7147 55.7829C60.6421 57.9205 52.0179 60.0875 47.6911 60.2681C43.3642 60.4487 38.1086 60.2681 33.5607 59.4131C29.6134 58.6465 26.4181 57.3898 23.0605 55.9193C22.7835 56.1152 22.5493 56.3656 22.3725 56.6553C22.1957 56.9449 22.0799 57.2676 22.0322 57.6035C35.1307 64.4806 47.4147 64.6317 61.3755 60.2755L60.0967 61.547C44.7242 67.8122 32.6982 65.3725 23.3996 60.8652C23.074 60.7354 22.7586 60.5814 22.4561 60.4045C23.3111 61.9118 30.4243 67.1267 38.3593 67.7754C43.8434 68.2287 50.5216 67.2815 54.4909 65.6931L52.1727 66.913C47.7676 68.9952 42.8974 69.8981 38.0386 69.5333C28.5594 68.8921 23.2227 64.6833 20.8271 62.472C19.7214 61.4438 19.1944 60.2423 18.8627 58.7866C16.7177 57.6514 15.3688 56.4905 14.2557 54.7326C13.5923 53.7043 13.725 52.5582 13.8872 51.5889C13.9334 51.2927 14.015 51.0032 14.1304 50.7265C13.1021 49.9894 12.0628 49.1749 11.6132 48.3604C10.6771 46.6651 11.2446 45.2094 11.9043 44.0779C11.3506 43.5171 10.9035 42.8603 10.5849 42.1394C10.35 41.3792 10.2735 40.579 10.3601 39.7881C10.6007 38.3373 11.2664 36.9906 12.2729 35.9184C14.3737 33.5376 17.6096 31.658 23.219 29.8005C28.6699 27.9873 30.8739 27.7182 34.9907 26.7527C39.7819 25.647 45.5535 25.2785 50.3705 23.5832C36.9514 21.2134 23.0126 23.3657 11.65 31.2268L12.4019 29.034ZM58.1028 20.7233C57.9369 21.3866 57.2219 22.1495 56.7317 22.6766C58.2061 23.0879 59.6567 23.5801 61.077 24.1507C60.9112 22.8498 59.3964 21.5709 58.1028 20.738M16.7656 47.6602C16.0163 47.256 15.2892 46.8119 14.5874 46.3298C14.1931 47.1811 14.9302 48.1209 15.7152 48.5742C16.0469 48.2388 16.4302 47.9661 16.7656 47.6602ZM61.9984 30.0364C62.9274 30.4426 63.8233 30.9207 64.6778 31.4663C65.2896 30.3054 64.9137 29.5425 63.6459 28.4701C63.1539 29.0493 62.6017 29.5743 61.9984 30.0364ZM59.131 31.8054C57.174 32.7157 54.3583 33.6481 50.3336 34.6801C47.0424 35.5093 38.9932 36.6665 30.3542 38.5571C27.6048 39.1505 20.2116 40.9085 16.585 44.019C17.5985 44.8372 18.2251 45.0435 19.3602 45.6737C20.875 44.7008 22.9094 43.7868 25.9537 42.9723C31.2609 41.5534 35.2118 40.9343 39.9809 40.1751C44.75 39.4159 53.6175 37.5621 58.5561 35.7857C60.0645 35.267 61.4851 34.5214 62.7687 33.5744C62.4259 33.2059 59.2564 31.6543 59.1495 31.798M21.7964 52.5397C22.6322 52.0471 23.506 51.6219 24.4094 51.2683C23.0273 50.6933 21.6121 50.0668 20.171 49.4034C19.5646 49.7716 18.9977 50.2014 18.4794 50.686C19.585 51.3235 20.6907 51.9501 21.7964 52.5287M17.2373 52.982C17.2152 53.8702 17.7533 54.6662 18.9401 55.6392C19.0946 55.1664 19.3358 54.7264 19.6514 54.3419C18.8258 53.9255 18.0187 53.4611 17.2373 52.982ZM23.934 36.5228C33.6491 33.6629 43.836 32.7784 54.1555 30.0253C50.1236 28.9197 47.9159 28.4701 43.648 28.9676C37.2801 29.7306 30.9851 31.0124 24.8259 32.8005C22.5445 33.4933 10.5075 36.9098 13.9793 41.7045C13.9793 41.7709 16.0395 38.8594 23.9303 36.5449M60.3583 26.5352C58.525 25.729 56.6324 25.0649 54.6973 24.5488C53.6145 25.4115 52.4016 26.0969 51.1039 26.5794C53.7243 27.0475 55.6924 27.7735 57.8927 28.4222C58.2907 28.6212 60.0782 26.948 60.3583 26.5463M65.1496 35.9331C64.851 36.1948 64.5304 36.438 64.1692 36.7107C61.9579 38.4171 58.4971 39.777 53.6764 41.0669C43.6812 43.7684 36.428 44.1664 28.1724 46.1897C26.5218 46.5967 24.9032 47.1239 23.3296 47.7671C24.8849 48.5484 26.5434 49.2744 28.2424 49.9268C31.4588 48.9542 34.7397 48.2091 38.0607 47.6971C39.9035 47.3764 45.6051 46.3777 49.7255 45.4858C57.1593 43.8937 68.0464 40.4441 65.1496 35.9036" fill="#2355D7"/>
<path d="M117.742 57.4634H125.954L126.949 51.4156H132.595L133.587 57.4634H141.794L134.865 22.4517H124.679L117.742 57.4634ZM129.768 33.0252L131.298 43.713H128.257L129.768 33.0252ZM149.523 36.4085C150.831 36.4085 153.245 35.5608 153.245 32.9847C153.245 29.9331 150.466 29.7268 149.685 29.7268C148.146 29.7334 146.627 30.0702 145.229 30.7145L145.17 23.1409C147.464 22.5125 149.835 22.2074 152.213 22.2342C158.818 22.2342 161.796 26.889 161.796 31.4184C161.796 35.8409 159.216 38.5387 156.795 39.5669V39.9096C159.135 40.6467 162.323 42.9428 162.323 48.3088C162.323 54.9057 157.727 58.558 151.867 58.558C148.705 58.558 146.667 58.0936 144.212 56.7374L144.348 49.466C146.031 50.2265 147.866 50.5897 149.711 50.5274C152.309 50.5274 153.352 48.622 153.352 47.2105C153.352 45.2425 152.11 43.9268 149.353 43.9268H146.036V36.4085H149.523ZM166.126 22.4517H188.188V57.4634H180.106V30.884H174.209V57.4708H166.126V22.4517ZM192.806 57.4634H200.914V45.9243H203.627C211.643 45.9243 214.101 38.6934 214.101 34.1088C214.101 29.5241 211.267 22.4517 203.612 22.4812H192.806V57.4634ZM200.914 30.1653H202.838C204.681 30.1653 205.823 31.271 205.823 34.1677C205.823 37.96 203.881 38.2217 202.838 38.2217H200.9L200.914 30.1653ZM229.076 57.8946C238.658 57.8946 241.901 48.9058 241.901 39.9207C241.901 30.9356 238.662 21.9468 229.076 21.9468C219.49 21.9468 216.261 30.9319 216.261 39.9207C216.261 48.9095 219.493 57.8946 229.076 57.8946ZM229.076 49.4181C226.238 49.4181 224.76 46.0754 224.76 39.9096C224.76 33.7439 226.234 30.3975 229.076 30.3975C231.917 30.3975 233.395 33.7365 233.395 39.9096C233.395 46.0828 231.921 49.4181 229.076 49.4181ZM277.117 57.4524H286.777C288.87 57.4524 297.612 56.5826 297.631 45.9906C297.631 37.035 290.853 35.4834 286.467 35.4834H285.041V30.8619H295.729V22.4517H277.102L277.117 57.4524ZM285.041 50.45V42.4895H286.216C287.164 42.4895 289.718 42.5411 289.718 46.1381C289.718 49.8235 287.164 50.45 286.216 50.45H285.041ZM326.735 22.4406H334.648V35.0596H340.298V22.4517H348.204V57.4634H340.291V43.4587H334.648V57.4634H326.721L326.735 22.4406ZM353.529 22.4406H361.446V35.0449H363.163L367.704 22.4406H376.295L370.1 39.0657L377.143 57.4561H367.84L363.296 43.3777H361.417V57.4561H353.515L353.529 22.4406ZM102.09 22.4812H118.675V31.2194H110.331V57.4929H102.094L102.09 22.4812ZM245.76 22.4812H252.63L258.693 30.7255L264.8 22.4812H271.651V57.4929H263.572V36.1173L258.696 42.2499L253.85 36.1173V57.4929H245.764L245.76 22.4812ZM299.201 57.5482H307.408L308.4 51.493H314.046L315.045 57.5482H323.249L316.316 22.5364H306.126L299.201 57.5482ZM311.227 33.1063L312.756 43.7941H309.693L311.227 33.1063Z" fill="#2355D7"/>
</svg>
