<svg width="784" height="1287" viewBox="0 0 784 1287" fill="none" xmlns="http://www.w3.org/2000/svg">
<g opacity="0.7">
<path fill-rule="evenodd" clip-rule="evenodd" d="M298.143 714.972C302.069 726.249 317.309 735.432 328.459 736.94C350.964 739.985 353.82 737.419 372.913 736.444C377.871 736.191 379.711 735.132 385.316 729.424C400.096 714.373 387.262 714.99 376.565 712.601C370.545 711.257 355.144 716.254 345.253 716.254C334.549 716.254 318.611 713.907 308.745 710.063C303.504 708.021 297.349 712.692 298.143 714.972Z" fill="white"/>
<path d="M68.1138 939.251C58.6781 941.466 49.1266 942.641 40.9352 949.059C35.757 953.119 28.4817 951.688 22.22 949.369C19.0703 948.2 18.6767 944.891 21.4311 942.954C23.0456 941.818 25.0742 941.188 26.995 940.58C31.7186 939.087 36.4813 937.717 41.244 936.349C42.245 936.06 43.8346 935.469 44.2632 935.9C47.9673 939.634 51.2728 936.523 54.9736 936.017C59.2248 935.436 63.7682 936.998 68.1847 937.631C68.1614 938.17 68.1371 938.709 68.1138 939.251Z" fill="#FEFEFE"/>
<path d="M44.0825 895.306C50.1252 894.599 55.2979 893.221 60.3006 893.683C63.6186 893.991 66.6949 896.937 70.3334 898.954C65.0507 901.6 48.8514 899.399 44.0825 895.306Z" fill="#FEFEFE"/>
<path d="M10.0832 957.066C10.6103 960.898 11.1374 964.73 11.6635 968.562C10.8253 968.677 9.98646 968.793 9.14692 968.908C8.55837 965.126 7.96893 961.346 7.38037 957.566C8.28161 957.399 9.1813 957.233 10.0832 957.066Z" fill="#FEFEFE"/>
<path d="M776.004 955.952C775.49 953.228 774.89 950.517 774.59 947.768C774.56 947.482 776.315 947.004 777.239 946.613C777.797 949.573 778.356 952.535 778.911 955.495C777.943 955.649 776.972 955.8 776.004 955.952Z" fill="#FEFEFE"/>
<path d="M780.233 916.785C780.657 914.18 781.081 911.572 781.507 908.967C782.337 909.099 783.171 909.231 784.001 909.363C783.572 911.946 783.14 914.527 782.709 917.109C781.884 917.002 781.059 916.895 780.233 916.785Z" fill="#FEFEFE"/>
<path d="M190.509 1228.09C188.133 1226.25 186.818 1225.23 185.506 1224.22C186.89 1222.88 188.273 1221.53 190.509 1219.37C190.509 1222.77 190.509 1224.53 190.509 1228.09ZM540.721 494.848C537.63 492.799 534.175 490.51 529.574 487.46C531.502 485.69 532.819 484.483 534.312 483.11C540.061 487.93 545.295 487.825 551.023 484.513C552.314 483.767 554.992 485.432 557.03 485.988C556.035 487.858 555.484 490.362 553.939 491.451C551.29 493.316 548.017 494.295 545.347 495.494C545.534 498.424 545.68 500.702 545.861 503.544C542.239 503.005 539.516 502.601 534.901 501.913C537.288 499.016 538.829 497.148 540.721 494.848ZM512.701 396.293C519.31 396.08 519.945 397.305 517.643 403.571C516.917 405.544 517.528 408.011 517.528 411.21C521.909 408.366 522.775 405.692 522.55 401.423C522.236 395.483 523.212 389.413 524.216 383.495C524.926 379.306 526.757 375.314 527.715 371.146C527.965 370.057 527.135 368.241 526.21 367.523C525.603 367.055 523.548 367.576 522.803 368.319C519.302 371.815 515.336 374.83 515.248 380.786C515.171 385.819 513.655 390.835 512.701 396.293ZM525.402 542.75C526.901 550.842 528.254 558.149 529.576 565.293C535.803 561.879 541.43 558.793 547.349 555.549C543.333 551.802 546.318 550.457 549.788 549.272C551.906 548.548 554.472 548.271 555.982 546.87C557.52 545.448 558.342 542.978 558.867 540.815C559.401 538.623 559.189 536.252 559.354 532.901C556.197 531.949 552.418 530.503 548.507 529.691C540.658 528.06 532.732 526.802 524.846 525.331C518.672 524.181 516.898 525.821 517.814 532.082C518.595 537.432 520.933 541.641 525.402 542.75ZM612.907 275.093C607.352 277.199 601.775 279.307 596.501 281.987C594.708 282.898 593.187 285.987 593.155 288.105C593.135 289.371 596.073 291.128 597.99 291.868C600.383 292.79 603.088 292.898 606.359 294.6C604.588 295.72 602.921 297.065 601.032 297.92C591.873 302.066 586.926 309.334 585.14 318.984C584.591 321.955 585.308 324.569 588.865 324.475C592.118 324.39 596.141 325.66 597.387 320.384C597.957 317.972 600.022 315.914 601.741 313.163C603.46 317.743 603.84 322.521 606.046 323.614C607.738 324.453 610.212 323.715 612.907 322.913V275.093ZM494.002 302.795C491.708 302.382 489.398 302.049 487.124 301.546C476.172 299.12 465.886 301.082 456.323 306.624C454.555 307.65 453.648 310.159 452.343 311.986C452.715 312.261 453.089 312.539 453.46 312.814C458.749 311.219 464.035 309.62 470.33 307.719C470.33 311.241 470.286 313.075 470.339 314.907C470.584 323.38 477.841 328.34 485.965 325.592C490.913 323.917 495.3 321.862 497.902 316.626C499.167 314.085 502.476 312.564 504.86 310.58C504.687 309.978 504.511 309.375 504.337 308.77C505.248 309.411 506.535 309.848 507.008 310.726C509.175 314.745 512.098 317.251 516.785 318.379C522.098 319.658 520.875 325.319 521.164 328.75C521.909 337.542 520.892 346.471 521.329 355.31C521.466 358.107 523.966 360.787 526.37 363.326C530.897 356.151 533.878 349.161 532.602 340.92C532.091 337.621 531.32 334.015 532.123 330.928C534.252 322.772 530.602 316.34 527.104 309.703C525.644 306.927 524.238 304.121 522.926 301.274C520.578 296.168 516.827 292.944 511.659 292.284C510.845 289.794 509.904 287.63 509.486 285.366C509.247 284.072 509.434 282.326 510.159 281.297C512.816 277.545 511.205 275.124 508.103 272.888C504.75 270.47 501.45 267.982 498.132 265.515C492.877 261.606 487.189 260.462 480.613 261.507C471.029 263.028 461.582 262.049 452.676 257.695C449.824 256.3 446.538 258.833 445.592 262.431C445.009 264.66 443.581 266.671 442.534 268.778C442.008 268.632 441.48 268.489 440.952 268.343C440.71 266.448 440.467 264.552 440.096 261.639C433.554 263.207 427.247 264.717 420.793 266.266C420.823 266.706 420.762 267.287 420.916 267.804C423.287 275.839 423.287 275.776 431.97 274.766C433.796 274.554 435.707 274.901 437.558 275.141C442.71 275.814 447.839 276.675 453.001 277.237C455.391 277.498 458.44 276.827 458.287 280.411C458.19 282.667 457.509 285.739 455.938 286.944C449.623 291.78 442.827 295.984 436.304 300.558C435.391 301.197 434.296 302.82 434.535 303.61C435.039 305.282 436.274 307.931 437.376 308.016C441.656 308.347 445.927 310.333 450.058 305.632C454.008 301.136 459.486 297.569 464.932 294.9C474.747 290.089 486.227 293.109 494.002 302.795ZM493.911 491.695C495.063 494.846 496.139 497.786 497.38 501.175C505.162 496.461 510.863 500.367 516.323 505.257C516.463 505.381 516.576 505.588 516.733 505.632C524.445 507.797 532.085 510.297 539.909 511.915C542.764 512.504 546.169 511.332 549.128 510.366C560.11 506.787 571.056 508.32 581.807 510.853C591.186 513.062 599.307 510.135 607.561 506.663C609.328 505.92 611.112 505.214 612.907 504.531V478.275C611.006 477.703 608.902 477.494 606.543 477.779C604.472 478.029 602.024 475.171 598.069 471.727C595.487 475.135 593.02 478.643 590.262 481.903C589.142 483.223 586.647 485.209 586.032 484.835C581.433 482.029 577.69 485.528 573.683 485.71C569.742 485.886 565.655 482.772 561.631 481.102C562.888 478.173 563.416 474.447 565.556 472.475C570.132 468.258 574.393 464.605 575.154 457.593C575.426 455.073 579.967 452.567 583.028 450.917C586.618 448.983 590.333 448.155 591.441 443.058C592.53 438.039 590.204 437.355 586.87 438.488C580.011 440.818 573.372 443.803 566.661 446.56C564.942 447.266 563.311 448.751 561.598 448.818C553.529 449.137 547.745 453.582 541.868 458.449C535.03 464.112 526.417 462.927 521.295 455.659C515.93 448.036 510.919 440.133 506.271 432.056C504.929 429.721 505.358 426.357 505.014 423.457C504.714 420.927 504.472 418.39 504.206 415.856C503.339 415.799 502.476 415.741 501.612 415.683C501.04 418.505 499.651 421.447 500.044 424.123C501.257 432.37 501.482 440.749 506.059 448.449C508.235 452.105 507.652 457.529 507.9 462.176C508.161 467.144 510.025 470.299 516.403 470.655C514.228 471.447 512.965 471.906 511.359 472.492C514.354 476.604 511.843 478.313 508.143 478.99C503.691 479.801 502.066 476.208 501.568 473.105C501.09 470.137 502.28 466.902 502.91 462.619C498.546 461.049 493.768 459.117 488.831 457.747C487.918 457.494 486.123 459.324 485.179 460.539C483.644 462.511 482.976 465.793 481.061 466.732C473.727 470.322 470.883 476.194 470.633 483.875C470.578 485.564 470.177 487.292 470.427 488.929C470.773 491.187 471.097 494.882 472.302 495.269C474.516 495.984 477.365 494.765 479.943 494.298C484.527 493.465 489.106 492.593 493.911 491.695ZM395.947 916.785C395.121 916.895 394.296 917.002 393.471 917.109C393.039 914.527 392.608 911.946 392.179 909.363C393.009 909.231 393.842 909.099 394.673 908.967C395.099 911.572 395.523 914.18 395.947 916.785ZM151.632 1174.85C151.048 1175.69 150.467 1176.54 149.885 1177.38C148.366 1176.34 146.703 1175.44 145.438 1174.15C145.152 1173.86 146.255 1172.21 146.717 1171.19C148.356 1172.41 149.992 1173.63 151.632 1174.85ZM496.906 60.4972C496.42 59.8397 495.936 59.1847 495.451 58.5272C497.11 56.9397 498.768 55.3497 500.424 53.7598C500.916 55.0035 502.143 56.9677 501.766 57.3529C500.446 58.698 498.57 59.4928 496.906 60.4972ZM380.113 993.865C379.239 994.498 378.366 995.13 377.492 995.763C376.26 993.513 374.975 991.287 373.931 988.952C373.87 988.814 375.727 987.818 376.689 987.222C377.83 989.436 378.971 991.65 380.113 993.865ZM347.957 1230.65C347.96 1229.62 347.965 1228.59 347.97 1227.56C350.179 1227.34 352.384 1227.12 354.593 1226.9C354.341 1228.33 354.285 1230.88 353.804 1230.97C351.929 1231.29 349.918 1230.82 347.957 1230.65ZM442.038 1088.7C441.045 1091.5 440.278 1093.67 439.513 1095.83C438.377 1095.15 436.562 1094.72 436.233 1093.77C435.102 1090.51 436.807 1088.92 442.038 1088.7ZM400.177 955.952C399.208 955.8 398.237 955.649 397.269 955.495C397.825 952.536 398.383 949.573 398.942 946.613C399.866 947.004 401.621 947.482 401.59 947.768C401.29 950.517 400.69 953.229 400.177 955.952ZM178.878 1190.99C174.904 1197.09 172.704 1193.97 170.87 1191.85C170.058 1190.91 170.298 1189.07 170.061 1187.63C172.797 1188.68 175.537 1189.72 178.878 1190.99ZM316.378 360.278C310.157 355.241 310.573 350.19 317.052 347.574C316.829 351.775 316.62 355.717 316.378 360.278ZM261.065 1114.61C261.738 1114.27 262.415 1113.92 263.089 1113.57C265.168 1115.78 269.431 1118.79 268.964 1120.05C266.46 1126.78 263.38 1118.04 259.409 1121.13C260.204 1118 260.636 1116.3 261.065 1114.61ZM143.339 1173.46C138.683 1173.18 135.355 1172.98 132.03 1172.77C132.33 1171.15 132.192 1168.42 133.001 1168.1C136.835 1166.61 140.116 1167.72 143.339 1173.46ZM182.173 1172.82C182.456 1173.39 182.742 1173.96 183.029 1174.53C178.766 1176.58 174.505 1178.63 170.245 1180.68C170.012 1180.18 169.781 1179.68 169.549 1179.18C175.848 1172.01 176.813 1171.52 182.173 1172.82ZM236.656 1145.36C243.774 1139.99 248.504 1139.19 254.907 1143.34C248.903 1144.75 244.17 1145.94 239.381 1146.88C238.645 1147.03 237.671 1145.96 236.656 1145.36ZM329.293 361.202C328.476 361.108 327.66 361.015 326.843 360.921C326.433 357.926 325.6 354.897 325.812 351.945C325.902 350.704 328.056 349.2 329.566 348.682C330.138 348.487 332.564 350.941 332.388 351.843C331.766 355.043 330.386 358.094 329.293 361.202ZM425.693 1043.59C429.378 1048.19 430.083 1054.14 427.613 1057.86C421.026 1048.79 421.026 1048.79 425.693 1043.59ZM386.573 1040.91C380.44 1037.14 377.905 1024.44 381.689 1017.73C383.353 1025.63 384.863 1032.79 386.573 1040.91ZM375.16 982.267C368.406 978.44 367.608 970.806 374.167 967.286C377.968 972.072 377.272 977.079 375.16 982.267ZM435.936 1137.46C442.242 1137.09 445.902 1139.47 446.686 1144.02C447.203 1147.02 447.148 1149.92 443.518 1150.65C440.944 1146.17 438.614 1142.12 435.936 1137.46ZM438.971 1157.94C435.308 1159.74 430.878 1158.09 428.611 1153.25C426.513 1148.78 428.851 1146.35 432.041 1144.96C434.447 1149.47 436.717 1153.71 438.971 1157.94ZM434.739 1196.85C439.61 1194.53 443.485 1195.33 445.399 1199.72C447.72 1205.05 450.435 1204.8 454.343 1200.9C454.995 1203.02 455.465 1204.55 455.902 1205.97C445.828 1210.22 441.268 1202.39 434.739 1196.85ZM434.233 1084.3C430.229 1082.01 427.66 1077.93 429.615 1074.89C433.039 1069.57 429.516 1068.32 426.502 1065.51C428.708 1065.34 430.916 1065.53 432.127 1066.73C437.346 1071.89 438.078 1078.08 434.233 1084.3ZM501.122 1217.49C497.063 1211.32 493.364 1205.94 490 1200.36C489.365 1199.31 490.061 1197.45 490.143 1195.96C491.365 1196.55 492.913 1196.86 493.754 1197.79C497.932 1202.46 501.923 1207.3 505.47 1211.48C504.302 1213.1 503.117 1214.73 501.122 1217.49ZM452.649 1120.94C451.989 1123.89 451.659 1125.54 451.232 1127.17C451.012 1128 450.619 1128.79 450.303 1129.6C449.453 1128.91 448.185 1128.4 447.817 1127.52C445.572 1122.11 447.398 1115.07 440.795 1111.25C439.824 1110.69 440.663 1107 440.663 1104.76C442.495 1105.02 445.482 1104.69 445.971 1105.65C448.674 1110.91 450.768 1116.48 452.649 1120.94ZM381.535 1043.91C382.456 1043.66 383.378 1043.42 384.299 1043.18C385.954 1047.4 387.918 1051.53 389.178 1055.87C390.415 1060.13 390.718 1064.65 391.829 1068.95C393.023 1073.58 390.828 1076.32 385.99 1076.17C384.497 1065.35 383.018 1054.63 381.535 1043.91ZM414.808 1004.75C418.331 1016.19 421.574 1026.53 424.64 1036.93C424.992 1038.12 424.83 1040.33 424.107 1040.77C422.844 1041.55 420.751 1041.91 419.385 1041.41C416.384 1040.32 414.75 1032.84 416.078 1029.7C416.719 1028.17 417.085 1025.42 416.235 1024.57C411.504 1019.84 413.705 1013.61 412.275 1008.22C412.113 1007.62 413.391 1006.63 414.808 1004.75ZM609.271 719.934C605.476 725.752 578.262 741.749 573.812 740.775C579.285 721.777 591.178 721.854 609.271 719.934ZM356.959 331.497C361.587 347.926 360.825 363.922 357.709 380.268C354.137 376.285 351.144 372.167 349.882 367.576C349.035 364.495 350.69 360.745 351.147 357.285C352.039 350.482 352.696 343.64 353.848 336.884C354.175 334.967 355.883 333.286 356.959 331.497ZM541.59 722.272C552.836 714.691 562.382 719.106 571.554 723.849C572.85 724.52 572.827 729.265 572.11 731.747C571.653 733.32 568.752 735.213 566.989 735.171C563.149 735.078 559.365 733.543 555.504 733.138C548.38 732.393 545.932 726.465 541.59 722.272ZM489.307 1191.52C488.603 1192.11 487.902 1192.7 487.2 1193.28C485.977 1192.41 484.348 1191.79 483.587 1190.61C476.021 1178.94 464.079 1170.16 460.553 1155.81C460.402 1155.19 459.687 1154.64 459.117 1154.22C454.073 1150.46 452.668 1143.43 456.309 1136.45C467.506 1155.14 478.405 1173.33 489.307 1191.52ZM429.83 509.106C435.234 506.699 437.94 503.766 433.851 498.669C433.202 497.86 433.619 496.114 433.702 494.81C434.051 489.415 433.328 484.417 429.736 479.985C428.471 478.425 428.171 476.082 427.077 473.149C423.345 471.166 418.254 468.883 416.563 463.62C419.173 462.828 421.183 462.217 423.191 461.609C421.051 458.352 418.911 455.098 416.771 451.844C415.517 452.105 415.537 451.425 415.886 451.109C419.792 447.586 420.438 444.516 415.314 441.322C414.139 440.59 413.405 438.043 413.581 436.453C414.143 431.413 412.685 427.947 408.229 425.083C406.733 424.123 405.826 418.849 406.587 418.319C411.384 414.965 410.209 411.458 407.806 407.651C405.691 404.3 405.526 401.885 409.417 399.305C413.754 396.427 413.13 394.336 408.006 391.569C407.558 391.327 407.264 390.557 407.148 389.979C406.103 384.846 401.112 380.95 402.965 374.769C403.801 371.974 403.254 368.632 402.811 365.615C401.997 360.069 400.649 354.602 399.789 349.06C398.523 340.939 403.57 333.908 404.021 326.038C404.167 323.468 405.042 320.948 405.443 318.384C406.238 313.295 405.696 307.529 407.984 303.266C410.834 297.948 411.997 293.373 409.605 287.905C409.244 287.077 408.969 286.083 409.057 285.208C409.774 278.224 411.419 271.221 411.164 264.283C410.842 255.551 409.961 247.128 417.093 240.766C416.15 237.698 416.293 234.818 416.463 231.938C416.519 231.008 416.647 230.081 416.752 229.154C417.814 219.68 418.798 210.194 419.99 200.737C420.287 198.377 420.878 195.901 421.981 193.819C425.349 187.442 429.293 181.36 432.459 174.892C433.606 172.554 433.138 169.44 433.488 166.69C434.087 161.988 434.712 157.287 435.412 152.599C435.644 151.065 436.948 148.963 436.359 148.195C435.394 146.936 433.345 146.234 431.634 145.893C430.16 145.601 428.518 146.135 428.105 146.179C426.86 142.633 426.548 138.99 424.593 136.851C421.766 133.756 419.956 127.574 423.031 124.29C426.735 120.334 428.177 125.734 430.68 126.854C431.004 126.997 431.403 126.975 431.766 127.027C434.236 124.62 437.027 122.306 440.105 121.82C443.752 121.242 447.646 122.241 452.104 122.612C452.212 123.019 452.622 124.557 453.325 127.214C455.286 124.823 456.849 123.275 457.99 121.456C460.075 118.136 461.084 113.215 464.016 111.542C470.647 107.757 472.558 101.48 475.509 95.4826C476.384 93.7 478.903 91.1198 480.102 91.395C484.189 92.3275 486.105 89.7777 487.38 87.2793C489.403 83.2993 490.542 78.8649 492.726 72.7521C494.167 77.6928 495.853 81.2024 496.095 84.809C496.527 91.1861 497.666 97.3751 502.478 101.606C509.698 107.958 517.583 113.553 525.176 119.479C525.603 119.812 526.343 120.343 526.276 120.62C524.645 127.275 530.368 126.204 533.468 126.926C538.982 128.21 544.717 128.518 550.341 129.371C551.981 129.621 553.721 130.05 555.119 130.892C561.623 134.809 568.202 138.644 574.409 142.998C581.488 147.964 588.21 153.447 595.077 158.715C600.856 163.146 607.599 166.478 612.907 171.456V3.34324C609.16 4.53957 605.42 5.21973 601.235 2.81054C599.574 1.85378 596.326 2.54936 594.31 3.52639C590.078 5.58339 586.339 5.50713 582.819 2.46671C580.157 0.167056 577.558 -0.19638 574.706 1.96376C574.557 2.07594 574.395 2.22736 574.228 2.25226C562.888 3.82349 553.163 9.25084 543.43 14.8073C541.455 15.9349 538.683 15.9023 536.269 15.9631C532.629 16.0535 529.203 16.161 526.884 19.6632C526.332 20.5014 524.797 21.5168 524.076 21.2913C517.671 19.2887 514.115 25.3899 508.818 26.5346C507.096 26.9058 505.724 28.8863 504.192 30.1324C504.415 30.8342 504.64 31.5383 504.863 32.2401C507.11 31.7365 509.335 31.0596 511.606 30.7766C514.12 30.4654 516.678 30.5208 519.216 30.4132C518.35 32.7759 517.853 35.3733 516.532 37.4444C514.574 40.5122 512.033 43.2046 509.197 46.7341C506.339 41.0508 506.208 33.9237 498.757 33.7194C497.489 33.6844 496.147 36.3193 495.696 36.8035C492.519 37.5544 489.783 37.6284 487.666 38.8113C481.213 42.4125 474.409 45.7436 468.859 50.4894C462.833 55.6413 458.062 62.2601 452.751 68.2464C451.183 70.0118 449.934 72.8261 448.02 73.3875C440.1 75.7151 437.415 83.393 432.005 88.2206C430.93 89.1774 430.319 91.3179 430.435 92.8446C431.323 104.761 425.897 113.504 418.301 119.734C416.884 125.655 415.734 130.457 414.723 134.683C415.353 139.28 416.969 143.887 416.309 148.14C415.561 152.932 412.762 157.405 410.856 162.018C410.078 161.815 409.302 161.609 408.523 161.405C408.845 158.517 409.17 155.625 409.558 152.165C406.246 150.795 402.519 154.12 402.239 156.261C401.466 162.164 398.039 161.966 393.919 161.804C392.462 161.749 390.993 162.012 389.527 162.131C389.42 162.778 389.31 163.424 389.203 164.068C391.78 164.632 394.359 165.196 397.124 165.798C396.95 166.04 396.431 167.182 396.114 167.13C390.985 166.249 388.314 169.215 387.033 173.407C385.074 179.816 383.598 186.378 381.997 192.894C381.736 193.959 381.405 195.475 381.925 196.187C385.823 201.538 382.093 205.689 379.728 209.821C377.063 214.475 375.965 218.781 379.929 222.945C379.814 223.567 379.866 224.026 379.662 224.263C373.884 231 368.114 237.742 362.258 244.41C360.922 245.932 359.277 247.185 357.794 248.545C353.493 246.726 354.879 244.558 356.494 241.838C357.74 239.739 361.381 237.533 356.879 233.745C355.108 240.325 347.882 243.679 349.148 251.304C349.225 251.769 348.922 252.575 348.548 252.792C343.117 255.95 340.608 261.111 338.818 266.786C338.766 266.951 338.463 267.094 338.482 267.215C339.912 276.34 329.387 279.943 328.732 288.554C328.487 291.805 323.672 294.567 321.345 297.841C318.609 301.689 316.293 305.84 313.834 309.881C313.072 311.133 312.492 312.494 311.722 313.741C311.032 314.849 309.585 315.829 309.516 316.929C308.699 330.235 301.848 342.917 305.396 356.677C306.717 361.804 308.199 366.932 308.914 372.156C309.197 374.216 307.047 376.516 306.95 378.747C306.697 384.717 306.087 390.879 307.212 396.653C309.054 406.091 310.352 415.554 313.768 424.874C318.469 437.696 327.457 445.512 337.924 452.534C342.558 455.645 347.808 457.835 352.456 460.93C354.805 462.495 356.433 465.142 358.388 467.298C361.021 470.2 363.653 473.102 367.297 475.325C366.199 463.955 358.069 455.736 354.775 445.55C355.173 445.272 355.572 444.997 355.974 444.722C357.412 446.619 359.313 448.326 360.204 450.452C363.513 458.333 370.704 460.203 377.772 462.237C380.806 463.109 384.139 463.037 387.09 464.088C392.869 466.151 398.141 466.715 403.68 463.02C406.892 460.878 410.105 462.212 410.724 466.402C411.81 473.722 412.102 481.179 413.531 488.42C414.676 494.213 417.016 499.77 418.961 505.857C413.749 507.805 408.039 509.216 403.045 511.942C389.566 519.298 376.356 527.155 363.111 534.932C352.44 541.195 341.736 547.423 331.296 554.061C323.128 559.255 315.36 565.081 307.374 570.569C304.026 572.872 300.402 574.8 297.2 577.279C285.699 586.184 274.321 595.248 262.899 604.257C262.013 604.953 261.117 605.637 260.273 606.381C242.547 621.986 225.347 638.249 206.874 652.909C198.633 659.45 189.794 665.818 179.041 669.207C170.446 671.917 162.926 677.911 154.742 682.076C131.83 693.729 108.837 705.231 85.8337 716.705C78.8149 720.203 71.1909 722.704 64.6954 726.963C58.8368 730.803 53.9992 736.272 48.9714 741.286C40.8559 749.38 33.048 757.781 24.9371 765.877C18.6417 772.162 14.6954 779.273 13.147 788.288C11.5021 797.856 8.07277 807.107 5.6575 816.556C3.675 824.322 1.72512 832.129 0.443336 840.027C0.06918 842.315 1.43051 845.526 3.05912 847.385C7.87467 852.877 12.9295 858.238 18.4546 862.997C22.1867 866.21 26.5844 869.165 31.1942 870.744C40.8394 874.047 50.8722 876.193 60.6491 879.139C70.8146 882.201 80.8699 885.62 90.9549 888.941C93.9111 889.915 96.8074 891.078 99.7308 892.156C99.6349 892.731 99.5382 893.303 99.4424 893.878C97.0848 894.816 94.7859 895.956 92.3627 896.654C84.4693 898.934 76.4082 900.697 68.658 903.38C64.3539 904.868 60.091 907.248 56.6092 910.177C50.8777 915.002 45.6223 920.441 40.5199 925.945C38.3283 928.311 37.0903 931.538 35.2863 934.286C34.2112 935.92 33.0341 938.542 31.6371 938.729C25.2449 939.587 22.5608 944.924 18.4438 948.552C12.5803 953.726 12.5413 958.26 17.025 965.203C26.6505 980.104 34.8163 995.95 43.5781 1011.41C49.7612 1022.31 56.6125 1032.9 61.9527 1044.2C68.1631 1057.34 72.9654 1071.13 78.5513 1084.58C82.2171 1093.4 86.1913 1102.1 90.0193 1110.86C91.1279 1113.4 92.2115 1115.94 93.4411 1118.8C94.7368 1117.9 96.0371 1116.99 97.2556 1116.14C98.4133 1118.76 99.5437 1121.33 100.98 1124.58C100.408 1125.48 99.3293 1127.17 97.9517 1129.32C104.541 1130.76 105.36 1134.8 103.268 1138.42C105.581 1141.29 107.146 1143.02 108.46 1144.91C111.282 1148.98 113.997 1153.13 116.703 1157.28C117.189 1158.03 117.684 1158.93 117.742 1159.78C118.01 1163.84 120.537 1165.39 124.456 1164.08C125.93 1163.58 127.641 1163.79 129.247 1163.67C129.329 1164.4 129.414 1165.12 129.5 1165.84C127.608 1166.19 125.6 1166.27 123.851 1166.98C122.28 1167.62 120.991 1168.96 118.862 1170.5C122.019 1171.31 124.109 1171.84 126.637 1172.49C125.297 1174.76 124.37 1176.33 124.186 1176.65C126.152 1180.3 127.259 1183.43 129.263 1185.79C131.508 1188.43 134.422 1190.44 133.666 1194.5C136.348 1194.35 139.626 1195.13 141.587 1193.86C145.718 1191.19 149.159 1187.46 152.883 1184.17C153.559 1184.76 154.236 1185.36 154.912 1185.95C151.038 1191.85 147.162 1197.76 143.07 1203.99C144.082 1204.69 145.551 1205.71 145.792 1205.87C145.792 1210.24 145.792 1213.58 145.792 1216.93C147.702 1215.77 149.516 1214.4 151.549 1213.53C152.935 1212.94 154.618 1213.05 156.172 1212.84C156.361 1214.32 156.552 1215.8 156.78 1217.57C152.58 1217.28 149.225 1217.04 145.869 1216.81C144.602 1217.19 143.336 1217.57 140.993 1218.27C143.149 1220.11 144.442 1221.07 145.556 1222.2C147.655 1224.33 148.642 1226.25 148.158 1229.91C147.189 1237.21 147.286 1244.89 151.48 1251.56C152.297 1252.86 154.335 1253.39 155.809 1254.27C155.963 1254.09 156.117 1253.91 156.269 1253.72C155.135 1250.23 155.672 1248.17 160.003 1247.59C162.102 1247.32 165.061 1245.62 165.727 1243.85C168.284 1237.03 170.071 1229.93 172.434 1221.97C175.866 1223.61 179.979 1225.58 183.114 1227.09C182.302 1231.61 181.12 1234.67 181.444 1237.56C181.686 1239.71 183.466 1242.59 185.319 1243.39C186.92 1244.08 189.72 1242.56 191.761 1241.55C196.577 1239.16 201.653 1237.01 205.814 1233.74C207.85 1232.14 208.435 1228.3 208.96 1225.35C209.205 1223.98 207.695 1222.32 207.049 1220.77C204.282 1214.11 205.826 1211.11 212.874 1209.15C215.564 1208.41 218.292 1207.68 220.829 1206.55C222.36 1205.87 223.556 1204.43 224.901 1203.33C223.782 1202 222.663 1200.66 221.084 1198.78C222.013 1198.02 223.309 1196.08 224.662 1196.04C229.043 1195.91 229.616 1193.14 230.284 1189.82C230.858 1186.96 232.046 1184.23 233.257 1180.56C229.434 1180.07 225.537 1179.58 221.642 1179.08C221.433 1178.59 221.225 1178.1 221.015 1177.61C222.701 1176.82 224.442 1176.13 226.059 1175.22C227.66 1174.32 230.532 1173.05 230.44 1172.21C229.94 1167.67 231.648 1164.8 235.616 1163.03C236.425 1162.66 237.371 1162.63 238.204 1162.31C240.011 1161.62 241.783 1160.84 243.567 1160.1C243.331 1159.58 243.092 1159.07 242.852 1158.56C240.025 1158.42 237.195 1158.28 234.368 1158.13C234.2 1157.59 234.035 1157.05 233.867 1156.5C241.868 1151.32 251.007 1148.97 262.283 1147.71C259.437 1145.16 257.828 1143.71 255.902 1141.99C259.313 1136.72 265.265 1138.94 270.631 1137.54C270.195 1140.17 269.849 1142.29 269.31 1145.55C272.883 1144.29 276.249 1144.72 274.323 1139.43C273.776 1137.93 275.234 1134.22 276.467 1133.85C279.244 1133.02 282.22 1129.42 285.454 1133.08C285.616 1133.24 285.781 1133.4 285.947 1133.56C287.734 1136.03 289.522 1138.51 291.062 1140.64C288.546 1143.01 286.246 1144.48 285.009 1146.58C284.224 1147.91 284.302 1150.72 285.226 1151.91C289.635 1157.6 289.783 1157.49 285.938 1164.6C288.271 1163.26 289.268 1162.45 290.407 1162.09C291.807 1161.65 293.328 1161.58 294.797 1161.36C294.888 1162.92 295.463 1164.66 294.956 1165.99C294.143 1168.15 292.616 1170.03 290.581 1173.35C295.713 1171.7 299.522 1170.82 303.007 1169.24C305.594 1168.06 307.761 1165.96 310.113 1164.27C310.305 1164.71 310.496 1165.15 310.685 1165.59C309.846 1168.11 309.005 1170.62 307.83 1174.14C306.593 1175.01 301.617 1174.58 304.475 1180.33C305.787 1180 307.396 1179.87 308.744 1179.2C311.738 1177.73 314.527 1175.84 317.536 1174.4C323.507 1171.55 323.545 1171.63 327.679 1179.81C323.697 1178.56 321.09 1177.73 318.114 1176.79C317.33 1179.74 315.074 1182.82 319.002 1185.9C319.833 1186.54 319.802 1188.45 319.926 1189.81C320.16 1192.37 319.896 1195.03 320.418 1197.52C321.279 1201.65 323.52 1203.62 328.136 1201.93C330.287 1201.14 332.841 1201.45 334.552 1201.32C335.36 1204.01 335.968 1206.03 336.573 1208.05C338.163 1206.89 339.753 1205.72 341.447 1204.48C347.379 1202.54 353.65 1200.48 359.552 1198.54C361.45 1202.27 363.216 1205.74 365.578 1210.39C368.204 1207.41 369.882 1205.56 371.48 1203.65C371.815 1203.25 371.684 1202.4 372.049 1202.1C374.046 1200.44 379.541 1201.53 376.761 1196.19C372.998 1188.97 369.211 1186.85 362.393 1187.77C361.684 1187.87 360.949 1187.78 359.753 1187.78C360.006 1186.22 360.223 1184.88 360.404 1183.76C356.449 1181.39 352.791 1178.86 348.826 1176.98C346.95 1176.09 343.394 1175.46 342.5 1176.44C340.347 1178.8 339.123 1182.11 337.893 1185.19C337.036 1187.34 336.788 1189.74 335.083 1191.53C334.12 1188.13 333.158 1184.73 332.159 1181.2C335.927 1178.05 340.226 1174.45 344.525 1170.85C344.332 1170.28 344.137 1169.7 343.945 1169.13C339.844 1169.84 335.746 1170.55 331.565 1171.27C335.138 1164.23 341.392 1163.36 346.678 1168.27C352.242 1173.44 357.652 1178.86 365.925 1180.34C370.539 1181.16 374.847 1184.05 379.101 1186.37C380.41 1187.08 381.15 1188.92 382.038 1190.32C384.101 1193.57 385.875 1197.03 388.246 1200.02C388.996 1200.98 391.263 1201.01 392.825 1200.97C394.624 1200.93 396.411 1200.35 398.4 1199.96C397.118 1206.3 396.959 1204.18 380.927 1209.83C381.439 1207.76 381.84 1206.15 382.299 1204.3C378.427 1201.69 376.282 1204.57 374.802 1207.21C372.96 1210.5 376.194 1210.5 378.064 1211.95C380.526 1213.85 382.459 1217.21 383.251 1220.3C384.125 1223.71 383.452 1227.51 383.452 1232.16C382.289 1232.63 379.929 1233.58 377.178 1234.69C375.866 1231.94 374.508 1229.38 373.414 1226.72C370.421 1219.42 362.536 1217.94 357.47 1213.12C355.583 1211.33 353.659 1209.57 351.023 1207.12C350.276 1207.5 348.551 1208.35 346.345 1209.45C347.627 1211.21 349.07 1212.51 349.61 1214.12C350.287 1216.13 351.213 1219.23 350.259 1220.36C348.598 1222.32 345.572 1223.12 343.13 1224.43C340.71 1225.73 338.303 1227.05 334.494 1229.13C338.141 1230.67 340.215 1231.34 342.041 1232.42C342.976 1232.97 343.752 1234.2 344.019 1235.27C344.118 1235.66 342.498 1236.41 341.763 1237.11C340.333 1238.46 338.975 1239.88 337.588 1241.28C339.571 1241.41 341.813 1242.21 343.482 1241.55C347.044 1240.15 350.309 1237.99 354.742 1235.57C355.817 1236.05 358.114 1237.08 359.896 1237.87C358.703 1243.18 357.448 1247.8 356.755 1252.5C356.568 1253.77 357.891 1256.26 358.883 1256.47C360.809 1256.88 363.694 1256.79 364.926 1255.61C367.984 1252.66 369.72 1253.86 371.423 1256.27C370.566 1258.5 368.614 1261.09 369.261 1262.39C370.825 1265.55 373.171 1268.69 376.004 1270.73C378.829 1272.76 381.153 1270.79 382.258 1267.7C375.264 1262.55 373.092 1256.58 375.468 1248.89C377.324 1249.39 379.205 1249.9 381.618 1250.55C382.077 1247.94 382.512 1245.47 382.951 1242.95C379.849 1242.58 377.272 1242.28 374.695 1241.97C374.69 1241.54 374.684 1241.1 374.678 1240.67C377.591 1239.97 380.501 1239.28 383.46 1238.57C383.867 1239.15 384.546 1240.11 385.226 1241.07C385.833 1240.07 386.293 1238.94 387.082 1238.12C388.111 1237.05 389.401 1236.24 390.581 1235.32C393.969 1240.72 397.398 1237.54 401.403 1234.64C403.207 1237.16 404.865 1239.47 406.818 1242.2C410.262 1236.61 407.61 1227.38 416.915 1225.12C416.637 1224.66 416.359 1224.19 416.081 1223.73C414.266 1224.22 412.451 1224.72 409.932 1225.4C409.932 1220.92 409.932 1216.54 409.932 1210.78C413.108 1213.45 415.292 1215.28 417.747 1217.35C416.502 1218.39 415.696 1219.06 414.89 1219.73C414.975 1220.18 415.061 1220.63 415.149 1221.08C416.906 1220.67 418.705 1220.38 420.418 1219.82C422.671 1219.09 424.868 1217.44 427.066 1217.48C430.591 1217.54 434.087 1218.72 437.616 1219.31C440.138 1219.73 442.635 1218.46 442.742 1223.5C442.932 1232.34 454.662 1238.97 463.389 1236.48C466.191 1235.68 469.233 1235.72 472.773 1235.3C472.902 1233.43 470.118 1228.61 476.12 1228.71C478.699 1228.75 481.92 1229.35 480.591 1233.53C491.486 1235.84 492.555 1236.48 497.272 1243.82C498.661 1243.2 500.262 1242.74 501.565 1241.85C504.45 1239.87 506.81 1239.35 510.138 1241.67C514.624 1244.8 518.922 1243.4 523.57 1238.17C522.209 1237.74 521.009 1237.48 519.909 1236.99C517.965 1236.14 515.462 1235.64 514.296 1234.13C511.708 1230.79 509.541 1227.04 507.747 1223.21C507.008 1221.63 507.662 1219.39 507.684 1217.46C509.629 1218.07 512.14 1218.13 513.405 1219.42C516.1 1222.16 517.792 1225.91 520.553 1228.57C524.238 1232.11 528.603 1234.94 532.564 1238.22C534.604 1239.9 536.516 1241.78 538.271 1243.75C539.349 1244.97 539.777 1247.5 540.919 1247.79C548.147 1249.66 552.582 1255.23 557.761 1259.8C561.075 1262.73 564.219 1265.84 567.833 1269.24C569.329 1268.05 571.266 1266.51 573.1 1265.04C575.833 1267.96 578.306 1270.6 581.056 1273.54C577.673 1275.07 574.084 1276.7 570.545 1278.31C572.456 1281.05 573.779 1283.46 575.622 1285.37C576.565 1286.35 578.836 1287.23 579.797 1286.74C581.18 1286.04 582.602 1284.12 582.756 1282.6C582.951 1280.73 581.86 1278.72 581.527 1277.51C587.333 1271.95 592.822 1266.69 598.023 1261.71C601.568 1262.94 605.16 1263.98 608.548 1265.48C609.632 1265.96 610.773 1267.66 610.784 1268.81C610.793 1269.77 609.205 1270.76 608.292 1271.71C607.143 1272.9 604.78 1274.77 604.989 1275.12C606.337 1277.37 608.037 1279.57 610.118 1281.12C610.445 1281.36 611.773 1280.69 612.907 1279.81V597.366C611.317 598.231 609.88 599.246 608.68 600.499C600.831 608.697 591.477 611.095 581.656 613.582C569.367 616.696 556.816 617.262 545.988 609.858C539.489 605.414 532.874 606.608 526.26 606.21C511.392 605.315 497.099 603.45 487.404 590.255C483.98 585.589 480.941 580.64 477.509 575.98C472.929 569.763 468.204 563.651 463.405 557.605C461.411 555.09 459.063 552.854 456.874 550.493C456.507 550.796 456.145 551.098 455.779 551.401C455.685 551.238 455.556 551.087 455.501 550.914C453.771 545.542 456.703 537.421 446.824 536.749C445.735 536.678 444.904 533.35 443.881 531.573C440.853 526.296 437.853 521.006 434.709 515.799C433.468 513.744 431.884 511.896 429.83 509.106ZM408.628 1202.11C409.714 1201.22 410.798 1200.33 411.884 1199.44C413.108 1201.35 414.329 1203.26 415.553 1205.17C415.047 1205.55 414.541 1205.92 414.035 1206.3C412.209 1204.87 410.383 1203.43 408.557 1202C406.752 1208.2 401.461 1210.24 396.219 1212.33C394.725 1214.88 393.234 1217.44 391.648 1220.16C392.668 1221.23 393.738 1222.36 394.975 1223.66C393.589 1225.14 392.467 1226.33 390.424 1228.51C389.42 1225.21 387.957 1222.74 388.143 1220.4C388.37 1217.57 389.659 1214.65 391.207 1212.22C391.673 1211.5 394.533 1212.3 396.296 1212.4C397.676 1210.18 398.628 1207.43 400.55 1205.88C402.803 1204.07 405.897 1203.32 408.628 1202.11Z" fill="#EBEBEB"/>
</g>
</svg>
