<svg width="892" height="1355" viewBox="0 0 892 1355" fill="none" xmlns="http://www.w3.org/2000/svg">
<g opacity="0.7">
<path d="M486.04 722.871C484.043 724.776 481.582 725.086 477.779 724.057C480.381 721.891 482.754 719.917 485.222 717.863C484.115 716.482 483.21 715.352 482.082 713.948L486.04 710.936V722.871ZM481.79 689.725C478.22 692.732 474.994 695.446 471.551 698.345C467.686 695.976 463.881 693.644 460.016 691.275C467.368 684.174 479.103 682.52 486.04 687.226V693.941C484.923 696.197 483.708 698.434 482.236 700.576C481.162 697.113 482.461 693.677 481.79 689.725ZM470.99 926.699C469.086 918.687 472.054 912.845 479.105 910.493C476.498 916.018 473.871 920.952 470.99 926.699ZM455.738 941.806C457.077 944.42 456.764 946.388 456.611 948.199C456.396 950.771 457.342 952.237 459.682 953.24C461.893 954.19 463.948 955.505 466.531 956.909C463.606 959.221 460.996 961.285 458.133 963.549C456.024 959.512 454.114 955.865 452.216 952.212C452.051 951.893 451.82 951.503 451.875 951.193C452.443 948.022 453.837 945.228 455.738 941.806ZM486.04 883.704C485.478 883.841 484.849 883.988 484.115 884.18C484.75 882.623 485.105 881.757 485.459 880.888C486.483 878.381 486.188 877.829 483.617 876.813C482.536 876.386 481.182 875.948 480.604 875.079C479.082 872.789 478 870.23 477.586 867.414C479.222 866.908 480.649 866.468 482.585 865.869C479.044 863.248 475.95 860.958 472.801 858.628C473.802 856.843 474.61 855.402 475.541 853.742C472.719 852.122 470.136 850.642 467.454 849.103C466.856 850.062 466.45 850.658 466.1 851.285C461.715 859.125 454.825 862.104 446.149 861.458C438.846 860.916 438.852 860.856 435.878 854.039C433.735 849.13 431.591 844.223 429.423 839.259C428.451 839.369 427.7 839.327 427.04 839.55C422.637 841.037 418.339 840.37 414.122 838.888C406.563 836.229 399.75 837.668 393.286 842.551C389.802 839.663 386.271 836.736 382.74 833.81C382.593 835.025 382.955 835.868 383.285 836.724C384.072 838.772 384.901 840.804 385.61 842.878C386.95 846.798 388.112 850.784 389.545 854.669C391.235 859.25 393.095 863.771 394.958 868.285C395.959 870.712 396.188 873.192 396.255 875.793C396.317 878.185 396.625 880.68 397.413 882.922C399.92 890.065 402.723 897.103 405.37 904.198C407.161 909.002 409.273 913.732 410.558 918.672C414.086 932.226 419.759 944.657 428.704 955.49C432.996 960.685 436.888 966.119 440.306 971.943C442.075 974.959 444.264 977.922 446.882 980.197C450.585 983.416 453.274 987.205 455.503 991.456C456.921 994.159 458.248 996.935 459.935 999.463C461.691 1002.09 463.971 1004.23 467.455 1004.05C468.302 1005.69 468.878 1007.52 470.011 1008.88C475.306 1015.26 480.684 1021.58 486.04 1027.91V1114.75C483.621 1110.72 479.061 1107.5 473.124 1106.17C474.427 1108.82 475.554 1111.12 476.697 1113.42C477.879 1115.8 479.079 1118.17 480.236 1120.47C478.691 1122.12 477.698 1121.27 476.761 1120.15C474.798 1117.8 472.816 1115.48 470.891 1113.1C455.112 1093.64 459.188 1100.23 446.98 1074.75C446.348 1073.42 445.854 1072.04 445.228 1070.71C443.687 1067.45 442.526 1064.16 443.803 1060.5C443.94 1060.11 443.779 1059.61 443.724 1058.52C442.27 1060.51 441.16 1062.04 440.103 1063.49C438.366 1063.41 437.409 1062.54 438.107 1061.15C440.283 1056.8 438.26 1053.2 436.529 1049.4C433.689 1043.18 431.11 1036.84 428.282 1030.62C426.835 1027.43 426.701 1027.49 422.408 1027.83C422.605 1030.33 422.651 1032.87 423.05 1035.35C423.38 1037.4 422.843 1038.85 421.266 1040.16C419.295 1041.8 417.458 1043.6 415.578 1045.34C412.514 1048.19 411.917 1051.58 413.561 1055.35C414.634 1057.81 415.852 1060.21 416.967 1062.65C417.628 1064.1 417.596 1064.11 416.359 1066.1C412.818 1062.92 409.316 1059.79 405.656 1056.51C404.395 1057.83 403.293 1058.98 402.014 1060.31C401.063 1057.62 400.924 1052.16 401.543 1048.69C401.65 1048.09 401.847 1047.51 401.947 1046.9C402.737 1042.14 401.097 1040.03 396.245 1039.57C395.514 1039.5 394.778 1039.51 394.049 1039.44C389.869 1039.02 387.829 1037.24 387.364 1033.03C387.012 1029.86 385.811 1027.17 383.955 1024.67C381.98 1022.02 380.136 1019.31 379.678 1015.88C379.541 1014.84 378.866 1013.85 378.378 1012.87C375.665 1007.4 372.93 1001.94 370.218 996.463C369.904 995.831 369.686 995.151 369.245 994.042C374.993 993.671 380.409 993.321 386.274 992.942C385.636 992.127 385.223 991.486 384.702 990.951C382.6 988.79 381.184 986.287 380.676 983.29C379.789 978.036 381.465 973.907 386.045 971.113C385.984 970.803 386.016 970.516 385.891 970.406C381.15 966.235 380.66 964.478 382.575 958.573C382.72 958.127 382.724 957.636 382.796 957.167C382.793 957.165 382.9 957.269 382.9 957.269C379.854 956.401 376.81 955.534 373.769 954.67C374.447 951.902 375.499 949.273 375.635 946.599C375.774 943.871 375.013 941.097 374.559 937.7C377.167 938.976 379.399 940.069 381.916 941.301C383.123 938.933 382.906 936.519 383.123 933.843C379.523 933.365 376.134 934.309 372.357 934.772C372.357 937.766 372.357 940.662 372.357 943.436C368.33 944.724 367.299 944.104 366.961 940.514C366.86 939.439 366.791 938.362 366.68 936.944C364.322 937.619 362.24 938.217 359.497 939.002C361.109 934.01 362.578 929.462 364.162 924.553C362.16 923.894 360.356 923.3 358.484 922.684C357.776 924.663 357.194 926.46 356.44 928.182C356.349 928.395 355.351 928.211 354.422 928.211C353.323 921.424 352.239 914.731 351.157 908.046C352.714 907.314 353.98 906.858 355.099 906.164C357.069 904.944 357.304 903.483 356.005 901.53C355.803 901.227 355.548 900.958 355.308 900.682C353.094 898.127 350.878 895.572 348.396 892.711C344.398 893.435 339.908 894.271 335.403 895.014C335.144 895.056 334.762 894.356 334.144 893.681C335.909 891.824 337.634 890.01 339.089 888.481C337.993 884.571 337.194 880.899 335.924 877.399C334.428 873.278 332.712 869.21 330.745 865.293C328.685 861.191 327.193 856.987 326.839 852.413C326.131 843.279 325.081 834.152 324.884 825.006C324.708 816.911 326.56 809.011 329.629 801.463C329.804 801.034 330.143 800.67 330.372 800.325C332.418 800.363 332.178 801.671 332.066 802.91C331.85 805.316 331.639 807.722 331.385 810.565C335.264 810.352 335.453 807.063 337.284 805.276C336.063 802.961 334.886 800.728 333.514 798.124C336.255 798.124 338.687 798.124 341.305 798.124C336.986 791.59 330.594 789.688 324.814 792.951C323.386 793.757 322.332 794.729 321.782 796.406C320.793 799.418 319.583 802.365 318.352 805.292C316.251 810.286 313.508 814.868 309.654 818.758C308.851 819.57 308.289 820.757 307.96 821.873C306.758 825.973 305.706 830.118 304.58 834.241C304.398 834.906 304.132 835.549 303.678 836.849C299.222 830.909 295.188 825.466 293.684 818.627C293.109 816.017 293.632 813.49 295.426 811.394C296.358 810.305 296.685 809.384 296.667 807.74C296.641 805.305 298.004 802.852 298.808 800.418C299.109 799.506 299.505 798.624 299.893 797.637C301.886 797.362 303.788 797.097 306.05 796.784C306.05 793.304 306.205 790.026 306.006 786.769C305.812 783.606 304.062 781.089 302.116 778.647C300.541 776.668 298.87 774.565 298.038 772.234C295.956 766.4 293.068 761.098 289.195 756.295C288.665 755.636 288.249 754.884 287.571 753.861C289.431 750.037 291.249 746.052 293.285 742.182C295.256 738.437 298.397 735.959 302.496 734.863C306.498 733.792 310.543 732.881 314.307 731.964C313.398 730.673 312.064 729.443 311.552 727.933C309.447 721.716 306.18 716.182 302.337 710.922C300.535 708.459 298.907 705.867 297.226 703.316C292.976 696.865 291.891 689.782 293.036 682.251C293.496 679.233 294.015 676.216 294.29 673.179C294.489 670.968 295.339 669.504 297.54 668.907C297.976 668.789 298.35 668.439 298.79 668.174C298.617 667.901 298.538 667.623 298.415 667.604C292.801 666.72 290.059 663.171 288.957 657.83C288.349 654.878 287.277 652.021 286.281 648.671C287.866 646.845 289.761 644.662 291.709 642.418C290.678 641.475 289.851 640.763 289.072 640.001C285.441 636.448 285.262 633.496 288.929 629.932C291.54 627.397 293.3 624.405 294.977 621.273C295.718 619.89 295.727 618.71 295.334 617.141C294.083 612.136 293.763 606.992 294.79 601.909C295.108 600.338 296.242 598.883 297.19 597.505C298.013 596.306 299.205 595.363 300.052 594.178C301.494 592.162 301.95 590.024 300.035 587.454C299.474 589.026 299.016 590.314 298.472 591.839C296.982 591.433 295.637 591.066 294.19 590.672C294.446 588.942 294.653 587.553 294.857 586.162C294.674 586.076 294.489 585.989 294.304 585.904C293.464 587.197 292.61 588.48 291.785 589.784C289.532 593.357 288.175 593.715 284.113 591.662C283.863 584.693 283.613 577.636 283.339 569.92C282.084 570.767 281.355 571.256 280.628 571.748C278.154 573.423 276.586 573.423 274.402 571.352C272.73 569.764 271.3 567.923 269.488 565.887C270.847 564.683 272.442 563.272 274.497 561.452C275.105 563.974 275.601 566.025 276.17 568.389C277.915 567.95 279.496 567.553 281.077 567.156C279.268 566.399 278.145 565.523 277.789 563.636C277.451 561.847 276.575 560.146 276.349 558.354C276.158 556.834 276.334 555.177 276.743 553.69C277.351 551.491 278.464 550.799 280.799 550.776C282.114 550.764 283.429 550.941 284.875 551.042C285.579 553.837 286.16 556.444 286.902 559.004C288.235 563.606 289.278 564.098 293.753 562.482C294.428 562.239 295.115 562.027 296.305 561.632C296.5 563.103 296.759 564.339 296.798 565.583C296.827 566.547 296.505 567.518 296.473 568.489C296.384 571.277 297.133 572.171 299.933 572.702C300.623 572.833 301.334 572.847 302.225 572.934C301.951 575.192 301.707 577.204 301.419 579.562C303.113 579.305 304.488 579.097 306.396 578.808C305.372 581.267 304.471 583.43 303.446 585.892C305.185 586.833 306.869 587.745 309.041 588.92C307.261 590.418 305.657 591.767 303.628 593.475C305.264 594.049 306.489 594.459 307.698 594.908C309.183 595.463 310.736 595.906 312.117 596.66C314.333 597.865 314.718 600.173 313.221 602.21C313.004 602.505 312.739 602.765 312.505 603.048C309.001 607.308 308.755 608.048 309.102 613.854C305.286 615.75 301.282 617.74 297.293 619.722C298.403 622.338 298.643 622.494 300.495 621.397C302.445 620.241 304.358 619.017 306.225 617.734C309.429 615.53 314.057 616.679 315.303 620.541C316.453 624.095 317.408 627.967 317.211 631.632C316.971 636.132 318.696 639.628 320.538 643.46C325.425 643.302 329.18 640.425 333.419 639.115C336.019 641.087 336.095 641.695 334.118 644.391C331.74 647.631 329.467 653.864 329.218 658.444C332.675 653.555 335.251 648.719 339.725 645.132C339.488 646.606 339.181 648.074 339.029 649.556C338.751 652.282 339.321 653.1 341.928 652.855C344.361 652.626 346.103 653.586 347.954 654.894C350.827 656.924 353.858 658.727 357.044 660.77C357.304 663.956 357.714 667.473 357.84 670.999C357.937 673.699 358.812 675.724 361.364 676.873C361.777 677.06 362.098 677.448 362.68 677.922C361.036 679.833 359.491 681.631 357.724 683.684C362.454 685.826 366.865 687.846 371.645 688.818C375.01 689.502 377.938 688.107 379.48 685.427C384.412 676.852 384.484 676.769 392.594 670.629C390.09 670.629 388.057 670.629 385.518 670.629C386.684 667.92 387.635 665.714 388.724 663.182C388.002 662.635 387.233 662.054 386.267 661.324C388.229 659.575 390.012 657.984 392.021 656.195C391.04 654.516 390.147 652.955 389.221 651.413C386.366 646.661 388.553 642.106 394.146 641.846C396.62 641.73 398.233 640.761 399.888 639.23C403.183 636.181 406.571 633.23 410.083 630.094C411.26 631.699 412.225 633.013 413.449 634.679C414.118 633.372 414.611 632.554 414.972 631.685C416.677 627.553 419.778 625.138 424.19 624.965C427.11 624.851 428.805 623.521 430.367 621.272C433.486 616.776 436.822 612.431 440.288 607.724C441.15 608.966 441.807 609.912 442.49 610.9C444.358 611.049 445.243 609.926 445.817 608.523C446.277 607.4 446.543 606.194 446.881 605.022C447.593 602.546 448.593 600.37 451.918 600.556C451.871 600.305 451.823 600.054 451.776 599.802C449.54 599.398 447.304 598.987 445.067 598.596C443.144 598.259 441.167 598.123 439.306 597.584C436.089 596.65 434.265 594.343 433.55 591.077C433.186 589.411 433.628 588.33 435.179 587.483C441.534 584.012 447.784 584.078 453.96 587.858C456.943 589.685 459.058 592.356 461.057 595.171C465.252 601.076 466.543 601.143 471.074 595.565C473.283 592.848 475.9 590.738 478.975 589.147C481.975 587.596 484.97 588.776 486.04 591.666V670.768C485.793 671.252 485.56 671.77 485.336 672.321C481.747 671.763 478.165 671.17 474.572 670.659C471.606 670.239 469 669.282 466.695 667.179C463.968 664.693 460.45 664.626 457.626 666.891C453.819 669.946 450.104 673.132 446.525 676.453C442.208 680.455 440.233 685.396 441.499 691.334C441.922 693.314 441.332 694.946 440.076 696.413C439.28 697.342 438.488 698.371 437.019 697.883C435.529 697.389 434.019 697.053 433.533 695.102C432.976 692.863 432.119 690.693 431.329 688.517C430.231 685.491 430.029 682.56 432.013 679.786C433.066 678.314 433.018 676.896 431.937 675.493C429.519 675.342 427.4 675.414 426.143 677.833C425.918 678.266 425.165 678.519 424.605 678.67C421 679.642 419.298 682.309 418.213 685.609C417.303 688.371 416.292 691.1 415.239 694.094C415.815 695.009 416.602 696.097 417.221 697.272C419.779 702.117 421.52 706.967 416.529 711.564C419.513 714.072 419.342 716.972 418.136 720.038C418.003 720.379 417.89 720.729 417.753 721.068C416.295 724.671 416.475 728.231 418.075 731.738C418.734 733.181 419.547 734.56 420.108 736.038C421.185 738.875 422.09 741.775 423.161 744.613C423.47 745.432 423.983 746.256 424.612 746.858C430.432 752.432 436.301 757.956 442.208 763.545C440.808 765.362 441.894 766.511 443.002 767.969C444.546 766.083 445.903 764.425 447.368 762.634C449.534 764.555 447.741 766.189 447.437 767.745C447.076 769.597 446.397 771.385 445.81 773.355C448.889 774.172 451.527 774.872 454.667 775.705C452.438 777.651 450.631 779.224 448.895 780.741C449.014 781.175 449.011 781.462 449.152 781.63C451.259 784.167 453.335 786.733 455.529 789.193C456.74 790.547 457.338 791.936 457.222 793.809C457.122 795.427 457.487 797.073 457.647 798.716C459.92 798.991 461.672 799.205 463.67 799.448C463.436 798.645 463.41 798.26 463.228 797.976C461.02 794.551 460.658 792.413 464.647 788.247C465.657 787.191 466.783 786.241 467.905 785.301C469.403 784.046 470.99 782.897 472.464 781.613C475.262 779.173 476.976 776.19 476.847 772.34C476.833 771.927 476.975 771.509 477.12 770.645C480.21 772.647 482.923 774.403 485.623 776.155C483.566 781.858 481.651 787.165 479.55 792.989L486.04 791.56V883.704ZM486.04 1014.86C484.392 1012.31 482.423 1009.91 479.986 1007.71C481.041 1007.19 481.781 1006.84 482.192 1006.63C479.351 1002.54 476.076 999.246 474.58 995.279C473.092 991.33 473.393 986.709 472.887 982.196C470.049 980.854 467.559 978.764 467.374 975.244C467.133 970.693 467.338 966.119 467.351 961.556C467.645 961.48 467.937 961.403 468.23 961.327C471.199 965.538 474.17 969.751 477.23 974.09C475.932 974.831 475.019 975.354 473.327 976.32C479.889 976.832 482.201 981.506 485.195 985.514C485.467 985.878 485.749 986.242 486.04 986.602V1014.86ZM486.04 1133.92C483.29 1131.1 482.312 1127.58 482.492 1123.23L486.04 1124.16V1133.92ZM436.086 54.9306C435.508 55.5355 434.932 56.1408 434.189 56.9187C434.05 55.2532 434.05 55.2532 436.086 54.9306ZM258.312 451.596C258.899 454.891 259.484 458.185 260.07 461.48C259.873 461.586 259.678 461.69 259.481 461.795C258.95 460.75 258.406 459.712 257.893 458.661C257.312 457.469 256.432 456.299 256.291 455.051C256.163 453.926 256.858 452.706 257.191 451.53C257.564 451.551 257.938 451.574 258.312 451.596ZM277.883 890.192C279.094 893.379 276.963 894.706 275.385 896.956C274.662 895.94 273.734 895.234 273.743 894.54C273.775 891.951 274.303 889.335 276.166 887.441C276.98 886.612 278.554 886.091 279.743 886.158C282.412 886.307 284.791 887.447 286.727 889.258C283.788 889.569 280.929 889.871 277.883 890.192ZM279.896 628.338C274.891 618.962 279.21 613.473 285.82 614.123C283.84 618.872 281.924 623.474 279.896 628.338ZM364.281 1042.16C365.258 1047.12 368.801 1051.02 366.604 1056.19C363.061 1056.26 361.704 1053.9 360.704 1051.23C359.486 1047.99 360.376 1045.58 364.281 1042.16ZM339.358 920.383C336.313 909.902 339.384 902.21 346.366 899.81C344.039 906.642 341.829 913.129 339.358 920.383ZM343.286 1235.97C347.905 1238.78 349.244 1241.74 347.922 1245.21C347.491 1246.34 346.889 1247.19 345.611 1247.15C343.465 1247.09 341.322 1246.93 338.652 1246.79C339.607 1242.62 341.763 1239.59 343.286 1235.97ZM429.18 558.677C429.091 568.812 424.144 576.119 417.149 582.43C415.756 581.907 414.981 581.214 415.627 579.66C418.253 573.348 420.825 567.015 423.459 560.706C424.525 558.156 426.808 558.9 429.18 558.677ZM336.93 1218.47C337.454 1219.24 337.909 1219.92 338.485 1220.77C336.976 1221.84 335.618 1222.8 334.037 1223.91C336.077 1227.05 338.056 1230.09 340.289 1233.51C338.001 1235.19 335.814 1236.79 333.263 1238.66C330.024 1230.43 326.958 1222.65 323.825 1214.69C324.982 1213.8 325.893 1213.1 327.172 1212.12C328.2 1215.22 329.1 1217.94 330.08 1220.89C332.542 1220.02 334.683 1219.26 336.93 1218.47ZM469.102 63.446C469.692 62.2722 470.177 61.3063 470.804 60.0592C467.055 59.5778 464.397 57.2489 461.611 55.1184C459.287 53.341 456.686 52.473 453.715 53.0188C453.196 53.1151 452.644 53.0326 451.69 53.0326C452.722 50.7264 454.238 50.5155 455.965 50.8899C459.183 51.5864 462.382 52.3827 465.605 53.0569C466.656 53.2768 467.853 53.5582 468.823 53.271C472.017 52.3246 474.511 53.633 477.033 55.2787C479.853 57.1191 482.758 58.8274 485.91 60.7701C484.306 63.2088 482.464 66.0068 480.488 69.0133C476.591 67.1073 472.913 65.3085 469.102 63.446ZM394.831 76.1743C394.831 74.122 394.831 72.5834 394.831 70.6379C392.858 71.8863 391.159 72.9618 389.459 74.0393C389.329 73.9249 389.199 73.8119 389.07 73.6971C389.637 73.0875 390.199 72.4746 390.769 71.868C393.434 69.0267 396.057 66.1448 398.791 63.3696C399.866 62.2766 401.115 61.305 402.425 60.5053C403.555 59.8146 404.927 59.5319 406.117 58.9237C409.271 57.3142 412.525 56.9294 416.037 57.4401C418.269 57.7641 420.589 57.501 423.534 57.501C422.46 58.1625 421.887 58.6194 421.236 58.9025C417.546 60.504 413.824 62.0323 410.139 63.6489C407.451 64.8303 405.521 66.3738 405.433 69.8507C405.342 73.4527 403.488 74.9962 399.909 75.5632C398.372 75.8075 396.816 75.9393 394.831 76.1743ZM289.549 920.068C287.233 921.829 285.627 923.054 283.367 924.774C283.367 922.916 283.57 921.822 283.306 920.853C283.081 920.031 282.462 919.146 281.761 918.661C280.776 917.983 279.939 918.687 279.296 919.528C277.212 922.244 275.127 924.956 273.034 927.664C272.741 928.045 272.408 928.396 271.93 928.949C271.101 928.596 270.273 928.243 269.568 927.942C269.568 927.425 269.489 927.152 269.579 926.959C272.562 920.534 275.351 914.008 280.156 908.618C281.825 906.746 282.702 904.596 282.167 901.88C281.635 899.178 282.945 897.132 285.468 895.984C287.213 895.191 288.997 894.488 291.261 893.535C290.664 895.609 290.216 897.216 289.735 898.81C289.313 900.214 288.818 901.596 288.414 903.005C286.773 908.751 284.224 914.531 289.549 920.068ZM234.554 853.386C234.921 846.636 235.258 840.222 236.568 833.921C237.136 831.187 238.099 830.763 241.009 830.571C248.947 830.052 251.298 835.913 249.851 841.28C249.376 843.039 248.5 844.743 248.326 846.523C247.996 849.876 245.913 850.923 243.038 851.45C240.33 851.945 237.664 852.667 234.554 853.386ZM275.386 970.549C272.331 969.015 271.133 966.744 270.679 964.032C269.94 959.629 271.173 955.614 273.102 951.679C274.267 949.298 275.084 946.737 275.941 944.215C276.999 941.105 275.973 938.473 273.849 936.146C272.643 934.827 271.473 933.476 269.862 931.661C274.482 931.543 278.42 931.894 282.201 933.207C285.094 934.213 285.816 935.967 284.857 939.001C284.49 940.157 283.969 941.272 283.462 942.378C282.376 944.751 281.758 947.126 282.253 949.816C282.806 952.807 282.025 955.44 279.045 956.913C277.607 957.623 277.448 958.875 277.231 960.246C276.704 963.576 276.051 966.888 275.386 970.549ZM375.653 1275.83C374.63 1277.95 374.014 1279.23 373.284 1280.74C369.291 1278.68 365.267 1277.08 362.682 1273.22C361.61 1271.62 360.238 1270.08 358.679 1268.97C355.429 1266.66 353.792 1263.27 352.027 1259.95C351.61 1259.16 351.257 1258.01 351.518 1257.24C352.965 1253.01 354.613 1248.85 356.378 1244.16C362.347 1247.99 367.947 1251.57 373.922 1255.4C372.74 1258.07 371.862 1260.74 370.457 1263.09C367.658 1267.78 369.071 1272.43 369.75 1277.13C370.041 1277.16 370.332 1277.19 370.624 1277.23C370.764 1276.25 371.014 1275.28 371.028 1274.31C371.07 1271.3 372.013 1268.57 373.289 1265.9C374.07 1264.26 375.154 1264.25 376.952 1265.25C376.645 1268.23 376.325 1271.35 375.977 1274.72C377.619 1275.43 377.698 1277.03 377.947 1278.79C378.542 1283 379.501 1287.16 380.35 1291.33C380.559 1292.36 380.904 1293.37 381.222 1294.51C378.61 1293.93 377.494 1292.57 377.188 1289.69C376.851 1286.54 376.605 1283.38 376.286 1280.22C376.167 1279.05 375.953 1277.88 375.653 1275.83ZM299.912 994.425C297.194 994.642 294.903 994.906 292.606 994.986C289.687 995.088 288.388 993.644 288.711 990.718C288.801 989.889 289.341 989.114 289.454 988.286C289.611 987.132 289.944 985.792 289.536 984.808C287.383 979.61 287.728 974.324 288.538 968.969C289.283 964.039 290.025 959.108 290.649 954.162C291.087 950.683 293.332 948.214 295.263 945.595C295.697 945.008 296.965 945.036 298.276 944.657C300.944 961.317 301.858 977.61 299.912 994.425ZM235.675 793.841C232.657 793.099 229.759 792.389 226.518 791.594C228.647 787.535 230.71 783.603 232.877 779.47C231.341 779.072 230.202 778.775 229.087 778.486C229.707 772.292 231.626 771.065 237.564 773.099C237.757 772.28 238.006 771.486 238.119 770.673C238.234 769.851 238.215 769.01 238.279 767.671C232.898 767.671 227.716 767.671 222.545 767.671C222.053 764.752 224.341 764.677 225.533 763.753C226.836 762.74 228.328 761.969 230.192 760.811C227.428 758.969 225.123 757.435 222.847 755.918C223.908 753.437 237.642 736.677 241.776 732.754C244.716 733.755 244.783 733.786 244.099 736.43C242.724 741.748 241.258 747.042 239.878 752.358C239.592 753.458 238.746 754.69 240.489 755.878C244.982 752.154 249.558 748.362 254.48 744.28C256.245 747.3 257.949 750.088 259.497 752.957C259.863 753.636 259.973 754.68 259.743 755.41C258.718 758.664 257.677 761.931 256.325 765.056C255.726 766.442 254.504 767.65 253.34 768.686C250.221 771.458 248.719 774.751 248.736 779.004C248.743 781.005 247.64 783.008 246.977 785.221C249.034 784.839 251.144 784.448 253.615 783.991C253.482 785.049 253.448 785.838 253.276 786.598C252.356 790.645 251.24 794.655 250.51 798.735C249.889 802.198 249.692 805.738 249.33 809.245C249.267 809.85 249.353 810.469 249.301 811.076C248.766 817.415 246.382 820.645 239.329 819.098C238.984 819.021 238.62 819.035 237.951 818.98C235.371 824.399 232.762 829.877 230.031 835.612C228.924 835.193 227.958 834.828 226.694 834.349C228.528 829.123 230.291 824.093 232.002 819.218C231.844 818.792 231.82 818.509 231.667 818.35C228.415 814.944 228.147 813.065 230.08 808.49C231.789 804.448 233.407 800.366 235.035 796.29C235.3 795.628 235.403 794.903 235.675 793.841ZM260.449 402.269C256.716 401.952 256.01 404.852 254.269 406.455C258.003 408.461 260.679 411.127 261.041 415.353C261.441 420.025 259.146 423.462 255.058 426.771C254.213 420.583 253.765 414.909 252.596 409.389C251.421 403.846 249.527 398.454 247.715 392.189C246.37 395.244 245.387 397.475 244.404 399.708C244.088 399.607 243.772 399.506 243.457 399.405C243.691 398.309 243.865 397.198 244.169 396.124C245.696 390.722 247.255 385.328 248.803 379.932C249.005 379.228 249.342 378.524 249.344 377.819C249.345 377.345 248.956 376.595 248.577 376.473C248.185 376.346 247.352 376.69 247.138 377.069C246.358 378.444 245.769 379.928 245.077 381.355C244.825 381.875 244.486 382.353 243.845 383.414C243.041 380.023 242.296 377.247 241.778 374.429C241.651 373.735 242.145 372.825 242.572 372.154C243.336 370.957 244.268 369.868 244.759 368.139C241.572 368.672 238.384 369.208 235.653 369.664C234.956 372.097 234.474 374.192 233.754 376.201C232.3 380.263 232.88 381.441 237.066 382.416C237.888 382.608 238.71 382.801 239.834 383.062C238.471 385.945 237.194 388.639 235.656 391.889C234.373 389.786 233.389 388.171 232.255 386.313C230.579 387.228 228.962 388.111 226.848 389.265C228.071 383.99 229.164 379.277 230.294 374.397C228.633 374.049 227.136 373.735 225.25 373.34C226.925 371.677 228.323 370.292 229.72 368.906C229.573 368.639 229.428 368.37 229.281 368.102C227.294 368.688 225.306 369.272 223.021 369.944C222.546 367.852 222.077 365.987 221.703 364.104C220.729 359.196 219.849 354.267 218.822 349.371C218.335 347.046 218.625 344.947 220.237 343.217C222.716 340.557 225.314 338.01 227.987 335.285C227.299 334.706 226.402 333.95 225.305 333.025C225.19 327.795 227.533 323.382 230.995 318.554C231.439 321.587 231.792 323.999 232.128 326.292C234.44 326.97 236.114 323.86 238.801 325.858C237.066 328.156 235.414 330.343 233.591 332.758C234.85 333.213 235.918 333.598 237.017 333.994C234.228 338.29 233.331 338.606 228.41 337.02C227.906 337.928 227.386 338.863 226.527 340.411C229.433 340.467 231.907 340.535 234.381 340.559C236.936 340.584 239.491 340.564 242.322 339.958C241.01 339.117 239.699 338.275 237.922 337.133C241.413 332.936 244.614 328.821 248.114 324.977C250.32 322.554 251.678 322.723 255.063 325.059C253.621 327.618 252.156 330.221 250.511 333.144C252.006 333.144 253.146 333.144 254.636 333.144C255.532 338.264 256.299 343.261 253.71 348.014C254.642 349.56 255.776 350.882 256.265 352.411C256.734 353.874 256.597 355.554 256.615 357.139C256.658 360.548 256.629 363.958 256.629 367.596C259.727 368.527 262.457 369.348 265.458 370.248C264.901 371.157 264.551 371.766 264.166 372.35C261.677 376.123 260.41 380.29 260.361 384.787C260.31 389.185 260.416 393.581 260.448 397.979C260.457 399.315 260.449 400.652 260.449 402.269ZM246.044 1041.68C244.766 1042.8 243.961 1043.51 242.834 1044.5C248.54 1047.8 249.961 1053.3 251.142 1059.03C251.754 1061.99 252.831 1064.87 253.806 1067.75C254.343 1069.33 255.48 1070.21 257.194 1070.73C264.86 1073.07 270.569 1078.12 275.273 1084.41C275.921 1085.28 276.646 1086.29 276.783 1087.31C277.222 1090.55 279.349 1092.73 281.22 1095.1C284.163 1098.84 287.106 1102.57 290.106 1106.36C289.076 1107.55 288.203 1108.55 287.112 1109.8C288.22 1111.57 289.366 1113.39 290.864 1115.78C292.549 1112.53 294.005 1109.72 295.484 1106.87C300.37 1111.4 300.674 1112.73 297.778 1117.25C298.683 1117.78 299.588 1118.29 300.478 1118.82C303.423 1120.6 303.694 1122 301.6 1124.69C301.227 1125.17 300.779 1125.59 300.662 1125.72C300.755 1129.19 300.94 1132.32 300.897 1135.46C300.85 1138.79 301.609 1141.65 304.099 1144.09C305.052 1145.02 305.37 1146.61 305.952 1147.91C306.046 1148.12 305.985 1148.4 306.029 1148.63C306.863 1153.14 307.259 1157.49 301.595 1159.71C301.732 1159.95 301.867 1160.19 302.003 1160.43C303.923 1160.57 305.844 1160.71 308.206 1160.89C307.108 1163.97 306.104 1166.78 304.916 1170.11C306.833 1169.72 308.309 1169.43 310.137 1169.06C313.141 1174.77 316.202 1180.44 319.083 1186.21C319.497 1187.04 319.242 1188.36 318.951 1189.35C317.584 1194.03 318.377 1198.09 322.208 1201.27C323.645 1202.46 323.879 1203.85 323.59 1205.51C320.321 1206.45 319.285 1206.19 314.021 1203.06C314.168 1202.44 314.31 1201.75 314.494 1201.07C314.685 1200.37 314.915 1199.68 315.244 1198.6C313.247 1198.06 311.296 1197.53 309.09 1196.93C308.899 1194.69 308.633 1192.41 308.525 1190.13C308.344 1186.3 307.293 1183.1 302.526 1182C303.805 1179.45 304.922 1177.23 306.451 1174.18C303.732 1175.3 301.724 1176.13 299.412 1177.08C298.462 1174.43 297.263 1171.99 296.809 1169.43C296.572 1168.09 297.645 1166.52 298.157 1164.96C298.112 1164.9 297.984 1164.54 297.853 1164.54C294.251 1164.5 292.429 1162.13 291.02 1159.28C290.427 1158.09 290.016 1156.8 289.501 1155.56C287.393 1150.51 285.278 1145.46 282.979 1139.96C283.038 1139.93 283.686 1139.61 284.768 1139.07C282.786 1138.01 281.346 1137.23 280.017 1136.52C279.606 1135.09 279.399 1133.67 278.807 1132.43C276.274 1127.14 273.598 1121.93 271.041 1116.65C270.371 1115.27 269.509 1114.33 268.041 1113.68C266.625 1113.06 265.298 1112.08 264.155 1111.02C261.634 1108.67 260.725 1105.77 261.963 1102.21C256.918 1099.49 253.346 1096.06 256.771 1089.57C254.763 1088.7 253.022 1087.95 251.081 1087.11C251.644 1077.93 246.607 1070.63 242.957 1062.84C241.507 1059.75 239.986 1056.69 238.518 1053.61C236.727 1049.85 234.937 1046.12 231.696 1043.3C229.871 1041.72 229.371 1039.67 230.279 1037.32C230.888 1035.75 231.345 1034.11 231.911 1032.37C231.213 1031.89 230.638 1031.47 230.031 1031.09C226.031 1028.6 223.77 1024.89 223.125 1020.35C222.458 1015.64 222.131 1010.88 221.793 1006.13C221.74 1005.39 222.419 1004.6 222.76 1003.83C223.07 1003.81 223.382 1003.79 223.692 1003.77C225.415 1006.66 227.311 1009.47 228.824 1012.47C232.837 1020.42 236.734 1028.44 240.57 1036.49C241.657 1038.77 242.879 1040.76 246.044 1041.68ZM355.259 416.181C360.597 411.765 365.342 407.841 370.438 403.628C371.399 405.344 372.206 406.788 373.304 408.755C386.536 408.154 400.028 407.541 414.019 406.906C413.329 408.308 412.838 409.308 412.155 410.7C414.614 411.431 416.97 412.291 419.399 412.823C425.654 414.197 431.517 416.396 437.018 419.766C442.409 423.068 448.321 424.952 454.779 424.59C455.789 424.534 456.779 424.583 457.022 426.271C456.39 426.699 455.646 427.225 454.878 427.713C451.892 429.607 448.753 431.299 445.935 433.417C439.798 438.033 437.245 442.157 434.467 451.237C430.752 451.237 426.896 451.237 422.532 451.237C424.679 457.337 421.914 461.329 417.789 464.575C415.039 466.74 411.891 466.373 408.565 464.946C408.257 461.819 407.948 458.687 407.578 454.929C406.122 455.861 404.897 456.515 403.82 457.357C399.365 460.837 399.026 460.854 394.752 457.094C393.94 458.146 393.151 459.201 392.329 460.23C390.436 462.603 388.05 464.587 385.049 464.752C381.684 464.937 379.526 466.208 378.468 469.373C374.571 469.599 371.622 468.012 369.471 465.165C368.096 463.344 367.196 461.158 366.132 459.11C364.853 456.651 363.629 454.165 362.321 451.571C361.08 451.965 360.197 452.057 359.535 452.489C355.67 455.016 351.856 457.622 348.026 460.202C347.121 460.812 346.302 461.632 345.312 462.018C339.515 464.283 333.681 466.453 327.85 468.629C327.555 468.739 327.172 468.608 326.452 468.57C328.788 462.505 332.038 457.34 336.655 453.055C341.297 448.747 346.773 445.858 352.655 443.645C362.078 440.096 371.931 438.274 381.776 436.506C388.617 435.275 395.528 434.391 402.434 433.572C405.465 433.211 407.729 431.994 409.687 428.982C391.767 424.544 373.958 420.695 355.259 416.181ZM235.275 186.859C234.548 184.333 233.91 182.122 233.287 179.959C233.678 179.748 233.912 179.509 234.071 179.551C239.011 180.859 242.496 178.902 245.392 174.944C247.094 172.618 249.326 170.677 251.491 168.379C249.697 167.972 247.791 167.541 245.734 167.075C249.455 165.571 253.005 164.304 256.398 162.707C258.805 161.575 261.195 160.231 262.23 157.444C262.427 156.912 262.951 156.457 263.416 156.078C267.096 153.072 270.797 150.092 275.064 147.44C274.219 149.19 273.374 150.938 272.408 152.94C274.858 153.875 276.889 153.422 278.665 152.039C286.166 146.191 294.445 141.317 300.97 134.246C302.545 132.54 304.143 130.856 305.795 129.091C309.033 130.398 311.124 128.878 312.865 126.627C314.209 124.89 315.472 123.088 316.728 121.283C317.979 119.483 319.589 118.367 321.826 118.1C324.332 117.8 326.419 116.652 328.165 114.771C332.97 109.594 337.879 104.587 342.103 98.8136C345.306 94.432 348.976 89.9497 354.11 86.739C355.335 88.8755 356.462 90.8393 357.648 92.9054C358.418 92.6606 359.081 92.4513 359.768 92.2345C359.628 90.6389 359.448 89.1855 359.385 87.7278C359.257 84.7431 360.918 82.379 363.906 82.1984C371.895 81.7202 379.194 79.1883 386.155 75.4394C386.459 75.2754 386.816 75.2042 387.398 75.3585C386.85 75.8457 386.34 76.3836 385.749 76.8117C382.68 79.0307 379.541 81.1579 376.538 83.4608C375.655 84.1381 374.51 85.3333 374.573 86.2135C374.726 88.353 373.379 88.9133 371.756 89.8644C371.035 88.7734 370.34 87.7187 369.493 86.4347C366.449 88.6662 363.548 90.8547 360.576 92.9391C359.414 93.7537 358.152 94.5207 356.823 94.9809C354.008 95.9556 351.332 97.1555 349.364 99.4323C347.798 101.247 346.015 102.541 343.684 103.126C342.864 103.331 341.995 103.617 341.339 104.115C340.899 104.45 340.79 105.223 340.533 105.799C341.077 105.918 341.707 106.277 342.148 106.117C344.096 105.409 345.97 104.453 348.66 105.324C347.127 108.256 345.764 111.201 344.091 113.959C342.691 116.264 340.336 117.597 337.715 117.843C334.813 118.117 333.072 119.764 331.515 121.881C330.357 123.454 329.221 125.046 328.076 126.629C326.776 128.426 325.144 129.64 322.806 129.193C321.313 128.909 320.497 129.792 319.717 130.713C312.749 138.922 303.683 144.609 295.259 151.062C293.328 152.543 291.289 154.002 288.046 152.929C289.005 150.872 289.923 148.9 290.841 146.928C290.655 146.777 290.467 146.626 290.28 146.474C286.005 150.874 280.324 153.559 276.624 158.763C275.229 160.724 272.75 162.11 270.499 163.214C267.456 164.709 264.157 165.681 260.46 167.067C262.725 167.575 264.56 167.984 266.336 168.382C264.961 169.905 263.587 171.383 262.265 172.905C260.984 174.38 259.811 175.949 258.496 177.392C255.811 180.338 252.475 180.178 248.427 179.036C249.125 181.737 249.744 184.125 250.4 186.662C247.087 188.447 242.951 188.744 240.654 192.124C238.306 195.581 239.152 199.383 239.662 203.421C237.809 204.706 235.839 206.072 233.626 207.606C234.644 208.549 235.488 209.33 236.496 210.266C234.846 212.839 233.274 215.293 231.699 217.745C230.215 220.052 229.092 222.487 229.542 225.315C230.271 229.873 228.714 233.457 225.126 236.254C224.859 236.462 224.71 236.823 224.432 237.219C226.955 241.642 226.68 246.427 225.493 251.049C223.916 257.182 221.807 263.18 219.896 269.226C219.496 270.495 218.975 271.725 218.416 273.223C219.945 273.645 221.29 274.014 223.076 274.506C222.562 277.829 221.929 281.146 221.561 284.495C221.197 287.813 220.412 290.709 216.844 291.971C216.32 292.156 215.917 292.68 215.144 293.3C217.704 294.437 219.806 292.646 222.309 293.16C221.834 294.15 221.437 295.088 220.949 295.979C215.136 306.576 211.601 317.964 209.234 329.753C208.911 331.365 208.267 333.28 211.089 333.618C211.432 329.91 214.963 329.446 217.525 326.857C217.525 330.512 217.525 333.401 217.525 336.509C216.294 335.947 215.248 335.36 214.129 334.983C212.106 334.299 210.912 334.769 209.7 336.47C208.297 338.438 206.963 340.467 205.424 342.324C203.495 344.653 202.817 347.069 203.523 350.112C204.387 353.836 204.81 357.661 204.874 361.606C202.939 358.685 200.971 355.786 199.099 352.826C198.73 352.244 198.643 351.436 198.581 350.719C198.125 345.519 197.71 340.314 197.257 334.836C198.931 334.255 200.228 336.036 202.138 336.466C202.138 333.516 202.138 330.681 202.138 327.242C199.904 328.68 197.924 329.956 195.839 331.3C194.151 329.866 194.227 328.111 194.629 326.308C196.814 316.505 199.786 306.979 204.484 298.044C205.177 296.726 206.472 295.395 205.17 293.375C203.625 293.485 201.929 293.607 200.233 293.73C200.158 293.543 200.082 293.359 200.005 293.172C200.711 292.617 201.338 291.859 202.138 291.546C204.77 290.514 205.639 288.448 205.979 285.871C206.485 282.036 207.13 278.218 207.739 274.233C206.122 273.897 204.834 273.629 203.136 273.276C203.884 271.259 204.611 269.37 205.288 267.461C207.492 261.253 209.677 255.059 210.764 248.506C211.428 244.501 211.123 240.784 208.801 236.629C209.512 236.175 210.307 235.79 210.956 235.232C213.672 232.902 214.861 229.858 214.297 226.381C213.741 222.964 214.86 220.147 216.626 217.418C218.148 215.069 219.665 212.717 221.246 210.272C220.313 209.381 219.54 208.643 218.715 207.854C218.888 207.567 218.996 207.104 219.258 206.989C223.325 205.221 224.831 202.467 223.987 197.861C223.219 193.658 225.624 190.637 229.568 189.013C231.361 188.276 233.195 187.64 235.275 186.859ZM207.958 370.147C209.28 369.66 210.276 369.291 211.213 368.946C213.255 371.009 210.741 371.691 210.272 372.941C210.367 373.14 210.418 373.47 210.564 373.517C214.618 374.863 214.727 375.064 213.756 379.164C213.004 382.341 212.286 385.526 211.413 389.31C213.511 388.166 215.133 387.283 216.958 386.289C217.291 388.457 216.272 389.874 215.246 391.171C214.198 392.501 214.19 393.719 214.74 395.241C216.455 399.969 217.604 404.751 217.107 409.915C216.895 412.126 217.879 414.449 218.301 416.725C219.074 420.886 219.559 425.006 216.383 428.412C217.216 430.048 218.246 431.457 218.645 433.026C219.025 434.522 218.807 436.186 218.75 437.773C218.555 443.134 218.174 448.493 218.144 453.856C218.125 456.951 216.833 459.221 214.736 461.245C214.146 461.815 213.619 462.449 213.048 463.068C213.432 463.369 213.599 463.615 213.771 463.62C220.676 463.803 224.695 467.902 227.264 473.761C228.236 475.98 228.986 478.363 229.399 480.745C230.14 485.014 231.771 488.916 233.476 492.847C235.119 496.635 236.406 500.575 237.911 504.425C238.206 505.18 238.623 506.164 239.254 506.459C241.77 507.631 242.192 509.949 242.615 512.208C243.737 518.2 244.551 524.255 245.834 530.209C247.142 536.287 248.89 542.268 250.389 548.305C251.172 551.453 253.076 553.732 255.678 555.507C256.988 556.402 258.299 557.315 259.693 558.065C267.256 562.134 269.908 568.993 269.957 576.977C269.99 582.381 270.322 587.696 271.234 593.013C271.531 594.745 272.253 595.839 273.681 596.802C275.79 598.226 277.73 599.897 279.844 601.539C280.723 600.043 281.495 598.728 282.389 597.21C283.11 599.678 282.075 607.145 280.425 611.792C278.276 609.414 276.256 607.178 274.596 605.341C272.417 605.314 270.436 605.816 269.059 605.121C267.719 604.444 266.998 602.541 265.849 600.963C255.798 611.098 244.353 620.095 238.949 634.115C237.68 637.41 235.909 640.509 234.372 643.7C231.918 648.79 228.294 652.874 223.488 655.803C217.279 659.589 213.611 665.112 211.861 672.041C210.428 677.721 209.038 683.411 207.594 689.088C206.728 692.498 205.184 695.413 202.06 697.409C200.884 698.161 199.957 699.462 199.236 700.698C198.898 701.277 199.317 702.299 199.455 703.773C203.421 701.157 206.747 698.964 210.469 696.509C210.116 699.763 209.083 702.307 207.478 704.534C200.477 714.249 193.513 723.996 186.283 733.54C181.18 740.273 174.442 744.659 166.032 746.493C163.228 747.104 160.526 748.472 157.965 749.843C153.836 752.051 149.685 754.033 144.756 754.128C144.028 756.619 142.12 757.284 139.83 757.759C133.147 759.145 127.148 762.089 121.76 766.286C118.17 769.081 114.039 770.207 109.523 770.404C105.633 770.575 101.755 771.078 97.8734 771.443C97.0362 771.522 96.2029 771.644 95.2054 771.767C94.7423 770.709 94.2853 769.734 93.8864 768.738C91.7316 763.342 88.643 758.558 84.7354 754.252C83.5372 752.933 82.4967 751.343 81.827 749.696C79.6862 744.425 76.7564 739.697 73.0153 735.419C71.9304 734.178 71.2107 732.618 70.0723 730.804C71.3967 730.353 72.2408 729.984 73.1221 729.777C95.3536 724.557 117.575 719.271 139.301 712.19C148.924 709.053 158.319 705.219 167.802 701.658C169.169 701.146 170.429 700.357 171.769 699.766C179.762 696.239 185.238 690.576 188.296 682.19C191.971 672.101 196.221 662.213 200.45 652.334C204.403 643.096 209.249 634.34 215.691 626.545C219.371 622.091 223.561 618.197 228.228 614.792C240.196 606.062 251.58 596.646 261.885 585.974C263.326 584.483 264.804 582.988 266.008 581.311C269.173 576.906 268.523 572.471 263.888 569.705C260.9 567.921 257.454 566.826 254.104 565.768C252.491 565.259 251.419 564.542 250.334 563.253C248.795 561.423 246.986 559.684 244.972 558.419C236.536 553.119 236.209 553.256 233.864 543.638C231.415 533.577 229.568 523.37 227.495 513.22C226.932 510.474 226.765 507.596 223.668 506.187C223.15 505.952 222.875 505.036 222.623 504.384C221.134 500.526 219.823 496.596 218.186 492.803C216.441 488.758 214.849 484.724 214.053 480.34C213.195 475.613 211.45 471.145 208.031 467.599C207.061 466.594 206.721 465.669 206.969 464.355C208.313 457.262 207.847 450.257 206.015 443.294C205.717 442.16 205.878 440.891 205.913 439.686C206.098 433.344 206.813 427.057 207.489 420.748C208.031 415.676 208.592 410.558 208.866 405.481C209.384 395.889 209.064 386.247 208.96 376.627C208.937 374.582 208.345 372.544 207.958 370.147ZM469.032 807.878C470.79 812.007 472.315 815.932 474.687 819.505C476.376 814.742 472.742 810.345 474.678 805.295C472.485 806.297 470.86 807.04 469.032 807.878ZM321.948 793.862C319.514 790.929 317.74 788.791 315.82 786.479C314.393 787.149 313.027 787.664 311.804 788.415C311.156 788.813 310.445 789.557 310.3 790.255C309.501 794.125 308.865 798.028 308.174 801.919C308.402 802.047 308.629 802.175 308.859 802.304C310.222 800.968 311.787 799.782 312.906 798.266C314.975 795.46 317.26 793.277 321.948 793.862ZM295.897 645.783C297.964 643.136 299.8 640.874 301.537 638.539C303.289 636.187 305.387 634.064 307.048 630.886C304.326 631.824 302.224 632.55 299.979 633.323C299.381 630.945 298.903 629.047 298.339 626.804C292.096 631.534 295.34 637.278 295.787 642.489C294.799 642.671 294.073 642.804 292.961 643.009C294.057 644.044 294.825 644.771 295.897 645.783ZM395.329 669.522C401.977 669.764 405.46 667.583 407.873 661.839C408.015 661.502 408.088 661.135 408.244 660.807C409.71 657.729 411.472 656.93 414.709 658.067C417.216 658.947 419.663 660.005 422.452 661.109C422.781 658.75 423.187 656.725 423.313 654.682C423.436 652.689 424.06 651.451 426.277 651.344C429.151 651.205 431.212 649.768 432.908 647.398C437.74 640.65 442.776 634.046 447.654 627.33C449.151 625.269 451.015 623.434 453.361 622.997C455.603 622.58 456.681 621.318 457.798 619.762C458.876 618.263 459.92 616.739 460.979 615.226C457.635 615.432 455.278 614.214 453.012 612.668C452.612 612.394 452.17 612.165 451.721 611.982C449.195 610.946 448.037 611.494 447.539 614.147C447.18 616.062 447.047 618.019 446.824 619.96C446.555 622.295 445.33 623.763 442.989 624.244C442.153 624.415 441.326 624.646 440.485 624.793C436.927 625.419 434.128 627.187 432.178 630.25C430.472 632.926 428.902 635.698 427.035 638.256C425.703 640.081 423.98 641.62 422.261 643.471C419.821 641.145 418.092 641.924 416.437 643.906C414.888 645.763 413.087 647.412 411.544 649.273C410.286 650.791 408.912 651.769 406.85 651.512C406.17 651.428 405.472 651.498 404.55 651.498C404.222 653.827 404.133 656.036 403.556 658.107C402.955 660.258 401.416 661.714 398.658 662.311C399.649 659.198 400.501 656.528 401.351 653.858C400.984 653.603 400.615 653.347 400.248 653.091C399.842 653.791 399.458 654.504 399.028 655.188C397.528 657.563 396.17 660.047 394.46 662.259C392.838 664.357 392.856 666.178 394.44 668.158C394.739 668.532 394.969 668.963 395.329 669.522Z" fill="#EBEBEB"/>
</g>
</svg>
