<svg width="968" height="1419" viewBox="0 0 968 1419" fill="none" xmlns="http://www.w3.org/2000/svg">
<g opacity="0.75">
<path d="M561.505 1126.62C559.761 1127.61 558.162 1127.45 556.325 1126.68C549.817 1123.94 544.686 1119.59 540.731 1113.78C536.186 1107.1 533.635 1099.61 531.721 1091.85C531.49 1090.91 531.219 1089.98 530.957 1089C528.948 1089.02 529.087 1090.34 529.107 1091.51C529.176 1095.27 529.191 1099.03 529.383 1102.78C530.141 1117.58 528.572 1132.09 524.169 1146.29C522.929 1150.28 522.093 1154.41 521.239 1158.52C520.659 1161.3 520.372 1164.15 520.402 1167.27C523.058 1164.55 525.713 1161.83 528.58 1158.9C531.367 1161.82 534.137 1164.37 536.482 1167.26C542.009 1174.07 542.63 1181.46 538.323 1189.14C537.036 1191.43 535.447 1193.56 533.788 1196.07C535.664 1196.41 537.424 1196.73 539.398 1197.09C541.867 1204.58 544.345 1212.1 546.958 1220.04C544.727 1220.24 542.728 1220.42 540.437 1220.63C540.437 1218.67 540.437 1216.97 540.437 1215.01C536.686 1218.53 537.306 1221.02 543.271 1227.14C544.587 1226.15 545.946 1225.13 547.376 1224.06C548.528 1225.07 548.142 1226.37 548.256 1227.48C549.007 1234.84 549.427 1242.25 551.569 1249.38C552.484 1252.43 553.439 1255.6 555.115 1258.25C558.703 1263.92 560.381 1270.13 561.505 1276.59V1126.62ZM561.505 1293.83L552.259 1281.12C552.06 1281.18 551.861 1281.24 551.663 1281.3C551.663 1283.55 551.538 1285.81 551.69 1288.06C551.974 1292.23 551.203 1296.12 549.508 1299.97C548.458 1302.35 547.86 1304.98 547.428 1307.57C547.04 1309.89 547.592 1312.22 549 1314.19C550.494 1316.28 550.96 1318.58 550.865 1321.47C547.54 1321.86 544.22 1322 540.923 1321.03C538.929 1320.44 537.82 1318.88 537.312 1317.01C536.652 1314.57 536.251 1312.06 535.71 1309.58C535.193 1307.22 534.672 1304.85 534.09 1302.49C533.482 1300.04 532.015 1298.42 528.99 1297.89C529.067 1299.54 529.089 1301.13 529.225 1302.7C529.768 1309.08 530.348 1315.45 530.911 1321.83C530.969 1322.49 531.129 1323.18 531.001 1323.81C530.841 1324.58 530.619 1325.69 530.079 1325.96C529.482 1326.25 528.387 1325.95 527.702 1325.56C525.193 1324.14 523.555 1322.08 522.944 1319.14C521.756 1313.42 520.412 1307.72 519.109 1302.02C518.372 1298.8 517.66 1295.56 516.797 1292.37C516.4 1290.89 516.372 1289.57 517.121 1288.22C518.232 1286.23 518.544 1284.1 518.368 1281.83C518.249 1280.29 518.328 1278.74 518.34 1277.19C518.359 1274.64 519.117 1272.36 521.161 1270.74C522.156 1269.95 522.41 1269.07 522.402 1267.89C522.365 1262.58 522.401 1257.28 522.369 1251.98C522.365 1251.23 522.351 1250.33 521.965 1249.76C519.919 1246.72 519.226 1243.24 518.726 1239.76C518.133 1235.62 517.437 1231.45 518.307 1227.24C518.397 1226.81 518.299 1226.27 518.521 1225.94C520.208 1223.45 519.143 1221.17 518.1 1218.84C517.043 1216.49 516.666 1214.09 517.023 1211.44C517.36 1208.95 517.127 1206.37 517.028 1203.84C516.877 1199.99 517.281 1196.41 520.027 1193.31C520.805 1192.43 520.652 1190.73 520.881 1189.62C520.336 1189.17 520.188 1188.97 519.995 1188.9C517.937 1188.11 517.292 1186.73 517.636 1184.5C518.391 1179.61 518.9 1174.67 519.277 1169.62C516.97 1172.73 514.95 1175.98 513.769 1179.75C512.319 1184.38 510.908 1189.04 509.126 1193.54C506.542 1200.08 502.72 1205.86 497.695 1210.83C496.907 1211.61 496.358 1212.63 495.354 1214.01C497.907 1214.01 499.749 1214.01 501.653 1214.01C502.901 1215.83 504.104 1217.53 505.242 1219.26C508.169 1223.74 507.731 1225.93 503.111 1229.41C502.116 1229 501.011 1228.54 499.907 1228.08C498.809 1227.63 497.709 1227.18 496.297 1227.05C496.781 1227.66 497.244 1228.29 497.754 1228.88C503.42 1235.38 505.329 1242.79 502.668 1251.06C501.39 1255.03 499.474 1258.79 497.906 1262.67C497.193 1264.43 496.07 1265.34 494.105 1265.04C493.698 1264.98 493.255 1265.16 492.602 1265.26C492.671 1271.02 492.38 1276.69 494.831 1282.16C498.327 1289.96 498.683 1298.28 497.539 1306.56C495.804 1319.13 493.491 1331.62 491.687 1344.18C490.325 1353.67 489.373 1363.22 488.209 1373C489.48 1373.09 490.44 1373.21 491.401 1373.22C514.773 1373.45 538.141 1373.49 561.505 1373.02V1293.83ZM549.333 534.914C552.019 538.929 553.105 539.199 556.594 536.797C558.075 535.778 559.474 534.643 561.505 533.104V532.966L552.256 531.111C553.536 533.131 554.462 534.592 555.597 536.388C553.022 537.692 551.622 535.124 549.333 534.914ZM511.989 1024.12C511.211 1023.77 510.546 1023.47 509.445 1022.98C507.99 1028.9 506.597 1034.56 505.068 1040.78C507.114 1039.05 509.533 1032.95 511.989 1024.12ZM480.625 1372.97C480.625 1367.93 480.638 1363.35 480.582 1358.78C480.579 1358.55 479.955 1358.33 479.137 1357.78C477.749 1362.8 476.456 1367.48 475.019 1372.67C477.007 1372.78 478.678 1372.87 480.625 1372.97ZM558.492 119.408C559.643 119.609 560.64 119.754 561.505 119.829V110.487H559.61C559.241 113.425 558.881 116.295 558.492 119.408ZM521.016 1189.01C522.913 1190.17 524.196 1189.88 525.306 1188.38C526.811 1186.34 528.538 1184.46 529.89 1182.33C531.481 1179.82 530.397 1177.64 527.568 1176.75C525.806 1176.2 524.84 1177.1 523.963 1178.3C521.642 1181.47 521.139 1185.14 521.016 1189.01ZM544.63 1302.27C544.857 1301.94 545.26 1301.63 545.283 1301.28C545.844 1292.95 546.363 1284.61 546.888 1276.27C546.67 1276.19 546.454 1276.12 546.236 1276.04C545.835 1276.85 545.293 1277.62 545.072 1278.48C544.828 1279.42 544.855 1280.44 544.804 1281.43C544.658 1284.23 543.674 1286.37 540.6 1286.93C540.305 1286.99 540.041 1287.21 539.558 1287.46C540.956 1292.42 542.343 1297.35 543.731 1302.27C544.03 1302.27 544.331 1302.27 544.63 1302.27ZM521.48 521.021C522.726 523.144 523.952 524.706 524.612 526.478C525.632 529.221 527.044 531.162 530.374 530.912C530.929 532.304 531.451 533.616 532.182 535.458C533.41 533.496 534.467 531.808 535.779 529.709C536.62 531.65 537.288 533.189 538.125 535.124C539.234 531.246 542.197 530.923 545.227 530.8C546.974 530.728 548.727 530.787 551.14 530.787C547.808 527.228 544.582 524.642 540.215 523.926C539.506 523.81 538.566 524.362 537.905 524.843C536.145 526.123 534.48 527.533 532.559 528.714C533.074 525.852 535.246 523.861 536.262 521.296C533.758 520.524 523.215 519.688 521.994 520.237C521.672 520.382 521.532 520.936 521.48 521.021ZM538.338 496.699C539.289 497.743 540.033 498.547 540.762 499.363C542.967 501.834 545.148 504.327 547.374 506.779C549.939 509.601 552.669 512.069 556.851 512.143C558.446 512.172 560.001 512.077 561.505 511.833V466.696L558.874 465.282C559.744 463.837 560.525 462.321 561.505 460.958V429.707C560.519 429.772 559.533 429.834 558.546 429.89C552.375 430.235 546.503 428.698 540.694 426.915C528.33 423.12 515.569 421.203 502.909 418.801C502.823 418.784 502.713 418.89 502.381 419.055C502.273 420.961 502.157 423.004 502.025 425.317C500.167 425.476 498.44 425.613 496.715 425.773C492.696 426.146 491.269 428.015 492.073 431.995C492.683 435.004 494.196 437.535 496.668 439.64C493.902 444.092 491.172 448.487 488.443 452.885C488.152 453.353 487.865 453.824 487.581 454.298C485.26 458.177 485.433 458.959 489.171 461.391C489.632 461.692 490.142 461.919 490.602 462.221C494.083 464.521 497.393 465.159 500.316 461.321C500.555 461.009 501.009 460.86 501.837 460.335C501.837 465.348 501.837 469.982 501.837 475.262C503.767 473.871 505.129 472.888 506.814 471.674C507.461 472.753 508.125 473.594 508.502 474.548C509.231 476.394 510.046 478.259 510.376 480.193C510.974 483.689 512.971 485.545 516.288 486.342C517.327 486.592 518.286 487.179 519.557 487.73C517.003 493.014 514.538 498.116 511.83 503.72C513.263 503.251 514.175 502.979 515.068 502.659C519.265 501.158 522.874 501.971 525.826 505.376C526.333 505.958 526.906 506.517 527.269 507.183C529.16 510.674 532.45 512.019 536.319 513.266C535.557 509.978 535.065 506.931 534.113 504.037C533.289 501.533 533.699 499.807 535.986 498.491C536.736 498.058 537.379 497.439 538.338 496.699ZM334.479 642.286C332.601 642.594 331.252 642.815 329.964 643.026C328.635 640.812 331.301 640.745 331.477 639.353C329.557 637.712 330.301 635.513 330.261 633.215C331.214 633.105 332.011 633.012 333.012 632.896C333.503 636.035 333.955 638.928 334.479 642.286ZM335.062 341.202C334.861 341.021 334.66 340.84 334.46 340.659C334.46 336.012 334.46 331.362 334.46 326.691C335.394 326.691 336.103 326.691 337.212 326.691C336.918 331.225 336.671 335.565 336.3 339.895C336.26 340.362 335.492 340.768 335.062 341.202ZM446.264 869.586C447.774 868.894 448.601 869.095 448.852 870.629C449.118 872.251 449.487 873.859 449.769 875.479C450.407 879.168 450.191 879.498 446.264 880.859C446.264 877.111 446.264 873.413 446.264 869.586ZM388.806 447.979C392.77 450.696 396.168 453.024 399.758 455.484C394.042 458.139 390.557 455.825 388.806 447.979ZM273.373 414.067C271.515 417.693 269.84 420.963 268.16 424.24C266.056 423.063 265.674 421.86 266.284 419.215C267.023 416.005 269.14 414.367 273.373 414.067ZM555.374 862.119C556.724 857.342 557.966 852.944 559.244 848.422C560.125 848.668 560.756 848.846 561.505 849.056V827.092L556.865 832.737C558.178 834.743 559.435 836.663 560.795 838.742C558.704 840.497 556.691 842.189 554.339 844.166C550.865 840.069 547.484 836.079 543.951 831.915C542.44 838.768 542.298 838.898 535.699 841.04C534.236 841.515 532.826 842.15 531.122 842.818C529.641 838.011 528.166 833.223 526.588 828.104C524.733 829.51 523.186 830.684 521.541 831.931C520.823 831.278 520.184 830.698 519.547 830.115C517.087 827.865 516.262 828.002 514.565 830.995C513.971 832.045 513.443 833.131 512.585 834.776C510.687 830.969 509.897 827.219 508.113 823.243C506.263 828.012 505.381 832.573 503.953 837.092C507.937 840.769 509.951 845.121 508.424 850.873C506.121 849.973 505.817 847.483 503.991 846.295C501.522 848.254 499.213 851.23 495.173 848.257C496.504 847.165 497.738 846.135 498.991 845.128C500.146 844.2 501.321 843.297 502.861 842.088C495.982 841.813 492.043 844.689 491.379 850.57C490.89 854.895 488.598 858.104 485.999 861.782C485.19 860.173 484.524 858.852 483.621 857.056C481.582 860.695 479.702 864.05 477.433 868.101C476.956 866.348 476.689 865.372 476.389 864.268C475.374 864.659 474.369 865.044 473.068 865.544C472.926 860.844 476.927 858.595 478.959 854.647C472.175 857.132 465.911 859.426 459.384 861.818C459.761 864.111 460.114 866.26 460.469 868.409C460.595 869.17 460.879 869.946 460.81 870.691C460.738 871.487 460.544 872.675 460.026 872.932C459.297 873.293 458.059 873.247 457.329 872.847C455.804 872.01 454.468 870.825 452.937 869.697C453.436 864.362 453.934 858.983 454.442 853.606C454.671 851.187 454.94 848.773 455.152 846.353C455.281 844.901 455.248 844.898 453.299 843.326C447.168 848.889 440.987 854.495 434.808 860.101C434.63 860.005 434.451 859.909 434.273 859.813C434.459 859.205 434.525 858.521 434.853 858.001C437.09 854.451 439.386 850.94 441.649 847.406C442.222 846.51 442.733 845.576 442.837 844.169C442.285 844.501 441.639 844.739 441.194 845.179C437.356 848.993 433.556 852.847 429.736 856.68C428.978 857.44 428.183 858.162 427.094 859.198C426.197 855.817 425.41 852.857 424.512 849.476C422.12 849.755 419.778 850.029 417.459 850.299C417.306 852.639 419.68 854.313 418.544 857.17C415.923 855.697 413.429 854.378 411.049 852.878C410.637 852.618 410.708 851.592 410.555 850.918C405.312 850.95 405.312 850.95 404.452 845.701C402.26 848.219 400.292 850.48 397.877 853.255C396.589 848.018 394.454 843.536 394.668 838.511C394.775 835.999 395.819 833.701 397.697 832.063C399.927 830.119 400.59 827.752 400.497 824.976C400.451 823.552 400.489 822.125 400.489 820.712C397.087 820.396 395.574 821.501 395.233 824.52C395.121 825.506 395.196 826.513 395.084 827.498C394.917 828.967 394.485 830.311 392.514 831.017C391.184 828.739 389.824 826.414 388.393 823.962C391.007 821.051 393.505 818.269 396.104 815.374C395.522 814.725 395.043 814.191 394.318 813.381C390.248 818.663 384.607 818.983 378.947 819.167C378.572 816.312 378.233 813.749 377.898 811.213C374.602 810.395 371.455 811.855 367.951 810.327C371.012 807.589 373.68 805.202 376.555 802.63C374.639 800.102 372.71 797.699 370.954 795.176C370.169 794.046 369.53 792.725 369.179 791.397C368.304 788.077 366.319 785.974 362.994 785.201C360.956 784.728 358.883 784.4 356.833 783.974C355.996 783.799 355.178 783.539 354.052 783.237C354.505 781.247 354.835 779.427 355.344 777.656C356.032 775.259 357.729 773.702 360.203 774.014C363.684 774.455 365.796 772.65 368.049 770.147C365.803 767.162 363.24 770.402 360.688 769.592C362.298 767.016 363.879 764.481 365.748 761.491C362.58 761.131 359.799 760.819 357.019 760.497C354.282 760.18 351.547 759.854 348.389 759.482C346.563 763.225 344.694 767.052 342.809 770.918C340.35 768.523 339.965 767.119 341.212 764.262C342.088 762.251 343.183 760.335 344.439 757.868C340.861 757.548 337.567 757.252 333.782 756.914C337.324 749.935 343.506 751.318 348.777 750.71C353.795 755.853 359.68 757.21 366.611 756.161C366.508 755.207 366.449 754.581 366.373 753.957C366.293 753.302 366.195 752.649 366.109 752.022C367.087 750.414 368.315 750.899 369.557 751.501C373.13 753.23 376.729 754.911 380.266 756.714C382.352 757.777 384.145 757.925 386.454 756.859C389.73 755.346 393.341 754.558 396.807 753.457C397.953 753.094 399.094 752.718 400.235 752.349C400.641 750.684 400.184 749.852 398.495 750.011C396.299 750.217 394.106 750.479 391.909 750.674C390.713 750.779 389.508 750.794 388.141 750.858C385.978 745.365 388.047 741.192 392.509 737.227C388.088 736.066 384.671 733.581 380.059 733.89C375.935 727.868 371.637 721.594 367.296 715.256C367.753 714.531 368.24 713.924 368.551 713.236C370.71 708.477 374.607 706.859 379.545 707.011C381.419 707.068 383.339 706.769 385.162 707.079C387.296 707.442 389.628 707.866 391.377 709.018C395.757 711.905 400.431 712.604 405.316 711.435C415.205 709.071 425.191 708.466 435.235 709.641C439.686 710.162 444.123 711.255 448.418 712.573C454.211 714.351 459.867 716.543 465.902 717.483C467.283 717.699 468.709 718.24 469.896 718.981C473.837 721.438 478.132 722.086 482.613 721.644C484.518 721.457 485.991 721.987 487.521 723.018C491.915 725.976 496.358 728.864 500.842 731.683C502.704 732.853 504.669 733.89 506.675 734.791C510.183 736.367 513.649 735.085 515.491 731.642C515.669 731.309 515.571 730.825 515.618 730.178C519.071 731.126 522.408 732.042 526.278 733.106C524.91 730.044 521.909 729.386 520.343 726.603C522.558 726.747 524.34 727.056 526.087 726.918C527.8 726.784 529.479 726.196 531.981 725.62C530.177 728.219 528.781 730.227 527.226 732.469C530.169 733.172 532.44 732.676 534.531 730.685C536.833 728.49 539.204 726.312 541.798 724.489C545.921 721.592 546.146 721.215 543.511 716.297C545.769 717.267 547.239 718.237 548.086 720.144C549.712 723.799 550.357 723.973 554.171 721.936C552.822 720.218 551.489 718.518 550.179 716.848C551.732 714.478 553.221 716.815 554.657 716.595C553.756 714.156 552.244 713.092 549.632 713.22C548.648 713.268 547.604 713.369 546.712 713.745C542.79 715.401 538.691 714.931 534.627 714.923C531.379 714.917 528.648 713.513 526.142 711.626C525.513 711.151 525.138 710.339 524.57 709.581C522.057 711.168 519.559 712.746 517.153 714.264C514.804 712.76 517.094 711.713 517.211 709.959C512.269 704.186 507.062 698.106 501.782 691.939C499.013 696.715 499.07 697.024 502.853 699.042C499.96 702.107 498.103 702.174 495.874 698.846C493.73 695.646 491.951 692.199 490.039 688.844C489.229 687.42 488.493 685.952 487.556 684.189C485.22 686.222 483.087 688.082 480.749 690.119C480.02 689.33 479.326 688.671 478.739 687.928C475.798 684.199 472.898 680.438 469.948 676.716C469.389 676.01 468.869 674.809 467.456 676.137C468.588 678.937 469.755 681.825 471.047 685.022C467.699 685.322 466.44 681.917 463.366 681.941C463.613 685.026 466.094 686.989 466.771 689.956C464.114 691.402 461.431 692.863 458.62 694.395C455.818 692.96 453.916 690.676 452.839 687.865C451.54 684.475 450.605 680.946 449.523 677.476C448.684 674.786 447.861 672.092 447.03 669.4C446.783 669.437 446.536 669.473 446.288 669.51C445.813 675.694 445.339 681.879 444.853 688.2C443.9 688.268 443.175 688.319 442.285 688.383C439.838 682.163 435.964 676.65 434.803 669.979C434.325 667.23 432.429 666.131 429.511 666.406C428.828 663.914 428.195 661.609 427.564 659.302C427.408 659.269 427.25 659.236 427.093 659.202C426.83 660.353 426.563 661.504 426.31 662.659C426.03 663.943 425.765 665.23 425.402 666.951C424.985 666.125 424.65 665.686 424.534 665.196C423.442 660.577 422.323 655.963 421.377 651.315C421.178 650.338 421.482 649.151 421.864 648.185C422.632 646.248 423.613 644.396 424.741 642.01C423.607 642.309 422.918 642.403 422.298 642.665C416.787 644.999 411.272 644.919 405.971 642.245C401.646 640.064 397.487 637.539 393.341 635.024C392.641 634.6 392.098 633.501 391.97 632.642C391.75 631.138 391.91 629.58 391.91 627.757C390.161 627.606 388.675 627.476 386.978 627.33C386.806 626.522 386.679 625.678 386.44 624.869C385.915 623.091 385.142 621.672 382.922 621.479C381.932 621.394 380.897 620.701 380.076 620.042C377.648 618.096 375.066 616.567 372.111 615.456C365.659 613.032 363.263 607.103 365.866 600.627C366.812 598.275 368.06 596.036 368.886 593.648C370.572 588.779 369.323 585.01 365.248 581.988C365.003 581.804 364.656 581.759 364.074 581.546C362.347 585.242 360.56 588.893 358.938 592.616C358.263 594.166 357.378 594.92 355.73 595.642C353.176 596.762 350.888 598.674 348.777 600.57C346.485 602.628 344.478 605.013 342.431 607.329C340.522 609.488 338.215 610.432 334.879 609.996C336.783 607.035 338.573 604.25 340.365 601.462C340.236 601.305 340.108 601.148 339.981 600.99C337.391 602.047 334.803 603.102 331.705 604.367C332.195 603.001 332.533 602.062 332.923 600.971C329.502 597.414 326.071 593.849 322.475 590.113C325.295 586.498 328.031 582.989 330.767 579.481C330.645 579.314 330.523 579.146 330.401 578.978C327.617 580.397 324.833 581.815 321.399 583.565C322.456 577.97 323.387 573.048 324.444 567.458C322.15 568.726 320.402 569.772 318.579 570.661C317.872 571.007 316.993 570.998 316.194 571.15C316.154 570.348 315.89 569.476 316.113 568.755C317.351 564.75 318.71 560.782 320.017 556.797C320.148 556.395 320.203 555.969 320.336 555.357C318.654 554.449 317.041 553.521 315.375 552.699C314.31 552.173 313.624 551.538 313.508 550.247C312.998 544.556 312.009 538.975 313.046 533.135C313.846 528.62 315.101 524.665 318.281 521.358C318.952 520.661 319.439 519.785 319.98 519.032C319.367 517.842 318.687 517.625 317.958 518.675C317.087 519.93 316.303 521.246 315.084 523.159C313.801 518.443 312.691 514.363 311.418 509.687C315.304 511.305 317.357 509.635 319.152 506.86C320.8 504.314 321.465 504.373 323.945 506.101C327.771 508.766 329.614 512.45 329.58 517.158C330.742 517.635 331.557 517.646 331.756 516.2C332.145 513.356 332.526 510.511 332.923 507.668C333.073 506.606 333.256 505.549 333.432 504.435C343.33 508.368 348.407 506.697 353.459 498.05C344.407 491.947 339.96 482.468 342.133 473.606C344.499 473.968 346.392 474.805 347.517 477.204C349.622 481.693 353.29 484.151 358.219 484.353C362.291 484.52 366.409 484.628 370.449 484.208C376.973 483.527 381.201 474.925 378.507 468.441C377.539 466.112 376.722 463.719 375.876 461.339C375.739 460.956 375.814 460.499 375.774 459.759C376.669 460.036 377.379 460.17 378.012 460.467C382.304 462.48 386.575 464.534 390.861 466.56C392.986 467.565 393.943 469.254 394.017 471.572C394.171 476.348 393.515 480.817 389.857 484.372C388.93 485.273 388.276 486.454 387.16 487.958C389.108 488.351 390.64 488.704 392.187 488.96C393.381 489.158 394.609 489.164 395.798 489.382C399.647 490.09 400.612 491.579 399.776 495.424C399.172 498.196 398.544 500.961 397.835 504.145C396.561 503.989 395.001 503.797 392.959 503.547C394.187 500.405 395.285 497.596 396.554 494.348C394.797 494.719 393.848 495.772 392.768 496.52C389.209 498.981 388.504 498.957 385.318 496.097C384.835 495.663 384.337 495.247 383.585 494.598C380.879 498.655 378.273 502.566 375.364 506.931C374.968 505.722 374.723 504.961 374.468 504.203C373.306 500.758 371.492 499.637 367.916 500.264C366.618 500.492 365.356 500.928 364.071 501.242C361.608 501.843 359.243 501.912 357.164 499.617C355.648 501.652 354.23 503.551 352.681 505.627C355.319 507.175 357.765 507.169 360.209 506.287C362.175 505.578 364.034 504.581 365.984 503.824C367.374 503.286 368.837 502.932 370.447 502.442C370.744 505.03 370.993 507.19 371.285 509.744C376.538 507.801 381.176 505.177 386.58 503.149C386.022 506.588 381.898 506.66 382.088 510.246C385.975 509.705 389.737 509.183 394.271 508.552C393.317 510.048 392.723 511.011 392.1 511.955C389.843 515.381 387.799 518.925 386.806 522.941C386.059 525.96 385.721 529.028 386.457 532.13C386.7 533.156 386.782 534.221 387.003 535.697C385.27 534.408 383.884 533.375 382.284 532.185C378.043 537.212 373.886 542.137 369.485 547.354C371.183 547.888 372.399 548.269 373.897 548.74C373.671 549.537 373.542 550.263 373.264 550.927C372.18 553.524 371.763 556.217 371.906 559.022C371.958 560.011 371.879 561.01 371.825 562.001C371.639 565.412 370.206 568.148 367.153 570.109C367.9 570.29 368.412 570.414 369.172 570.599C368.386 573.982 367.6 577.356 366.808 580.765C371.744 580.958 374.653 578.988 376.178 574.991C378.101 569.949 380.095 564.922 382.341 560.018C384.509 555.285 386.484 550.552 387.516 545.399C388.094 542.516 389.116 539.612 390.503 537.02C395.943 526.855 399.868 516.081 403.822 505.301C404.606 503.164 405.861 501.181 407.045 499.216C410.238 493.923 413.579 488.72 416.727 483.4C419.245 479.146 420.044 474.308 420.997 469.543C421.341 467.811 421.674 466.075 421.942 464.33C422.35 461.655 423.194 459.308 425.341 457.396C427.416 455.549 427.998 452.892 426.819 450.406C425.815 448.285 426.165 446.631 427.241 444.833C427.689 444.083 428.03 443.269 428.542 442.236C426.806 440.29 425.065 438.34 422.933 435.95C424.562 435.656 425.778 435.424 426.998 435.219C428.163 435.021 429.332 434.851 430.73 434.631C430.262 433.275 429.946 432.245 429.554 431.244C428.107 427.543 426.349 423.935 425.257 420.133C424.262 416.664 422.08 415.675 418.904 415.656C416.809 415.642 414.714 415.538 412.619 415.453C409.457 415.322 406.826 414.067 404.95 411.499C403.266 409.195 401.335 408.517 398.384 409.01C396.009 409.408 393.366 408.768 390.95 408.159C388.84 407.627 386.894 406.462 384.85 405.638C382.809 404.816 380.795 403.771 378.665 403.364C375.161 402.694 372.116 401.213 369.649 398.781C363.745 392.965 356.643 391.9 348.822 392.86C339.844 393.963 330.843 394.879 321.845 395.804C320.736 395.918 319.584 395.585 318.502 395.463C318.277 393.241 319.522 392.215 320.576 391.125C321.418 390.254 322.378 389.497 323.252 388.654C324.669 387.29 325.148 385.846 324.088 383.918C323.631 383.087 323.669 381.822 323.858 380.824C324.387 378.013 325.143 375.245 325.748 372.447C326.401 369.416 327.644 368.314 330.713 368.195C331.042 368.181 331.375 368.208 331.706 368.202C335.524 368.144 336.17 367.637 337.212 363.752C338.872 363.186 340.625 362.588 342.48 361.955C343.086 358.557 343.685 355.204 344.396 351.219C346.469 353.75 348.247 355.921 350.026 358.091C350.235 357.966 350.447 357.841 350.658 357.715C350.582 357.144 350.625 356.526 350.412 356.013C349.231 353.157 347.921 350.353 346.809 347.474C346.492 346.658 346.293 345.355 346.717 344.767C350.256 339.859 350.705 334.361 350.167 328.618C350.115 328.08 350.16 327.533 350.16 326.639C352.741 327.802 353.864 330.512 356.626 331.784C356.626 328.939 356.666 326.449 356.61 323.961C356.579 322.645 355.791 321.997 354.466 321.962C353.148 321.928 351.831 321.845 349.98 321.758C350.552 320.16 351.04 318.793 351.554 317.358C352.374 317.591 353 317.732 353.602 317.947C355.94 318.786 357.696 317.968 359.044 316.037C359.549 315.315 359.995 314.548 360.442 313.787C361.629 311.767 362.842 309.783 365.408 309.699C365.688 308.206 365.117 307.806 363.999 307.889C362.128 308.027 360.255 308.141 358.383 308.262C356.977 308.353 355.572 308.438 353.859 308.546C354.004 306.857 354.12 305.491 354.251 303.951C356.126 304.184 357.714 304.381 359.708 304.628C358.697 301.879 357.81 299.476 356.782 296.688C360.778 297.768 363.927 300.097 367.607 300.671C367.78 300.418 367.952 300.165 368.123 299.912C367.414 299.033 366.804 298.044 365.977 297.292C363.487 295.029 363.046 292.5 363.889 289.217C364.727 285.952 364.76 282.481 365.182 278.777C365.852 278.482 366.816 277.955 367.843 277.623C371.399 276.477 373.895 274.159 375.727 270.95C378.353 266.347 381.082 261.804 383.776 257.239C384.103 256.685 384.487 256.166 385.145 255.181C385.753 257.45 386.238 259.262 386.89 261.694C388.245 259.309 388.143 257.434 387.514 255.714C385.884 251.264 384.142 246.849 382.254 242.501C381.752 241.346 380.504 240.533 379.698 239.487C377.608 236.776 377.696 234.798 380.279 232.563C381.848 231.207 383.704 230.173 385.473 229.055C386.763 228.237 388.118 227.523 389.678 226.63C388.367 223.558 387.124 220.648 385.784 217.506C387.676 216.238 389.491 215.025 391.303 213.809C393.033 212.644 394.758 211.475 396.582 210.242C396.331 208.784 396.097 207.424 395.798 205.686C397.686 206.216 399.219 206.649 401.128 207.186C402.5 204.956 404.083 202.823 405.214 200.472C410.921 188.621 418.302 177.927 427.583 168.643C440.923 155.299 456.64 145.749 474.641 140.002C476.153 139.519 477.553 138.692 479.075 137.993C480.147 137.935 481.451 138.077 482.634 137.762C485.93 136.884 489.185 135.849 492.436 134.813C495.166 133.943 497.858 132.949 500.588 132.076C503.398 131.178 506.126 130.426 508.51 128.312C510.201 126.814 512.825 125.85 515.119 125.65C522.453 125.013 529.432 123.078 536.318 120.678C538.589 119.885 540.759 119.694 543.076 120.479C544.158 120.846 545.387 120.78 546.832 120.94C546.462 117.892 545.58 115.417 544.02 113.315C540.955 109.185 535.546 109.889 533.386 114.582C533.158 115.078 532.968 115.589 532.765 116.084C530.614 115.501 528.564 114.657 526.449 114.433C521.923 113.953 517.674 115.046 513.866 117.596C511.756 119.009 509.652 120.44 507.65 121.998C505.158 123.94 502.447 124.176 499.506 123.463C497.364 122.945 495.212 122.469 493.053 122.02C488.039 120.977 483.853 122.303 480.836 126.564C479.993 127.752 479.029 128.398 477.598 128.51C476.645 128.583 475.706 128.818 474.219 129.073C475.716 130.062 476.779 130.764 478.38 131.821C477.134 131.997 476.467 132.152 475.796 132.177C470.281 132.379 465.093 133.689 460.515 136.874C459.124 137.842 457.779 138.125 456.164 137.649C454.588 137.183 452.969 136.864 451.121 136.421C451.121 138.523 451.121 140.432 451.121 142.477C448.965 142.477 447.02 142.477 444.979 142.477C444.744 142.922 444.482 143.399 444.238 143.885C442.707 146.914 441.225 147.846 437.85 147.147C435.111 146.581 432.779 147.212 430.666 148.744C419.407 156.905 408.165 165.09 396.978 173.35C394.456 175.212 392.509 177.553 392.198 180.958C392.012 182.987 390.643 184.331 388.755 185.058C384.851 186.562 381.694 189.009 379.019 192.228C377.689 193.826 375.957 195.087 374.422 196.517C372.196 198.592 370.436 200.943 370.009 204.08C369.71 206.268 368.359 207.702 366.422 208.494C361.5 210.502 358.005 214.148 355.178 218.435C352.266 222.854 349.5 227.383 346.934 232.01C343.982 237.334 340.9 242.538 337.044 247.272C333.821 251.228 331.411 255.659 329.291 260.323C325.225 269.263 320.82 278.049 316.556 286.897C312.088 296.162 308.466 305.717 305.71 315.659C304.218 321.04 301.634 326.123 299.449 331.301C298.3 334.024 296.947 336.662 295.508 339.72C296.994 339.72 298.013 339.72 299.739 339.72C298.421 340.868 297.615 341.554 296.826 342.26C295.512 343.435 294.082 344.511 292.928 345.829C290.75 348.311 289.875 351.251 291.02 354.449C291.966 357.087 291.525 359.041 289.278 360.846C286.375 363.178 284.516 366.36 283.275 369.835C281.421 375.027 279.712 380.271 277.963 385.5C277.767 386.088 277.717 386.726 277.481 387.954C279.62 386.377 281.242 385.181 282.862 383.985C283.03 384.116 283.197 384.247 283.364 384.378C283.244 384.945 283.279 385.616 282.981 386.063C276.176 396.246 270.975 407.446 263.308 417.088C260.498 420.621 258.867 424.522 259.137 429.303C259.316 432.438 258.482 435.655 257.908 438.801C257.376 441.711 255.531 443.964 253.768 446.252C251.218 449.566 248.779 452.965 246.165 456.501C247.671 457.586 248.891 458.465 250.267 459.455C248.989 462.083 246.275 463.452 244.526 466.123C245.09 466.188 245.44 466.231 245.792 466.268C248.253 466.532 248.878 467.068 249.265 469.386C249.39 470.144 249.404 470.927 249.41 471.699C249.425 473.414 249.908 474.779 252.111 475.073C250.365 477.841 248.909 480.484 249.253 483.751C249.621 487.251 251.836 489.188 255.051 490.734C254.434 492.701 253.988 494.622 253.24 496.417C250.524 502.938 247.701 509.413 244.93 515.911C244.109 517.836 243.436 519.799 243.643 522.136C245.277 522.282 246.78 522.418 248.235 522.547C250.708 529.729 248.761 538.287 240.948 539.168C241.802 537.636 242.574 536.253 243.466 534.649C240.714 533.64 240.522 531.401 240.92 528.488C239.233 529.95 238.921 531.532 238.81 533.04C237.839 546.044 237.029 559.06 237.622 572.103C237.721 574.251 238.545 576.408 239.268 578.478C241.922 586.078 244.677 593.642 247.395 601.219C247.574 601.722 247.763 602.224 247.991 602.844C248.693 602.698 249.282 602.577 249.868 602.457C249.926 602.704 250.065 602.94 250.012 603.116C249.505 604.743 249.53 606.309 250.042 607.975C250.852 610.607 251.352 613.333 252.129 615.978C253.084 619.227 254.73 622.115 257.52 624.125C263.205 628.225 265.344 634.252 265.805 640.735C266.063 644.374 266.672 647.624 268.423 650.762C269.711 653.071 270.635 655.599 272.065 657.809C273.177 659.529 274.574 661.322 276.284 662.337C278.767 663.808 280.172 665.828 281.126 668.368C281.514 669.402 281.853 670.458 282.318 671.455C283.776 674.592 285.552 675.477 288.957 674.843C289.588 674.726 290.216 674.6 290.892 674.47C291.666 676.144 290.45 676.722 289.577 677.459C288.674 678.22 287.775 678.986 286.664 679.93C288.08 680.776 289.187 681.438 290.714 682.349C287.822 683.996 285.204 685.486 282.634 686.949C284.706 692.768 284.136 694.133 278.619 697.024C277.864 697.421 277.105 697.81 276.38 698.736C277.178 698.788 277.976 698.846 278.775 698.892C282.958 699.133 285.987 701.168 287.247 705.141C288.122 707.903 289.799 709.344 292.414 710.145C295.048 710.951 297.59 712.08 300.249 712.776C302.385 713.336 303.76 714.399 304.386 716.525C304.625 717.333 305.123 718.065 305.771 719.374C307.079 717.146 308.16 715.308 309.398 713.199C310.782 715.151 311.468 717.025 311.21 719.143C310.428 725.592 312.328 731.372 315.515 736.838C317.073 739.507 318.68 742.15 320.3 744.782C321.255 746.334 321.712 747.819 321.214 749.758C320.484 752.602 320.879 755.552 322.184 758.172C325.943 765.709 326.551 774.091 328.732 782.048C329.991 786.642 329.403 791.249 326.75 795.581C327.835 796.208 328.761 796.744 330.031 797.478C329.252 802.696 328.671 808.072 327.545 813.33C327.141 815.221 325.66 817.059 324.253 818.517C321.916 820.941 318.87 822.324 315.571 823.056C311.59 823.939 307.56 824.647 303.63 825.72C301.223 826.378 298.79 827.289 296.664 828.577C249.287 857.29 201.954 886.074 154.606 914.836C150.268 917.472 145.943 920.135 141.531 922.643C136.942 925.252 133.139 928.707 129.877 932.809C124.273 939.856 119.933 947.662 116.178 955.806C106.357 977.101 100.028 999.443 96.4046 1022.58C95.7036 1027.05 95.2426 1031.55 94.6507 1036.04C93.9176 1041.59 94.8506 1047.07 95.4081 1052.55C98.38 1081.76 105.559 1110.12 112.639 1138.51C117.66 1158.64 122.752 1178.76 126.585 1199.16C129.462 1214.49 131.502 1229.91 131.996 1245.51C132.283 1254.58 131.766 1263.62 130.434 1272.6C130.324 1273.35 130.311 1274.12 130.249 1274.92C132.778 1276.24 135.249 1277.45 137.633 1278.81C144.857 1282.93 151.511 1287.9 157.558 1293.56C166.194 1301.66 176.162 1307.66 186.548 1313.08C203.139 1321.75 220.712 1327.93 238.535 1333.42C268.255 1342.58 298.337 1350.41 328.545 1357.76C330.796 1358.31 333.157 1358.52 335.305 1359.32C337.056 1359.97 338.798 1358.83 340.627 1360.01C342.128 1360.98 344.308 1360.92 346.194 1361.28C348.145 1361.65 350.102 1361.98 352.062 1362.3C354.565 1362.71 357.078 1363.06 359.579 1363.48C360.664 1363.65 361.589 1363.77 362.703 1363.1C363.419 1362.67 365.366 1362.86 365.641 1363.38C366.408 1364.81 367.575 1364.66 368.703 1364.79C380.1 1366.1 391.494 1367.46 402.903 1368.66C409.597 1369.36 416.317 1369.83 423.028 1370.36C425.548 1370.56 428.078 1370.63 430.804 1370.78C431.843 1367.37 431.903 1363.68 434.745 1360.68C435.715 1364.28 437.894 1367.22 437.167 1371.17C438.368 1371.23 439.537 1371.29 440.968 1371.36C441.66 1368.83 442.321 1366.42 443.045 1363.77C444.241 1364.22 445.32 1364.62 446.707 1365.14C446.301 1363.05 445.882 1361.16 445.571 1359.26C443.694 1347.71 444.856 1336.34 447.871 1325.14C449.474 1319.18 451.462 1313.32 453.318 1307.43C454.416 1303.95 454.454 1302.38 453.26 1299.28C452.924 1299.64 452.584 1299.91 452.358 1300.26C444.533 1312.16 438.899 1325.04 434.92 1338.69C433.754 1342.69 433.599 1346.74 433.846 1350.84C434.009 1353.55 434.172 1356.26 434.361 1359.38C432.636 1358.42 431.723 1357.45 431.615 1355.88C431.024 1347.4 430.354 1338.93 429.897 1330.45C429.692 1326.62 430.764 1323.01 432.833 1319.74C436.946 1313.25 439.696 1306.16 441.98 1298.88C444.987 1289.28 451.041 1282.6 460.541 1279.17C462.963 1278.3 464.171 1276.84 464.606 1274.16C465.017 1271.61 466.19 1269.15 467.297 1266.77C468.708 1263.74 470.154 1260.81 469.562 1257.29C469.452 1256.63 470.03 1255.86 470.512 1254.54C473.126 1258.21 474.844 1261.93 479.192 1262.49C481.569 1262.8 483.756 1262.16 485.902 1260.8C485.458 1259.96 485.032 1259.21 484.648 1258.43C482.943 1254.97 483.576 1252.86 486.862 1250.98C489.107 1249.7 489.107 1249.7 489.335 1246.77C488.113 1246.46 486.856 1246.13 485.621 1245.81C484.453 1240.7 481.032 1239.04 476.317 1241.48C474.698 1242.32 473.359 1243.74 471.959 1244.96C471.16 1245.66 470.495 1246.52 469.522 1247.57C468.357 1244.37 468.448 1241.56 469.12 1238.75C470.042 1234.89 472.325 1231.78 474.666 1228.68C479.444 1222.33 484.143 1215.93 488.762 1209.46C489.626 1208.26 489.973 1206.68 490.654 1205.04C491.458 1205 492.414 1204.95 493.443 1204.9C493.599 1204.67 493.869 1204.43 493.945 1204.14C496.591 1193.94 500.905 1184.38 504.978 1174.72C507.17 1169.52 508.47 1164.08 509.461 1158.49C510.577 1152.21 512.35 1146.03 514.081 1139.88C515.736 1133.99 516.634 1128.03 517.026 1121.94C517.835 1109.38 518.816 1096.83 519.565 1084.27C519.787 1080.54 519.498 1076.78 519.388 1073.03C519.214 1067.06 521.302 1062.04 525.668 1057.98C525.984 1057.68 526.388 1057.46 526.787 1057.28C527.069 1057.16 527.408 1057.17 528.102 1057.06C528.871 1062.04 529.63 1066.96 530.389 1071.87C530.668 1071.91 530.946 1071.94 531.224 1071.97C531.993 1070.04 532.762 1068.12 533.838 1065.42C539.936 1082.61 545.775 1099.08 551.715 1115.83C555 1115.28 558.275 1114.83 561.505 1114.24V1068.09C559.62 1065.77 557.68 1063.5 555.664 1061.3C552.424 1057.76 548.245 1055.09 544.469 1052.06C543.612 1051.37 542.599 1050.86 541.79 1050.13C539.655 1048.18 539.213 1046.39 540.635 1043.95C541.682 1042.14 541.744 1040.44 541.184 1038.56C540.4 1035.93 539.651 1033.3 538.8 1030.36C536.893 1030.51 535.141 1030.53 533.433 1030.81C530.606 1031.28 528.634 1032.92 527.583 1035.62C527.223 1036.54 526.782 1037.46 526.57 1038.42C524.82 1046.38 519.065 1049.67 511.777 1051.14C507.222 1052.06 503.022 1051.14 499.209 1048.45C496.595 1046.6 494.005 1044.7 491.28 1043.03C489.623 1042.02 489.203 1040.74 489.259 1038.93C489.365 1035.52 489.289 1032.1 489.289 1028.32C488.388 1028.64 487.686 1028.78 487.095 1029.12C482.972 1031.46 478.848 1033.81 474.782 1036.26C473.671 1036.92 472.615 1037.79 471.768 1038.77C466.632 1044.69 461.568 1050.67 456.474 1056.63C453.614 1059.97 451.534 1063.71 451.067 1068.14C450.862 1070.08 449.871 1071.48 448.489 1072.6C445.339 1075.14 444.372 1078.35 444.849 1082.29C445.451 1087.25 446.423 1092.09 448.181 1096.77C449.098 1099.21 450.721 1100.47 453.298 1100.79C455.149 1101.02 457 1101.43 458.781 1101.98C461.082 1102.69 461.63 1103.67 461.266 1105.91C461.107 1106.89 460.838 1107.85 460.562 1108.81C460.353 1109.53 460.055 1110.22 459.746 1111.07C452.806 1110.09 446.061 1109.28 440.728 1104.16C439.201 1102.7 437.073 1101.86 434.946 1100.57C434.121 1102.19 433.493 1103.45 432.842 1104.7C414.167 1140.51 393.721 1175.16 367.466 1206.1C351.735 1224.63 333.921 1240.89 314.72 1255.72C301.259 1266.12 287.491 1276.07 273.441 1285.66C265.182 1291.29 256.267 1295.48 247.066 1299.18C245.657 1299.75 244.129 1300.02 242.629 1300.44C242.383 1299.98 242.096 1299.7 242.112 1299.45C242.362 1295.61 240.551 1292.51 238.861 1289.24C235.472 1282.68 232.532 1275.88 229.302 1269.24C228.447 1267.48 227.434 1265.7 226.109 1264.29C216.799 1254.4 207.574 1244.41 197.968 1234.81C184.849 1221.71 178.266 1205.81 176.541 1187.59C175.346 1174.97 176.257 1162.42 177.711 1149.9C178.65 1141.79 179.454 1133.63 181.009 1125.63C183.783 1111.37 189.009 1097.84 194.886 1084.62C203.494 1065.26 212.479 1046.06 221.3 1026.79C222.356 1024.48 223.473 1022.2 224.422 1019.84C233.66 996.968 246.795 976.277 260.324 955.818C281.289 924.118 303.586 893.362 326.363 862.952C326.887 862.256 327.465 861.602 328.452 860.396C329.327 863.655 330.075 866.438 330.859 869.362C332.011 869.252 332.983 869.153 333.953 869.066C337.468 868.753 340.525 869.862 341.971 873.113C343.837 877.302 346.545 880.194 350.612 882.47C355.01 884.93 356.435 889.763 357.403 894.514C357.889 896.892 358.273 899.292 358.695 901.681C359.36 905.435 361.582 907.773 365.19 908.867C366.034 909.123 366.851 909.511 367.711 909.657C369.665 909.991 371.28 910.917 372.434 912.468C373.821 914.33 375.489 915.198 378.2 914.303C378.553 917.432 378.657 920.362 379.267 923.184C379.89 926.064 381.007 928.836 382.041 932.066C383.722 930.242 385.11 928.737 386.592 927.129C386.215 926.597 385.591 925.94 385.236 925.16C384.891 924.4 384.466 923.404 384.686 922.702C386.227 917.784 388.408 913.129 390.676 908.073C391.972 910.772 391.917 912.936 391.081 915.208C389.715 918.927 388.488 922.698 387.032 926.945C388.33 926.485 389.232 926.164 390.39 925.752C390.706 928.627 391.003 931.323 391.351 934.494C399.607 931.77 407.681 929.104 416.104 926.324C416.475 928.1 416.796 929.638 417.176 931.461C415.201 931.275 413.622 931.127 411.596 930.937C412.006 931.939 412.073 932.675 412.472 932.993C418.001 937.387 423.569 941.73 429.149 946.057C429.751 946.524 430.495 946.809 431.174 947.173C433.711 948.535 436.211 948.673 438.671 946.973C439.105 946.673 439.593 946.455 439.896 946.288C441.705 948.024 443.318 949.632 445 951.166C446.438 952.478 447.644 953.931 447.542 955.971C447.444 957.918 448.496 959.097 449.915 960.035C454.794 963.263 459.696 966.461 465.385 968.15C465.913 968.308 466.447 968.451 466.96 968.648C469.506 969.623 469.975 970.299 470.063 973.07C470.19 977.049 470.64 977.694 474.44 978.294C477.684 978.805 480.968 979.079 484.517 979.492C485.069 976.83 485.552 974.498 486.172 971.513C488.068 973.813 489.643 975.723 491.217 977.635C491.85 978.403 492.42 979.233 493.125 979.925C494.838 981.604 495.663 983.458 494.741 985.861C494.562 986.328 494.716 986.923 494.716 987.651C497.234 988.267 499.655 988.861 502.78 989.626C501.506 985.717 500.404 982.34 499.305 978.965L499.375 979.049C497.692 978.621 496.01 978.193 494.455 977.798C494.379 977.259 494.298 977.042 494.329 976.842C494.93 972.874 494.596 972.146 490.929 970.414C488.915 969.462 486.904 968.58 485.938 966.153C482.445 967.543 479.099 968.873 475.46 970.32C475.007 968.562 474.603 966.99 474.146 965.213C477.694 963.711 481.574 964.751 485.421 963.569C483.789 960.698 482.283 958.046 480.709 955.275C482.513 951.641 484.305 947.983 486.158 944.353C486.434 943.81 487.062 942.96 487.401 943.016C489.463 943.353 489.752 941.718 490.369 940.519C492.788 935.805 495.162 931.069 497.536 926.332C497.959 925.487 498.294 924.599 498.941 923.104C495.676 924.645 493.014 925.88 490.376 927.158C489.357 927.649 488.489 927.946 488.178 926.068C492.054 923.826 496.026 921.528 500.707 918.82C501.488 920.088 502.291 921.39 503.396 923.186C503.887 921.444 504.008 920.56 504.383 919.803C504.747 919.073 505.231 918.209 505.9 917.853C512.702 914.234 519.552 910.707 526.621 907.033C527.784 909.258 528.842 911.283 530.122 913.732C533.854 910.141 537.456 906.673 541.323 902.953C544.254 905.29 547.141 907.592 550.384 910.178C551.712 906.689 553.119 903.599 554.045 900.373C554.767 897.857 556.097 896.674 558.651 896.59C559.606 896.559 560.556 896.316 561.505 896.121V850.808L557.867 862.988C556.881 862.644 556.293 862.44 555.374 862.119ZM292.856 670.64C294.144 671.112 294.977 671.165 295.293 671.597C295.711 672.166 295.748 673.028 295.901 673.773C296.598 677.162 297.278 680.554 298.028 684.253C296.583 684.365 295.571 684.444 294.348 684.539C293.86 679.981 293.405 675.753 292.856 670.64ZM400.977 862.81C398.488 861.454 398.216 861.014 399.34 858.659C400.402 856.433 401.723 854.33 402.92 852.19C407.066 854.468 407.261 855.617 404.304 858.364C403.983 858.662 403.571 858.89 403.327 859.238C402.561 860.329 401.856 861.462 400.977 862.81ZM358.391 800.302C361.943 798.165 365.237 796.182 368.791 794.044C367.937 797.802 366.794 801.107 364.393 804.02C362.756 803.033 361.351 802.195 359.955 801.343C359.497 801.064 359.061 800.749 358.391 800.302ZM505.199 863.518C503.576 865.248 502.161 866.626 500.903 868.134C499.611 869.684 498.403 869.602 496.925 868.206C497.764 865.125 498.607 862.031 499.567 858.507C501.624 860.338 503.245 861.78 505.199 863.518ZM318.18 413.569C317.929 413.519 317.679 413.47 317.429 413.42C318.873 410.128 317.164 407.247 316.845 404.185C316.789 403.648 316.781 403.084 316.87 402.554C317.337 399.785 318.946 398.974 322.027 400.136C321.215 404.268 320.427 408.453 319.524 412.613C319.439 413.011 318.645 413.254 318.18 413.569ZM337.621 620.543C336.345 619.79 335.393 619.265 334.478 618.68C333.463 618.029 332.535 617.23 331.477 616.667C329.97 615.865 330.132 614.556 330.249 613.246C330.369 611.905 330.056 610.28 332.336 609.921C334.653 612.669 337.028 615.484 339.416 618.315C338.718 619.183 338.251 619.761 337.621 620.543ZM323.944 500.025C322.404 500.079 320.67 500.705 320.182 499.196C319.453 496.945 318.939 494.46 319.107 492.13C319.264 489.969 321.795 489.869 323.436 489.104C323.773 488.947 324.228 489.041 324.867 489.005C324.551 492.781 324.252 496.356 323.944 500.025ZM375.462 447.841C371.383 447.083 367.929 446.475 364.495 445.761C363.978 445.655 363.566 445.051 363.105 444.678C363.504 444.225 363.821 443.514 364.314 443.359C367.426 442.381 370.577 441.526 374.069 440.53C374.529 442.949 374.948 445.148 375.462 447.841ZM531.859 1047.75C531.662 1046.4 531.521 1045.22 531.309 1044.05C531.074 1042.75 530.696 1041.48 530.517 1040.18C530.097 1037.16 531.096 1035.75 533.858 1034.92C534.396 1036.56 534.898 1038.19 535.47 1039.8C535.725 1040.52 536.16 1041.17 536.436 1041.88C537.387 1044.35 536.81 1045.85 534.432 1046.95C533.659 1047.31 532.795 1047.47 531.859 1047.75ZM321.478 454.679C319.001 450.653 317.486 447.169 317.069 443.274C316.797 440.729 317.578 438.488 319.211 436.529C319.862 435.749 320.579 435.435 321.605 436.209C320.99 437.525 320.362 438.867 319.723 440.235C321.2 441.139 322.491 441.929 323.926 442.809C323.146 446.592 322.393 450.241 321.478 454.679ZM476.96 928.767C479.653 932.337 481.956 935.394 484.441 938.689C482.063 940.259 479.911 941.682 477.639 943.183C475.696 940.395 479.544 939.519 479.181 937.298C477.247 938.196 475.483 939.079 473.66 939.817C473.175 940.015 472.437 939.918 471.968 939.668C471.762 939.559 471.765 938.64 471.969 938.24C473.511 935.213 475.126 932.224 476.96 928.767ZM331.573 435.326C331.267 435.303 330.963 435.278 330.657 435.253C330.632 433.876 330.389 432.463 330.617 431.129C332.258 421.487 340.647 416.189 350.262 418.615C353.137 419.341 356.027 420.001 358.905 420.711C359.73 420.914 360.731 420.933 360.758 422.179C360.783 423.365 359.901 423.563 359.04 423.818C355.77 424.789 352.488 425.725 349.238 426.763C345.174 428.062 341.05 428.44 336.83 427.854C336.203 427.767 335.568 427.742 334.835 427.68C333.713 430.31 332.642 432.818 331.573 435.326ZM362.419 631.009C366.394 636.259 364.884 641.534 358.814 643.535C355.79 644.532 352.636 645.138 349.532 645.89C349.118 645.991 348.619 646.038 348.229 645.905C345.758 645.068 343.308 644.173 340.486 643.168C342.181 641.302 343.626 639.8 344.955 638.203C345.481 637.568 346.121 636.691 346.069 635.972C345.849 632.965 347.627 631.924 350.088 631.218C352.907 630.41 355.672 629.418 358.592 628.466C359.155 629.797 359.821 631.378 360.611 633.245C361.359 632.321 361.876 631.681 362.419 631.009ZM354.208 717.792C351.349 724.784 348.785 731.056 346.221 737.328C350.63 732.506 353.075 726.707 355.198 720.801C355.733 719.311 355.311 717.312 354.868 715.673C354.18 713.134 355.067 710.47 357.516 709.933C360.466 709.286 363.511 709.039 366.569 709.699C365.849 712.274 365.849 712.274 363.858 713.736C360.372 716.3 360.232 717.707 363.054 720.932C363.527 721.474 364.049 722.182 364.098 722.848C364.264 725.11 359.126 732.252 356.806 733.204C356.727 733.235 356.684 733.358 356.529 733.567C359.623 738.819 362.945 744.159 359.051 750.679C355.467 749.839 352.106 749.054 348.71 748.258C349.377 746.285 349.887 744.776 350.447 743.119C348.244 742.714 346.395 742.441 344.578 742.021C342.884 741.63 341.223 740.792 341.194 738.886C341.159 736.616 340.976 733.922 342.058 732.147C344.983 727.359 348.523 722.943 351.892 718.434C352.172 718.061 353.007 718.104 354.208 717.792ZM471.638 1109.57C471.115 1105.47 471.086 1101.81 472.425 1098.18C473.914 1094.15 475.37 1090.11 476.709 1086.03C479.936 1076.19 483.116 1066.33 486.245 1056.46C487.034 1053.97 488.552 1052.4 490.927 1051.54C492.576 1053.76 493.28 1056.1 493.092 1058.56C492.703 1063.71 492.399 1068.9 491.533 1073.98C489.65 1085.04 483.422 1094.59 480.333 1105.55C478.822 1104.44 477.486 1103.46 476.205 1102.51C474.215 1104.7 475.435 1108.53 471.638 1109.57ZM497.995 1138.59C497.725 1136.86 497.437 1135.78 497.407 1134.69C497.296 1130.67 496.373 1126.85 494.999 1123.08C494.175 1120.82 493.655 1118.42 493.244 1116.03C491.857 1108.02 492.465 1099.97 492.881 1091.92C493.155 1086.58 495.534 1081.94 497.441 1077.14C497.605 1076.73 497.745 1076.3 497.896 1075.89C498.226 1076.02 498.556 1076.16 498.885 1076.29C499.415 1078.58 500.088 1080.86 500.45 1083.17C502.548 1096.58 504.577 1109.99 506.614 1123.41C507.061 1126.35 507.357 1129.32 507.891 1132.25C508.223 1134.08 508.935 1134.37 510.728 1133.86C511.402 1133.66 512.075 1133.47 513.012 1133.2C513.012 1133.96 513.185 1134.54 512.986 1134.73C510.026 1137.44 506.902 1139.95 503.492 1142.35C502.309 1139.98 501.307 1137.98 500.174 1135.71C499.4 1136.74 498.892 1137.41 497.995 1138.59ZM425.83 694.245C424.44 696.364 423.049 698.468 421.677 700.584C420.76 701.998 419.763 703.299 417.982 703.671C412.38 704.839 406.787 706.049 401.172 707.155C399.193 707.545 397.537 706.895 396.267 705.187C394.691 703.063 393.045 700.981 391.305 698.991C389.279 696.674 387.294 694.269 384.974 692.272C381.609 689.374 377.611 688.435 373.219 689.641C372.241 689.909 371.229 690.054 369.756 690.351C372.217 686.234 374.4 682.583 376.679 678.771C380.182 680.858 383.358 682.75 386.635 684.703C389.228 681.627 391.62 678.753 394.051 675.912C396.429 673.131 398.609 670.162 401.732 667.118C401.588 669.941 401.484 671.955 401.39 673.789C404.351 674.775 407.644 671.226 409.829 675.474C406.703 677.883 403.683 680.21 400.247 682.858C403.368 683.709 406.014 684.298 408.565 685.167C410.442 685.807 411.844 685.503 413.354 684.227C416.109 681.898 419.027 679.761 422.041 677.418C427.804 683.579 433.342 689.503 438.986 695.54C438.226 696.258 437.7 696.755 437.09 697.33C435.289 696.071 433.613 694.9 431.896 693.701C428.045 702.874 428.033 702.89 424.705 702.651C425.601 700.596 426.456 698.569 427.368 696.567C428.032 695.109 427.311 694.59 425.83 694.245ZM561.505 803.167C557.795 805.664 557.092 810.404 560.434 815.039L561.505 814.267V803.167ZM510.224 1300.32C512.379 1306.23 514.499 1312.04 516.677 1318.01C515.464 1318.36 514.676 1318.58 513.697 1318.86C511.609 1312.71 509.261 1306.88 507.406 1300.57C508.605 1300.47 509.327 1300.4 510.224 1300.32Z" fill="#EBEBEB"/>
</g>
</svg>
