<svg width="996" height="1429" viewBox="0 0 996 1429" fill="none" xmlns="http://www.w3.org/2000/svg">
<g opacity="0.7">
<path d="M540.196 995.074C531.795 1005.62 523.395 1016.16 514.992 1026.7C513.773 1025.74 512.551 1024.79 511.33 1023.84C515.723 1010.11 526.649 1001.3 536.484 991.668C537.72 992.803 538.957 993.939 540.196 995.074ZM443.736 1024.62C455.857 1015.23 465.97 1007.39 476.083 999.559C475.465 998.324 474.846 997.089 474.228 995.851C476.029 997.397 479.626 999.832 479.368 1000.36C472.814 1013.59 472.703 1031.23 453.984 1037.42C454.329 1034.22 454.627 1031.46 454.995 1028.03C452.682 1027.33 450.268 1026.61 443.719 1024.65C440.566 1031.03 441.406 1037.79 445.508 1045.94C447.063 1049.03 447.58 1054.18 445.994 1056.86C444.556 1059.29 439.658 1059.81 436.183 1060.82C434.135 1061.42 431.887 1061.33 429.59 1061.56C429.306 1057.76 429.071 1054.6 428.837 1051.44C428.277 1051.46 427.719 1051.47 427.162 1051.49C427.162 1070.26 427.162 1089.04 427.162 1108.38C429.831 1103.64 431.887 1099.99 435.413 1093.74C436.558 1106.38 437.943 1115.59 438.077 1124.81C438.225 1134.81 444.889 1139.75 451.19 1145.74C457.646 1151.87 463.064 1147.4 468.405 1145.19C479.88 1140.43 490.808 1133.41 503.984 1138.65C508.594 1140.47 512.966 1142.9 517.591 1145.13C525.664 1121.63 527.667 1087.01 520.702 1072.89C520.702 1086.09 520.702 1096.7 520.702 1107.31C520.134 1107.32 519.568 1107.33 519.001 1107.34C518.172 1102 517.342 1096.66 516.513 1091.32C515.912 1091.37 515.311 1091.43 514.71 1091.49C514.064 1094.22 513.419 1096.95 512.8 1099.56C508.956 1096.22 505.758 1093.45 501.771 1089.98C516.433 1074.42 524.452 1053.74 528.747 1031.18C529.993 1024.64 533.863 1018.64 535.93 1012.2C538.475 1004.28 547.295 999.698 539.259 986.925C532.761 976.601 527.654 978.075 520.001 978.119C520.001 970.636 520.001 963.201 520.001 955.767C519.127 955.752 518.253 955.737 517.378 955.721C516.866 957.352 516.354 958.982 516.012 960.076C513.81 958.519 510.963 955.207 509.57 955.734C500.243 959.268 486.625 955.934 483.906 970.827C483.69 972.01 482 973.949 481.203 973.851C466.845 972.071 470.529 982.99 468.85 990.594C467.757 995.545 465.956 1000.83 462.901 1004.73C458.987 1009.73 453.248 1013.25 448.736 1017.84C446.53 1020.08 444.875 1022.33 443.736 1024.62ZM543.81 1160.53C543.81 1144.55 543.81 1128.56 543.81 1112.58C545.22 1112.58 546.63 1112.57 548.039 1112.57C546.212 1128.94 548.574 1145.29 545.203 1161.67C548.162 1165.96 551.119 1170.25 554.078 1174.53C555 1174.17 555.923 1173.81 556.842 1173.45C556.842 1165.76 556.842 1158.08 556.842 1150.39C557.706 1150.35 558.568 1150.3 559.428 1150.26C559.743 1156.58 559.383 1163.02 560.52 1169.18C562.592 1180.4 565.644 1191.45 568.109 1202.6C569.63 1209.48 569.074 1216.47 580.63 1215.17C583.759 1214.81 586.929 1214.82 590.129 1215.03V1385.46C578.229 1385.51 566.302 1385.15 554.4 1385.16C548.327 1385.17 542.255 1385.23 536.18 1385.2C493.518 1384.98 452.179 1376.29 412.066 1362.91C365.134 1347.25 322.015 1323.71 281.546 1295.01C249.708 1272.43 221.216 1246.27 194.419 1218.19C162.737 1184.98 136.068 1147.99 112.086 1108.79C82.9177 1061.11 60.7289 1010.34 41.414 958.161C35.6266 942.528 30.7978 926.497 26.4733 910.394C25.4948 906.752 27.0624 900.435 29.8028 898.077C82.16 853.014 140.234 817.201 204.397 791.384C209.439 789.355 214.199 787.455 215.219 779.986C216.939 767.42 227.308 761.042 237.437 755.379C246.415 750.36 251.474 742.962 253.626 733.024C257.638 714.504 263.962 697.945 286.285 694.748C293.134 693.765 296.837 689.753 300.072 682.494C304.734 672.032 313.248 663.858 322.52 655.747C332.275 647.216 339.792 649.278 349.283 649.621C353.807 639.175 358.511 628.311 363.214 617.446C361.871 618.786 360.529 620.123 359.188 621.462C349.13 609.176 339.549 596.449 328.79 584.814C324.154 579.799 317.441 576.196 311.033 573.448C299.111 568.338 292.583 559.065 292.368 546.125C292.307 542.5 290.743 538.087 288.328 535.443C273.028 518.69 276.059 483.793 294.138 470.629C297.56 468.139 300.25 464.642 303.526 461.359C284.733 449.784 281.121 435.583 290.595 415.265C291.333 413.683 292.567 411.909 292.368 410.379C289.405 387.539 302.157 370.403 312.263 351.91C318.262 340.933 320.952 328.15 325.167 316.193C326.912 311.249 328.753 306.338 330.619 301.23C327.597 299.683 324.065 297.874 318.687 295.122C322.861 293.379 324.943 292.508 327.809 291.31C325.707 289.511 323.733 287.822 320.854 285.361C327.944 275.573 335.03 265.791 342.593 255.35C326.276 243.005 334.559 226.506 340.667 211.182C347.886 193.07 357.125 175.773 365.211 157.996C375.8 134.71 396.168 128.273 419.132 125.888C422.293 125.561 425.71 124.777 428.379 123.162C439.422 116.485 450.675 112.812 463.955 115.616C471.323 117.171 479.205 116.411 486.857 116.463C500.096 116.552 507.344 122.604 506.205 138.081C517.292 118.414 528.665 113.376 550.026 115.97C554.126 116.469 558.609 113.2 563.008 112.01C571.135 109.812 579.234 106.719 587.516 106.021C588.387 105.948 589.258 105.883 590.129 105.824V173.742L582.369 160.665C583.591 159.589 585.973 157.486 588.62 155.147C582.545 155.619 577.158 156.033 571.773 156.45C571.689 155.944 571.604 155.44 571.52 154.937C577.865 151.703 584.211 148.47 589.557 145.748C588.132 142.449 587.162 140.201 585.077 135.376C576.067 141.392 567.065 147.402 558.064 153.413C557.396 152.714 556.73 152.017 556.064 151.321C562.952 145.892 569.838 140.46 576.51 135.203C570.298 129.209 561.16 141.806 558.316 126.166C548.891 133.601 540.325 140.056 532.107 146.927C524.102 153.617 515.446 159.923 509 167.946C504.739 173.247 496.494 179.114 500.887 187.226C508.98 186.529 516.224 187.663 521.761 185.101C539.122 177.069 556.138 171.289 574.06 181.526C569.016 182.837 563.295 184.322 557.537 185.817C557.537 190.678 557.537 194.993 557.537 199.385C562.028 202.424 566.621 205.53 571.212 208.636C571.441 208.365 571.672 208.091 571.902 207.82C569.849 205.601 567.797 203.383 564.796 200.14C569.715 199.423 572.986 198.946 578.867 198.089C572.938 195.204 569.439 193.5 565.08 191.379C573.452 189.008 583.186 194.462 590.129 190.141V223.683C589.132 223.778 588.143 223.863 587.233 223.846C588.125 226.755 588.195 230.467 590.084 232.401L590.129 232.446V248.568C589.24 248.371 588.407 248.088 587.665 247.737C581.721 244.926 575.536 238.976 573.253 232.939C569.984 224.285 563.559 220.646 556.538 219.939C546.383 218.913 535.631 222.489 525.712 220.768C515.92 219.066 508.78 221.06 501.38 226.629C500.278 227.459 495.381 225.73 494.609 224.076C491.233 216.858 485.705 219.027 480.123 219.47C471.022 220.191 461.84 221.031 452.757 220.582C440.305 219.965 432.267 228.188 424.515 235.043C407.226 250.338 392.874 268.344 385.624 290.831C383.684 296.843 382.836 303.325 382.32 309.659C380.484 332.175 379.009 354.719 377.403 377.26C379.523 387 381.636 396.732 383.324 404.509C396.769 395.887 408.361 388.45 423.248 378.902C406.373 380.289 392.198 381.452 377.462 382.663C377.397 381.243 377.304 379.151 377.21 377.058C391.835 358.913 428.09 353.764 448.593 366.956C449.794 367.729 450.678 369.372 451.923 369.649C466.142 372.81 461.575 385.388 465.309 393.775C464.73 394.643 464.148 395.51 463.569 396.375C458.065 394.25 452.561 392.123 447.549 390.189C448.068 392.344 448.76 395.225 449.452 398.108C447.046 397.504 444.605 397.007 442.238 396.276C436.632 394.544 431.058 392.698 424.96 392.349C431.082 395.216 437.515 397.58 443.236 401.099C448.445 404.301 452.882 408.758 457.659 412.662C456.544 414.323 455.429 415.981 454.314 417.642C446.699 413.533 439.084 409.424 431.996 405.599C428.336 411.976 426.231 420.584 421.057 423.266C415.924 425.928 407.701 422.622 400.338 421.882C400.448 422.661 400.852 425.541 401.258 428.42C400.433 429.269 399.609 430.115 398.784 430.964C394.727 427.174 390.668 423.384 387.453 420.379C377.759 447.123 375.143 476.56 385.476 507.399C391.648 525.825 394.773 545.528 397.157 564.917C402.204 605.92 408.927 645.831 444.254 674.313C442.275 675.631 441.622 676.41 440.934 676.445C439.949 676.49 438.938 675.991 436.94 675.459C435.313 689.792 433.725 703.755 432.534 714.243C417.655 725.503 405.156 734.963 392.434 744.59C388.032 741.653 383.587 738.69 379.931 736.252C381.862 731.869 384.411 728.043 385.216 723.877C387.364 712.796 387.088 712.891 398.713 711.191C400.431 710.939 401.978 708.569 403.331 706.949C408.315 700.997 413.184 694.948 418.694 688.201C407.3 693.628 396.018 699.342 384.463 704.436C359.173 715.593 354.085 736.005 359.357 760.962C344.086 760.085 350.889 774.741 344.292 779.517C335.644 768.878 336.177 766.262 350.562 748.521C333.689 754.452 311.859 782.856 310.59 800.434C309.197 819.729 305.754 839.131 306.817 858.286C308.053 880.556 312.582 902.732 316.893 924.71C319.652 938.779 320.856 952.235 318.379 966.648C315.814 981.549 316.504 997.006 315.771 1012.22C316.756 1012.76 317.741 1013.3 318.728 1013.84C325.052 1009.74 332.733 1006.8 337.419 1001.31C347.173 989.867 360.874 990.54 373.229 987.275C399.322 980.381 425.993 975.372 451.557 966.951C460.117 964.128 466.121 953.364 473.131 946.072C475.6 943.502 477.333 940.214 479.843 937.693C486.137 931.374 492.678 927.352 501.215 934.863C503.988 937.301 508.277 938.013 512.677 939.849C513.391 936.111 513.963 933.113 514.786 928.811C516.4 931.865 517.548 934.033 519.993 938.653C521.809 930.408 523.141 924.354 524.692 917.312C547.752 939.341 557.075 964.76 552.004 995.398C542.934 998.919 544.365 1009.43 540.953 1017.13C540.634 1017.86 543.912 1020.17 545.63 1021.86C545.63 1033.29 547.285 1045.94 545.248 1057.96C542.046 1076.85 536.677 1095.41 531.604 1113.94C528.222 1126.29 524.694 1138.65 531.639 1150.49C534.138 1154.75 539.664 1157.23 543.81 1160.53ZM590.129 1204.88C585.096 1204.88 579.935 1204.9 574.388 1204.9C575.766 1193.78 583.085 1191.35 589.967 1193.83L590.129 1193.89V1204.88ZM590.129 768.37C577.992 763.332 565.885 758.211 553.582 753.627C548.607 751.775 543.19 751.031 538.371 748.886C536.045 747.85 535.037 744.047 532.728 742.734C527.282 739.638 521.136 737.754 515.768 734.546C496.529 723.046 477.437 711.291 458.451 699.376C455.952 697.809 454.39 694.748 450.172 689.742C470.922 689.742 488.114 689.95 505.298 689.675C519.425 689.449 530.951 684.691 540.386 672.891C544.537 667.701 553.68 666.029 560.882 663.852C571.672 660.592 581.624 656.377 590.129 650.219V768.37ZM590.129 380.616C584.352 380.726 578.523 381.263 572.793 381.406C568.287 381.519 563.921 387.231 560.5 389.657C566.302 392.058 573.804 395.162 582.435 398.731C581.469 395.8 580.712 393.505 579.215 388.967L590.129 393.854V424.818L587.611 426.256C586.932 425.761 586.253 425.266 585.574 424.768C586.585 421.817 587.598 418.864 588.828 415.271C585.515 412.706 581.445 409.552 576.969 406.083C573.81 411.729 571.604 417.933 567.432 422.222C565.206 424.512 559.136 424.814 555.623 423.611C552.028 422.378 549.435 418.213 548.416 417.243C541.964 418.882 537.292 420.069 532.622 421.254C531.968 420.443 531.315 419.63 530.663 418.816C533.802 413.945 536.939 409.074 541.595 401.85C535.156 405.884 531.161 408.386 526.647 411.217C525.048 407.8 523.891 405.328 522.92 403.248C517.671 399.833 497.228 420.694 493.739 432.244C492.737 431.908 491.735 431.572 490.732 431.235C494.273 420.686 496.922 409.723 501.597 399.706C506.387 389.442 513.161 380.106 519.249 370.066C525.811 367.722 533.563 363.446 541.736 362.36C556.495 360.402 571.521 360.526 586.413 359.462C587.675 359.372 588.912 359.324 590.129 359.312V380.616ZM590.129 437.783C585.321 439.492 579.784 440.333 574.603 441.197C579.525 437.837 585.288 435.759 590.129 432.344V437.783ZM562.045 1085.19C564.998 1070.63 567.948 1056.07 570.899 1041.51C572.092 1041.71 573.288 1041.91 574.481 1042.12C572.017 1056.79 569.554 1071.46 567.089 1086.14C565.408 1085.82 563.727 1085.51 562.045 1085.19ZM488.246 856.979C497.338 860.42 514.879 885.355 522.275 904.251C513.664 901.726 495.045 876.203 488.246 856.979ZM521.132 595.047C502.725 612.276 471.816 614.983 456.294 598.809C478.665 598.381 500.758 608.965 519.986 593.69C522.633 587.64 519.058 587.723 515.085 589.04C510.278 590.634 505.641 592.744 498.462 595.618C502.148 585.094 498.785 581.658 491.112 581.977C474.704 582.658 457.833 579.216 442.267 587.579C440.824 588.356 438.782 588.22 437.035 588.146C436.092 588.105 435.181 587.293 432.553 585.979C435.044 583.418 436.866 581.249 438.99 579.435C442.427 576.5 446.371 574.104 449.545 570.925C454.381 566.083 458.559 562.92 466.279 566.535C469.793 568.182 476.33 566.174 480.134 563.714C485.278 560.387 489.445 559.206 494.674 562.609C506.24 570.142 518.882 574.203 532.737 574.939C535.659 575.094 538.798 577.116 541.204 579.064C542.938 580.464 544.999 583.676 544.446 585.168C543.638 587.347 540.879 589.436 538.499 590.277C532.851 592.27 526.937 593.505 521.132 595.047ZM590.129 1113.29C586.315 1119.51 587.296 1129.54 582.955 1135.24C576.905 1127.33 577.002 1104.5 583.476 1098.5C585.62 1096.52 587.838 1094.58 590.129 1092.73V1113.29ZM446.131 513.76C456.464 518.598 464.068 514.967 471.644 508.163C474.545 505.558 480.383 505.2 484.768 505.5C492.841 506.051 500.801 508.33 508.872 508.817C511.119 508.951 514.078 505.667 515.799 503.29C517.036 501.58 516.76 498.771 517.407 495.013C525.811 501.499 527.517 509.542 525.342 517.161C524.098 521.529 518.682 525.315 514.319 528.039C508.377 531.746 501.613 534.117 495.26 537.189C483.13 543.054 473.426 541.419 463.196 532.26C457.258 526.947 450.83 522.182 444.625 517.17C445.126 516.033 445.629 514.897 446.131 513.76ZM590.129 943.176C581.044 940.795 574.08 938.808 567.026 937.222C560.507 935.757 553.879 934.78 545.826 933.32C539.56 898.06 517.363 870.753 493.381 844.181C484.421 834.254 478.042 821.994 471.675 809.849C514.734 849.099 554.312 891.383 590.129 941.815V943.176ZM363.926 461.055C359.732 470.419 355.528 479.81 351.323 489.202C356.027 485.08 358.448 478.67 363.052 475.939C372.589 470.28 368.838 465.967 363.926 461.055ZM317.706 467.747C317.58 467.187 317.454 466.627 317.326 466.069C315.09 467.74 312.681 469.227 310.657 471.127C307.833 473.777 305.099 479.319 302.663 479.135C288.027 478.034 293.049 485.054 296.425 491.258C303.404 483.545 310.555 475.646 317.706 467.747ZM344.431 377.258C343.559 376.735 342.686 376.212 341.816 375.691C340.254 378.085 337.062 382.335 337.366 382.602C345.565 389.8 336.607 393.519 334.516 398.655C332.4 403.852 330.966 409.326 329.233 414.679C330.506 415.278 331.782 415.878 333.058 416.476C339.575 406.311 346.09 396.148 352.608 385.982C351.713 385.374 350.82 384.769 349.928 384.161C347.713 385.439 345.5 386.72 342.192 388.633C343.125 383.894 343.778 380.574 344.431 377.258ZM370.686 371.749C365.666 371.749 361.184 371.749 356.702 371.749C357.331 375.454 357.96 379.162 358.635 383.132C361.164 381.625 362.453 380.859 364.833 379.443C363.742 393.386 362.772 405.781 361.802 418.176C363.251 418.257 364.701 418.335 366.15 418.415C367.677 402.694 369.204 386.974 370.686 371.749ZM418.783 138.101C416.757 143.282 414.958 147.88 413.16 152.48C413.932 152.738 414.704 152.996 415.479 153.257C413.127 154.644 410.778 156.033 408.428 157.42C408.398 158.475 408.37 159.53 408.339 160.583C414.535 161.49 421.274 164.269 426.748 162.682C430.768 161.514 433.13 154.629 435.79 150.908C430.321 146.788 425.758 143.354 418.783 138.101ZM434.812 217.74C430.608 216.219 429.136 215.376 427.581 215.172C416.336 213.701 405.093 212.161 393.807 211.072C389.642 210.67 385.277 210.954 381.157 211.738C369.799 213.893 371.986 224.144 369.808 230.179C375.319 227.491 381.536 224.457 387.756 221.424C389.497 225.572 391.236 229.718 393.662 235.499C398.294 232.69 403.898 229.291 410.413 225.338C402.85 223.616 397.482 222.394 389.392 220.553C403.952 212.489 414.915 213.08 419.408 219.585C423.815 219.058 427.869 218.572 434.812 217.74ZM340.352 349.208C341.261 349.284 342.168 349.362 343.077 349.438C345.001 339.83 346.926 330.225 348.85 320.618C349.83 320.756 350.813 320.897 351.796 321.036C352.148 324.082 352.499 327.13 352.755 329.35C359.501 329.35 365.566 329.35 371.456 329.35C372.262 320.274 371.916 309.271 374.516 299.014C377.095 288.84 382.636 279.417 386.878 269.664C385.971 269.175 385.064 268.685 384.157 268.194C373.928 280.574 362.416 292.135 353.833 305.57C345.533 318.562 337.991 332.928 340.352 349.208ZM489.38 172.765C486.126 166.413 483.166 160.633 480.205 154.854C479.557 155.191 478.908 155.525 478.259 155.862C479.151 157.717 480.041 159.576 482.614 164.942C474.816 163.561 468.696 163.643 464.095 161.041C462.426 160.099 464.39 152.729 464.724 147.884C462.02 145.667 458.766 143 455.513 140.334C456.076 139.156 456.64 137.977 457.204 136.798C460.246 138.014 463.376 139.043 466.307 140.484C470.357 142.477 474.258 144.778 481.071 148.505C480.173 141.409 480.318 136.232 478.582 131.79C477.828 129.856 472.848 127.987 470.41 128.593C462.131 130.653 454.16 133.92 446 136.499C444.514 136.967 442.69 136.368 444.182 136.464C447.041 145.266 450.057 154.555 453.906 166.4C448.282 164.093 445.645 163.012 442.34 161.655C443.299 165.018 444.104 167.838 445.284 171.975C441.574 170.462 439.299 169.535 436.4 168.354C439.759 180.466 439.585 180.795 433.74 181.437C431.274 187.268 430.182 191.804 427.648 195.293C425.06 198.855 421.055 201.388 417.668 204.371C417.635 205.233 417.603 206.094 417.573 206.956C428.829 205.899 440.086 204.842 452.09 203.715C450.569 201.84 449.009 199.914 446.137 196.374C450.982 197.654 453.804 198.401 454.665 198.629C458.963 193.956 462.736 189.853 465.036 187.352C472.885 188.652 480.494 189.912 488.101 191.171C488.656 190.031 489.213 188.891 489.769 187.751C485.441 182.123 481.11 176.494 476.782 170.863C477.175 170.158 477.569 169.452 477.964 168.747C481.418 169.965 484.874 171.178 489.38 172.765Z" fill="#EBEBEB"/>
</g>
</svg>
