<svg width="996" height="1429" viewBox="0 0 996 1429" fill="none" xmlns="http://www.w3.org/2000/svg">
<g opacity="0.75">
<path d="M726.905 1238.62C725.132 1238.47 723.356 1238.32 721.583 1238.17C721.216 1241.68 720.372 1245.24 720.764 1248.66C720.888 1249.72 724.35 1250.41 726.284 1251.27C726.493 1247.05 726.699 1242.84 726.905 1238.62ZM744.931 323.094C727.218 320.029 735.141 306.021 727.435 300.36C728.846 299.609 730.257 298.858 731.668 298.107C735.712 305.724 739.754 313.339 744.931 323.094ZM718.511 257.871C714.209 263.152 712.214 265.576 710.254 268.029C709.833 268.557 709.548 269.193 708.461 271.029C705.278 265.201 702.471 260.06 699.665 254.922C700.479 253.891 701.295 252.861 702.109 251.831C707.063 253.655 712.019 255.481 718.511 257.871ZM590.448 1215.03C597.936 1215.51 605.589 1217.11 613.288 1217.86C612.61 1208.83 606.953 1204.97 597.925 1204.91C595.443 1204.89 592.962 1204.89 590.448 1204.88V1193.89C602.25 1198.08 612.516 1194.75 622.422 1189.87C625.35 1188.43 626.956 1182.42 627.421 1178.31C628.103 1172.28 627.63 1166.02 626.828 1159.97C626.36 1156.43 624.298 1153.1 621.775 1146.67C622.724 1139.46 629.551 1128.02 618.106 1117.77C621.402 1119.99 624.697 1122.21 626.609 1123.5C635.427 1118.47 643.252 1113.35 651.64 1109.43C658.996 1105.99 657.974 1101.85 654.545 1096.76C660.197 1096.15 665.96 1095.52 673.749 1094.68C670.758 1092.02 669.503 1089.95 667.903 1089.63C652.527 1086.64 637.059 1084.12 621.699 1081.06C617.265 1080.18 613.092 1077.98 608.798 1076.39C610.442 1072.99 612.165 1069.64 613.711 1066.2C615.762 1061.65 617.672 1057.02 620.362 1050.76C614.26 1051.64 610.624 1052.17 604.389 1053.07C606.971 1048 608.66 1044.68 611.727 1038.65C623.106 1052.2 633.048 1064.04 644.793 1078.02C634.825 1057.55 626.069 1039.57 616.681 1020.28C627.87 1023.93 627.947 1023.88 636.063 1037.82C640.524 1045.49 644.674 1053.34 650.409 1060.48C645.933 1049.61 641.457 1038.74 635.781 1024.95C640.389 1027.22 641.789 1027.91 643.276 1028.64C643.315 1028.01 643.573 1027.32 643.354 1026.85C638.668 1016.83 633.276 1007.25 635.822 995.176C636.631 991.336 633.412 986.645 631.368 980.255C635.396 981.822 638.535 983.02 641.65 984.273C642.313 984.538 642.926 984.959 643.508 985.382C662.986 999.581 662.986 999.581 678.257 981.388C675.928 990.268 672.757 999.032 671.5 1008.06C670.182 1017.53 671.775 1026.73 682.321 1031.18C684.385 1025.69 686.443 1020.2 688.774 1013.97C689.806 1029.56 690.778 1044.28 691.75 1059.01C693.09 1059.74 694.427 1060.48 695.766 1061.21C696.337 1058.33 696.906 1055.44 697.477 1052.56C698.714 1053.39 699.952 1054.22 701.189 1055.06C699.934 1060.99 698.679 1066.92 697.26 1073.63C699.304 1073.3 701.071 1073.02 704.254 1072.51C702.96 1077.94 701.846 1082.6 700.735 1087.27C701.249 1087.77 701.764 1088.27 702.281 1088.77C713.612 1073.66 724.941 1058.55 736.272 1043.44C737.043 1043.89 737.813 1044.33 738.584 1044.77C733.046 1058.07 734.806 1073.87 721.602 1084.67C715.652 1089.54 711.867 1096.97 706.655 1102.85C701.486 1108.67 699.763 1113.83 708.967 1118.76C708.493 1119.61 708.022 1120.47 707.549 1121.33C703.711 1121.58 699.176 1123.22 696.205 1121.74C692.258 1119.76 689.53 1115.35 686.276 1111.99C687.04 1111.18 687.804 1110.37 688.568 1109.55C690.745 1110.53 692.925 1111.51 695.497 1112.66C696.339 1110.08 697.093 1107.77 697.889 1105.33C691.709 1104.37 685.785 1102.8 679.855 1102.77C676.197 1102.76 672.526 1105.09 668.862 1106.37C671.129 1109.15 673.3 1112.03 675.726 1114.67C676.351 1115.35 677.784 1115.29 677.458 1116.78C667.284 1117.25 657.11 1117.71 644.051 1118.31C660.649 1130.76 660.874 1130.76 690.337 1120.86C693.25 1123.95 696.326 1127.22 701.134 1132.34C689.55 1132.34 680.066 1132.34 667.944 1132.34C679.414 1145.28 695.894 1151.18 696.65 1170.38C683.565 1163.71 671.328 1157.47 661.13 1152.28C657.179 1159.39 654.204 1166.17 649.979 1172.04C642.905 1181.88 641.889 1191.23 649.046 1201.42C652.098 1205.77 654.637 1210.61 656.568 1215.56C657.753 1218.6 658.864 1223.49 657.334 1225.38C654.134 1229.34 649.417 1229.79 645.788 1224.63C644.839 1223.28 643.265 1222.37 641.904 1221.19C646.308 1238.66 650.643 1255.85 654.664 1271.8C646.621 1274.71 638.893 1276.86 631.897 1280.44C629.937 1281.44 630.132 1286.65 629.09 1290.97C635.045 1289.16 639.444 1287.83 643.847 1286.5C644.346 1287.74 644.843 1288.99 645.342 1290.23C641.535 1291.96 637.728 1293.69 633.566 1295.59C636.838 1296.88 640.552 1298.36 644.266 1299.83C644.235 1300.44 644.205 1301.04 644.175 1301.64C641.878 1301.87 639.579 1302.1 637.23 1302.34C637.601 1303.92 638.739 1305.87 638.199 1307.06C636.756 1310.23 632.384 1313.91 633.134 1315.88C635.224 1321.34 639.091 1326.21 642.677 1331C649.528 1340.15 656.671 1349.08 663.696 1358.1C662.585 1359.23 661.473 1360.36 660.362 1361.48C655.853 1358.68 651.345 1355.88 646.834 1353.07C645.961 1353.32 645.089 1353.58 644.218 1353.83C646.574 1361.34 648.928 1368.86 651.69 1377.67C638.151 1380.17 624.805 1383.92 611.269 1384.81C604.345 1385.27 597.401 1385.43 590.448 1385.46V1215.03ZM590.448 105.824C618.482 103.933 646.059 109.401 673.25 114.774C705.128 121.075 728.004 142.942 749.111 166.259C756.792 174.742 763.445 184.233 771.624 192.171C807.873 227.352 832.571 268.893 845.774 317.884C855.614 354.394 874.962 386.853 894.383 419.016C898.618 426.028 905.124 432.175 907.46 439.69C910.073 448.099 908.992 457.626 909.835 466.64C910.064 469.11 911.454 471.465 912.268 473.888C914.349 480.072 916.123 486.38 918.595 492.402C919.796 495.328 922.286 497.727 924.471 500.75C927.011 497.026 928.691 494.56 930.428 492.011C947.31 506.948 937.82 549.355 911.272 580.084C918.865 587.083 917.907 595.947 914.803 604.157C911.425 613.087 906.468 621.443 901.952 629.917C893.964 644.917 881.66 657.976 881.565 676.492C881.552 678.841 880.222 681.276 879.153 683.506C875.745 690.619 869.583 695.071 868.858 705.211C868.094 715.878 854.438 720.536 843.293 722.967C840.528 723.571 837.571 723.293 833.086 725.633C835.858 728.016 838.335 730.926 841.459 732.695C855.864 740.854 867.345 750.692 866.782 769.332C866.715 771.603 869.617 774.524 871.858 776.176C875.541 778.894 879.811 780.817 883.922 781.386C886.467 781.386 890.235 780.292 891.366 781.555C902.317 793.794 906.428 807.252 901.149 823.991C898.113 833.627 899.146 844.547 898.41 854.053C918.68 867.516 939.916 878.307 943.552 904.714C943.843 906.826 945.174 909.292 944.488 910.961C939.786 922.372 947.212 926.115 955.38 930.903C982.517 946.812 1009.39 963.188 1036.03 979.918C1043.84 984.82 1050.95 991.071 1057.49 997.594C1059.73 999.822 1060.95 1005.45 1059.76 1008.37C1042.05 1052.11 1019.8 1093.49 993.735 1132.84C970.302 1168.22 943.915 1201.28 913.822 1231.08C872.702 1271.8 828.495 1308.43 775.165 1333.05C762.794 1338.76 751.984 1343.65 738.365 1340.43C735.275 1339.7 731.498 1341.88 726.58 1344.61C728.592 1345.05 730.604 1345.49 733.387 1346.1C723.923 1353.88 717.691 1348.02 711.437 1345.85C705.753 1343.88 700.408 1339.32 694.633 1344.9C693.541 1345.95 693.613 1350.3 693.908 1350.38C699.291 1351.88 704.755 1353.2 710.282 1354.02C713.629 1354.52 717.111 1354.11 721.776 1354.11C711.71 1366.03 693.496 1366.53 683.734 1357.22C677.653 1351.42 669.628 1345.8 673.514 1336.65C677.997 1326.1 688.119 1320.7 699.356 1319.47C708.645 1318.45 718.131 1319.36 727.52 1319.07C735.716 1318.82 744.15 1319.17 752.03 1317.33C763.651 1314.62 768.06 1307.19 762.814 1296.9C756.548 1284.62 747.701 1273.64 739.58 1262.37C738.938 1261.48 734.911 1263.62 733.05 1262.87C730.741 1261.95 729.048 1259.48 726.862 1257.46C724.142 1264.97 706.627 1254.96 713.032 1274.95C706.377 1271.3 702.207 1270.06 699.53 1267.35C691.208 1258.92 683.446 1249.94 675.476 1241.16C668.624 1233.62 668.478 1231.27 675.093 1223.18C679.429 1228.41 683.652 1233.5 688.503 1239.34C690.965 1237.79 693.545 1236.15 696.689 1234.16C694.878 1231.51 693.845 1229.17 692.113 1227.61C685.082 1221.26 686.782 1216.26 693.57 1210.9C702.81 1203.62 711.597 1195.76 720.21 1188.45C725.184 1195.42 731.829 1204.73 738.473 1214.04C739.682 1213.65 740.893 1213.27 742.102 1212.88C740.563 1207.04 739.825 1200.82 737.331 1195.42C729.97 1179.47 732.022 1175.59 749.374 1173.48C752.244 1173.13 754.832 1170.44 758.398 1168.32C744.096 1155.03 734.221 1166.97 723.139 1171.86C722.21 1164.05 720.109 1156.83 720.969 1149.97C721.548 1145.36 725.388 1139.18 729.404 1137.41C736.71 1134.2 747.855 1129.73 750.497 1142.12C753.968 1158.4 770.456 1163.24 776.788 1176.45C777.861 1178.69 780.09 1180.38 781.073 1182.64C782.617 1186.17 783.557 1189.97 784.753 1193.66C781.104 1193.7 777.346 1194.31 773.83 1193.65C769.119 1192.76 764.597 1190.88 759.586 1190.86C773.763 1196.28 785.78 1209.32 802.868 1203.97C808.188 1202.3 813.383 1198.58 817.32 1194.52C823.57 1188.08 828.714 1180.57 834.005 1173.92C814.407 1169.54 791.866 1164.49 771.201 1159.87C769.641 1154.21 768.128 1148.73 765.857 1140.5C770.17 1139.44 775.171 1137.46 780.131 1137.56C781.306 1137.58 782.055 1144.69 783.533 1148.32C784.842 1151.53 786.891 1154.44 788.615 1157.48C789.5 1156.98 790.385 1156.48 791.272 1155.98C791.801 1151.95 792.333 1147.93 793.079 1142.28C802.948 1151.7 810.598 1148.26 817.811 1140.61C824.015 1134.03 823.407 1128.64 816.624 1122.52C810.58 1117.07 804.686 1111.22 799.865 1104.7C794.936 1098.04 804.19 1079.98 812.417 1080.87C822.074 1081.9 831.608 1085.22 840.862 1088.5C846.838 1090.61 852.135 1094.58 857.876 1097.44C867.874 1102.42 873.409 1099.23 874.276 1087.35C867.924 1081.86 861.638 1075.47 854.409 1070.43C847.648 1065.71 839.892 1062.42 833.147 1057.55C848.713 1055.09 860.246 1061.91 870.023 1072.38C874.848 1077.55 879.906 1080.56 885.307 1074.33C889.929 1069 893.176 1061.55 886.573 1056.16C876.672 1048.07 866.233 1039.96 854.737 1034.64C831.011 1023.66 806.671 1013.93 779.632 1014.11C771.629 1014.17 761.393 1014.14 759.8 1003.59C758.073 992.133 768.82 991.532 776.326 989.346C794.332 984.103 812.241 977.461 830.666 975.088C843.623 973.421 857.362 977.841 870.751 979.551C872.771 979.808 874.788 980.111 876.967 979.595C857.266 964.167 834.154 962.713 810.474 965.134C813.793 957.286 816.374 950.952 819.148 944.702C821.616 939.143 825.2 939.085 830.568 941.431C833.614 942.762 838.917 942.514 841.446 940.626C845.791 937.379 848.748 933.402 846.716 926.002C837.295 891.698 814.331 867.534 789.135 844.502C780.021 836.17 772.554 826.036 762.855 815.048C762.855 822.879 762.855 829.287 762.855 835.695C761.313 835.587 759.77 835.481 758.226 835.372C759.978 819.717 761.73 804.059 763.48 788.404C748.155 803.829 742.474 824.957 732.259 843.392C721.797 862.269 713.597 882.398 703.989 902.866C703.32 899.204 702.789 896.284 702.563 895.047C697.748 899 692.627 904.114 686.645 907.853C681.055 911.345 674.485 913.238 668.484 916.123C666.051 917.291 663.931 919.149 661.762 920.816C659.517 922.54 657.388 924.411 655.208 926.219C654.242 925.629 653.274 925.036 652.306 924.445C656.763 909.218 661.647 894.099 665.572 878.734C670.532 859.317 675.318 839.813 679.045 820.133C682.171 803.638 676.141 794.842 659.954 791.63C635.705 786.815 613.024 777.736 590.448 768.37V650.219C598.461 644.421 605.188 636.902 610.121 626.837C612.098 622.804 617.284 620.427 620.703 616.999C636.857 600.797 639.536 581 638.835 558.915C638.116 536.264 630.592 513.306 640.035 490.678C646.45 475.31 652.139 459.639 658.169 444.112C664.217 428.537 657.716 412.771 640.762 402.121C634.404 398.127 627.245 395.075 621.708 390.178C612.159 381.733 601.397 380.408 590.448 380.616V359.312C617.145 359.038 633.411 377.008 648.575 395.7C655.797 404.602 664.553 402.475 672.339 401.648C681.492 400.676 687.396 393.56 687.769 383.525C687.988 377.603 687.808 371.666 687.808 364.288C704.807 382.329 700.114 400.598 693.126 419.843C702.435 419.307 703.199 424.582 703.993 432.457C704.649 438.943 710.135 444.944 714.758 453.533C715.729 448.178 716.24 445.34 717.085 440.678C723.326 447.303 728.531 452.83 733.737 458.354C731.312 450.153 730.207 443.348 732.786 434.317C735.554 424.63 732.484 413.036 730.969 402.417C728.351 384.082 728.41 383.299 745.163 372.61C748.395 375.554 751.771 378.623 757.269 383.629C758.479 369.242 764.904 357.07 754.039 345.235C757.625 348.031 761.214 350.827 764.8 353.623C758.511 344.793 746.485 338.565 757.536 324.687C760.467 325.907 763.601 327.212 768.425 329.22C758.7 313.337 760.81 292.847 743.396 282.638C731.384 289.109 743.457 296.5 742.376 303.193C741.189 303.679 740.001 304.167 738.816 304.656C733.633 294.592 722.336 282.94 724.454 274.772C730.029 253.282 709.07 250.144 703.704 236.345C705.179 236.081 706.674 235.811 708.172 235.545C708.517 234.559 708.862 233.573 709.21 232.588C700.783 229.319 692.423 225.822 683.784 223.276C683.18 223.097 680.502 229.955 679.321 232.425C672.298 233.187 665.589 233.917 657.707 234.774C662.598 239.895 666.125 243.587 669.652 247.28C668.68 248.453 667.71 249.628 666.737 250.805C659.517 245.262 653.016 237.85 644.869 234.728C637.28 231.82 627.94 233.48 617.644 233.057C617.113 233.502 614.392 235.777 611.108 238.523C606.367 233.573 602.184 228.296 597.025 224.272C595.565 223.135 592.982 223.441 590.448 223.683V190.141C592.57 188.822 594.431 186.591 595.913 182.946L590.448 173.742V105.824ZM590.448 393.854L639.022 415.593C634.609 417.193 632.006 418.742 629.271 419.027C617.559 420.238 607.782 423.959 598.913 432.805C596.659 435.053 593.723 436.619 590.448 437.783V432.344C594.464 429.514 597.844 425.764 599.584 419.605C596.249 421.509 593.304 423.189 590.448 424.818V393.854ZM590.448 232.446C594.116 236.185 598.794 238.943 603.856 242.706C600.995 248.376 594.989 249.579 590.448 248.568V232.446ZM792.487 1170.31C801.146 1172.58 808.381 1174.48 817.59 1176.9C793.152 1184.72 793.152 1184.72 792.487 1170.31ZM718.674 987.025C717.775 998.695 716.874 1010.36 715.72 1025.34C714.209 1019.72 713.486 1017.03 712.374 1012.9C710.631 1015.48 709.668 1016.91 708.701 1018.33C707.894 1018.05 707.087 1017.77 706.279 1017.49C709.663 1007.13 713.045 996.759 716.429 986.391C717.178 986.604 717.927 986.815 718.674 987.025ZM714.658 380.147L711.45 405.367C712.293 403.548 713.314 401.733 714.537 399.916C717.602 395.362 714.788 386.85 714.658 380.147ZM711.269 405.767C710.006 406.004 708.746 406.243 707.484 406.48C705.958 404.579 703.103 402.644 703.149 400.78C703.303 394.441 703.934 387.975 705.617 381.897C706.09 380.188 710.799 379.652 713.566 378.58C711.053 367.635 704.147 359.712 696.148 352.312C687.309 344.135 681.34 334.319 680.888 323.053C691.963 336.285 703.624 349.809 714.816 363.713C724.524 375.766 727.711 389.182 724.034 404.791C721.374 416.081 721.212 427.958 719.937 439.571C719.025 439.547 718.112 439.521 717.2 439.495C716.458 437.339 715.715 435.184 714.385 431.326C712.995 435.221 712.179 437.508 710.885 441.132C707.878 428.139 706.286 416.864 711.269 405.767ZM731.017 359.641C719.021 360.326 704.05 342.583 701.104 322.807C712.661 334.84 723.231 345.843 733.799 356.847C732.87 357.778 731.943 358.709 731.017 359.641ZM757.476 1026.55C763.033 1018.78 752.839 1021.69 749.98 1019.45C756.521 1015.96 794.843 1029.43 810.027 1043.01C792.528 1037.53 775.033 1032.05 757.476 1026.55ZM604.333 1144.18C612.475 1154.76 618.254 1162.28 624.031 1169.79C623.344 1170.57 622.657 1171.36 621.968 1172.14C611.334 1167.95 598.363 1168.11 591.754 1153.46C595.958 1150.36 600.411 1147.07 604.333 1144.18ZM622.3 1095.1C613.416 1096.23 606.346 1097.13 596.933 1098.33C601.383 1102.48 603.751 1104.69 607.702 1108.38C597.738 1106.65 593.011 1109.11 590.448 1113.29V1092.73C594.018 1089.84 597.762 1087.16 601.67 1084.85C611.951 1078.77 616.074 1087.42 622.3 1095.1ZM591.633 943.485L590.448 943.176V941.815C590.843 942.371 591.238 942.927 591.633 943.485ZM727.359 1230.22C738.69 1222.49 729.586 1218.34 726.493 1212.68C723.779 1214.3 721.442 1215.68 718.448 1217.46C721.565 1221.93 724.346 1225.9 727.359 1230.22ZM782.973 426.688C776.658 431.094 771.036 435.015 765.553 438.84C767.824 446.791 772.616 443.263 776.921 442.074C786.887 439.319 782.356 431.595 782.973 426.688ZM837.161 404.648C837.484 410.216 837.779 415.298 838.085 420.547C839.498 420.727 841.791 421.02 844.275 421.339C843.052 424.499 842.097 426.976 840.569 430.933C853.061 421.258 847.029 412.196 843.002 403.116C840.67 403.728 838.671 404.253 837.161 404.648ZM607.207 1266.6C610.311 1270.51 612.413 1273.15 615.855 1277.47C620.136 1268.86 623.768 1261.54 627.401 1254.23C626.607 1253.58 625.813 1252.93 625.018 1252.28C619.391 1256.81 613.767 1261.33 607.207 1266.6ZM749.318 486.289C748.417 494.082 747.169 499.685 747.269 505.261C747.421 513.727 750.595 516.037 757.454 515.103C756.99 512.034 756.531 508.984 756.071 505.934C757.979 506.039 759.89 506.142 763.671 506.348C758.615 499.283 754.317 493.279 749.318 486.289ZM748.287 1210.56C746.006 1217.95 746.06 1222.89 753.972 1224.66C763.362 1226.75 773.808 1220.33 778.938 1208.5C775.97 1206.79 772.955 1205.05 769.853 1203.26C765.481 1213.43 758.637 1216.25 748.287 1210.56ZM750.883 274.861C754.66 275.757 756.825 276.269 759.307 276.86C752.392 254.217 751.2 253.008 733.007 248.729C735.987 261.832 738.07 276.638 754.515 282.597C753.536 280.511 752.578 278.473 750.883 274.861ZM821.464 478.457C819.953 463.29 807.211 451.477 787.929 450.221C793.414 454.438 796.509 457.566 800.226 459.513C807.35 463.244 807.239 464.855 800.788 470.553C798.278 472.77 797.76 477.24 796.336 480.684C797.383 481.407 798.43 482.127 799.479 482.85C796.201 486.404 792.926 489.956 789.85 493.288C803.504 495.514 806.297 494.362 807.19 485.883C808.103 477.2 813.062 474.621 821.464 478.457ZM803.4 1277.69C807.802 1252.93 818.195 1236.12 843.141 1232.41C858.391 1230.14 862.265 1223.47 858.992 1211.73C847.526 1214.55 836.225 1217.65 824.779 1220.04C818.175 1221.42 811.199 1221.08 804.665 1222.66C801.786 1223.35 798.765 1226.42 797.254 1229.2C793.885 1235.39 791.428 1242.07 789.939 1245.48C794.758 1257.01 798.639 1266.3 803.4 1277.69Z" fill="#BAA989"/>
</g>
</svg>
